<svg width="1383" height="1369" viewBox="0 0 1383 1369" fill="none" xmlns="http://www.w3.org/2000/svg">
<path d="M861.48 1056.09C862.196 1056.01 863.232 1056.49 863.573 1056.16C876.135 1044.54 890.119 1034.57 905.191 1026.48C917.029 1019.76 929.111 1013.24 941.177 1006.85C944.028 1005.58 946.379 1003.4 947.865 1000.65C949.784 996.854 952.92 993.732 955.033 989.973C955.813 988.214 956.013 986.252 955.602 984.373C955.093 982.203 955.426 979.92 956.534 977.987C957.642 976.054 959.442 974.615 961.57 973.96C964.188 972.616 966.903 971.471 969.692 970.532C979.758 967.975 988.558 961.857 994.467 953.309C1001.12 943.69 1007.68 934.008 1014.15 924.264C1022.77 911.228 1026.95 896.38 1031.2 881.556C1032.07 878.512 1032.84 875.449 1033.65 872.381C1033.73 871.64 1033.95 870.921 1034.31 870.267C1034.67 869.613 1035.16 869.037 1035.74 868.571C1036.32 868.106 1036.99 867.76 1037.7 867.554C1038.42 867.348 1039.17 867.286 1039.91 867.372C1045.47 867.787 1050.97 868.811 1056.32 870.425C1062.73 872.827 1063.81 877.473 1060.18 883.309C1056.54 889.146 1053.16 894.478 1049.14 899.697C1045.11 904.916 1042.87 905.181 1036.68 901.172C1030.85 905.071 1026.41 910.722 1024 917.312C1022.92 919.906 1024.22 921.554 1026.57 922.477C1028.21 923.025 1029.97 923.109 1031.66 922.72C1033.35 922.33 1034.89 921.483 1036.13 920.27C1047.97 910.775 1057.36 898.571 1063.5 884.687C1064.13 883.347 1064.28 881.432 1065.27 880.714C1070.16 875.83 1073.79 869.822 1075.83 863.214C1077.18 859.671 1078.13 855.954 1079.57 850.726C1082.42 848.859 1085.39 847.157 1088.44 845.629C1100.88 840.014 1109.46 829.798 1118.61 820.369C1125.05 813.725 1130.36 805.952 1136.73 799.253C1139.48 796.293 1141.5 792.728 1142.63 788.845C1143.75 784.961 1143.95 780.868 1143.21 776.893C1142.58 770.815 1141.5 764.792 1139.97 758.876C1139.42 757.14 1139.31 755.293 1139.65 753.503C1139.99 751.713 1140.77 750.036 1141.92 748.624C1144.08 745.554 1145.79 742.126 1147.82 738.693C1144.36 736.131 1141.71 737.804 1139.28 738.345C1138.65 738.581 1137.98 738.686 1137.3 738.652C1136.63 738.618 1135.97 738.446 1135.37 738.147C1134.77 737.848 1134.23 737.428 1133.79 736.914C1133.36 736.399 1133.03 735.801 1132.84 735.155C1130.59 729.51 1128.34 723.864 1126.18 718.144C1133.08 711.827 1141.92 714.257 1149.62 711.543L1148.13 706.915C1152.71 706.372 1153.2 701.699 1155.86 699.676C1159.04 697.449 1161.71 694.58 1163.71 691.254C1165.55 687.874 1167.36 684.498 1169.38 680.719C1164.86 678.248 1159.58 677.585 1154.6 678.864C1147.95 680.316 1141.42 682.512 1134.9 684.548C1129.54 686.195 1124.29 688.302 1118.92 689.886C1114.37 691.215 1112.69 690.624 1111.42 686.538C1109.71 681.192 1108.4 675.723 1107.52 670.18C1106.71 664.964 1109.93 660.884 1112.23 656.628C1115.18 651.378 1114.65 650.366 1108.87 649.818C1101.7 659.424 1094.68 668.696 1087.8 678.079C1086.6 679.903 1085.6 681.844 1084.79 683.873C1083.42 686.722 1081.99 689.579 1080.86 692.558C1080.15 694.784 1078.69 696.7 1076.75 697.993C1074.8 699.286 1072.47 699.88 1070.15 699.676C1063.84 699.759 1057.59 700.372 1051.28 700.392C1044.8 700.431 1038.39 699.074 1032.47 696.414C1026.56 693.753 1021.29 689.852 1017.02 684.973C1012.66 680.694 1009.87 675.061 1009.13 668.994C1008.76 665.876 1009.76 664.208 1012.72 663.826C1019.46 662.649 1026.26 661.844 1033.08 661.415C1040.42 661.488 1047.74 662.036 1055.01 663.055C1056.03 663.169 1057.02 663.483 1057.91 663.978C1058.81 664.474 1059.61 665.142 1060.25 665.945C1061.49 667.947 1060.21 669.932 1058.12 671.476C1056.73 672.495 1056 674.351 1054.35 676.728C1064.53 673.088 1092.1 641.844 1094.52 631.568C1091.49 630.207 1088.32 629.193 1085.06 628.545C1078.76 627.862 1072.4 627.778 1066.08 628.295C1051.23 629.801 1036.45 631.993 1021.68 633.869C1019.74 634.173 1017.78 634.32 1015.82 634.309C1006.33 634.168 1001.87 627.456 1005.82 618.895C1006.44 617.756 1007.3 616.759 1008.33 615.968C1009.36 615.177 1010.55 614.608 1011.81 614.297C1021.35 612.187 1031.01 610.569 1040.68 609.013C1046.7 608.049 1052.8 607.579 1058.84 606.863C1060.51 606.611 1062.2 606.667 1063.85 607.029C1080.16 611.421 1094.81 606.81 1108.86 599.013C1123.91 591.215 1136.79 579.805 1146.36 565.803C1148.07 563.166 1150.43 561.211 1153.76 562.966C1154.4 563.191 1154.99 563.552 1155.48 564.026C1155.97 564.499 1156.35 565.073 1156.6 565.708C1156.84 566.343 1156.95 567.024 1156.91 567.704C1156.86 568.384 1156.68 569.047 1156.35 569.646C1155.93 570.795 1155.27 571.843 1154.41 572.721C1148.67 577.543 1148.06 583.875 1148.77 590.714C1149.72 598.727 1150.67 606.74 1151.18 614.773C1151.6 621.837 1151.4 628.911 1151.42 635.991C1151.5 636.677 1151.34 637.739 1150.87 638.047C1146.8 640.996 1145.46 645.675 1142.76 649.567C1141.31 651.762 1139.36 653.131 1139.73 656.249C1139.86 657.372 1138.76 658.704 1138.04 659.832C1137.32 660.961 1135.84 661.831 1136.01 662.475C1137.12 666.992 1133.15 667.367 1130.47 669.043C1130.74 669.858 1131.18 670.607 1131.77 671.238C1132.35 671.869 1133.06 672.369 1133.85 672.703C1134.64 673.038 1135.49 673.199 1136.35 673.177C1137.21 673.155 1138.05 672.95 1138.82 672.576C1143.39 670.978 1147.62 668.536 1151.3 665.376C1158.97 657.86 1165.88 649.549 1173.15 641.606C1176.17 638.024 1177.96 633.568 1178.27 628.891C1180.81 613.514 1181.33 597.872 1179.81 582.361C1179.86 581.076 1180.12 579.808 1180.56 578.604C1182.04 578.497 1183.53 578.544 1185 578.742C1204.93 584.097 1224.81 589.552 1245.83 595.283C1240.46 599.524 1236.17 603.066 1231.71 606.44C1212.77 620.827 1197 638.979 1185.4 659.757C1179.26 671.461 1174.2 683.701 1170.28 696.325C1166.01 708.528 1162.76 721.117 1159.37 733.595C1157.78 739.379 1156.88 745.366 1155.68 751.23L1157.26 751.739C1158.77 747.988 1160.32 744.294 1161.78 740.55C1163.6 735.94 1167.7 731.944 1165.52 726.291C1168.87 710.876 1173.28 696.033 1184.97 684.405C1193.12 676.359 1200.2 667.079 1208.89 659.695C1220.88 648.846 1234.51 639.956 1249.27 633.353C1256.46 630.351 1263.59 627.135 1270.69 623.861C1279.93 619.284 1288.3 613.148 1295.45 605.722C1298.19 602.99 1299.98 599.455 1300.57 595.631C1301.36 590.566 1302.91 585.65 1305.17 581.05C1307.98 574.394 1305.33 569.618 1298.2 567.269C1294.29 565.993 1290.68 563.796 1286.9 562.283C1272.65 556.067 1257.45 553.599 1242.19 550.947C1220.9 547.23 1200.49 539.568 1182.01 528.354C1175.92 524.681 1171.37 518.517 1166.23 513.307C1165.41 512.457 1165.44 510.588 1165.33 509.146C1164.98 504.066 1164.76 499.002 1164.47 493.914C1163.25 493.436 1161.9 493.43 1160.68 493.896C1159.45 494.363 1158.45 495.268 1157.86 496.437C1152.13 504.861 1146.6 513.419 1141.01 521.953C1140.5 522.779 1140.14 523.689 1139.94 524.641C1138.19 534.916 1138.89 545.461 1142 555.411C1137.36 559.843 1132.48 564.01 1127.37 567.892C1120.65 572.691 1112.57 575.212 1104.31 575.087C1096.05 574.961 1088.04 572.196 1081.46 567.195C1071.87 560.796 1063.71 552.47 1057.5 542.747C1054.85 538.974 1053.4 534.481 1053.36 529.865C1053.87 529.362 1054.23 528.749 1054.55 528.744C1069.42 529.512 1084.01 525.255 1098.77 526.069C1110.27 526.699 1118.19 523.137 1124.1 513.048C1128.6 506.359 1133.51 499.95 1138.79 493.857C1139.76 492.269 1140.62 490.614 1141.36 488.905C1130.68 487.292 1120.49 491.376 1109.74 488.57C1111.22 486.181 1112.4 484.336 1113.45 482.598C1120.19 472.315 1127.1 462.392 1133.79 452.179C1135.18 449.873 1136.29 447.406 1137.09 444.832C1139.42 437.854 1135.72 433.265 1128.65 434.924C1123.48 436.408 1118.42 438.286 1113.53 440.541C1110.52 441.782 1107.54 443.367 1102.75 445.578C1103.9 440.89 1104.43 437.634 1105.49 434.568C1108.71 426.009 1109.56 416.743 1107.97 407.737C1106.39 398.732 1102.41 390.319 1096.46 383.377C1084.71 368.96 1066.1 360.857 1046.6 367.15C1044.47 367.742 1042.4 368.505 1040.39 369.433C1039.73 369.862 1038.99 370.151 1038.22 370.283C1037.44 370.414 1036.64 370.385 1035.88 370.197C1035.11 370.009 1034.4 369.666 1033.77 369.19C1033.14 368.714 1032.62 368.115 1032.23 367.428C1027.04 360.929 1021.45 354.794 1016.08 348.442C1007.42 338.78 997.057 330.801 985.505 324.905C973.075 318.093 960.776 311.045 948.29 304.019C945.755 302.612 942.626 301.528 943.066 297.776C939.405 297.854 935.776 297.086 932.459 295.532C929.142 293.979 926.227 291.681 923.94 288.818C919.089 283.672 915.428 277.521 913.216 270.802C908.865 269.262 907.135 272.786 905.022 275.218C904.163 276.068 903.589 277.165 903.379 278.357C903.169 279.548 903.334 280.776 903.852 281.869C904.436 284.646 904.677 287.485 904.568 290.321C901.118 290.401 897.698 290.977 894.411 292.029C891.531 293.985 888.938 296.335 886.71 299.011C885.343 296.802 884.364 295.464 883.622 294.002C879.448 285.423 868.408 283.41 861.485 284.42C860.503 284.761 859.6 285.298 858.831 285.998C858.062 286.697 857.442 287.545 857.008 288.491C852.446 297.44 848.183 306.513 843.818 315.534C843.165 316.839 842.639 318.203 842.248 319.609C840.82 325.69 843.062 328.08 849.083 326.925C859.772 324.901 862.287 326.405 865.341 336.729C865.975 338.586 866.291 340.537 866.277 342.499C865.832 348.875 865.355 355.254 864.413 361.436C863.238 369.384 859.509 371.501 851.366 371.011C843.721 370.462 837.431 374.685 830.978 378.073C827.978 380.101 824.673 381.634 821.188 382.615C802.79 385.141 784.513 385.218 767.546 376.098C763.273 373.763 759.353 370.831 755.904 367.391C753.652 365.268 752.018 362.573 751.176 359.594C750.334 356.615 750.315 353.463 751.121 350.474C752.995 340.606 756.687 331.174 762.009 322.66C762.928 320.938 764.347 319.535 766.079 318.636C767.81 317.737 769.773 317.384 771.709 317.622C781.63 318.724 791.59 319.884 801.569 320.41C805.672 320.652 807.126 323.862 809.854 326.1C810.77 325.834 812.034 325.842 812.54 325.308C815.692 321.52 819.895 321.275 824.413 321.025C830.515 320.808 830.643 320.287 832.262 313.962C832.706 312.914 833.316 311.945 834.07 311.093C834.954 309.755 835.845 308.48 837.436 306.173L825.785 304.865C830.875 300.374 838.758 305.605 841.736 297.95C838.744 297.482 836.035 297.012 832.561 296.475C836.054 291.035 844.002 296.543 846.401 289.335C842.326 289.059 838.573 288.84 834.63 288.611C829.333 278.015 824.072 267.73 833.592 256.106L831.622 255.739L821.426 269.118L749.373 220.741L744.793 223.402L727.856 203.592C728.084 204.83 728.066 206.1 727.803 207.33C727.541 208.56 727.038 209.727 726.325 210.763C725.612 211.798 724.702 212.683 723.646 213.367C722.591 214.05 721.412 214.518 720.176 214.745C712.935 206.94 716.982 195.237 728.246 190.078C729.6 182.045 731.171 174.24 732.097 166.321C732.634 162.053 731.038 157.373 732.266 153.339C733.493 149.305 736.853 146.473 739.038 143.053C740.297 140.746 741.397 138.355 742.328 135.897C738.485 135.979 734.777 137.333 731.783 139.746C728.79 142.159 726.678 145.497 725.779 149.238C706.615 149.84 687.47 147.523 669 142.366C659.587 139.898 649.886 138.707 640.156 138.826C633.848 138.546 627.603 137.447 621.577 135.556C614.485 133.803 607.544 131.464 600.562 129.318C594.89 127.556 592.765 128.281 589.656 133.234C588.49 134.805 587.472 136.481 586.617 138.241C583.605 145.616 578.34 148.358 570.263 148.966C548.547 150.85 526.671 148.512 505.84 142.083C498.213 139.824 490.587 137.028 483.073 134.124C479.19 132.903 475.744 130.578 473.156 127.432C470.569 124.286 468.951 120.455 468.5 116.406C467.814 110.606 467.127 104.807 466.199 99.0999C465.482 96.5173 464.498 94.0165 463.262 91.6386C461.369 92.7164 459.939 94.2451 459.054 93.9705C452.503 91.9955 449.219 95.7356 445.764 100.16C440.915 106.425 435.718 112.415 430.73 118.57C430.184 119.456 429.755 120.41 429.456 121.408C433.822 123.61 440.259 123.29 439.819 131.31C438.022 130.542 436.714 130.16 435.563 129.506C429.034 125.852 423.019 121.19 415.431 119.527C414.948 119.412 414.499 119.184 414.121 118.861C411.792 116.623 408.95 114.993 405.844 114.115C402.738 113.236 399.464 113.136 396.311 113.824C392.241 114.654 390.801 111.03 390.743 107.338C389.372 107.501 388.438 107.611 388 107.916C382.55 113.367 375.199 115.565 368.721 119.272C358.987 124.819 351.942 133.336 344.275 141.136C334.321 151.23 324.598 161.676 315.16 172.12C310.102 177.683 305.434 183.61 300.593 189.4C299.786 190.317 299.248 191.646 298.272 192.204C287.697 198.388 282.738 209.851 273.845 217.701C272.957 218.47 271.728 219.564 271.691 220.58C271.215 229.362 265.412 235.835 261.902 243.269C258.392 250.704 258.493 253.158 266.154 257.309C271.927 260.451 278.16 262.685 284.721 265.544C284.144 267.023 283.363 268.414 282.399 269.676C272.19 279.484 265.751 291.786 259.305 304.026C255.137 312.044 251.242 320.219 247.14 328.261C244.737 333.035 244.833 333.845 249.419 336.306C253.265 338.38 257.187 340.287 262.057 342.745C260.692 344.551 259.338 346.45 257.981 348.065C254.605 351.087 251.466 354.365 248.593 357.871C246.831 360.848 245.862 364.229 245.776 367.689C245.181 381.413 247.234 395.125 251.821 408.073C252.692 409.993 254.09 411.626 255.853 412.781C270.042 423.526 286.535 429.983 302.355 437.689C306.012 439.501 309.618 441.413 313.247 443.26L312.816 444.955C307.735 444.45 302.61 444.109 297.537 443.413C288.168 441.66 278.603 441.207 269.111 442.068C263.816 442.695 261.88 441.817 256.408 436.68C255.835 438.432 255.478 440.247 255.343 442.086C255.183 446.036 253.583 449.791 250.844 452.64C248.752 455.512 245.487 457.543 245.41 461.693C245.284 462.159 245.053 462.588 244.734 462.95C244.415 463.311 244.018 463.594 243.572 463.776C238.06 465.504 236.898 470.89 232.859 475.193C243.935 480.711 256.033 477.255 267.009 481.931C263.734 485.48 260.708 489 257.433 492.549C256.57 493.375 255.896 494.378 255.455 495.488C255.014 496.599 254.818 497.792 254.879 498.985C254.834 503.597 254.32 508.192 253.344 512.698C252.742 515.615 253.138 517.623 255.64 518.75C260.912 521.308 266.231 523.735 271.598 526.029C276.021 527.908 280.539 529.523 285.433 531.378C282.55 536.367 279.94 540.469 277.784 544.93C275.634 549.273 273.705 553.722 272.003 558.26C268.945 566.305 273.971 572.476 280.101 575.702C289.755 581.086 300.531 584.14 311.572 584.622C313.745 584.849 315.901 585.228 318.022 585.755C316.875 587.535 316.119 588.889 315.377 590.083C306.69 601.545 297.837 612.932 289.29 624.503C285.291 629.94 285.818 630.921 291.86 634.474C304.693 642.028 318.489 643.05 332.927 641.214C349.652 639.234 366.397 637.41 383.175 635.613C384.691 635.689 386.196 635.902 387.673 636.25C385.741 638.344 384.366 639.803 382.913 641.398C381.93 642.431 380.366 643.091 379.782 644.298C375.537 652.051 369.323 658.546 361.766 663.124C357.565 666.056 357.809 670.516 357.157 675.146L371.668 662.995L372.864 664.023L358.498 687.539L354.559 686.013L356.753 692.266C346.67 687.137 339.661 679.684 330.15 676.447C347.975 693.622 370.889 702.828 391.353 716.149L388.157 711.027C407.975 715.699 425.417 723.498 444.188 725.986L435.67 731.136C433.171 730.097 430.609 729.218 427.999 728.504C426.388 728.333 424.76 728.526 423.234 729.068C420.167 729.842 417.364 730.711 414.444 731.658C412.62 732.253 410.81 732.973 409.001 733.693C407.671 734.198 406.243 735.474 405.018 735.271C398.582 734.263 393.081 737.412 387.075 737.902C380.131 738.471 373.083 738.167 366.088 738.3C362.939 738.229 359.789 738.348 356.655 738.658C347.291 740.041 337.805 740.412 328.361 739.763C326.651 739.639 324.932 739.736 323.247 740.052C316.867 741.445 310.202 740.581 304.387 737.606C298.265 739.248 292.879 740.708 287.548 742.098C287.073 742.265 286.552 742.248 286.089 742.049C280.263 738.186 274.085 741.226 268.082 741.209C255.793 741.542 243.847 737.126 234.723 728.877C230.925 725.343 228.017 725.593 223.852 729.089C223.243 729.494 222.705 729.995 222.259 730.574C218.597 737.52 212.5 736.44 206.441 735.419C203.604 734.933 200.787 734.349 197.978 733.828C195.976 726.794 196.749 722.118 201.708 711.983C197.532 711.655 195.552 714.672 193.382 716.889C191.213 719.106 189.085 722.203 185.052 722.017C184.335 722.102 182.925 722.996 182.898 723.568C182.768 728.073 178.457 728.741 176.196 728.851C171.896 729.076 167.007 731.267 163.017 727.44L163.154 727.265C161.637 730.986 164.88 731.171 166.874 732.01C168.869 732.849 171.596 733.474 174.772 734.426C169.682 738.701 163.249 741.041 156.605 741.035C142.284 741.719 128.624 737.582 114.781 734.573C113.873 734.258 113.037 733.764 112.321 733.122C111.605 732.479 111.024 731.7 110.611 730.831C108.745 726.865 107.202 722.755 105.998 718.541C104.655 713.863 103.923 709.017 102.763 704.286C101.724 700.046 102.755 695.687 100.527 691.272C98.5522 687.396 98.8262 682.242 98.5327 677.629C98.0897 672.069 97.9773 666.487 98.1959 660.913C98.4769 655.284 98.4231 654.563 92.4803 651.852C88.444 664.976 78.5673 679.456 71.6747 682.327C72.2215 683.21 73.3791 684.717 73.2069 684.864C66.3925 691.33 68.0105 699.928 68.6584 707.534C69.9341 722.843 72.4281 738.039 74.8562 753.211C75.3745 754.886 75.4446 756.667 75.0596 758.377C74.6745 760.087 73.8478 761.666 72.6621 762.956C82.5854 768.61 83.5074 779.598 88.5462 788.012C93.3187 796.817 97.5583 805.901 101.242 815.215C104.111 821.578 104.095 821.706 99.2288 826.487C94.1983 830.953 90.3426 836.588 88.0016 842.897C93.1719 842.285 97.7816 841.739 102.362 840.944C104.441 840.507 106.482 839.906 108.466 839.147C112.891 837.579 115.786 839.355 118.382 842.873C123.534 850.091 127.234 858.243 129.277 866.875C132.889 879.6 136.029 892.422 138.696 905.343C139.728 910.347 139.899 915.491 139.202 920.553C137.718 932.199 135.597 943.754 132.846 955.166C130.88 960.931 128.002 966.342 124.321 971.193C121.001 976.233 116.895 980.766 112.169 986.732L120.132 986.232C120.849 988.718 121.228 991.289 121.258 993.876C120.524 1001.01 119.246 1008.09 118.213 1015.1C121.556 1016.67 122.916 1014.55 124.016 1012.9C129.998 1003.4 135.913 993.88 141.627 984.256C142.564 982.581 142.881 980.629 142.522 978.744C139.903 968.621 144.874 960.729 149.818 952.872C152.283 948.932 155.001 945.156 157.955 941.57C163.472 934.815 168.974 927.936 175.091 921.71C181.608 914.813 188.604 908.386 196.027 902.475C213.124 889.862 231.82 879.579 251.625 871.896C268.28 865.056 285.384 859.331 301.6 851.183C314.889 845.029 328.482 839.557 342.328 834.79C353.387 830.366 364.128 825.186 374.476 819.286C379.965 816.296 385.893 814.077 391.862 811.41L389.549 811.083C394.537 807.331 398.935 803.933 403.372 800.594C405.087 799.611 406.634 798.36 407.955 796.89C409.928 793.811 410.72 789.828 413.129 787.235C415.538 784.642 420.23 783.992 421.038 779.344C421.182 778.88 421.418 778.451 421.733 778.083C422.048 777.714 422.434 777.413 422.868 777.198C431.532 773.011 440.455 770.216 450.221 772.411C451.13 772.619 452.365 772.915 452.824 773.588C456.057 778.485 460.706 777.208 465.268 776.794C467.76 776.499 470.311 776.703 473.054 776.663C472.751 779.72 471.531 782.613 469.554 784.963C467.578 787.313 464.937 789.01 461.98 789.83C448.287 795.023 434.8 800.351 420.995 805.653C413.668 808.322 406.195 810.567 399.021 813.724C389.076 817.956 380.555 824.956 374.468 833.893C361.114 852.61 347.283 871.035 333.655 889.31C329.757 895.205 326.731 901.633 324.671 908.395C324.402 909.059 324.119 910.136 324.413 910.48C329.005 915.659 326.384 923.399 332.139 928.788C337.893 934.177 336.219 941.109 331.738 947.805C326.819 955.342 322.345 963.175 317.872 971.008C316.835 973.091 316.307 975.391 316.33 977.718C316.353 980.046 316.927 982.335 318.004 984.397C323.107 996.819 332.789 1002.56 345.646 1004.46C353.618 1005.63 361.553 1007.03 369.512 1008.37C370.643 1008.58 371.726 1008.93 373.252 1009.28C373.075 1010.58 372.715 1011.85 372.182 1013.04C368.664 1018.01 365.116 1022.99 361.292 1027.77C357.469 1032.55 352.656 1033.25 347.623 1034.23C346.101 1034.45 344.643 1034.99 343.347 1035.82C342.051 1036.65 340.946 1037.75 340.107 1039.04C336.204 1045.28 331.223 1050.96 329.178 1059.3C337.162 1057.91 344.656 1056.64 353.321 1055.14C350.45 1057.57 348.226 1059.32 346.032 1061.07C346.349 1061.34 346.692 1061.84 346.941 1061.81C355.53 1060.19 355.354 1060.31 360.249 1067.51C366.531 1076.82 373.161 1085.87 379.556 1095.07C383.365 1100.56 383.171 1102.92 379.302 1108.12C374.403 1114.18 369.881 1120.53 365.763 1127.15C362.182 1134.05 359.135 1141.22 356.647 1148.59C352.958 1158.51 348.428 1168.53 346.705 1178.79C345.463 1186.17 345.358 1194.09 350.943 1201.77C359.631 1214.03 370.106 1224.9 382.019 1234.04C383.565 1235.16 385.193 1236.16 386.89 1237.04C390.812 1238.87 394.004 1241.96 395.953 1245.83C397.135 1248.05 398.873 1249.93 400.998 1251.27C403.124 1252.62 405.562 1253.39 408.074 1253.51C410.586 1253.62 413.085 1253.08 415.325 1251.94C417.566 1250.8 419.47 1249.09 420.852 1246.99C423.531 1242.94 426.947 1239.25 430.548 1234.71C431.458 1237.07 432.167 1238.79 432.755 1240.55C433.685 1243.61 433.608 1247.76 435.63 1249.1C438.38 1250.99 438.685 1254.36 441.026 1255.73C445.228 1258.14 449.878 1259.8 454.382 1261.83C457.454 1263.24 460.475 1264.75 463.993 1266.45L465.277 1259.69C472.592 1255.31 479.808 1251.17 486.858 1246.7C488.341 1245.48 489.51 1243.92 490.268 1242.15C491.264 1240.23 492.681 1238.56 494.414 1237.26C496.147 1235.96 498.15 1235.06 500.275 1234.65C512.342 1231.73 524.132 1227.81 536.074 1224.37C540.261 1223.02 544.535 1221.95 548.866 1221.18C550.42 1221.02 551.904 1220.45 553.165 1219.53C554.427 1218.61 555.421 1217.37 556.046 1215.93C559.762 1209.17 563.94 1202.58 568.283 1195.52C565.518 1194.23 562.488 1193.63 559.443 1193.75C556.398 1193.88 553.427 1194.73 550.776 1196.23C540.705 1201.6 529.69 1204.86 520.443 1212.12C518.936 1212.93 517.331 1213.55 515.669 1213.95C510.344 1216.19 504.68 1217.43 499.69 1220.9C491.523 1226.61 481.951 1225.53 472.816 1223.86C464.457 1222.35 457.234 1209.9 459.104 1201.68C460.221 1196.71 464.828 1195.34 468.301 1194.27C481.988 1189.83 495.727 1185.83 509.835 1182.55C517.336 1180.81 522.423 1177.9 525.444 1170.33C527.012 1165.33 529.714 1160.76 533.337 1156.97C536.471 1154.1 535.371 1150.41 531.374 1146.27C512.531 1148.5 494.054 1151.16 475.222 1152.16C466.435 1152.63 457.463 1149.67 448.564 1148.14C446.275 1147.74 443.304 1145.6 442.039 1146.38C438.941 1148.26 436.335 1150.86 434.439 1153.95C430.828 1159.88 427.525 1165.99 424.542 1172.26C422.804 1176.26 421.275 1180.34 419.959 1184.5C431.817 1189.42 444.235 1190 456.268 1191.86C455.209 1202.39 452.757 1206.22 440.82 1216.11L438.352 1211.53L429.18 1218.63C422.618 1214.69 416.452 1210.36 409.762 1207.2C397.509 1201.35 390.73 1189.44 380.12 1181.72C372.069 1175.88 370.908 1165.8 371.345 1156.42C371.743 1149.13 373.008 1141.91 375.116 1134.92C377.831 1125.84 381.726 1117.13 385.182 1108.44C385.83 1107.21 386.615 1106.05 387.523 1105C403.02 1115.59 407.603 1132.15 412.994 1149.41C417.182 1145.31 420.789 1142.16 423.846 1138.64C428.054 1133.87 431.898 1128.8 435.346 1123.46C437.138 1120.55 437.91 1117.12 437.54 1113.72C436.548 1106.94 436.948 1099.12 429.063 1095.47C428.527 1095.21 428.226 1094.27 427.958 1093.6L420.571 1075.23C429.858 1065.37 443.109 1061.52 455.712 1056.46L457.167 1057.55C456.6 1059.7 455.786 1061.78 454.743 1063.75C450.941 1068.89 449.227 1075.29 449.945 1081.64C449.796 1085.03 449.437 1088.41 448.869 1091.76C448.691 1096.79 449.808 1101.79 452.114 1106.27C454.419 1110.74 457.835 1114.55 462.034 1117.33C466.824 1120.69 471.926 1123.58 477.268 1125.96C480.24 1126.83 483.323 1127.25 486.418 1127.21C491.736 1127.85 497.023 1128.49 502.438 1129.14C521.396 1131.61 537.294 1125.84 549 1110.54C559.934 1096.19 570.195 1081.22 576.707 1064.2C578.249 1058.86 579.24 1053.37 579.663 1047.82C579.948 1045.95 579.878 1044.03 579.99 1041.78C581.289 1041.59 582.601 1041.52 583.913 1041.56C600.904 1043.69 617.482 1041 633.998 1037.78C642.607 1036.07 651.272 1034.57 659.973 1033.1C661.887 1032.85 663.831 1033.04 665.661 1033.66C657.146 1039.63 648.97 1046.06 638.866 1047.42L581.012 1102.96L582.49 1108.5C583.424 1108.39 584.341 1108.66 584.795 1108.23C590.167 1103.41 595.881 1098.98 601.892 1094.98C610.591 1090.03 619.305 1084.67 630.587 1087.13C640.831 1089.33 651.247 1090.63 661.716 1091.03C672.151 1091.41 682.617 1090.17 693.354 1089.62C693.857 1090.84 694.054 1092.15 693.928 1093.46C693.801 1094.76 693.355 1096.02 692.629 1097.11C689.896 1102.84 687.296 1108.62 685.219 1114.55C684.469 1116.85 684.357 1119.31 684.894 1121.67C685.864 1126.39 687.434 1130.86 688.699 1135.67C689.193 1137.45 689.442 1139.28 690.007 1142.19C683.876 1139.75 678.928 1137.17 673.754 1135.35C658.207 1129.95 642.184 1129.86 625.964 1131.84C616.059 1133.02 606.153 1134.44 596.21 1135.56C590.448 1136.24 584.634 1136.48 578.842 1136.92C573.051 1137.35 567.662 1137.99 563.804 1143.28C562.937 1144.49 561.105 1145.02 558.774 1146.41C559.936 1139.15 564.341 1134.74 567.113 1129.61C569.884 1124.48 573.655 1119.51 577.214 1114.09C575.626 1113.6 573.92 1113.67 572.374 1114.28C570.828 1114.89 569.534 1116 568.704 1117.44C562.07 1127.3 554.507 1136.51 547.536 1146.19C544.734 1150.18 542.2 1154.36 539.951 1158.69C538.078 1162.07 539.023 1163.92 542.749 1165.25C545.253 1166.12 547.737 1167.09 550.193 1168.1C554.027 1169.58 558.147 1170.17 562.242 1169.83C572.88 1169.87 583.504 1169.08 594.018 1167.46C606.64 1170.84 619.644 1166.23 632.132 1169.27C635.609 1170.09 639.069 1171.04 643.268 1172.1C633.941 1186.95 620.4 1196.62 609.761 1209.2L612.545 1214.84C621.219 1207.97 630.848 1202.4 641.128 1198.31C643.843 1197.22 646.47 1195.93 649.142 1194.76C655.446 1191.99 661.986 1189.61 668.044 1186.36C673.063 1183.54 677.914 1180.43 682.576 1177.05C689.399 1172.26 693.202 1165.17 697.141 1158.16C698.726 1155.39 700.525 1152.74 702.522 1150.25C703.589 1148.86 705.267 1146.77 706.557 1146.99C707.418 1147.29 708.195 1147.78 708.822 1148.44C709.45 1149.1 709.91 1149.9 710.163 1150.77C710.822 1153.52 712.064 1156.1 713.805 1158.34C715.546 1160.57 717.745 1162.4 720.254 1163.71C728.109 1168.44 735.738 1173.92 745.626 1174.2C751.169 1174.34 756.654 1175.58 762.194 1176.23C766.517 1176.73 767.951 1178.71 765.725 1182.57C761.458 1189.75 760.153 1197.93 757.376 1205.69C755.983 1210.57 754.05 1215.27 751.615 1219.72C745.551 1229.32 750.796 1237.08 761.269 1240.7C761.729 1240.88 762.221 1240.96 762.713 1240.93C763.205 1240.91 763.686 1240.78 764.126 1240.56C768.384 1236.51 774.156 1238.58 778.852 1236.63C781.798 1235.47 784.539 1233.84 786.967 1231.81C793.324 1226.29 799.392 1220.45 805.424 1214.58C807.041 1213.03 807.907 1210.74 809.412 1209.05C810.915 1207.5 812.516 1206.06 814.205 1204.72C812.803 1203.88 811.145 1203.59 809.541 1203.89C807.937 1204.19 806.498 1205.06 805.492 1206.35C804.505 1207.35 803.602 1209.32 802.688 1209.34C794.999 1209.49 787.513 1212.68 779.633 1210.68C777.619 1210.2 775.795 1209.13 774.393 1207.6C772.992 1206.08 772.077 1204.17 771.766 1202.12C771.357 1198.77 771.273 1195.38 771.516 1192C771.801 1190.1 771.785 1188.16 771.467 1186.26C768.233 1177.88 773.727 1172.27 781.341 1168.55C785.703 1166.45 790.393 1164.98 794.625 1162.58C805.508 1156.33 814.143 1147.37 822.96 1138.62C829.442 1132.04 833.601 1123.52 834.806 1114.36C830.612 1117.35 826.237 1120.14 822.198 1123.37C814.565 1130.53 805.184 1135.55 794.999 1137.92C784.813 1140.3 774.182 1139.95 764.172 1136.91C761.034 1135.75 758.03 1134.25 755.21 1132.44C759.096 1130.05 761.861 1128.34 764.661 1126.64C767.462 1124.95 771.068 1123.14 774.112 1121.1C779.723 1117.27 782.108 1111.02 785.776 1105.71C786.849 1104.1 787.704 1102.35 788.318 1100.51C788.765 1098.79 789.043 1097.03 789.149 1095.26C786.89 1094.77 784.555 1094.77 782.294 1095.25C778.501 1097.22 774.826 1099.4 771.29 1101.8C759.985 1108.78 746.592 1111.58 733.44 1109.7C722.183 1108.25 715.031 1101.19 709.286 1092.42C706.793 1088.7 707.925 1086.25 712.595 1084.88C718.942 1083.09 725.38 1081.63 731.88 1080.51C738.442 1079.39 743.839 1077.48 746.746 1070.56C749.306 1065.56 752.219 1060.74 755.463 1056.16C757.311 1053.09 759.472 1052.14 762.739 1054.12C764.927 1055.2 767.036 1056.43 769.049 1057.8C773.236 1061.42 778.414 1061.94 783.377 1062.78C806.251 1066.58 827.898 1061.62 848.996 1053.08C853.858 1051.44 858.812 1050.08 863.832 1049.02L861.693 1056.29L861.48 1056.09ZM512.615 784.024L508.013 780.902C513.947 779.668 520.044 779.427 526.057 780.188C529.501 781.266 535.001 793.04 533.556 796.309C533.321 796.722 533.037 797.106 532.712 797.452C520.21 813.76 503.493 820.355 483.349 818.536C481.005 818.501 478.706 817.88 476.662 816.731C474.618 815.582 472.892 813.94 471.642 811.955C472.791 810.879 474 809.871 475.264 808.933C485.565 802.436 495.203 794.941 504.04 786.557C505.907 784.723 509.711 784.842 512.653 784.083L512.615 784.024ZM563.475 454.417C561.618 457.135 559.83 459.907 557.837 462.546C555.26 465.855 552.512 469.057 549.351 473.036C586.181 473.069 605.308 474.567 612.56 478.198L576.312 498.55C575.998 495.9 574.912 494.195 577.409 491.813C580.494 488.132 583.197 484.147 585.476 479.919C581.255 479.237 576.99 478.876 572.715 478.837C556.888 480.142 541.108 482.105 525.259 483.223C504.339 484.72 483.387 485.683 462.512 486.763C459.311 486.707 456.116 486.452 452.947 485.999L459.659 478.407C454.554 477.968 454.376 477.799 451.048 481.703C450.016 483.092 448.656 484.205 447.09 484.942C445.525 485.679 443.801 486.017 442.074 485.927C434.999 485.658 427.911 485.549 420.858 484.929C417.159 484.82 413.562 483.693 410.46 481.674C407.357 479.655 404.869 476.82 403.269 473.481L415.283 456.25C416.516 456.117 417.757 456.076 418.995 456.127C434.904 457.12 450.61 458.264 466.439 459.109C472.51 459.434 478.606 459.439 484.669 459.164C497.581 458.583 510.48 457.625 523.377 456.92C536.274 456.215 550.151 455.521 563.558 454.85C563.99 450.499 558.923 453.85 558.033 450.066L568.69 451.777C568.546 450.561 567.976 448.952 568.553 448.22C572.735 442.73 577.2 437.491 581.448 432.024C582.881 429.904 584.203 427.711 585.407 425.453C583.884 424.59 583.242 423.971 582.643 423.979C566.522 424.222 550.428 424.515 534.362 424.858C533.413 424.982 532.545 425.457 531.929 426.189C529.823 428.936 526.867 428.78 523.926 428.749C520.261 428.74 516.579 429.113 512.967 428.75C509.355 428.388 504.94 429.511 500.696 426.473C504.766 423.24 508.19 420.147 511.96 417.583C525.757 408.203 535.76 395.321 545.097 381.886C548.878 376.475 547.798 373.757 541.498 372.827C530.44 371.196 519.274 369.989 508.18 368.584C506.128 368.321 504.11 368.086 500.872 367.679L532.862 337.239C536.413 340.549 540.237 343.511 543.484 346.92C546.73 350.33 543.897 354.143 543.319 358.069C545.569 359.209 547.901 360.18 550.296 360.973C553.473 361.528 556.681 361.898 559.902 362.081L553.455 367.649C560.824 373.606 566.449 379.769 573.421 383.433C582.743 388.211 592.549 391.979 602.671 394.671C618.434 398.969 634.532 402.09 650.475 405.767C652.345 406.328 654.177 407.008 655.959 407.805C653.152 409.794 650.031 411.296 646.726 412.25C633.284 416.623 619.841 420.986 606.396 425.339C605.008 425.815 603.662 426.408 602.374 427.112C589.992 433.763 577.458 440.21 568.515 451.639L563.475 454.417ZM892.686 714.933C897.711 713.358 901.29 712.112 904.868 711.119C916.306 707.963 928.026 710.116 939.613 709.282C952.803 708.571 966.012 710.32 978.565 714.439C985.127 716.508 991.784 719.387 995.942 726.229C994.998 727.367 993.987 728.448 992.915 729.465C987.465 734.05 981.103 737.423 974.252 739.357C971.577 740.218 969.187 741.791 967.337 743.907C962.381 748.73 957.849 754.736 949.786 755.722C944.491 756.349 941.561 760.68 939.025 764.869C936.017 769.872 933.311 775.03 930.508 780.167L924.611 791.172L925.738 792.43C936.752 789.956 946.699 782.74 958.61 783.574C956.863 785.601 954.84 787.373 952.601 788.838C936.801 799.435 920.923 809.914 905.096 820.545C892.056 829.226 880.416 839.848 870.578 852.043C865.087 859.016 859.26 865.555 854.057 872.557C849.906 878.041 846.092 883.772 842.634 889.718C841.028 892.17 840.264 895.079 840.457 898.006C841.627 904.949 836.495 909.888 835.456 916.05C835.294 917.081 832.867 918.19 831.379 918.429C826.551 919.001 821.692 919.576 816.804 919.902C803.654 921.143 790.527 922.571 777.386 923.621C770.886 924.392 764.302 924.104 757.893 922.767C758.408 922.042 758.503 921.778 758.686 921.725C779.92 914.342 801.161 907.021 822.373 899.451C825.123 898.557 827.524 896.825 829.24 894.497C835.087 885.458 840.426 876.132 845.83 866.829C846.62 864.863 847.183 862.813 847.507 860.718C840.801 863.03 835.311 864.407 830.402 866.696C817.284 872.738 804.553 879.652 790.616 883.578C777.287 887.306 763.68 888.949 750.139 885.019C738.924 881.794 737.297 874.716 743.748 865.447C750.19 855.758 759.7 848.519 770.75 844.893C778.185 842.522 785.812 840.805 793.545 839.76C797.415 839.51 801.133 838.16 804.263 835.868C807.393 833.577 809.805 830.439 811.216 826.824C812.322 824.163 814.438 823.628 816.3 825.747C821.144 831.181 827.637 832.404 834.23 832.603C840.822 832.803 847.88 831.588 854.702 831.855C864.226 832.277 871.363 827.195 878.288 821.664C879.852 820.48 881.312 819.165 882.655 817.733C893.424 805.456 904.053 793.069 914.954 780.839C918.689 776.545 920.651 770.989 920.442 765.298C920.355 750.165 914.656 736.707 906.118 724.345C905.732 723.762 905.228 723.267 904.64 722.89C904.051 722.513 903.391 722.264 902.701 722.157C898.228 722.528 896.8 718.999 892.686 714.933V714.933ZM646.355 782.037C651.8 781.076 655.847 780.312 659.905 779.642C665.135 778.867 670.475 779.833 675.104 782.393C679.733 784.952 683.393 788.963 685.522 793.808C689.266 803.493 689.413 814.201 685.937 823.983C685.015 825.786 683.878 827.471 682.551 829C678.013 823.214 672.332 822.717 666.324 822.385C659.222 822.136 652.139 823.254 645.458 825.678C630.067 830.662 615.983 837.609 607.589 852.609C604.648 857.256 601.469 861.748 598.065 866.066C595.67 864.492 593.36 862.792 591.145 860.973C582.064 852.564 578.807 841.062 577.554 829.671C576.561 821.284 578.968 812.273 581.11 803.957C582.434 798.869 584.358 792.982 591.063 791.46C592.161 790.967 593.019 790.059 593.449 788.933C596.96 781.246 600.34 773.511 604.22 764.674C577.733 788.771 565.151 819.884 553.194 850.671L503.476 845.018C511.428 837.753 519.703 831.62 526.241 823.89C532.78 816.161 537.228 806.782 542.47 798.51C544.208 798.779 545.195 798.851 546.139 799.087C550.642 800.383 555.421 800.357 559.909 799.013C564.397 797.669 568.405 795.063 571.456 791.506C577.119 785.765 582.421 779.678 587.332 773.281C599.732 756.637 612.364 740.093 621.742 721.404C624.016 716.867 626.049 711.093 629.915 708.802C633.781 706.51 640.33 706.873 645.673 706.652C650.039 706.355 654.426 706.676 658.703 707.606C666.46 709.628 669.353 714.597 668.292 722.437C667.148 730.496 663.307 737.928 657.397 743.518C655.663 745.254 653.396 746.355 650.961 746.644C648.525 746.932 646.064 746.391 643.973 745.108C638.687 741.813 638.286 741.892 634.669 746.557C633.595 747.886 632.377 749.073 631.334 750.398C626.908 756.233 622.278 761.935 618.228 768.01C615.552 772.089 616.057 779.017 619.001 780.944C620.766 782.118 622.875 782.661 624.987 782.486C627.098 782.31 629.089 781.427 630.636 779.978C637.471 774.489 644.372 769.025 650.736 763.023C655.288 758.785 659.106 753.686 664.189 747.804C660.541 754.338 657.704 759.448 654.8 764.534C651.896 769.62 646.815 773.921 646.34 781.912L646.355 782.037ZM577.432 976.16C574.072 980.857 570.778 985.041 567.967 989.579C565.156 994.117 559.243 995.923 557.585 1002.73C563.595 1002.27 568.885 1001.86 573.516 1001.5L567.286 1020.11C561.495 1019.21 555.795 1018.02 550.025 1017.56C547.326 1017.26 544.599 1017.81 542.233 1019.15C539.867 1020.48 537.984 1022.53 536.851 1025.01C533.981 1030.37 531.18 1035.79 527.83 1040.84C519.767 1052.76 511.421 1064.44 503.285 1076.28C500.599 1080.26 498.125 1084.44 495.594 1088.41C483.166 1084.54 472.48 1072.18 472.11 1059.99C471.903 1053.43 472.342 1046.21 479.653 1042.34C487.824 1037.99 495.79 1033.25 503.986 1029.12C513.782 1024.11 522.851 1017.79 530.946 1010.34C532.376 1008.84 534.137 1007.69 536.089 1006.99C538.042 1006.29 540.13 1006.06 542.188 1006.32C547.88 1007.45 550.239 1004.17 552.416 1000.15C557.022 991.57 561.583 982.968 566.099 974.34C569.092 968.674 568.885 968.256 563.04 966.103C562.158 965.722 561.296 965.297 560.457 964.828C561.711 962.087 563.01 959.72 563.824 957.253C563.939 956.714 563.926 956.156 563.786 955.624C563.646 955.091 563.383 954.599 563.018 954.186C562.534 953.924 562 953.766 561.451 953.722C560.902 953.678 560.35 953.749 559.83 953.932C558.692 954.368 557.717 955.148 557.04 956.162C556.362 957.176 556.016 958.376 556.047 959.596C555.415 965.994 555.166 966.024 548.797 965.576C535.625 964.765 522.49 963.727 509.295 962.982C501.509 962.576 493.725 962.454 485.91 962.336C478.601 962.221 471.224 962.873 464.02 962.051C457.707 960.989 451.223 961.757 445.333 964.263L438.464 977.47C431.041 971.33 422.594 970.939 413.903 970.893C406.818 970.935 399.738 970.495 392.713 969.577C387.547 968.892 381.904 969.781 376.726 966.063C379.513 961.318 382.566 956.734 385.87 952.334C390.286 947.239 394.985 942.398 399.945 937.832C401.12 936.973 402.53 936.497 403.984 936.468C420.006 934.951 436.04 933.527 452.066 932.04C453.001 931.93 454.237 931.973 454.77 931.404C459.905 925.959 466.764 926 473.267 926.242C490.586 926.977 507.935 926.339 525.153 924.335C532.878 923.421 540.87 923.707 548.503 923.088C550.964 922.797 554.703 922.101 555.546 920.421C558.55 914.848 564.147 911.435 566.817 905.713C567.068 905.142 567.444 904.634 567.917 904.228C568.39 903.821 568.948 903.526 569.55 903.364C570.152 903.201 570.782 903.176 571.395 903.29C572.008 903.404 572.588 903.654 573.092 904.021C574.121 904.436 574.95 905.233 575.405 906.246C575.861 907.259 575.907 908.408 575.535 909.454C574.628 913.261 573.46 917.003 572.778 920.846C570.486 933.764 567.851 946.722 569.583 960.017C569.775 961.638 570.056 964.008 571.079 964.645C575.644 967.456 575.366 972.579 577.432 976.16ZM749.553 845.127L750.557 846.936C748.073 851.024 745.835 855.336 742.978 859.215C732.067 873.331 722.627 888.528 714.807 904.568C711.588 911.525 711.99 914.386 720.26 919.414C721.785 920.179 723.424 920.689 725.113 920.926C731.604 922.402 737.843 923.876 744.595 925.416C741.681 932.544 737.605 939.137 732.535 944.928C728.163 950.157 728.01 952.862 731.713 959.6C733.104 959.698 734.498 959.723 735.891 959.675C748.092 958.957 760.282 958.146 772.455 957.464C776.578 956.75 780.814 957.097 784.766 958.472L744.972 1004.09C745.003 999.285 749.169 996.326 747.42 991.158C745.671 985.991 740.674 986.203 737.616 983.846C737.672 978.18 743.561 974.037 740.439 968.21C735.532 969.708 735.532 969.708 735.577 973.56C735.646 981.076 733.748 983.451 726.409 984.952C724.745 985.307 723.089 985.724 721.398 986.114C690.958 993.101 660.435 999.655 629.761 1005.47C627.381 1005.82 624.969 1005.93 622.566 1005.78C613.908 1005.48 605.208 1005.09 595.815 1004.71L591.811 997.568C597.933 995.927 603.09 994.399 608.252 993.187C620.147 990.42 632.227 987.883 642.945 981.84C658.698 973.463 675.092 966.353 691.971 960.575C694.239 959.848 696.265 958.515 697.831 956.72C701.683 951.394 705.246 945.864 708.503 940.154C708.914 939.318 709.126 938.397 709.119 937.465C709.113 936.533 708.89 935.615 708.467 934.784C707.77 934.194 706.96 933.752 706.087 933.486C705.214 933.22 704.296 933.134 703.388 933.235C700.827 933.508 698.297 934.019 695.831 934.763L704.743 909.996C704.936 909.54 705.235 909.136 705.614 908.818C709.971 904.54 709.428 898.882 709.161 893.697C709.1 892.374 708.773 891.077 708.197 889.884C707.622 888.692 706.811 887.628 705.813 886.758C702.115 884.026 697.884 882.103 693.396 881.115C690.948 880.709 687.96 883.75 685.2 885.247C684.388 885.607 683.543 885.887 682.677 886.083C682.434 885.484 682.285 884.851 682.234 884.207C682.511 882.277 682.819 880.344 683.259 878.458C686.187 865.844 689.299 853.178 686.304 840.159C685.716 838.174 685.641 836.072 686.086 834.05C686.532 832.029 687.484 830.154 688.852 828.602C690.089 827.096 691.231 825.514 692.271 823.866C697.622 815.708 703.534 808.021 704.47 797.793C705.098 790.826 706.658 789.598 713.591 788.936C715.99 788.652 718.474 788.832 720.906 788.828C731.161 788.752 741.446 788.926 751.696 788.534C758.771 788.265 765.455 788.17 769.395 795.575C769.922 796.556 771.167 797.199 772.142 797.969C778.893 803.24 782.629 803.05 788.616 797.062C790.676 794.984 792.554 792.707 794.544 790.574C795.354 789.688 796.482 788.005 797.134 788.181C802.106 789.363 805.698 785.555 810.164 784.33C810.471 786.918 810.344 789.051 810.681 791.098C812.118 799.496 810.731 801.652 802.18 802.791C790.581 804.322 778.953 806.141 767.265 806.925C756.046 807.857 744.75 806.996 733.801 804.374C729.719 803.245 725.645 802.178 721.785 801.054L696.723 838.261C714.543 844.719 732.14 844.501 749.553 845.127ZM688.945 670.671C680.132 670.387 672.639 669.788 665.145 669.98C655.223 670.206 645.239 672.843 635.569 668.265C635.026 667.977 634.432 667.799 633.82 667.743C633.208 667.686 632.59 667.752 632.004 667.936C631.418 668.12 630.874 668.419 630.404 668.815C629.934 669.212 629.547 669.697 629.266 670.244C627.985 671.661 626.215 672.537 624.313 672.696C612.448 674.187 600.437 674.099 588.594 672.436C578.585 670.282 568.88 666.897 559.702 662.357C558.298 661.883 556.861 661.514 555.402 661.254L554.907 662.672L580.7 674.319C577.719 683.018 575.983 684.362 568.848 682.52C565.121 681.396 561.483 679.999 557.962 678.339C553.776 676.59 549.629 674.647 544.636 672.487C540.237 681.481 531.989 687.042 528.127 696.573L558.825 709.631C553.614 718.974 548.83 727.381 544.526 736.111C541.277 742.818 537.734 748.107 529.242 748.132C526.876 748.159 524.732 749.52 522.783 746.937C522.039 745.981 520.219 745.817 518.876 745.407C511.832 743.27 505.391 745.423 498.94 748.021C496.77 749.114 494.433 749.84 492.025 750.167C484.276 750.611 476.511 750.645 467.375 750.841L470.066 743.694C464.411 743.415 458.337 743.059 452.284 742.89C450.848 742.972 449.434 743.289 448.1 743.828C444.707 745.198 441.241 746.379 437.718 747.366C433.277 748.271 431.484 751.265 429.647 754.96C427.06 759.788 424.237 764.485 421.348 769.158C421.002 769.705 419.842 769.779 418.329 770.338L427.044 740.441L437.098 740.262C440.285 733.309 440.282 733.278 448.448 730.762C450.308 730.194 452.216 729.778 454.068 729.148C455.624 728.831 457.064 728.1 458.239 727.032C459.413 725.963 460.277 724.597 460.74 723.078C461.763 720.998 463.42 719.296 465.471 718.218C474.521 712.499 483.722 706.983 492.846 701.351C494.525 700.33 496.089 699.133 498.706 697.495L495.281 719.779C497.109 720.1 498.99 719.914 500.72 719.241C502.449 718.568 503.962 717.434 505.093 715.961C513.503 706.967 523.33 699.006 529.611 687.766C527.356 688.728 525.098 689.66 522.695 690.703C521.776 683.436 523.048 676.059 526.349 669.522C529.649 662.985 534.827 657.586 541.217 654.017C554.518 647.171 569.141 643.283 584.084 642.619C588.319 642.528 592.555 642.681 596.772 643.077C596.246 645.036 596.082 646.32 595.656 647.256C594.54 650.107 596.019 651.924 597.985 653.588C599.95 655.252 602.108 654.269 603.934 652.883C606.525 651.027 608.934 648.972 611.606 647.264C613.414 645.708 615.598 644.654 617.94 644.206C628.384 644.392 638.835 644.894 649.228 645.718C657.969 646.454 666.663 647.859 675.342 649.139C678.556 649.612 680.388 648.542 681.825 644.673C672.984 642.558 664.579 640.392 654.704 638.083C662.669 637.321 670.706 638.064 678.398 640.273C682.089 641.037 685.246 642.624 685.75 647.148C686.126 649.346 687.268 651.339 688.974 652.774C693.816 656.595 693.26 660.96 691.113 665.767C690.346 667.565 689.408 669.51 688.945 670.671ZM887.339 312.595L889.171 312.061C890.771 313.832 892.311 315.642 893.966 317.343C897.193 320.596 900.284 324.024 903.821 326.957C907.335 329.981 911.153 332.633 915.212 334.871C916.169 335.277 917.036 335.867 917.765 336.608C918.494 337.349 919.07 338.226 919.46 339.19C919.85 340.154 920.046 341.186 920.037 342.225C920.029 343.265 919.815 344.293 919.41 345.25C918.652 348.071 917.469 350.759 915.9 353.222C910.542 361.317 904.649 369.16 899.173 377.333C891.275 389.049 890.168 403.439 898.432 414.822C905.185 424.108 911.807 425.885 921.337 419.413C923.798 417.805 926.055 415.903 928.057 413.749C933.276 407.946 938.286 401.978 943.341 396.131C949.966 388.328 956.266 380.185 963.211 372.691C969.514 365.906 971.178 366.089 978.629 371.403C979.639 372.082 980.578 372.86 981.431 373.727C987.917 381.021 994.433 388.312 1000.75 395.753C1001.94 397.76 1002.86 399.914 1003.49 402.161C1000.79 402.482 999.197 402.67 997.54 402.55C995.884 402.43 993.969 402.53 990.495 402.531L996.319 409.84C994.025 410.744 992.06 411.482 990.098 412.252L990.828 416.813C987.108 418.74 982.264 415.171 979.696 420.692C981.674 421.659 983.63 422.439 985.428 423.491C988.284 425.208 985.52 427.464 985.246 429.425L993.189 428.484C990.6 434.893 988.292 440.477 986.078 446.051C983.864 451.624 983.639 452.125 977.389 450.02C965.087 445.947 952.472 442.894 939.671 440.891C924.978 438.426 910.353 435.478 895.796 432.301C890.637 430.846 885.581 429.047 880.662 426.917C879.403 426.456 878.324 425.605 877.583 424.486C876.842 423.368 876.479 422.041 876.547 420.701C876 406.761 872.224 393.138 865.518 380.907C864.877 378.931 864.89 376.8 865.557 374.832C866.128 373.208 866.961 371.688 868.025 370.335C875.69 359.257 880.775 346.598 882.905 333.29C883.837 326.225 885.751 319.453 887.246 312.606L887.339 312.595ZM983.338 630.441C982.611 630.207 981.901 629.921 981.215 629.586C980.391 629.059 979.605 628.476 978.861 627.841C973.889 623.284 967.983 619.869 961.556 617.834C955.129 615.799 948.335 615.193 941.651 616.06C924.364 617.569 907.051 618.86 889.703 619.049C881.213 618.618 872.795 617.272 864.593 615.035C860.513 614.19 860.143 612.4 862.537 608.607C864.191 606.04 866.148 603.627 867.973 601.166C865.592 601.493 863.347 602.469 861.485 603.989C859.707 605.243 857.961 607.568 856.229 607.615C850.952 607.372 845.692 606.844 840.472 606.035L841.515 600.979C836.909 601.019 832.528 601.095 827.672 601.164C828.548 599.913 829.529 598.739 830.605 597.655C843.139 587.057 857.446 578.759 872.866 573.144C888.556 567.746 904.906 564.198 920.634 558.858C931.508 555.199 938.796 560.47 947.376 566.251C941.837 572.819 936.734 578.798 930.733 585.737C933.142 586.563 935.655 587.042 938.198 587.161C947.118 586.409 955.523 582.662 962.047 576.528C968.054 570.442 973.38 563.678 979.356 557.596C984.712 552.156 989.586 546.9 984.116 538.316C997.945 534.593 1012.08 532.136 1026.36 530.975C1024.54 539.6 1021.66 547.339 1021.69 554.796C1021.72 562.254 1024.72 570.245 1026.43 578.01C1016.14 581.221 993.773 581.466 985.424 578.439L984.97 574.604C982.946 575.163 980.878 575.545 978.789 575.747C969.763 575.804 963.948 581.109 958.81 587.597C957.131 589.693 955.453 591.789 953.709 593.86C951.875 596.431 949.773 598.8 947.439 600.926C944.412 603.338 942.171 606.597 940.999 610.288C958.623 615.093 976.584 613.409 994.771 616.567C991.738 620.562 989.28 623.541 987.034 626.715C985.871 628.024 984.637 629.268 983.338 630.441V630.441ZM904.923 868.969C910.339 874.967 915.121 880.408 920.043 885.706C924.802 890.652 928.386 896.607 930.531 903.129C932.675 909.651 933.325 916.572 932.431 923.379C932.082 927.267 930.881 931.029 928.914 934.399C926.946 937.768 924.261 940.662 921.05 942.875C917.838 945.088 914.178 946.564 910.331 947.2C906.484 947.835 902.544 947.615 898.791 946.553C885.786 943.413 877.154 934.793 870.825 923.749C868.99 920.039 867.476 916.177 866.3 912.208C864.629 907.695 862.078 903.223 861.528 898.578C861.278 890.326 861.609 882.068 862.518 873.864C862.857 870.322 864.108 866.928 866.149 864.016C868.19 861.103 870.951 858.771 874.163 857.246C880.734 853.528 887.129 849.388 893.519 845.47C914.495 832.126 936.448 820.385 959.19 810.347C965.194 807.707 971.254 805.536 977.101 803.168C977.131 805.56 976.515 807.916 975.318 809.986L963.546 831.93C962.004 834.272 961.015 836.935 960.655 839.717C960.295 842.498 960.573 845.326 961.467 847.984C962.032 849.551 961.953 851.277 961.246 852.784C959.266 855.718 957.122 858.537 954.824 861.227C945.145 852.573 939.378 841.21 928.526 833.042L904.923 868.969ZM398.963 380.566C400.382 381.586 401.372 383.095 401.744 384.803C402.115 386.511 401.841 388.296 400.974 389.813C398.132 396.22 395.36 402.681 392.917 409.262C389.322 419.172 382.149 426.345 375.551 434.903C374.017 432.619 372.856 431.081 371.901 429.423C368.056 422.572 362.55 416.798 355.891 412.634C350.094 409.021 344.156 405.551 338.048 402.512C324.63 395.88 311.252 389.592 297.852 383.117C293.965 381.574 290.574 378.995 288.047 375.661C285.52 372.326 283.953 368.363 283.516 364.201C283.113 360.802 282.248 357.49 281.783 354.099C281.506 351.761 281.537 349.354 281.404 346.366C313.271 348.759 344.436 345.227 375.544 350.554C370.166 356.344 370.166 356.344 375.182 362.168C386.559 358.367 396.74 351.645 404.71 342.675C409.449 337.087 414.37 331.698 419.178 326.165C420.93 324.156 422.539 322.005 424.441 319.662L434.678 323.698C420.042 344.4 419.793 344.43 406.414 351.736C404.693 352.667 402.841 353.297 401.116 354.197C395.089 356.952 390.257 361.789 387.506 367.822C386.752 369.345 385.78 370.749 384.62 371.99C379.084 378.589 373.545 385.157 368.006 391.725L368.675 393.1C370.392 393.031 372.088 392.702 373.707 392.125C377.79 389.978 381.725 387.558 385.483 384.881C389.389 382.016 394.121 380.501 398.963 380.566ZM501.58 887.417C493.181 892.091 483.963 895.104 474.427 896.291C457.436 897.937 440.37 898.67 423.301 898.487C403.024 897.948 384.346 903.447 365.754 910.201C359.701 912.436 355.233 910.973 352.923 904.797C351.774 901.585 350.807 898.311 350.025 894.991C345.58 876.928 359.619 855.19 375.324 849.125C384.805 845.442 394.707 842.91 404.471 840.015C413.623 837.288 422.79 834.685 431.812 832.194C436.831 830.841 441.628 828.407 447.858 828.207C446.805 830.679 445.956 833.233 445.319 835.843C444.408 839.835 444.107 843.943 444.424 848.026C444.968 850.576 444.552 853.237 443.256 855.499C439.824 861.722 436.528 868.025 432.677 875.246C435.398 877.076 438.387 878.471 441.536 879.382C454.364 881.025 467.249 881.555 480.028 883.045C486.78 883.795 493.598 883.493 501.58 887.417ZM1006.68 502.985L1004.48 501.191C1005.65 500.327 1006.73 499.352 1007.71 498.28C1012.75 491.549 1012.41 490.768 1008.61 483.281C1005.47 477.519 1003.13 471.348 1001.67 464.944C998.483 448.123 1002.45 432.035 1008.82 416.485C1009.89 414.13 1011.49 412.051 1013.48 410.407C1015.48 408.763 1017.82 407.596 1020.33 406.997C1035.19 402.298 1049.66 401.786 1062.8 411.959C1063.39 412.395 1064.03 412.762 1064.65 413.163C1068.32 415.348 1071.47 418.316 1073.87 421.857C1076.27 425.397 1077.87 429.424 1078.54 433.649C1079.13 436.741 1079.93 439.808 1080.7 442.878C1083.36 453.343 1082.03 462.576 1073.31 470.088C1065.74 476.58 1058.62 483.621 1051.2 490.285C1049.59 491.773 1047.69 492.922 1045.63 493.663C1033.01 498.145 1019.96 501.27 1006.68 502.985V502.985ZM949.606 972.405C945.641 974.929 942.28 977.224 938.738 979.319C932.224 983.252 925.68 986.935 919.04 990.598C902.994 999.39 887.002 1008.37 870.756 1016.8C856.367 1024.23 840.418 1028.14 824.225 1028.19C820.097 1027.99 815.985 1027.55 811.908 1026.87C824.366 1013.96 835.336 999.689 844.614 984.33C853.871 969.418 859.606 952.773 864.885 935.202C867.203 937.71 868.745 939.266 870.139 940.903C876.129 948.724 884.806 954.04 894.488 955.82C896.626 956.31 898.674 957.134 900.556 958.263C908.296 962.278 911.347 962.17 917.208 955.659C924.516 947.49 931.538 939.04 938.18 930.318C943.099 923.855 947.19 916.794 952.647 908.466C952.429 911.052 952.08 913.626 951.602 916.177C948.941 925.977 946.468 936.039 943.276 945.617C940.083 955.195 942.238 963.792 949.606 972.405ZM747.368 704.76C745.312 705.54 742.904 707.343 741.726 706.724C737.375 704.916 733.443 702.228 730.179 698.828C727.404 695.394 724.961 694.766 721.585 696.399C720.71 696.834 719.712 696.957 718.757 696.748C717.802 696.54 716.947 696.011 716.333 695.25C706.911 687.166 699.27 678.112 699.02 664.799C698.964 661.392 700.194 659.507 703.631 659.732C707.274 660.089 710.885 660.718 714.435 661.615C726.181 664.442 738.497 663.764 749.861 659.665C759.301 655.686 768.523 651.207 777.487 646.246C782.166 643.89 786.673 641.143 792.296 637.948C792.003 640.724 791.88 643.515 791.927 646.306C792.418 651.781 790.182 658.242 797.075 661.505C797.749 661.867 797.794 663.316 798.389 664.068C800.564 666.972 802.839 669.643 805.055 672.352C809.434 670.127 813.033 668.246 818.192 665.675C816.856 669.596 816.065 672.25 815.041 674.806C812.043 681.012 810.986 687.98 812.008 694.798C812.806 698.238 812.904 701.803 812.296 705.281C811.688 708.759 810.385 712.078 808.467 715.04C805.17 721.527 800.778 727.395 795.487 732.385L747.368 704.76ZM776.569 540.063C780.464 539.117 784.2 537.61 787.662 535.588C791.412 532.856 795.788 531.109 800.388 530.509C810.187 528.365 819.561 524.605 828.128 519.384C835.86 515.657 842.392 509.834 846.983 502.577C852.219 493.452 857.761 484.512 863.122 475.373C867.488 467.964 867.446 467.874 875.892 469.593C891.442 472.705 907.001 475.9 922.57 479.179C924.683 479.792 926.755 480.539 928.773 481.416C918.707 484.695 910.561 487.651 902.065 490.048C886.386 494.465 871.708 500.408 859.744 512.194C853.045 518.836 845.404 524.452 839.626 533.008C844.271 535.252 849.269 536.672 854.399 537.203C862.407 538.151 870.4 538.976 878.418 540.271C882.618 541.23 886.752 542.462 890.793 543.959C887.2 546.692 885.01 548.469 882.646 550.109C867.897 560.517 853.006 570.785 840.058 583.605C833.943 589.577 827.612 595.322 821.285 601.098C820.098 601.898 818.817 602.549 817.471 603.035C818.18 600.813 819.182 598.695 820.453 596.739C822.709 591.816 823.168 586.258 821.751 581.03C821.052 577.256 818.038 576.348 815.146 574.857C814.404 574.572 813.755 574.089 813.267 573.462C812.779 572.834 812.472 572.085 812.379 571.296C812.285 570.506 812.409 569.706 812.737 568.982C813.064 568.258 813.583 567.637 814.238 567.187C815.133 566.455 816.124 565.849 817.182 565.384C809.561 547.159 792.596 544.457 776.525 540.226L776.569 540.063ZM542.909 543.194C545.285 536.59 546.343 530.584 551.593 527.18C557.721 523.199 564.102 519.624 570.697 516.477C592.681 506.097 616.389 500.666 639.534 493.689C643.039 492.61 646.725 492.269 650.279 491.342C652.031 490.76 653.911 490.682 655.705 491.118C657.499 491.555 659.135 492.487 660.425 493.808C665.558 499.018 670.609 504.332 675.512 509.726C676.475 511.254 677.214 512.913 677.705 514.652C674.996 514.972 673.008 514.987 671.065 515.122L674.358 521.055C663.173 522.885 658.319 514.702 652.203 508.661C649.916 516.013 651.742 519.97 657.91 522.18C660.001 522.76 662.017 523.582 663.917 524.631C665.552 525.741 667.466 526.369 669.44 526.443C671.415 526.516 673.37 526.033 675.083 525.047C682.297 521.903 688.252 516.435 692.004 509.513C692.948 507.322 694.361 505.366 696.144 503.784C697.927 502.201 700.036 501.031 702.321 500.356L717.146 520.731C714.485 522.349 711.691 523.737 708.794 524.882C700.669 527.604 692.395 529.861 684.012 531.641C675.746 532.967 667.411 533.816 659.047 534.186C649.651 534.856 640.054 535.423 630.572 535.629C614.202 536.629 597.772 535.764 581.597 533.049C578.974 532.506 575.374 530.909 572.408 535.465C575.611 535.845 578.208 536.17 580.766 536.436C586.326 536.979 591.95 537.262 597.484 538.124C602.439 538.897 605.158 546.384 601.194 548.655C595.841 551.723 591.154 556.42 584.366 556.971C578.548 557.708 572.641 556.714 567.383 554.113C565.309 553.039 562.977 552.566 560.65 552.747C558.322 552.927 556.091 553.754 554.208 555.135C553.142 555.736 552.192 556.512 550.996 557.349C550.258 551.113 557.896 546.542 551.875 539.698C550.888 544.969 547.336 543.777 542.865 543.358L542.909 543.194ZM439.171 264.013C431.349 275.847 423.858 287.262 416.168 298.605C415.05 300.047 414.291 301.734 413.954 303.528C413.617 305.322 413.712 307.17 414.231 308.92C414.589 310.378 414.859 311.855 415.039 313.345C412.375 313.25 410.185 313.161 408.027 313.069C394.133 312.564 380.238 311.775 366.362 311.679C348.802 311.419 331.227 311.824 313.671 311.595C302.695 311.298 291.973 308.216 282.512 302.638C287.19 294.401 288.665 285.785 292.194 277.716C296.047 268.914 301.294 265.479 310.463 265.563C320.679 265.681 330.908 264.849 341.145 264.617C343.055 264.472 344.96 264.97 346.555 266.032C350.065 268.999 348.573 279.071 344.408 281.24C343.1 281.78 342.055 282.81 341.495 284.111C340.935 285.412 340.905 286.88 341.411 288.203C334.938 286.882 334.938 286.882 332.729 291.697L338 297.807C349.11 296.143 357.74 289.81 366.279 283.235C370.329 280.1 374.264 276.788 378.426 273.798C379.061 273.269 379.797 272.875 380.589 272.64C381.381 272.405 382.213 272.333 383.033 272.43C387.548 274.246 391.913 276.414 396.087 278.915C396.638 279.091 397.13 279.416 397.508 279.854C397.886 280.292 398.136 280.827 398.229 281.398C398.323 281.969 398.257 282.555 398.039 283.091C397.821 283.627 397.459 284.093 396.993 284.436C396.375 285.078 396.467 286.395 395.956 288.479C403.778 284.391 407.333 277.868 412.017 272.35C416.701 266.832 421.165 261.055 425.518 255.671L439.171 264.013ZM816.578 710.729C817.807 710.708 818.995 711.168 819.889 712.012C823.162 715.01 827.329 716.847 831.748 717.238C836.167 717.629 840.591 716.553 844.337 714.176C847.974 712.229 851.269 709.704 854.096 706.698C863.351 696.307 872.313 685.572 881.234 675.031C886.213 669.066 890.801 662.738 895.773 656.711C897.06 654.927 898.885 653.603 900.979 652.933C916.11 650.288 931.109 649.998 945.17 657.786C949.566 660.238 949.931 662.25 947.358 666.664C946.279 668.809 945.359 671.032 944.608 673.313C942.881 674.466 939.03 675.554 938.481 677.579C936.906 683.488 932.242 684.641 927.8 686.337C915.561 691.264 903.402 696.339 891.148 701.141C888.468 701.987 885.717 702.588 882.928 702.936C878.289 707.852 873.39 712.516 868.254 716.909C859.015 724.09 850.449 732.099 842.662 740.837C839.48 744.375 836.05 747.943 832.463 751.529L831.259 744.558C825.56 744.98 820.289 745.541 814.97 745.696C812.84 745.823 810.718 745.328 808.864 744.269C805.442 741.673 802.161 738.895 799.035 735.948C805.076 727.487 810.025 718.334 816.578 710.729ZM506.961 612.768C515.061 609.691 522.66 607.179 529.894 603.73C532.611 602.197 534.82 599.902 536.25 597.128C540.632 589.591 544.51 581.797 548.59 574.106C549.088 572.998 549.956 572.097 551.045 571.559C552.133 571.021 553.375 570.878 554.557 571.154C562.506 572.142 570.584 573.146 578.511 573.408C593.128 573.891 607.776 573.832 622.394 574.062C624.705 574.104 627.014 574.4 629.565 574.604C629.82 583.66 628.641 592.699 626.072 601.385C625.758 602.951 624.914 604.362 623.682 605.377C622.45 606.393 620.906 606.952 619.31 606.959C614.207 607.342 609.095 607.916 604.079 608.762C585.839 611.176 568.582 618.449 554.113 629.822C551.722 632.222 548.556 633.692 545.181 633.97C541.806 634.248 538.442 633.316 535.69 631.34C526.54 625.815 517.465 620.124 508.425 614.46C507.85 613.991 507.357 613.43 506.965 612.799L506.961 612.768ZM426.939 247.662C419.09 240.593 409.89 238.647 401.08 235.991C398.748 235.541 396.339 235.718 394.097 236.501C389.351 237.759 387.588 237.272 386.488 232.787C384.397 225.274 382.929 217.602 382.098 209.848C381.458 200.439 383.457 191.445 392.241 185.346C395.668 182.601 398.881 179.6 401.853 176.367L400.861 175.189L374.305 190.979L380.504 149.967C382.872 150.462 385.212 151.082 387.514 151.824C403.669 158.324 417.938 168.777 429.013 182.225C430.596 184.072 431.959 186.096 433.075 188.257C435.37 192.696 435.051 194.536 431.286 197.954C421.52 206.354 412.778 215.879 405.242 226.33C409.813 230.531 413.704 230.576 418.156 226.034C424.706 219.472 430.936 212.601 437.56 206.126C444.883 198.93 451.289 190.855 456.632 182.085C458.786 178.669 460.971 175.248 463.302 171.463C469.9 173.843 475.811 176.021 483.097 178.604C476.585 184.686 471.299 189.928 465.693 194.86C457.108 202.091 449.69 210.605 443.699 220.101C438.371 228.983 432.86 237.919 426.939 247.662ZM659.135 866.771C660.56 869.372 661.74 872.101 662.659 874.922C666.859 894.658 660.8 912.574 652.084 929.92C648.548 936.305 644.602 942.454 640.272 948.328C639.154 950.476 637.465 952.273 635.392 953.521C626.826 956.938 618.047 959.875 609.344 962.929C607.703 963.119 606.043 963.049 604.424 962.721C607.117 955.857 607.117 955.857 605.838 951.456C599.217 950.754 596.511 948.703 594.193 942.465C593.37 940.422 592.679 938.329 592.124 936.197C589.389 926.165 589.357 915.588 592.032 905.541C605.033 904.351 617.535 899.949 628.415 892.729C639.373 885.519 647.808 875.668 659.135 866.771ZM644.254 254.528C646.317 250.616 648.113 248.443 652.059 248.956C662.488 250.346 671.681 246.633 680.659 241.903C688.712 237.277 695.949 231.357 702.082 224.38C703.794 222.565 705.826 221.06 708.26 218.938C709.128 220.807 709.893 222.721 710.55 224.674C712.535 231.748 715.861 238.374 720.346 244.191C726.308 252.506 733.44 259.914 741.521 266.186C746.505 269.442 750.762 273.696 754.022 278.68L739.006 275.62C738.142 276.861 736.934 278.395 735.959 280.028C732.219 286.32 728.448 292.615 724.875 298.982C724.097 300.655 722.846 302.062 721.276 303.03C719.706 303.997 717.887 304.481 716.044 304.422C707.283 304.321 698.483 304.414 689.73 304.376C687.554 304.136 685.398 303.746 683.275 303.211C684.944 301.487 686.489 299.645 687.897 297.701C690.764 292.84 690.614 292.637 686.79 288.347C685.061 286.642 683.604 284.682 682.469 282.536C679.111 274.074 672.65 267.217 664.408 263.365C663.605 262.986 662.505 262.231 662.428 261.576C662.202 259.674 661.649 259.803 659.833 259.67C654.277 259.37 648.9 257.595 644.254 254.528V254.528ZM763.551 538.949L763.43 540.86C760.92 541.536 758.453 542.303 755.928 542.855C745.18 545.17 736.411 550.066 731.009 560.19C728.737 564.474 725.383 568.159 722.676 572.242C716.317 581.752 709.931 591.298 703.746 600.946C702.056 603.839 700.533 606.828 699.184 609.896C682.08 608.949 665.777 608.097 649.49 607.116C647.699 606.894 645.927 606.544 644.186 606.069C646.706 597.203 649.698 589.134 651.175 580.803C651.373 577.645 652.754 574.678 655.043 572.496C657.332 570.314 660.36 569.078 663.52 569.034C667.133 568.606 670.737 567.832 674.352 567.151C678.886 566.235 683.372 564.913 687.985 564.399C698.42 563.163 701.274 554.732 705.995 547.123C703.558 546.81 701.856 546.569 699.578 546.27C700.645 545.416 701.022 544.866 701.403 544.884C703.833 545.07 706.257 544.466 708.316 543.163C710.375 541.86 711.959 539.927 712.833 537.65C715.788 532.781 719.202 528.206 723.027 523.987C735.955 531.277 748.827 537.562 763.551 538.949ZM995.147 841.151C999.329 839.392 1002.16 838.234 1004.95 836.987C1007.74 836.099 1010.34 834.719 1012.65 832.914C1017.32 828.287 1021.58 823.255 1025.36 817.877C1029.98 811.007 1033.92 803.712 1037.86 796.417C1038.44 795.212 1039.31 794.164 1040.37 793.356C1041.44 792.548 1042.68 792.005 1044 791.769C1062.9 787.825 1081.75 783.791 1100.7 780.092C1106.88 778.887 1108.49 779.992 1109.56 786.6C1110.77 793.781 1111.5 801.035 1111.75 808.313C1111.98 817.77 1108.99 821.033 1099.57 821.991C1096.91 822.223 1094.44 823.453 1092.65 825.434C1088.74 829.429 1084.61 833.2 1080.28 836.731C1078.76 837.919 1076.85 838.484 1074.94 838.312C1070.2 837.513 1064.71 837.278 1061.02 834.68C1053.56 829.24 1046.45 832.484 1039.41 834.077C1030.35 835.972 1021.53 839.134 1012.5 841.247C1006.91 843.178 1000.83 843.139 995.272 841.136L995.147 841.151ZM866.785 812.277C859.97 813.4 855.19 814.377 850.335 814.984C847.906 815.195 845.46 815.124 843.046 814.772C832.535 813.487 828.579 809.687 826.747 799.281C826.361 797.625 826.16 795.931 826.149 794.23C827.2 776.433 831.077 759.565 842.447 745.162C844.477 742.127 847.519 739.915 851.029 738.92C854.539 737.925 858.289 738.213 861.607 739.732C864.109 740.725 866.493 741.99 868.718 743.506C886.353 755.076 891.697 773.001 893.471 792.519C893.668 794.752 893.145 796.989 891.979 798.903C890.813 800.816 889.065 802.305 886.992 803.151C879.691 806.576 872.337 809.818 866.785 812.277ZM631.545 214.142C629.722 218.423 628.207 222.828 627.01 227.325C626.149 231.79 627.532 237.064 625.679 240.888C623.826 244.711 618.801 247.614 615.665 251.273C609.778 258.104 604.34 265.26 598.476 272.278C589.069 283.581 580.994 295.931 574.408 309.083C571.478 314.741 568.718 321.043 576.809 326.155C571.627 327.601 566.148 327.599 560.966 326.151C555.784 324.702 551.096 321.862 547.411 317.938C549.039 310.885 558.163 307.655 554.614 298.748L539.223 295.733C537.892 289.186 537.92 282.435 539.307 275.901C540.15 271.817 541.913 269.901 546.122 269.972C552.229 270.071 558.356 269.535 564.407 269.957C567.913 270.408 571.474 269.829 574.656 268.29C577.838 266.752 580.505 264.32 582.331 261.29C584.475 258.065 587.201 255.213 589.683 252.168L602.049 237.109C599.268 236.363 596.429 235.853 593.563 235.585C584.302 235.796 575.04 236.26 565.767 236.631C561.802 236.753 557.861 236.809 553.896 236.93C560.866 231.349 569.086 227.544 577.849 225.843C592.521 222.251 607.215 218.761 621.932 215.375C625.103 214.804 628.301 214.394 631.514 214.146L631.545 214.142ZM587.306 332.658C589.279 332.582 591.254 332.612 593.223 332.748C599.15 334.158 605.167 335.157 611.232 335.738C621.877 335.815 632.458 337.415 642.651 340.49C644.741 340.855 646.88 340.816 648.955 340.376C651.069 339.839 653.216 339.437 655.381 339.173C673.907 339.17 692.406 340.595 710.714 343.434C712.426 344.029 714.293 344.005 715.989 343.365C717.684 342.726 719.102 341.511 719.996 339.932C722.103 337.299 724.395 334.82 726.855 332.513C731.464 327.161 735.861 321.614 740.734 316.358C742.069 314.692 744.009 313.621 746.129 313.379C751.092 313.977 756.016 314.861 760.876 316.028C748.589 337.084 731.861 353.987 725.79 376.331C717.173 376.909 715.675 369.594 711.247 366.071C707.536 372.075 707.532 372.044 700.279 370.531C697.399 369.955 694.508 369.539 691.629 368.963C666.299 363.9 640.874 359.354 616.26 351.266C605.364 347.28 595.472 340.951 587.283 332.724L587.306 332.658ZM637.805 439.072C638.476 438.492 639.182 437.954 639.92 437.463C654.149 429.866 668.312 422.245 682.598 414.863C684.643 413.705 687.02 413.279 689.34 413.654C692.61 414.594 697.789 413.791 697.342 419.883C697.382 420.226 699.006 421.14 699.781 421.017C702.599 421.087 705.39 420.452 707.901 419.17C711.974 415.424 715.816 411.432 719.403 407.217L725.662 400.596C733.165 410.615 743.547 415.076 753.324 419.23C748.064 425.48 742.804 430.94 738.474 437.049C730.006 449.022 722.088 461.373 713.93 473.562C713.019 474.935 711.937 476.201 710.544 478.041C700.811 467.591 692.39 455.689 679.129 450.651C665.868 445.614 651.949 443.025 637.688 439.149L637.805 439.072ZM716.963 616.548C714.269 611.397 713.939 609.951 715.802 604.608C718.472 597.021 721.469 589.521 724.435 582.024C724.854 580.633 725.72 579.418 726.9 578.571C732.582 575.875 738.2 572.111 744.216 571.178C752.084 569.904 760.135 570.393 767.792 572.608C775.448 574.823 782.52 578.709 788.497 583.987C797.374 591.473 799.115 601.383 793.1 612.465C789.632 618.915 783.246 620.998 777.42 623.807C769.229 628.015 760.134 630.155 750.927 630.038C741.72 629.921 732.68 627.552 724.597 623.137C723.282 622.224 722.092 621.142 721.057 619.92C730.08 616.101 740.859 601.768 744.227 590.209C735.905 589.803 734.286 591.07 735.31 597.588C726.74 601.227 722.949 609.485 716.846 616.625L716.963 616.548ZM505.746 403.775L506.211 405.839C503.882 407.505 501.588 409.2 499.255 410.836C488.282 418.458 475.42 420.265 462.743 422.557C457.202 423.338 451.553 422.644 446.365 420.544C440.966 418.685 434.916 416.936 429.418 420.116C424.692 422.765 420.3 425.97 416.336 429.663C409.633 436.029 403.281 442.755 397.308 449.811C394.407 453.316 392.123 454.566 388.23 451.834C387.853 451.596 387.425 451.45 386.981 451.409C386.537 451.368 386.09 451.433 385.676 451.599C381.75 454.719 377.827 452.528 372.395 452.002C376.241 446.082 380.441 440.4 384.973 434.989C392.699 426.554 399.621 417.415 405.649 407.691L416.636 390.583C423.584 392.447 429.898 394.292 436.209 395.853C452.209 399.744 468.552 400.402 484.854 401.507C491.881 401.908 498.799 402.986 505.746 403.775ZM646.359 177.611L646.268 179.772C643.356 181.291 640.348 182.619 637.263 183.746C630.489 185.75 623.555 187.203 616.773 189.144C607.15 191.896 597.401 194.378 588.053 197.856C573.414 203.32 562.677 214.266 552.997 225.876C545.58 234.722 537.593 240.346 525.645 239.2C521.391 238.755 517.064 239.015 511.338 238.934C513.609 235.978 514.857 234.249 516.214 232.634C518.734 229.649 521.433 226.831 523.915 223.787C531.145 214.964 537.946 205.717 545.598 197.255C553.269 188.564 563.818 182.937 575.304 181.408C580.862 180.597 586.355 179.397 591.745 177.817C594.155 176.93 596.376 175.594 598.29 173.881C603.569 169.652 608.363 163.994 616.031 169.536C616.55 169.917 617.477 169.744 618.191 169.912C626.039 171.639 633.883 173.334 641.686 175.224C643.322 175.857 644.888 176.657 646.359 177.611V177.611ZM617.682 708.985C616.987 712.022 616.073 715.004 614.949 717.909C610.008 728.199 605.173 738.573 599.624 748.525C596.536 754.342 592.6 759.667 587.945 764.324C585.857 766.491 583.262 768.101 580.394 769.009C577.526 769.917 574.477 770.094 571.523 769.524C568.57 768.953 565.805 767.654 563.48 765.743C561.155 763.832 559.343 761.371 558.209 758.582C553.457 747.257 555.001 736.293 559.269 725.386C560.772 721.541 563.07 718.012 564.771 714.238C565.283 712.869 566.209 711.694 567.42 710.877C568.631 710.059 570.066 709.639 571.526 709.676C581.772 709.254 591.994 708.36 602.251 708.03C607.088 707.805 611.877 708.503 617.682 708.985ZM1016.49 878.206C1016.93 879.389 1017.23 880.614 1017.4 881.861C1017.4 883.322 1017.26 884.78 1016.97 886.212C1014.12 901.522 1009.45 916.436 1003.06 930.635C999.233 939.15 984.071 945.529 975.061 943.055C968.762 941.335 966.531 936.635 963.867 931.734C962.504 929.836 961.851 927.52 962.019 925.189C962.188 922.858 963.167 920.661 964.788 918.979C966.388 917.306 967.599 915.299 968.332 913.102C969.066 910.905 969.305 908.573 969.032 906.273C968.551 899.192 969.687 892.095 972.354 885.519C972.811 883.63 973.87 881.941 975.371 880.708C976.872 879.475 978.733 878.765 980.673 878.685C983.318 878.459 985.98 878.504 988.616 878.82C996.157 879.824 1003.63 881.026 1011.11 878.622C1012.89 878.292 1014.69 878.153 1016.49 878.206V878.206ZM438.246 324.224L524.471 336.525C520.903 340.267 518.652 343.126 516.05 345.426C512.178 348.757 508.047 351.772 503.695 354.445C499.564 356.894 497.715 363.152 491.374 361.879C489.394 367.299 484.101 366.344 480.543 366.165C464.873 365.35 449.473 361.746 435.066 355.52L431.213 341.117L438.246 324.224ZM322.394 598.137C324.017 595.036 326.033 591.794 327.549 588.326C328.051 586.829 329.028 585.538 330.331 584.647C331.633 583.757 333.19 583.317 334.766 583.393C346.934 582.933 359.093 582.125 371.254 581.602C383.414 581.079 396.422 580.772 409.217 580.269C411.614 580.491 414.019 579.929 416.07 578.667C419.241 575.573 422.177 576.901 425.414 577.561C434.202 579.492 443.026 581.198 451.806 583.067C454.495 583.634 457.15 584.458 461.291 585.548L428.872 600.895C422.78 600.13 417.764 598.574 412.859 599.028C397.576 600.48 382.346 602.378 367.169 604.723C357.834 606.412 348.308 606.773 338.871 605.797C332.605 605.439 326.711 602.699 322.394 598.137ZM322.44 182.924C324.552 167.151 337.907 151.375 349.33 151.287C348.64 154.53 347.886 157.496 347.274 160.604C346.589 164.416 345.053 168.518 345.727 172.074C348.746 186.101 344.675 199.198 341.54 212.468C340.013 218.782 339.237 219.696 333.118 218.429C325.414 216.844 321.137 220.733 317.033 226.087C324.001 231.586 329.359 232.026 335.686 227.578C339.801 224.72 343.723 221.568 348.711 217.816L346.495 229.776C346.42 230.879 345.966 231.922 345.209 232.727C344.451 233.531 343.438 234.048 342.343 234.188C324.634 237.201 308.486 232.854 293.284 223.967C292.595 223.682 291.982 223.241 291.492 222.679C291.001 222.117 290.648 221.449 290.458 220.727C290.269 220.006 290.249 219.25 290.4 218.52C290.551 217.789 290.868 217.103 291.328 216.516C293.397 213.555 295.734 210.791 298.31 208.26C299.261 207.231 301.127 206.978 301.849 205.881C306.678 198.972 313.753 193.955 321.867 191.687C323.01 191.247 324.088 190.652 325.068 189.916C327.494 188.27 327.44 186.474 325.289 184.579C324.392 183.941 323.438 183.387 322.44 182.924V182.924ZM546.766 522.156C546.291 523.477 546.235 524.337 545.784 524.802C539.942 530.678 534.22 536.762 528.018 542.27C525.684 544.016 522.854 544.971 519.94 544.997C498.694 546.129 477.394 544.277 456.659 539.495C451.484 538.096 446.47 536.157 441.699 533.711C437.096 531.379 436.067 528.56 437.103 524.77C437.404 522.725 438.456 520.866 440.052 519.555C441.648 518.244 443.675 517.574 445.738 517.678C450.588 517.293 455.864 517.838 460.159 515.97C467.324 513.004 473.481 516.985 480.125 517.084C483.222 521.902 487.92 519.702 492.067 519.78C498.885 519.591 505.708 519.84 512.494 520.523C521.669 521.871 530.956 522.286 540.213 521.762C542.282 521.897 544.354 522.062 546.766 522.156V522.156ZM464.874 622.747L465.405 624.296C453.061 632.081 440.687 639.869 428.406 647.646C425.246 649.452 422.375 651.721 419.886 654.377C411.213 664.889 402.834 675.745 394.587 686.649C390.381 692.205 386.659 698.115 382.379 704.376C374.856 702.99 368.709 697.49 362.42 691.848C362.729 690.91 363.13 690.005 363.616 689.146C371.968 677.534 378.924 664.791 389.53 654.873C394.677 649.325 400.453 644.397 406.741 640.189C416.016 635.276 425.657 631.09 435.579 627.669C444.953 624.222 454.888 622.552 464.874 622.747ZM398.523 1046.66C403.359 1042.16 409.592 1039.44 416.184 1038.98C420.297 1038.77 425.789 1038.47 426.945 1032.23C427.078 1031.49 428.879 1030.96 429.908 1030.59C431.522 1030.08 433.309 1029.96 434.876 1029.33C440.921 1027.04 441.692 1021.54 436.655 1017.68C435.462 1016.93 434.182 1016.32 432.842 1015.88C428.925 1018.81 427.509 1025.53 420.306 1022.84C421.145 1021.13 421.93 1019.48 422.863 1017.76C424.831 1014.11 427.133 1010.62 428.772 1006.85C429.264 1005.22 430.339 1003.83 431.79 1002.95C433.241 1002.07 434.967 1001.75 436.638 1002.06C443.918 1002.46 451.214 1002.2 458.51 1001.94C470.675 1001.26 482.877 1001.86 494.917 1003.73C497.205 1004.12 499.453 1004.96 502.605 1005.98C486.202 1014.69 470.124 1021.87 455.518 1031.35C440.911 1040.82 427.401 1052.89 412.598 1064.44L398.523 1046.66ZM770.48 987.195C782.41 972.188 828.204 951.369 842.728 953.728C842.857 954.819 842.994 955.973 842.978 957.176C842.999 966.708 841.294 976.165 837.945 985.088C836.162 990.003 832.66 994.105 828.088 996.634C823.516 999.163 818.182 999.949 813.075 998.845L815.034 991.91C811.648 993.987 809.745 995.256 807.754 996.313C805.654 997.884 803.244 998.989 800.684 999.553C798.077 999.797 795.448 999.515 792.951 998.724C790.454 997.934 788.141 996.651 786.148 994.951L791.798 983.723L790.894 983.292L782.397 994.478L770.48 987.195ZM508.66 668.463C502.189 673.023 495.855 677.947 489.097 682.224C485.131 684.89 480.629 686.652 475.908 687.386C471.187 688.12 466.363 687.807 461.775 686.471C450.273 683.217 438.82 679.852 427.418 676.375C426.008 675.941 424.904 674.618 423.072 673.285C435.092 664.907 446.369 656.648 459.402 651.754C466.542 649.106 473.857 647.134 481.526 650.019C491.442 653.746 499.687 660.168 508.094 666.349C508.42 666.437 508.301 666.767 508.66 668.463ZM655.687 279.067C665.448 279.619 674.868 294.627 671.8 303.653C669.9 303.878 667.969 304.107 666.069 304.332C657.571 305.117 655.053 302.791 655.097 294.091C655.095 291.404 655.283 288.726 655.378 286.059L653.745 285.873C652.894 289.357 651.911 292.793 651.189 296.293C649.928 302.449 648.712 303.921 642.583 303.635C635.517 303.453 628.485 302.58 621.588 301.031C615.735 299.237 610.131 296.714 604.907 293.521C603.924 292.919 603.091 292.1 602.472 291.127C601.853 290.154 601.465 289.052 601.336 287.905C601.582 283.006 603.565 278.354 606.928 274.787C610.291 271.219 614.815 268.968 619.687 268.439C630.494 266.622 640.415 269.589 650.441 272.638C653.364 273.588 656.041 274.852 655.78 279.056L655.687 279.067ZM828.874 441.395C830.756 444.831 833.022 448.042 835.629 450.965C839.923 454.521 844.397 457.854 849.034 460.949C850.556 462.065 852.448 463.106 853.231 464.657C855.376 469.967 851.369 481.475 846.526 485.116C839.089 490.691 830.655 494.79 821.679 497.194C819.625 497.6 817.542 497.846 815.45 497.932C816.331 493.37 817.117 489.609 817.709 485.808C819.056 478.876 819.999 471.871 820.532 464.829C820.955 452.133 820.693 439.518 820.556 426.888C820.547 416.677 820.516 416.681 830.005 413.597C831.143 413.18 832.303 412.821 833.478 412.522C838.697 411.525 840.795 415.639 843.284 418.791C845.774 421.942 843.938 424.309 841.873 426.609C837.961 431.182 833.917 435.707 828.874 441.395ZM219.532 844.65C225.551 839.931 231.278 834.851 236.68 829.436C242.109 822.795 247.171 815.863 251.845 808.671C255.493 803.465 258.799 798.047 262.411 792.813C264.053 790.406 265.691 787.967 269.334 788.326C275.726 788.961 281.897 789.336 287.952 789.789C289.602 794.811 290.926 799.935 291.915 805.128C293.196 815.947 292.966 816.132 282.976 820.318C264.256 828.131 245.564 835.908 228.791 847.632C226.683 848.861 224.488 849.934 222.223 850.844L219.532 844.65ZM665.045 745.426L689.788 704.463C704.893 727.209 726.033 741.968 747.539 756.62C739.034 758.122 730.336 758.168 721.815 756.757L706.991 774.004C705.404 760.597 705.404 760.597 699.575 754.048L703.995 739.36C701.605 739.032 699.192 738.905 696.781 738.982C692.984 739.86 689.129 740.465 685.246 740.79C678.214 740.533 671.243 742.167 665.056 745.52L665.045 745.426ZM466.277 228.335C458.591 224.503 458.059 223.744 460.742 216.534C462.628 211.757 464.832 207.113 467.34 202.632C468.259 201.229 469.675 200.226 471.302 199.823C475.535 198.608 479.919 198.004 484.323 198.029C488.367 198.13 492.314 199.286 495.775 201.383C499.236 203.479 502.091 206.444 504.057 209.983C508.637 218.261 506.903 226.022 503.729 233.891C502.687 236.492 500.836 238.688 498.45 240.155C496.064 241.622 493.27 242.281 490.481 242.036C488.256 241.92 486.058 242.022 483.873 241.712C478.219 241.243 472.786 239.303 468.11 236.085C467.56 231.439 473.601 229.112 471.316 223.944L466.277 228.335ZM505.808 1093.59C509.306 1086.85 512.158 1081.33 515.169 1075.82C518.513 1070.75 521.495 1065.45 524.094 1059.96C525.578 1055.96 527.473 1054.1 531.329 1054.65C536.107 1055.35 540.831 1056.39 545.466 1057.75C547.306 1058.36 548.833 1059.66 549.718 1061.39C552.461 1067.62 554.811 1074.01 556.754 1080.54C558.28 1085.95 556.057 1089.85 551.176 1092.64C536.831 1100.85 522.262 1098.91 505.808 1093.59ZM735.931 1016.83C742.291 1021.2 748.026 1025.36 753.97 1029.14C755.226 1029.86 756.178 1031.01 756.648 1032.38C757.118 1033.75 757.074 1035.25 756.525 1036.59C755.396 1042.25 750.678 1042.69 746.641 1043.8C738.196 1046.09 729.659 1048.15 721.096 1049.98C708.571 1052.76 696.029 1055.67 683.03 1053.38C683.066 1052.21 683.011 1051.03 682.866 1049.86C682.479 1048.62 681.998 1047.41 681.426 1046.24C684.783 1044.45 687.831 1042.98 690.694 1041.28C696.774 1037.69 703.969 1035.51 706.579 1027.67C707.045 1026.83 707.691 1026.1 708.471 1025.54C709.25 1024.98 710.145 1024.6 711.089 1024.42C714.454 1023.88 717.885 1023.91 721.239 1024.51C729.176 1026.2 729.109 1026.43 733.546 1019.9C734.24 1019.09 734.981 1018.14 735.931 1016.83ZM1096.81 749.633C1095 750.689 1093.13 751.639 1091.21 752.478C1085.14 754.525 1079.05 756.447 1072.96 758.4C1066.88 760.354 1060.46 762.726 1054.09 764.366C1047.71 766.006 1046.39 765.277 1042.98 759.358C1041.51 756.546 1039.84 753.848 1037.98 751.287C1036.87 750.13 1036.22 748.613 1036.14 747.014C1036.06 745.415 1036.56 743.841 1037.55 742.581C1038.57 741.18 1039.45 739.678 1040.17 738.096C1041.89 733.341 1045.57 732.147 1050.04 732.313C1060.53 733.148 1071.08 732.59 1081.42 730.652C1082.84 730.216 1084.37 730.297 1085.74 730.883C1087.1 731.468 1088.21 732.518 1088.88 733.848C1091.51 738.974 1093.93 743.967 1096.82 749.726L1096.81 749.633ZM520.661 271.532C519.363 279.242 514.133 284.951 516.378 292.178C515.405 292.6 514.369 292.862 513.312 292.952C494.971 291.425 476.475 290.991 458.679 285.004C454.774 283.612 451.102 281.638 447.785 279.149C446.208 277.962 445.133 276.225 444.774 274.282C444.416 272.34 444.799 270.333 445.848 268.661C447.871 264.406 449.182 263.745 454.627 264.649C468.683 267.502 482.919 269.376 497.234 270.259C504.915 270.583 512.377 271.185 520.661 271.532ZM977.277 468.813L978.763 469.364C978.591 471.914 978.614 474.503 978.282 477.04C976.813 485.758 977.579 494.708 980.509 503.049C983.715 510.921 982.096 516.456 975.937 521.516C974.009 523.104 972.917 525.889 969.018 525.497L973.243 517.441L972.069 516.062C969.618 516.7 967.178 517.432 964.72 518.007C959.55 519.157 954.606 521.418 949.102 519.477C941.494 516.837 933.675 514.822 925.972 512.446C923.969 511.651 922.007 510.754 920.095 509.759C923.722 508.382 925.884 507.43 928.109 506.756C944.368 501.928 958.624 491.954 968.739 478.328C971.25 474.996 974.37 472.002 977.277 468.813ZM918.813 373.553C915.904 364.192 919.014 356.046 923.46 348.248C926.072 343.639 927.556 342.831 932.357 345.235C941.482 349.75 950.3 354.871 959.177 359.954C959.713 360.236 960.178 360.637 960.536 361.127C960.894 361.616 961.136 362.181 961.243 362.778C961.351 363.375 961.32 363.989 961.155 364.572C960.989 365.156 960.693 365.694 960.289 366.145C955.058 373.411 949.381 380.345 943.291 386.906C936.686 393.537 928.492 391.819 923.738 383.941C921.922 380.564 920.278 377.097 918.813 373.553V373.553ZM888.518 653.587C887.399 656.429 886.126 659.208 884.703 661.911C881.594 666.863 878.349 671.736 874.899 676.476C873.088 679.065 870.984 681.436 868.63 683.542C865.964 685.902 862.642 687.392 859.108 687.81C855.573 688.229 851.995 687.556 848.852 685.883C845.447 683.654 842.882 680.352 841.562 676.5C840.242 672.648 840.243 668.466 841.565 664.615C842.44 662.083 843.488 659.614 844.701 657.225C847.243 652.024 848.787 651.462 854.534 651.983C860.281 652.504 866.67 652.854 872.75 652.987C877.353 653.454 881.932 653.449 888.518 653.587ZM795.037 499.716C784.897 500.747 774.668 498.996 765.444 494.652C769.635 488.434 772.967 482.696 777.023 477.474C784.664 467.328 790.506 455.942 794.293 443.813C795.83 439.458 796.411 435.026 792.109 431.236C789.53 428.56 787.19 425.663 785.115 422.58C793.189 422.224 800.266 419.837 808.201 421.237C806.723 424.763 805.825 427.842 804.255 430.588C797.455 443.695 794.673 458.52 796.257 473.205C797.306 482.049 796.894 491.006 795.037 499.716V499.716ZM707.786 189.592C708.514 192.193 708.575 194.935 707.965 197.566C707.355 200.196 706.092 202.631 704.293 204.643C697.349 212.429 687.89 217.522 677.572 219.031C673.219 219.827 668.727 219.259 664.708 217.403C660.69 215.547 657.341 212.495 655.121 208.663C653.346 205.143 653.734 203.358 657.423 201.435C665.183 197.355 672.974 193.271 680.857 189.429C682.43 188.822 684.143 188.674 685.797 189.002C688.693 189.45 691.554 190.093 694.363 190.928C698.623 192.226 703.119 193.654 707.786 189.592ZM738.136 454.73C749.86 451.319 758.225 452.352 765.971 457.758C767.443 458.672 768.634 459.974 769.413 461.522C770.192 463.07 770.53 464.802 770.389 466.53C769.658 474.302 767.153 481.803 763.068 488.453C761.07 491.851 758.415 491.564 755.52 489.789C751.818 487.914 748.315 485.67 745.062 483.091C740.703 479.22 736.928 474.736 733.854 469.781C728.686 460.813 730.958 456.529 738.031 454.648L738.136 454.73ZM164.119 845.583L165.655 843.883C174.585 845.419 183.79 844.74 193.356 847.907C192.697 855.415 191.943 862.649 191.473 869.881C191.208 876.985 188.156 883.697 182.978 888.56C181.048 890.401 179.373 892.492 177.997 894.777C177.168 896.363 175.783 897.585 174.108 898.209C172.433 898.834 170.586 898.816 168.923 898.16C168.753 896.726 167.932 894.863 168.38 893.577C173.654 881.033 171.58 868.854 167.169 856.667C165.83 853.095 165.095 849.293 164.119 845.583ZM203.094 777.042C219.136 779.157 234.24 780.815 248.062 786.324C247.462 790.064 247.075 793.836 246.905 797.621C246.989 798.724 246.717 799.824 246.128 800.759C245.539 801.694 244.665 802.415 243.635 802.814C235.519 806.913 226.295 808.271 217.342 806.686C215.489 806.38 213.828 805.363 212.712 803.851C208.868 795.928 203.852 788.239 203.094 777.042ZM652.667 947.651L651.728 946.118C657.045 937.679 662.06 929.087 667.691 920.895C669.584 918.17 672.323 916.149 675.484 915.146C678.644 914.142 682.047 914.214 685.163 915.349C686.235 915.801 687.194 916.483 687.973 917.347C688.752 918.211 689.332 919.235 689.672 920.348C690.007 924.467 689.213 928.599 687.374 932.299C685.536 935.999 682.723 939.126 679.24 941.343C670.641 945.807 661.411 944.94 652.686 947.806L652.667 947.651ZM376.287 539.021C365.133 545.115 354.425 549.64 341.89 548.595C329.354 547.55 318.067 545.851 307.989 537.022C323.804 533.221 365.26 534.446 376.287 539.021ZM180.876 801.455C169.314 800.896 159.395 800.616 149.487 799.892C143.942 799.474 142.282 795.592 145.069 790.583C151.075 779.691 161.945 778.942 172.631 776.633L180.876 801.455ZM545.59 186.791C541.186 195.47 532.74 200.959 526.938 208.506C526.2 209.479 524.456 209.686 522.899 210.407C522.124 209.352 521.451 208.225 520.89 207.041C518.097 198.393 513.528 191.283 504.803 187.479C503.938 187.107 503.696 185.333 502.964 183.681C517.713 184.749 531.413 185.751 545.59 186.791ZM323.176 789.065C342.364 784.675 363.095 782.378 370.779 784.061C355.806 793.105 340.202 797.893 323.861 803.653L323.176 789.065ZM991.556 805.756C993.61 805.228 994.955 804.848 996.272 804.502C1003.31 802.563 1010.38 800.651 1017.46 798.832C1019.99 798.121 1022.57 798.037 1023.77 800.708C1024.97 803.38 1022.85 805.181 1020.81 806.655C1013.82 811.983 1005.38 815.085 996.602 815.56C991.1 815.769 985.732 812.579 984.823 808.64C983.611 803.472 987.694 801.408 990.935 798.906C991.224 798.682 991.807 798.803 992.203 798.945L991.556 805.756ZM1072.95 491.282L1071.96 489.029C1074.15 486.587 1076.62 484.397 1079.3 482.5C1085.43 479.055 1091.83 476.021 1098.29 473.202C1100.76 472.235 1103.41 471.813 1106.07 471.964C1109.62 472.113 1110.79 474.25 1109.18 477.476C1107.84 480.496 1105.79 483.15 1103.21 485.215C1100.63 487.281 1097.59 488.698 1094.35 489.349C1087.3 490.358 1080.2 490.999 1073.07 491.267L1072.95 491.282ZM557.954 894.875C547.881 896.225 538.515 899.01 528.394 897.553C537.28 890.177 539.813 878.496 548.098 870.844L557.954 894.875ZM973.897 657.673C978.27 669.801 988.704 666.163 996.674 668.919C993.754 674.133 990.553 676.441 985.103 676.296C978.542 676.092 971.926 677.034 965.337 677.403C963.624 677.606 961.837 677.185 958.559 676.972L973.897 657.673ZM644.444 862.725C644.234 863.35 644.181 864.242 643.716 864.581C639.659 868.116 634.725 870.491 629.434 871.457C619.903 872.586 610.328 873.34 600.775 874.282C606.107 864.102 632.065 857.14 644.413 862.728L644.444 862.725ZM1027.23 732.263C1015.54 740.254 997.316 746.364 990.005 745.175C994.25 739.677 998.19 734.278 1002.6 729.109C1003.16 728.392 1003.88 727.806 1004.69 727.393C1005.5 726.98 1006.4 726.75 1007.31 726.718C1013.57 728.126 1019.71 730.118 1027.23 732.263ZM411.316 1018.4C404.426 1021.88 396.876 1023.85 389.166 1024.19C388.264 1024.14 387.386 1023.87 386.606 1023.42C385.826 1022.96 385.168 1022.32 384.686 1021.55C382.75 1017.97 381.814 1013.93 381.975 1009.86C400.22 1008.18 407.467 1010.16 411.316 1018.4ZM386.891 545.353C389.847 542.316 391.952 541.15 394.764 542.493C397.576 543.835 399.37 542.453 400.819 540.29C402.069 538.805 403.224 537.243 404.277 535.612C408.335 528.271 414.648 527.176 422.862 528.796C420.845 533.366 419.265 537.631 417.077 541.558C416.56 542.345 415.88 543.012 415.085 543.515C414.289 544.018 413.396 544.345 412.464 544.475C404.532 544.972 396.393 545.05 386.984 545.342L386.891 545.353ZM324.757 495.391L328.708 489.011C342.967 490.737 356.532 491.407 369.93 493.868C355.371 498.405 340.651 498.125 324.851 495.38L324.757 495.391ZM720.999 473.516C724.219 479.092 727.848 484.422 731.857 489.461C736.308 493.714 741.068 497.631 746.099 501.179L745.801 502.131L733.783 500.393C728.859 494.02 725.308 485.367 716.442 482.244C717.93 479.601 719.234 477.013 721.093 473.505L720.999 473.516ZM808.324 581.798C804.638 577.334 801.615 573.677 798.671 569.884C795.726 566.091 790.395 564.54 788.162 559.019C802.56 563.258 810.407 571.909 808.418 581.787L808.324 581.798ZM158.69 924.569C157.699 918.841 157.776 912.979 158.917 907.28C159.613 903.024 159.936 903.081 165.568 904.501C169.483 912.763 162.247 917.003 158.69 924.569ZM493.839 192.508C499.385 187.867 502.996 191.423 506.853 193.591C510.71 195.758 514.159 197.942 514.367 203.703L493.839 192.508ZM322.663 488.905C321.942 492.689 320.106 493.981 317.725 493.346C311.458 492.073 305.51 489.552 300.234 485.933C307.542 486.838 314.893 487.833 322.659 488.873L322.663 488.905ZM449.038 501.005C453.03 495.505 457.458 496.625 462.013 500.417L449.038 501.005ZM778.467 301.078C783.052 295.255 784.109 295.383 788.499 301.787C786.952 302.698 785.165 303.118 783.373 302.992C781.582 302.865 779.871 302.198 778.467 301.078V301.078ZM137.867 785.776L135.301 780.105L142.385 778.855L143.066 780.071C141.66 781.533 140.082 783.143 137.915 785.644L137.867 785.776ZM961.215 882.127L963.069 882.856L961.639 887.578L960.158 887.343C959.89 886.326 959.766 885.276 959.789 884.225C959.763 883.469 960.662 882.794 961.215 882.127ZM431.543 363.905L432.316 362.169C434.404 363.534 437.528 362.975 438.603 366.452L431.543 363.905ZM555.914 1153.19L554.463 1151.34L557.879 1148.72L559.092 1150.16L555.914 1153.19ZM300.227 745.687L300.12 747.185L295.522 746.497L295.434 745.748C297.103 745.709 298.682 745.711 300.227 745.687Z" fill="#ED6A5E"/>
<path d="M465.833 1281.72L463.022 1273.46C454.062 1275.94 450.362 1283.36 446.088 1290.48L448.775 1291.84L440.613 1302.92C440.848 1305.34 442.029 1307.57 443.899 1309.13C445.769 1310.68 448.176 1311.43 450.597 1311.22C451.656 1311.04 452.744 1311.19 453.721 1311.64C454.698 1312.08 455.517 1312.81 456.074 1313.73C456.728 1314.38 457.536 1314.85 458.422 1315.09C459.309 1315.34 460.242 1315.35 461.134 1315.13C464.994 1312.52 468.507 1314.44 472.263 1314.69C476.59 1315.21 480.977 1314.69 485.065 1313.18C489.483 1311.35 493.997 1309.76 498.587 1308.42C503.782 1306.95 506.903 1302.63 511.808 1300.84C515.832 1298.91 519.64 1296.55 523.166 1293.81C523.725 1293.46 524.63 1293.63 525.315 1293.55C527.392 1293.18 529.371 1292.38 531.134 1291.22C535.058 1287.28 540.535 1287.39 545.108 1285.2C545.617 1284.95 546.175 1284.82 546.741 1284.82C547.307 1284.82 547.867 1284.94 548.379 1285.18C548.89 1285.43 549.34 1285.78 549.695 1286.23C550.05 1286.67 550.301 1287.18 550.43 1287.73C550.97 1289.09 551.627 1290.38 552.471 1292.17C554.418 1290.74 556.036 1289.47 557.802 1288.38C559.005 1287.6 560.691 1286.11 561.525 1286.48C565.721 1288.58 570.465 1288.37 574.979 1289.41C571.667 1296.38 572.313 1296.24 576.197 1302.1C579.982 1307.99 585.623 1312.44 592.223 1314.75C595.041 1315.81 598.126 1315.92 601.015 1315.08C603.905 1314.24 606.443 1312.48 608.25 1310.07C608.88 1309.32 609.44 1308.51 609.923 1307.66C611.321 1304.2 612.926 1300.84 614.729 1297.57C616.497 1294.9 620.152 1294.02 621.002 1290C621.235 1289.42 621.619 1288.91 622.116 1288.53C622.613 1288.15 623.203 1287.91 623.825 1287.84C624.447 1287.76 625.077 1287.86 625.649 1288.11C626.221 1288.37 626.714 1288.77 627.076 1289.28C630.253 1293.17 634.235 1293.46 638.772 1293.9C642.598 1294.51 646.303 1295.73 649.747 1297.51C651.748 1298.67 654.043 1299.24 656.356 1299.12C658.669 1299.01 660.901 1298.23 662.78 1296.88C663.674 1296.09 664.769 1295.55 665.945 1295.34C672.762 1294.87 679.355 1292.71 685.129 1289.05C687.679 1287.74 690.023 1286.07 692.09 1284.08C695.795 1279.96 699.29 1275.65 702.563 1271.18C703.296 1269.6 703.789 1267.92 704.027 1266.2C702.388 1266.75 700.822 1267.5 699.364 1268.43C697.3 1270.33 694.829 1271.74 692.138 1272.55C689.448 1273.35 686.61 1273.53 683.839 1273.08C680.188 1272.66 676.48 1272.81 672.921 1272.09C669.145 1271.17 665.162 1271.64 661.708 1273.42C659.903 1274.27 657.855 1274.44 655.936 1273.9C654.017 1273.36 652.356 1272.15 651.254 1270.49C648.13 1266.78 645.171 1262.86 642.427 1258.88C640.558 1256.06 638.937 1253.08 637.582 1249.97C635.476 1245.26 633.736 1240.44 636.612 1235.39C637.86 1233.12 636.974 1231.77 634.536 1230.39C633.536 1231.55 631.982 1232.55 631.51 1233.9C628.439 1241.46 626.056 1249.27 624.389 1257.26C623.566 1263.46 621.428 1269.42 618.12 1274.73C613.874 1281.55 610.094 1283.23 603.133 1279.66C597.231 1277.24 591.932 1273.55 587.61 1268.85C586.61 1267.89 585.883 1266.67 585.502 1265.34C585.122 1264 585.102 1262.58 585.445 1261.24C586.7 1254.77 587.083 1248.4 588.141 1240.53C581.242 1242.74 574.463 1245.32 567.83 1248.24C557.323 1253.3 547.558 1259.77 538.81 1267.49C537.696 1268.4 536.453 1269.14 535.123 1269.69C527.823 1273.57 520.332 1277.07 512.679 1280.19C505.561 1282.37 498.33 1284.17 491.018 1285.57C487.519 1286.43 484.07 1287.44 480.395 1288.41L465.833 1281.72ZM481.86 1300.79C482.656 1301.64 483.478 1302.17 483.421 1302.5C483.332 1302.82 483.175 1303.12 482.961 1303.38C482.747 1303.64 482.48 1303.86 482.178 1304C481.742 1304.06 481.036 1303.7 480.477 1303.51L481.86 1300.79Z" fill="#ED6A5E"/>
<path d="M861.696 1056.32C855.703 1065.19 849.338 1073.84 843.852 1083C841.764 1086.4 840.41 1090.21 839.878 1094.17C839.347 1098.13 839.648 1102.16 840.764 1106C853.178 1105.48 863.226 1100.18 873.268 1094.56C893.502 1083.54 911.111 1068.74 929.756 1055.5C943.247 1045.94 955.732 1034.82 968.624 1024.47C971.077 1022.68 973.622 1021.03 976.25 1019.52L977.554 1020.66C977.032 1022.67 976.402 1024.66 975.668 1026.61C971.734 1035.8 968.138 1045.17 963.468 1054.01C960.523 1060.17 956.485 1065.75 951.552 1070.47C942.613 1078.2 937.339 1088.34 931.108 1097.86C930.413 1098.93 931.015 1100.81 931.033 1102.3C932.418 1101.72 934.356 1101.56 935.118 1100.52C941.349 1092.07 947.713 1083.66 953.395 1074.83C960.594 1063.61 967.716 1052.27 973.933 1040.5C980.151 1028.73 985.544 1015.86 991.27 1003.67C993.602 998.558 995.934 993.444 998.165 988.28C999.208 985.88 1000.01 983.35 1001.02 980.608C996.99 978.618 994.441 980.564 992.101 982.675C985.938 988.242 979.918 993.95 973.794 999.575C964.418 1008.15 955.486 1017.27 945.543 1025.05C931.606 1036.19 916.907 1046.21 902.554 1056.76C898.634 1059.66 894.944 1062.91 890.993 1065.81C885.44 1069.89 878.717 1072.06 871.828 1072C865.23 1072.02 862.62 1069.46 861.955 1062.77C861.7 1060.62 861.632 1058.44 861.471 1056.28L861.696 1056.32Z" fill="#ED6A5E"/>
<path d="M744.092 1184.72C742 1184.32 739.834 1184.65 737.95 1185.64C736.065 1186.63 734.573 1188.24 733.717 1190.19C731.107 1195.17 726.824 1199.07 721.622 1201.2C716.42 1203.33 710.634 1203.56 705.282 1201.84C703.887 1201.13 702.283 1200.95 700.766 1201.33C699.249 1201.71 697.922 1202.63 697.032 1203.92C694.34 1207.38 691.879 1211 689.665 1214.78C686.825 1219.61 684.292 1224.62 681.949 1229.64C680.947 1232.02 680.076 1234.46 679.338 1236.94C685.978 1237.79 691.09 1235.36 696.314 1234.14C701.539 1232.92 706.523 1231 711.57 1229.61C717.692 1227.97 719.603 1229.7 719.127 1236.08C718.589 1239.52 718.451 1243 718.714 1246.47C720.176 1244.15 721.84 1241.93 723.115 1239.63C728.592 1229.33 734.075 1219.36 735.6 1207.16C736.512 1199.66 740.905 1192.75 744.092 1184.72Z" fill="#ED6A5E"/>
<path d="M835.046 252.109C836.558 250.324 837.895 248.397 839.039 246.356C843.942 236.017 848.731 225.607 853.407 215.126C854.321 213.132 854.995 211.035 855.415 208.882C856.878 200.963 854.428 196.542 846.789 194.443C841.906 193.277 836.944 192.47 831.943 192.027C830.5 192.174 829.122 192.709 827.957 193.574C825.511 195.148 822.936 196.511 820.259 197.647C813.3 199.957 811.149 205.523 809.712 211.795C809.128 214.33 808.439 216.783 807.524 219.99C810.738 220.463 813.967 221.061 817.178 221.502C822.018 222.099 826.93 222.245 831.713 223.164C839.57 224.7 842.18 229.671 839.249 237.195C837.715 241.044 835.778 244.687 834.046 248.465C833.742 249.295 833.505 250.148 833.337 251.015L835.046 252.109Z" fill="#ED6A5E"/>
<path d="M856.881 1175.16L875.868 1140C872.455 1140.79 870.355 1140.66 869.205 1141.61C864.712 1145.28 860.442 1149.22 856.42 1153.4C847.003 1163.5 837.939 1173.9 828.467 1184.06C826.931 1185.76 826.04 1187.03 828.267 1189.84C831.226 1188.16 834.201 1186.61 837.12 1184.58C841.038 1182.17 844.632 1179.27 847.815 1175.95C850.749 1172.73 853.132 1173.11 856.881 1175.16Z" fill="#ED6A5E"/>
<path d="M312.372 731.16C307.377 728.255 301.539 727.15 295.831 728.028C288.267 728.702 280.339 730.558 272.858 727.397C269.106 725.849 267.013 727.646 265.706 730.741C272.529 732.083 279.328 733.491 286.16 734.643C288.965 735.132 291.817 735.206 294.659 735.47C294.908 735.441 295.313 735.393 295.375 735.385C299.28 727.556 306.577 733.964 312.372 731.16Z" fill="#ED6A5E"/>
<path d="M348.506 725.048C337.623 725.957 326.611 726.85 315.891 727.803C315.548 727.843 315.338 729.006 314.62 730.672C324.617 730.81 334.614 730.355 344.557 729.309C346.177 729.117 347.704 727.609 349.273 726.727L348.506 725.048Z" fill="#ED6A5E"/>
<path d="M316.548 662.66C311.362 658.88 306.17 655.037 300.934 651.357C299.144 650.115 297.694 647.472 294.762 649.116L294.74 648.929C297.63 651.464 300.469 654.099 303.417 656.596C305.77 658.593 308.291 660.413 310.671 662.376C313.051 664.339 314.415 664.652 316.419 662.644L316.548 662.66Z" fill="#ED6A5E"/>
<path d="M320.039 1068C326.792 1066.88 333.358 1065.79 340.73 1064.57C337.669 1061.39 335.443 1063.93 333.228 1064.16C331.013 1064.39 328.402 1064.48 325.973 1064.77C323.543 1065.06 320.393 1061.92 320.039 1068Z" fill="#ED6A5E"/>
<path d="M825.409 1190.24C819.268 1189.86 819.268 1189.86 818.058 1197.24C823.264 1198.27 823.264 1198.27 825.409 1190.24Z" fill="#ED6A5E"/>
<path d="M421.317 805.709L422.5 800.764C415.978 804.097 408.419 801.071 403.569 808.127C408.437 806.823 412.736 805.524 417.021 804.637C418.538 804.643 420.037 804.961 421.427 805.57L421.317 805.709Z" fill="#ED6A5E"/>
<path d="M316.544 662.629C317.424 665.002 318.603 667.253 320.053 669.327C322.161 671.249 324.478 672.926 326.962 674.326C326.962 674.326 327.398 674.275 327.991 673.952C328.399 670.995 325.32 670.6 323.914 669.123C321.711 666.791 319.047 664.83 316.582 662.688L316.544 662.629Z" fill="#ED6A5E"/>
<path d="M313.634 151.498C317.398 154.214 318.493 151.46 320.288 150.078C322.393 148.798 324.184 147.063 325.53 144.999C321.552 147.146 317.702 149.309 313.634 151.498Z" fill="#ED6A5E"/>
<path d="M160.521 715.69C155.354 714.468 151.586 713.586 147.814 712.673C150.782 716.4 150.782 716.4 160.521 715.69Z" fill="#ED6A5E"/>
<path d="M263.886 619.607L253.969 610.538L253.189 611.42L262.91 620.703L263.886 619.607Z" fill="#ED6A5E"/>
<path d="M240.02 729.072C243.593 728.838 245.66 728.688 247.789 728.531C245.02 726.488 245.02 726.488 240.02 729.072Z" fill="#ED6A5E"/>
<path d="M163.141 727.425L153.646 725.387C156.538 728.207 159.669 729.575 163.359 727.399L163.141 727.425Z" fill="#ED6A5E"/>
<path d="M282.15 633.821L276.517 631.327L275.578 632.734L280.917 636.212L282.15 633.821Z" fill="#ED6A5E"/>
<path d="M142.645 710.092L138.061 708.453L137.598 709.615L142.215 711.534L142.645 710.092Z" fill="#ED6A5E"/>
<path d="M294.773 649.209C293.709 645.288 293.709 645.288 289.287 645.022L294.736 648.897L294.773 649.209Z" fill="#ED6A5E"/>
<path d="M353.371 725.325L359.279 724.278L359.146 723.156L352.865 723.457L353.371 725.325Z" fill="#ED6A5E"/>
<path d="M639.4 1227.72L640.781 1224.18L639.791 1223.82L638.542 1227.41L639.4 1227.72Z" fill="#ED6A5E"/>
<path d="M331.222 660.164L329.106 657.76L328.559 658.204L330.62 660.678L331.222 660.164Z" fill="#ED6A5E"/>
<path d="M288.097 641.369L285.74 640.131L285.197 641.144L287.557 642.413L288.097 641.369Z" fill="#ED6A5E"/>
<path d="M478.304 933.043L502.588 933.014L502.581 931.086C494.468 930.055 486.401 932.338 478.304 933.043Z" fill="#ED6A5E"/>
<path d="M542.972 927.853L538.12 927.416L538.013 928.914L542.898 929.095L542.972 927.853Z" fill="#ED6A5E"/>
<path d="M365.216 363.886L370.89 362.992C368.383 359.432 366.613 360.748 365.216 363.886Z" fill="#ED6A5E"/>
<path d="M512.65 784.051L519.521 782.605L519.44 781.92L512.712 784.044L512.65 784.051Z" fill="#ED6A5E"/>
</svg>
