<svg width="20" height="16" viewBox="0 0 20 16" fill="none" xmlns="http://www.w3.org/2000/svg">
<path fill-rule="evenodd" clip-rule="evenodd" d="M0.803542 4.35317C0.523398 6.95607 0.535886 9.95806 0.925709 12.5504C1.14141 13.9848 2.31208 15.0844 3.75715 15.21L5.26738 15.3413C8.41642 15.6151 11.5833 15.6151 14.7323 15.3413L16.2426 15.21C17.6876 15.0844 18.8583 13.9848 19.074 12.5504C19.4638 9.95805 19.4763 6.95624 19.1962 4.35333C19.16 4.05157 19.1192 3.75022 19.074 3.44937C18.8583 2.01497 17.6876 0.915329 16.2426 0.789712L14.7323 0.65843C11.5833 0.38469 8.41642 0.38469 5.26738 0.658431L3.75715 0.789712C2.31208 0.915329 1.14141 2.01497 0.925709 3.44937C0.880477 3.75016 0.839754 4.05147 0.803542 4.35317ZM5.39728 2.1528C8.45989 1.88657 11.5398 1.88657 14.6024 2.1528L16.1127 2.28408C16.867 2.34965 17.4781 2.92367 17.5907 3.67242C17.6024 3.75018 17.6137 3.82797 17.6248 3.9058L12.0638 6.99525C10.7802 7.70835 9.21943 7.70835 7.93584 6.99525L2.3749 3.90584C2.38596 3.828 2.39734 3.75019 2.40903 3.67242C2.52163 2.92367 3.13272 2.34965 3.88705 2.28408L5.39728 2.1528ZM17.8084 5.51977C18.0023 7.78752 17.9298 10.0724 17.5907 12.3273C17.4781 13.0761 16.867 13.6501 16.1127 13.7157L14.6024 13.847C11.5398 14.1132 8.45989 14.1132 5.39728 13.847L3.88705 13.7157C3.13272 13.6501 2.52163 13.0761 2.40903 12.3273C2.06994 10.0724 1.99738 7.78754 2.19135 5.5198L7.20737 8.30648C8.944 9.27128 11.0556 9.27128 12.7923 8.30648L17.8084 5.51977Z" fill="white"/>
</svg>
