<svg width="637" height="931" viewBox="0 0 637 931" fill="none" xmlns="http://www.w3.org/2000/svg">
<g clip-path="url(#clip0_150_425)">
<path d="M-330.116 377.469C-330.116 376.774 -330.691 375.838 -330.418 375.476C-320.734 362.154 -312.781 347.658 -306.75 332.336C-301.672 320.26 -296.805 307.973 -292.059 295.716C-291.165 292.847 -289.348 290.353 -286.89 288.621C-283.474 286.357 -280.844 283.006 -277.489 280.561C-275.896 279.616 -274.043 279.204 -272.199 279.383C-270.067 279.625 -267.922 279.048 -266.199 277.77C-264.477 276.492 -263.304 274.609 -262.919 272.5C-261.931 269.845 -261.143 267.121 -260.561 264.349C-259.256 254.438 -254.402 245.333 -246.898 238.718C-238.455 231.271 -229.94 223.905 -221.356 216.619C-209.869 206.898 -196.145 201.223 -182.452 195.487C-179.641 194.309 -176.8 193.223 -173.958 192.106C-173.258 191.946 -172.597 191.649 -172.012 191.232C-171.427 190.816 -170.931 190.288 -170.552 189.679C-170.172 189.07 -169.917 188.392 -169.802 187.684C-169.686 186.976 -169.712 186.252 -169.877 185.554C-170.904 180.284 -172.506 175.141 -174.653 170.218C-177.676 164.361 -182.241 163.848 -187.41 167.984C-192.579 172.12 -197.294 175.954 -201.828 180.392C-206.363 184.83 -206.363 187.004 -201.828 192.468C-204.896 198.48 -209.797 203.364 -215.824 206.415C-218.182 207.744 -219.905 206.687 -221.053 204.544C-221.763 203.036 -222.043 201.361 -221.862 199.705C-221.681 198.048 -221.045 196.474 -220.026 195.155C-212.288 182.763 -201.682 172.41 -189.102 164.965C-187.893 164.211 -186.08 163.848 -185.505 162.822C-181.389 157.592 -176.055 153.447 -169.968 150.746C-166.734 149.055 -163.288 147.727 -158.451 145.765C-156.99 142.822 -155.698 139.798 -154.582 136.708C-150.622 124.179 -141.826 114.821 -133.845 105.009C-128.223 98.0956 -121.392 92.1483 -115.709 85.2953C-113.189 82.3307 -110.01 79.9972 -106.424 78.482C-102.839 76.9669 -98.9475 76.3122 -95.0629 76.5705C-89.1805 76.4839 -83.2997 76.837 -77.4701 77.6272C-75.7475 77.9594 -73.9691 77.8574 -72.296 77.3302C-70.6228 76.8031 -69.1077 75.8675 -67.8878 74.6082C-65.1975 72.1931 -62.1143 70.1704 -59.0612 67.8458C-56.2198 70.8647 -57.5196 73.5818 -57.7614 75.9668C-57.9162 76.5964 -57.9399 77.2509 -57.8312 77.8901C-57.7226 78.5292 -57.4838 79.1392 -57.1296 79.6825C-56.7755 80.2258 -56.3135 80.6908 -55.7722 81.0486C-55.231 81.4065 -54.622 81.6497 -53.9829 81.7631C-48.3303 83.2726 -42.6776 84.7821 -36.9645 86.201C-31.7049 78.8951 -35.0299 70.7138 -33.3069 63.0457L-28.7123 63.9514C-28.7123 59.5135 -24.299 58.5173 -22.6667 55.7398C-20.8975 52.4523 -18.4568 49.5725 -15.5026 47.2868C-12.4798 45.1433 -9.457 43.0301 -6.07147 40.6753C-3.198 44.7105 -1.96631 49.685 -2.62546 54.5926C-3.26025 61.1135 -4.62051 67.6043 -5.82965 74.0648C-6.79694 79.3782 -8.21765 84.6311 -9.12448 89.9445C-9.88019 94.4427 -9.12448 95.9824 -5.07394 96.7371C0.231232 97.7674 5.60715 98.3931 11.0074 98.6088C16.0857 98.79 19.6223 95.2578 23.4311 92.5709C28.1164 89.1595 29.1443 89.552 30.3232 95.0163C21.95 102.956 13.8791 110.715 5.68726 118.353C4.07898 119.704 2.33688 120.887 0.488007 121.885C-2.08136 123.515 -4.65073 125.206 -7.37125 126.625C-9.41827 127.562 -11.0862 129.165 -12.1021 131.173C-13.1179 133.18 -13.4216 135.472 -12.9635 137.674C-12.3287 143.712 -12.2078 149.75 -11.5125 155.788C-10.816 161.987 -8.79276 167.964 -5.57996 173.313C-2.36719 178.663 1.95993 183.26 7.10797 186.792C11.6931 190.477 17.3946 192.5 23.28 192.528C26.3028 192.528 27.784 191.381 27.8142 188.513C28.177 181.937 28.177 175.345 27.8142 168.769C26.9137 161.766 25.5606 154.828 23.7636 147.999C23.5395 147.037 23.1279 146.129 22.5522 145.326C21.9764 144.523 21.2479 143.841 20.4083 143.319C18.3528 142.353 16.5996 143.802 15.3602 145.976C14.5441 147.425 12.8513 148.331 10.7656 150.172C13.0931 140.029 39.8449 110.141 49.397 106.669C51.0403 109.41 52.3687 112.326 53.3569 115.364C54.7241 121.313 55.5237 127.378 55.7449 133.478C55.9867 147.848 55.5636 162.218 55.4427 176.558C55.371 178.443 55.4519 180.331 55.6845 182.203C56.8936 191.26 63.8158 194.762 71.5542 190.022C72.5725 189.294 73.4286 188.362 74.0685 187.287C74.7085 186.211 75.1183 185.015 75.2722 183.773C76.2093 174.415 76.6627 164.995 77.0557 155.576C77.2975 149.72 77.0557 143.833 77.0557 137.976C77.1081 136.355 76.8622 134.738 76.3302 133.206C70.2846 118.111 73.0354 103.59 78.8996 89.2803C84.6519 74.0108 94.1027 60.4025 106.407 49.6718C108.735 47.7396 110.337 45.2641 108.281 42.2753C107.994 41.6866 107.582 41.1672 107.074 40.753C106.566 40.3387 105.974 40.0395 105.339 39.8759C104.703 39.7123 104.04 39.6883 103.395 39.8054C102.75 39.9226 102.138 40.1782 101.601 40.5545C100.551 41.0924 99.624 41.843 98.8803 42.7584C94.9204 48.7963 88.9353 50.0944 82.3154 50.185C74.5468 50.185 66.7782 50.185 59.0398 50.6076C52.2385 51.0001 45.4976 51.9963 38.7265 52.7813C38.0615 52.7813 37.064 53.053 36.8222 53.536C34.4644 57.7625 30.1418 59.5739 26.726 62.5928C24.7914 64.2231 23.7032 66.2458 20.6804 66.2458C19.5922 66.2458 18.4435 67.4533 17.446 68.2685C16.4485 69.0836 15.7834 70.593 15.1487 70.5025C10.7051 69.9591 10.7958 73.7931 9.49597 76.5404C8.68588 76.3752 7.9205 76.039 7.25104 75.5544C6.5816 75.0698 6.02356 74.4479 5.61429 73.7305C5.20499 73.013 4.95395 72.2165 4.8779 71.3942C4.80185 70.572 4.90259 69.743 5.17337 68.9628C6.18369 64.4119 8.03949 60.0906 10.6447 56.2229C16.9623 48.0415 24.1264 40.4941 30.8974 32.6449C33.9807 29.3525 38.0374 27.131 42.4748 26.3051C56.8891 22.1408 71.787 19.8775 86.7891 19.5729C88.0111 19.3772 89.1945 18.99 90.2956 18.4257C90.2298 16.9988 90.0171 15.5825 89.6608 14.1992C82.2851 -4.24658 74.8188 -22.632 66.9595 -42.074C63.5135 -36.4587 60.6116 -31.9605 57.8911 -27.3113C46.2801 -7.57703 30.7092 9.54659 12.156 22.9843C1.66095 30.1789 -9.46869 36.4035 -21.0948 41.581C-32.2792 47.0453 -43.9472 51.5737 -55.4944 56.2229C-60.8447 58.3965 -66.4671 59.9362 -71.9384 61.7475L-72.6034 60.2984C-69.1876 58.4267 -65.8323 56.5248 -62.4166 54.7134C-58.2149 52.4492 -54.8596 48.0717 -49.2069 49.5208C-34.8486 44.5697 -21.1553 38.6828 -11.3614 26.1844C-4.5903 17.4898 3.48059 9.67074 9.55643 0.523338C18.572 -12.1661 25.5292 -26.1951 30.172 -41.0475C32.2275 -48.2628 34.4946 -55.4479 36.8222 -62.6028C40.1523 -71.9475 45.071 -80.6488 51.3618 -88.3242C53.6642 -91.2494 56.841 -93.3647 60.4303 -94.3621C65.1842 -95.6848 69.7095 -97.7206 73.8515 -100.4C79.8971 -103.842 84.7638 -101.849 87.8169 -95.2979C89.4794 -91.7054 91.9883 -88.5053 93.8625 -85.0637C101.419 -72.1426 105.5 -57.8932 109.762 -43.6136C115.726 -23.6825 125.363 -5.03825 138.177 11.3614C142.379 16.7653 148.787 20.4182 154.349 24.7353C155.256 25.4296 157.039 25.1881 158.43 25.1277C163.327 24.8862 168.193 24.5239 173.09 24.2221C173.685 25.3334 173.844 26.6261 173.537 27.8483C173.23 29.0705 172.478 30.1347 171.428 30.8335C164.022 37.2639 156.465 43.5131 148.938 49.8227C148.206 50.4049 147.377 50.8545 146.49 51.151C136.863 53.9884 126.701 54.5057 116.836 52.6605C113.123 57.5959 109.692 62.7362 106.558 68.0571C102.731 75.029 101.236 83.0402 102.291 90.9209C103.346 98.8016 106.896 106.139 112.423 111.862C119.627 120.307 128.51 127.165 138.509 131.998C142.418 134.111 146.878 134.985 151.296 134.504C151.719 133.961 152.263 133.538 152.233 133.236C149.815 119.107 152.233 104.677 149.784 90.669C147.88 79.7404 150.389 71.7704 159.367 64.9778C165.252 59.9161 170.824 54.5023 176.053 48.7661C177.46 47.6559 178.945 46.647 180.496 45.7471C183.247 55.77 180.496 65.974 184.395 75.9366C186.511 74.2459 188.144 72.9176 189.685 71.71C198.754 64.1023 207.46 56.3738 216.467 48.8264C218.515 47.2343 220.748 45.8962 223.118 44.8414C229.526 41.8225 234.332 44.8414 233.546 51.785C232.713 56.9022 231.491 61.9484 229.889 66.8797C229.042 69.8987 227.863 72.9176 226.292 77.7479C230.644 76.1177 233.697 75.2422 236.509 73.8837C244.328 69.844 253.091 67.9761 261.881 68.4753C270.671 68.9745 279.165 71.8225 286.476 76.7215C301.59 86.3217 311.444 103.198 307.635 122.549C307.31 124.649 306.815 126.718 306.154 128.738C305.819 129.418 305.626 130.159 305.589 130.916C305.551 131.673 305.669 132.43 305.935 133.14C306.202 133.85 306.61 134.498 307.137 135.044C307.663 135.59 308.296 136.023 308.996 136.315C315.797 140.542 322.296 145.191 328.976 149.599C339.194 156.784 347.997 165.79 354.942 176.165C362.862 187.275 370.993 198.234 379.125 209.374C380.757 211.638 382.147 214.506 385.684 213.661C386.025 217.169 387.17 220.552 389.031 223.546C390.892 226.541 393.418 229.067 396.415 230.929C401.884 234.984 408.179 237.787 414.854 239.141C416.819 243.126 413.645 245.179 411.559 247.473C410.843 248.391 409.86 249.064 408.744 249.399C407.629 249.734 406.437 249.715 405.332 249.345C402.611 249.1 399.87 249.191 397.171 249.616C397.484 252.923 397.321 256.258 396.687 259.519C395.144 262.493 393.19 265.237 390.883 267.67C393.15 268.726 394.541 269.511 396.022 270.055C404.698 273.074 407.872 283.398 407.69 290.131C407.475 291.108 407.064 292.031 406.482 292.846C405.9 293.66 405.16 294.349 404.305 294.87C396.264 300.244 388.072 305.346 379.941 310.539C378.767 311.311 377.522 311.968 376.223 312.501C370.57 314.554 368.031 312.682 368.454 306.795C369.18 296.35 367.457 294.116 357.24 292.365C355.392 291.969 353.491 291.888 351.617 292.123C345.571 293.27 339.526 294.448 333.722 296.048C326.256 298.071 324.654 301.874 326.044 309.603C327.435 316.848 324.11 323.339 321.601 329.89C320.001 332.987 318.909 336.32 318.366 339.762C318.034 357.634 320.029 375.114 330.669 390.299C333.386 394.12 336.633 397.535 340.312 400.443C342.597 402.355 345.358 403.611 348.302 404.079C351.246 404.547 354.262 404.209 357.028 403.1C366.25 400.191 374.851 395.595 382.389 389.545C383.931 388.471 385.112 386.956 385.776 385.199C386.439 383.442 386.555 381.526 386.107 379.703C383.931 370.344 381.694 360.955 380.062 351.476C379.366 347.581 376.132 346.555 373.684 344.2C373.835 343.294 373.684 342.087 374.137 341.543C377.402 338.102 377.16 334.056 376.888 329.709C376.404 323.852 376.888 323.671 382.752 321.407C383.704 320.864 384.562 320.171 385.291 319.354C386.47 318.358 387.588 317.362 389.614 315.58L392.183 326.569C395.901 321.196 390.007 314.252 396.989 310.539C397.775 313.346 398.531 315.882 399.438 319.143C404.244 315.188 398.078 308.214 404.698 305.105C405.423 308.969 406.058 312.531 406.723 316.275C417.454 320.139 427.882 324.003 437.918 313.588L438.493 315.429L426.855 326.69L481.265 390.088L479.24 394.767L500.097 408.715C498.889 408.637 497.676 408.798 496.53 409.188C495.383 409.579 494.325 410.191 493.415 410.99C492.506 411.789 491.763 412.759 491.229 413.845C490.695 414.931 490.38 416.111 490.303 417.319C498.586 423.357 509.317 418.164 512.974 406.813C520.501 404.609 527.786 402.224 535.253 400.443C539.273 399.447 543.928 400.443 547.646 398.813C551.364 397.182 553.692 393.65 556.714 391.175C558.778 389.71 560.939 388.389 563.183 387.22C563.54 390.903 562.666 394.6 560.697 397.735C558.729 400.87 555.776 403.266 552.301 404.549C553.895 422.935 558.278 440.973 565.299 458.044C568.724 466.763 570.961 475.901 571.949 485.215C572.931 491.213 574.689 497.058 577.179 502.604C579.658 509.185 582.68 515.555 585.522 521.986C587.849 527.208 587.396 529.322 583.013 532.854C581.643 534.146 580.155 535.308 578.569 536.326C571.859 540.039 569.833 545.382 570.166 553.171C570.823 574.142 575.535 594.788 584.041 613.973C587.063 621.007 590.6 627.981 594.228 634.834C595.834 638.408 598.447 641.438 601.748 643.556C605.049 645.673 608.895 646.786 612.818 646.759C618.44 646.759 624.062 646.759 629.624 647C632.175 647.393 634.677 648.05 637.091 648.962C636.275 650.894 634.975 652.434 635.338 653.249C637.967 659.287 634.763 662.85 630.924 666.653C625.483 671.997 620.344 677.642 615.024 683.107C614.239 683.73 613.375 684.247 612.455 684.646C609.855 680.722 609.432 674.533 601.815 675.861C602.752 677.491 603.266 678.699 604.021 679.725C608.253 685.552 613.392 690.775 615.841 697.839C616.005 698.288 616.275 698.692 616.626 699.016C619.03 700.989 620.91 703.521 622.101 706.39C623.292 709.26 623.759 712.378 623.458 715.47C623.125 719.455 626.753 720.421 630.29 720.058C630.29 721.387 630.29 722.293 630.048 722.745C625.453 728.572 624.183 735.848 621.372 742.459C617.171 752.391 609.825 760.09 603.235 768.301C594.711 778.958 585.824 789.434 576.907 799.638C572.161 805.102 567.022 810.234 562.035 815.518C561.249 816.393 560.04 817.057 559.616 818.053C554.901 828.861 544.502 834.899 538.003 844.288C537.368 845.224 536.462 846.522 535.494 846.673C527.151 848.122 521.62 854.402 514.909 858.598C508.198 862.794 505.841 862.975 501.004 856.122C497.347 850.96 494.505 845.254 491.029 839.307C489.68 840.025 488.438 840.93 487.341 841.994C479.119 852.862 468.086 860.409 457.113 867.957C449.919 872.847 442.543 877.496 435.319 882.327C431.026 885.165 430.24 885.165 427.369 881.059C424.95 877.617 422.683 874.085 419.781 869.708C418.21 871.217 416.547 872.726 415.156 874.206C412.649 877.775 409.87 881.147 406.844 884.289C404.196 886.31 401.074 887.62 397.775 888.093C384.72 890.215 371.378 889.805 358.479 886.885C356.544 886.27 354.825 885.119 353.521 883.564C341.642 871.217 333.601 856.183 324.442 841.933C322.296 838.643 320.059 835.412 317.883 832.152L316.311 832.756C317.369 837.556 318.276 842.416 319.515 847.186C322.252 855.943 323.767 865.035 324.019 874.206C324.019 879.338 325.077 881.089 330.609 885.738C328.998 886.484 327.303 887.031 325.561 887.368C321.801 887.968 318.392 889.923 315.978 892.863C313.469 895.187 311.897 898.538 307.938 899.082C307.507 899.255 307.122 899.525 306.813 899.87C306.504 900.216 306.278 900.628 306.154 901.074C305.126 906.539 300.108 908.259 296.451 912.607C289.922 902.644 291.856 890.689 286.143 880.727C283.12 884.259 280.098 887.55 277.075 891.082C276.383 892 275.501 892.758 274.489 893.305C273.477 893.852 272.359 894.175 271.21 894.252C266.806 894.816 262.472 895.828 258.273 897.27C255.552 898.176 253.588 898.025 252.227 895.761C249.184 891.011 246.262 886.201 243.461 881.33C241.164 877.315 239.108 873.179 236.781 868.711C232.337 872.032 228.71 874.991 224.689 877.557C220.78 880.103 216.745 882.451 212.598 884.591C205.253 888.425 198.784 884.319 195.006 878.825C188.765 870.206 184.625 860.251 182.914 849.752C182.451 847.7 181.845 845.683 181.101 843.714C179.529 845.013 178.32 845.888 177.262 846.733C167.286 856.334 157.402 866.085 147.306 875.564C142.56 880.002 141.562 879.61 137.482 874.236C128.806 862.824 126.267 849.752 126.388 835.744C126.388 819.533 126.237 803.321 126.055 787.079C125.811 785.639 125.437 784.225 124.937 782.853C123.153 784.936 121.914 786.415 120.554 787.985C119.677 789.041 119.224 790.611 118.136 791.306C111.203 796.241 105.697 802.916 102.175 810.657C99.8476 815.004 95.5553 815.276 91.2024 816.423L101.178 801.178L100.059 800.151L79.2019 816.544L81.1062 820.136L74.8792 818.748C80.9249 827.805 88.8446 833.661 93.0161 842.386C74.577 827.291 63.181 806.43 48.1275 788.377L53.3871 790.853C46.6765 772.437 37.2453 756.648 32.7414 738.987L28.7815 747.712C30.0581 749.983 31.1889 752.332 32.167 754.746C32.5121 756.267 32.5121 757.845 32.167 759.365C31.774 762.384 31.2602 765.162 30.6859 768.06C30.3232 769.871 29.8394 771.682 29.3558 773.494C29.0233 774.822 27.9653 776.332 28.2978 777.479C29.9906 783.517 27.6026 789.132 27.8142 794.928C28.056 801.63 29.1442 808.332 29.8092 815.035C30.2334 818.036 30.4757 821.061 30.5347 824.091C30.2722 833.199 30.9918 842.308 32.6809 851.262C32.993 852.882 33.0946 854.536 32.9832 856.183C32.3737 862.438 33.9547 868.712 37.4569 873.934C36.5803 879.972 35.7944 885.285 35.0689 890.538C34.9625 891.011 35.0381 891.507 35.2805 891.927C39.6334 897.059 37.4267 903.308 38.1219 909.044C39.1949 920.828 44.7697 931.748 53.6894 939.536C57.4981 942.766 57.5888 945.574 54.7171 949.951C54.3994 950.579 53.9807 951.15 53.4778 951.642C47.2508 955.929 48.9738 961.634 50.6363 967.31C51.4223 969.967 52.2989 972.593 53.1151 975.22C60.0675 976.337 64.4506 975.069 73.5795 969.182C74.3654 973.137 71.7053 975.371 69.8312 977.695C67.9571 980.02 65.2365 982.405 65.8713 986.239C65.8713 986.933 65.1761 988.382 64.6319 988.473C60.3396 989.107 60.1884 993.303 60.3396 995.477C60.6116 999.613 59.07 1004.53 63.181 1007.91L63.3322 1007.76C59.9466 1009.64 59.4025 1006.56 58.3748 1004.74C57.347 1002.93 56.4402 1000.4 55.1706 997.469C51.6595 1002.82 50.1502 1009.23 50.9084 1015.58C51.8757 1029.35 57.3772 1041.94 61.8208 1054.83C62.2255 1055.66 62.792 1056.41 63.4875 1057.02C64.1829 1057.63 64.9933 1058.1 65.8713 1058.39C69.8739 1059.73 73.9782 1060.74 78.1439 1061.41C82.7688 1062.17 87.4844 1062.32 92.1395 1062.89C96.3109 1063.4 100.362 1061.92 104.835 1063.55C108.765 1065 113.662 1064.16 118.105 1063.92C123.472 1063.71 128.822 1063.19 134.126 1062.35C139.477 1061.44 140.172 1061.41 143.436 1066.78C131.345 1072.13 118.619 1083.21 116.654 1090.12C115.748 1089.7 114.176 1088.76 114.055 1088.94C108.644 1096.19 100.241 1095.62 92.8952 1095.86C78.1137 1096.37 63.3019 1095.71 48.5204 1095.1C46.8606 1094.8 45.1496 1094.93 43.5582 1095.49C41.9668 1096.05 40.5509 1097.02 39.452 1098.3C32.9227 1089.46 22.3127 1089.82 13.6977 1085.95C4.73862 1082.39 -4.42694 1079.36 -13.7494 1076.9C-20.1577 1074.87 -20.2787 1074.91 -24.299 1080.1C-27.9987 1085.41 -32.9504 1089.73 -38.7178 1092.69C-38.7178 1087.68 -38.7178 1083.21 -38.476 1078.74C-38.2933 1076.7 -37.9497 1074.68 -37.4482 1072.7C-36.4507 1068.29 -38.4759 1065.73 -42.1335 1063.64C-49.6184 1059.54 -57.8316 1056.92 -66.3159 1055.95C-78.8908 1053.93 -91.506 1052.38 -104.161 1051.3C-109.063 1050.88 -114.001 1051.29 -118.762 1052.53C-129.728 1055.27 -140.536 1058.61 -151.136 1062.53C-156.426 1065.06 -161.273 1068.42 -165.494 1072.49C-169.938 1076.23 -173.807 1080.67 -178.976 1085.86L-179.399 1078.2C-181.857 1077.79 -184.358 1077.72 -186.835 1077.98C-193.576 1079.49 -200.196 1081.52 -206.786 1083.3C-208.66 1080.28 -206.786 1078.74 -205.335 1077.5C-196.931 1070.71 -188.498 1063.98 -179.943 1057.43C-178.448 1056.34 -176.618 1055.82 -174.774 1055.95C-164.799 1057.3 -157.816 1051.66 -150.864 1046.04C-147.375 1043.24 -144.074 1040.22 -140.979 1036.99C-135.145 1030.95 -129.19 1024.91 -123.931 1018.36C-118.074 1011.35 -112.721 1003.93 -107.91 996.171C-97.7851 978.401 -90.0699 959.366 -84.9667 939.566C-80.3116 922.871 -76.7749 905.874 -70.8199 889.451C-66.4398 876.053 -62.7472 862.44 -59.7565 848.665C-56.7787 837.594 -53.0417 826.741 -48.5721 816.182C-46.3352 810.597 -44.8843 804.679 -43.0102 798.672L-42.4358 800.845C-39.413 795.653 -36.6622 791.064 -33.972 786.445C-33.2256 784.695 -32.2053 783.075 -30.9492 781.645C-28.2286 779.411 -24.5106 778.203 -22.3039 775.607C-20.0973 773.011 -20.0066 768.452 -15.6537 767.154C-15.2273 766.964 -14.8439 766.689 -14.5269 766.347C-14.2099 766.004 -13.966 765.601 -13.8098 765.161C-10.787 756.407 -9.12448 747.561 -12.3286 738.474C-12.6309 737.629 -13.0541 736.482 -13.7494 736.119C-18.7975 733.583 -18.1022 728.995 -18.2231 724.587C-18.2231 722.172 -18.7068 719.757 -18.9789 717.13C-21.8676 717.766 -24.4961 719.259 -26.5192 721.415C-28.5423 723.57 -29.8653 726.286 -30.3144 729.206C-33.7302 742.882 -37.2971 756.376 -40.8035 770.173C-42.5265 777.479 -43.8263 784.875 -46.033 792.09C-48.9533 802.075 -54.6815 811.013 -62.5374 817.842C-78.9211 832.725 -94.9722 848.032 -110.902 863.126C-116.097 867.519 -121.901 871.139 -128.132 873.874C-128.737 874.206 -129.734 874.598 -130.097 874.357C-135.568 870.553 -142.672 873.934 -148.476 869.043C-154.28 864.153 -160.718 866.538 -166.613 871.579C-173.263 877.134 -180.246 882.297 -187.228 887.459C-189.103 888.686 -191.241 889.451 -193.469 889.692C-195.697 889.934 -197.951 889.644 -200.045 888.848C-212.499 885.376 -219.089 876.772 -222.353 864.696C-224.378 857.209 -226.615 849.782 -228.792 842.326C-229.124 841.269 -229.578 840.273 -230.092 838.854C-231.313 839.17 -232.484 839.658 -233.568 840.303C-237.921 844.228 -242.273 848.182 -246.415 852.379C-250.556 856.575 -250.677 861.255 -251.04 866.175C-251.078 867.656 -251.433 869.111 -252.079 870.443C-252.725 871.776 -253.649 872.956 -254.788 873.904C-260.32 878.342 -265.186 883.746 -272.925 886.644C-272.502 878.855 -272.139 871.549 -271.685 863.096C-273.68 866.115 -275.101 868.44 -276.522 870.734C-276.824 870.462 -277.338 870.191 -277.338 869.949C-276.764 861.556 -276.854 861.738 -284.29 857.873C-293.903 852.922 -303.304 847.609 -312.826 842.537C-318.509 839.518 -320.745 839.971 -325.28 844.258C-330.516 849.626 -336.078 854.667 -341.935 859.353C-348.131 863.556 -354.638 867.28 -361.402 870.492C-370.471 875.142 -379.539 880.606 -389.152 883.414C-396.074 885.436 -403.631 886.432 -411.611 881.964C-424.308 875.046 -435.894 866.264 -445.98 855.911C-447.227 854.56 -448.369 853.117 -449.396 851.594C-451.588 848.053 -454.91 845.351 -458.827 843.926C-461.086 843.048 -463.077 841.599 -464.605 839.72C-466.132 837.841 -467.144 835.597 -467.541 833.209C-467.937 830.821 -467.704 828.371 -466.866 826.101C-466.027 823.83 -464.611 821.816 -462.757 820.257C-459.19 817.238 -456.046 813.555 -452.117 809.6C-454.474 808.997 -456.197 808.514 -457.951 808.151C-460.973 807.608 -464.933 808.151 -466.445 806.37C-468.561 803.955 -471.825 804.045 -473.397 801.962C-476.178 798.219 -478.294 793.962 -480.743 789.887C-482.435 787.109 -484.219 784.392 -486.244 781.222L-479.926 779.23C-476.571 771.743 -473.427 764.377 -469.951 757.131C-468.951 755.576 -467.594 754.282 -465.991 753.357C-464.264 752.187 -462.824 750.643 -461.777 748.84C-460.73 747.036 -460.104 745.02 -459.946 742.942C-458.525 731.078 -456.107 719.364 -454.172 707.56C-453.352 703.405 -452.817 699.199 -452.57 694.971C-452.594 693.468 -452.218 691.985 -451.479 690.675C-450.741 689.365 -449.668 688.274 -448.368 687.514C-442.323 683.197 -436.489 678.457 -430.232 673.506C-428.692 676.004 -427.771 678.833 -427.545 681.757C-427.319 684.682 -427.794 687.618 -428.932 690.322C-432.922 700.556 -434.796 711.454 -440.69 721.115C-441.295 722.647 -441.701 724.25 -441.9 725.885C-443.441 731.229 -443.985 736.783 -446.736 741.946C-451.27 750.399 -449.154 759.426 -446.524 767.969C-444.136 775.788 -431.41 781.283 -423.763 778.566C-419.138 776.935 -418.352 772.377 -417.717 768.935C-415.027 755.35 -412.76 741.765 -411.218 727.908C-410.402 720.541 -408.195 715.349 -401.303 711.605C-396.698 709.54 -392.633 706.44 -389.424 702.549C-387.036 699.228 -383.378 699.862 -378.965 703.213C-378.965 721.477 -379.418 739.44 -378.239 757.554C-377.695 766.007 -373.856 774.249 -371.377 782.581C-370.743 784.724 -368.355 787.321 -368.959 788.619C-370.409 791.794 -372.595 794.578 -375.337 796.74C-380.597 800.862 -386.065 804.711 -391.721 808.272C-395.347 810.386 -399.08 812.31 -402.905 814.038C-408.951 803.261 -410.916 791.457 -414.06 780.166C-424.005 782.369 -427.39 785.147 -435.491 797.676L-430.836 799.517L-436.579 809.087C-432.075 814.914 -427.239 820.318 -423.46 826.356C-416.478 837.405 -404.326 842.537 -395.741 851.805C-389.242 858.839 -379.479 858.809 -370.561 857.33C-363.634 856.125 -356.876 854.098 -350.429 851.292C-342.056 847.669 -334.167 842.96 -326.247 838.673C-325.143 837.914 -324.129 837.033 -323.224 836.046C-335.104 822.431 -351.457 819.925 -368.566 816.725C-365.12 812.257 -362.521 808.453 -359.498 805.132C-355.42 800.571 -351.004 796.322 -346.288 792.423C-343.705 790.38 -340.514 789.254 -337.22 789.222C-330.63 789.404 -323.194 788.136 -318.811 795.26C-318.509 795.743 -317.572 795.925 -316.907 796.106L-298.498 801.087C-290.124 791.094 -287.948 777.992 -284.532 765.373L-285.741 764.105C-287.736 764.891 -289.632 765.904 -291.394 767.124C-295.88 771.34 -301.799 773.702 -307.959 773.735C-311.185 774.261 -314.375 774.987 -317.511 775.909C-322.303 776.649 -327.205 776.146 -331.747 774.449C-336.289 772.752 -340.318 769.918 -343.447 766.218C-347.201 762.02 -350.541 757.47 -353.422 752.633C-354.589 749.891 -355.342 746.991 -355.659 744.029C-356.868 739.017 -358.077 734.036 -359.316 728.934C-363.82 711.092 -360.102 695.243 -346.802 682.322C-334.318 670.246 -321.169 658.744 -305.631 650.593C-300.697 648.514 -295.561 646.946 -290.306 645.913C-288.553 645.43 -286.709 645.279 -284.563 644.917C-284.535 643.655 -284.616 642.392 -284.804 641.143C-288.764 625.143 -288.069 608.992 -286.86 592.84C-286.195 584.417 -285.741 575.964 -285.318 567.481C-285.303 565.624 -285.706 563.788 -286.497 562.107C-291.243 570.923 -296.472 579.466 -296.624 589.278L-343.175 650.864L-348.646 650.079C-348.646 649.174 -349.009 648.328 -348.646 647.845C-344.643 642.164 -341.056 636.201 -337.915 630.003C-334.167 621.128 -330.025 612.192 -333.653 601.686C-336.914 592.142 -339.341 582.334 -340.908 572.372C-342.449 562.439 -342.449 552.296 -343.145 541.971C-344.359 541.627 -345.64 541.587 -346.874 541.856C-348.108 542.125 -349.257 542.693 -350.218 543.511C-355.387 546.771 -360.616 549.911 -366.057 552.567C-368.172 553.545 -370.512 553.931 -372.828 553.684C-377.453 553.292 -381.897 552.296 -386.643 551.632C-388.396 551.36 -390.179 551.33 -393.021 551.118C-389.998 556.703 -386.975 561.141 -384.648 565.881C-377.725 580.13 -375.821 595.436 -375.881 611.165C-375.881 620.765 -376.123 630.396 -376.063 640.026C-376.063 645.611 -375.64 651.196 -375.398 656.781C-375.156 662.366 -375.156 667.589 -379.781 671.876C-380.839 672.842 -381.141 674.654 -382.199 677.038C-375.398 675.106 -371.68 670.397 -367.085 667.167C-362.49 663.936 -358.168 659.77 -353.392 655.755C-352.745 657.217 -352.614 658.856 -353.02 660.402C-353.427 661.949 -354.346 663.312 -355.629 664.268C-364.304 671.725 -372.254 679.997 -380.718 687.756C-384.22 690.886 -387.926 693.78 -391.812 696.42C-394.834 698.594 -396.709 697.899 -398.401 694.488C-399.52 692.194 -400.729 689.929 -401.968 687.695C-403.82 684.199 -404.854 680.328 -404.991 676.374C-406.234 666.211 -406.679 655.965 -406.321 645.732C-410.976 634.049 -408.044 621.097 -412.367 609.505C-413.546 606.274 -414.845 603.074 -416.327 599.18C-429.476 609.776 -437.184 623.815 -448.006 635.407L-453.719 633.385C-448.129 624.315 -443.893 614.481 -441.144 604.191C-440.418 601.474 -439.481 598.818 -438.665 596.131C-436.731 589.791 -435.189 583.27 -432.771 577.111C-430.641 571.995 -428.219 567.006 -425.516 562.168C-421.707 555.103 -415.359 550.665 -409.102 546.107C-406.631 544.278 -404.306 542.259 -402.15 540.069C-400.941 538.892 -399.127 537.05 -399.49 535.842C-399.867 535.053 -400.43 534.367 -401.129 533.841C-401.829 533.316 -402.646 532.967 -403.51 532.824C-406.217 532.505 -408.825 531.61 -411.156 530.199C-413.487 528.787 -415.487 526.892 -417.022 524.642C-422.433 517.668 -428.539 510.997 -429.929 501.577C-430.685 496.294 -432.499 491.192 -433.738 485.97C-434.705 481.894 -436.761 480.747 -440.207 483.313C-446.585 488.204 -454.263 490.377 -461.366 493.909C-465.869 495.793 -470.148 498.173 -474.123 501.004C-482.617 507.887 -490.627 503.751 -495.282 494.151C-495.502 493.731 -495.632 493.269 -495.663 492.796C-495.694 492.323 -495.626 491.849 -495.464 491.404C-492.078 486.875 -494.708 481.592 -493.378 476.883C-492.603 473.935 -491.358 471.132 -489.69 468.58C-485.126 461.878 -480.229 455.418 -475.302 448.988C-474.002 447.267 -471.916 446.18 -470.465 444.55C-469.158 442.938 -467.957 441.244 -466.868 439.478C-465.911 440.724 -465.442 442.276 -465.548 443.843C-465.653 445.41 -466.327 446.884 -467.442 447.991C-468.289 449.048 -470.072 450.135 -469.981 451.01C-469.256 458.376 -471.463 465.894 -468.651 473.199C-467.966 475.07 -466.736 476.693 -465.12 477.86C-463.504 479.027 -461.576 479.685 -459.583 479.751C-456.327 479.762 -453.077 479.459 -449.88 478.845C-448.089 478.356 -446.232 478.152 -444.378 478.241C-436.005 480.384 -431.259 474.498 -428.569 466.799C-427.058 462.392 -426.181 457.742 -424.367 453.425C-419.621 442.316 -412.034 433.047 -404.659 423.628C-399.101 416.688 -391.428 411.748 -382.804 409.56C-385.192 413.907 -387.368 418.406 -389.998 422.632C-395.976 430.738 -399.712 440.273 -400.832 450.278C-401.951 460.283 -400.415 470.406 -396.376 479.63C-394.905 482.497 -393.132 485.199 -391.086 487.69C-389.242 483.705 -387.912 480.868 -386.612 478C-385.313 475.132 -383.983 471.479 -382.381 468.339C-379.358 462.543 -373.645 459.554 -368.989 455.448C-367.568 454.24 -365.992 453.225 -364.304 452.429C-362.711 451.808 -361.061 451.343 -359.377 451.04C-358.658 453.145 -358.39 455.377 -358.591 457.592C-360.041 461.44 -361.717 465.2 -363.609 468.852C-369.004 480.448 -370.16 493.566 -366.874 505.925C-364.213 516.521 -356.656 522.559 -347.618 527.057C-343.779 529.02 -341.573 527.661 -340.787 523.042C-339.792 516.772 -339.126 510.453 -338.792 504.113C-338.459 497.713 -337.25 492.34 -330.963 488.777C-326.469 485.764 -322.196 482.435 -318.176 478.815C-315.456 476.701 -314.791 474.528 -317.058 471.63C-318.333 469.66 -319.747 467.783 -321.29 466.014C-325.219 462.422 -326.307 457.531 -327.668 452.882C-333.895 431.447 -331.597 410.194 -325.824 389.061C-324.805 384.228 -324.068 379.339 -323.617 374.42L-330.328 377.288L-330.116 377.469ZM-30.4957 680.148L-26.9893 684.193C-26.4816 678.382 -26.9413 672.526 -28.3495 666.865C-29.7702 663.695 -41.6499 659.77 -44.6122 661.521C-44.9803 661.793 -45.3152 662.107 -45.6098 662.457C-59.7867 676.254 -64.2 692.979 -60.1797 712.028C-59.8809 714.265 -59.0277 716.392 -57.6975 718.216C-56.3673 720.04 -54.6022 721.503 -52.5622 722.474C-51.6642 721.254 -50.8366 719.984 -50.0835 718.67C-45.037 708.088 -38.9623 698.027 -31.9467 688.631C-30.405 686.639 -30.9492 683.016 -30.5562 680.118L-30.4957 680.148ZM278.888 594.229C276.5 596.312 274.052 598.335 271.755 600.539C268.883 603.376 266.132 606.365 262.686 609.837C258.484 574.636 254.887 556.522 250.595 550.001L235.239 586.953C237.808 586.953 239.562 587.799 241.557 585.142C244.727 581.777 248.231 578.742 252.016 576.085C253.145 580.042 253.974 584.079 254.494 588.161C255.038 603.437 254.948 618.743 255.673 634.019C256.61 654.185 258.061 674.321 259.391 694.397C259.807 697.451 260.413 700.476 261.205 703.454L267.704 696.179C268.702 701.009 268.883 701.16 265.528 704.783C264.316 705.927 263.406 707.353 262.879 708.932C262.352 710.512 262.223 712.198 262.505 713.839C263.563 720.572 264.47 727.334 265.86 734.006C266.384 737.529 267.868 740.84 270.15 743.577C272.432 746.314 275.423 748.371 278.798 749.523L293.912 736.089C293.899 734.896 293.798 733.705 293.61 732.527C290.859 717.432 287.987 702.549 285.387 687.514C284.39 681.748 283.695 675.922 283.271 670.095C282.365 657.687 281.821 645.249 281.035 632.841C280.249 620.433 279.342 607.09 278.465 594.199C282.576 593.293 279.946 598.516 283.664 598.938L280.823 588.946C282.002 588.946 283.604 589.308 284.239 588.674C289.015 584.055 293.519 579.195 298.265 574.515C300.129 572.905 302.076 571.394 304.099 569.987C305.096 571.345 305.761 571.889 305.822 572.462C307.414 587.899 308.955 603.316 310.446 618.713C310.435 619.633 310.08 620.516 309.449 621.188C307.061 623.513 307.545 626.32 307.907 629.128C308.331 632.63 308.391 636.192 309.147 639.604C309.902 643.015 309.328 647.362 312.714 651.076C315.343 646.819 317.913 643.196 319.938 639.302C327.344 625.052 338.528 614.033 350.317 603.588C355.063 599.361 357.784 600.086 359.386 606.003C362.197 616.388 364.615 626.924 367.215 637.37C367.698 639.302 368.152 641.204 368.908 644.253L394.39 610.229C390.823 607.21 387.558 603.889 383.931 601.172C380.303 598.455 376.978 601.595 373.291 602.591C371.945 600.57 370.753 598.451 369.724 596.252C368.833 593.277 368.116 590.253 367.578 587.195L362.983 593.987C356.454 587.617 349.924 582.938 345.632 576.689C340.008 568.319 335.296 559.372 331.576 550.001C325.681 535.42 320.875 520.386 315.555 505.563C314.808 503.839 313.949 502.165 312.986 500.551C311.402 503.459 310.319 506.613 309.781 509.88C307.121 523.223 304.471 536.567 301.832 549.911C301.534 551.292 301.119 552.645 300.592 553.956C295.635 566.545 290.889 579.255 280.974 589.097L278.888 594.229ZM-7.46194 309.029C-6.52487 304.048 -5.73892 300.486 -5.19482 296.953C-3.47183 285.663 -6.85736 274.704 -7.37125 263.534C-8.18497 250.845 -11.3522 238.417 -16.7118 226.884C-19.4323 220.846 -22.9387 214.808 -29.9516 211.608C-30.9325 212.639 -31.851 213.728 -32.7024 214.868C-36.4698 220.596 -38.9737 227.059 -40.0478 233.827C-40.568 236.481 -41.8009 238.944 -43.6147 240.952C-47.6653 246.235 -52.8947 251.247 -52.925 259.066C-52.925 264.198 -56.7337 267.489 -60.4518 270.387C-64.8953 273.828 -69.5201 276.998 -74.1148 280.259L-83.9692 287.142L-85.2992 286.206C-84.1807 275.398 -78.4072 265.073 -80.5534 253.783C-82.294 255.682 -83.7593 257.816 -84.9062 260.122C-93.2492 276.425 -101.471 292.787 -109.844 309.12C-116.668 322.566 -125.506 334.895 -136.052 345.679C-142.098 351.717 -147.69 358.027 -153.796 363.793C-158.569 368.381 -163.616 372.676 -168.91 376.654C-171.073 378.466 -173.768 379.526 -176.588 379.673C-183.359 379.34 -187.5 384.805 -193.274 386.495C-194.241 386.767 -195.027 389.212 -195.087 390.662C-195.087 395.341 -195.087 400.05 -194.846 404.76C-194.543 417.47 -194.422 430.179 -193.939 442.859C-193.941 449.16 -192.92 455.42 -190.916 461.395C-190.281 460.822 -190.039 460.701 -190.009 460.52C-185.354 439.387 -180.759 418.255 -175.923 397.122C-175.379 394.393 -173.995 391.902 -171.963 389.997C-163.983 383.386 -155.67 377.227 -147.388 371.008C-145.597 370.031 -143.701 369.261 -141.735 368.714C-143.186 375.386 -143.881 380.79 -145.513 385.741C-149.806 398.964 -154.975 411.915 -157.151 425.681C-159.207 438.844 -159.237 452.037 -153.947 464.535C-149.594 474.89 -142.642 475.645 -134.51 468.429C-125.976 461.175 -120.131 451.265 -117.915 440.293C-116.49 432.918 -115.711 425.433 -115.588 417.923C-115.787 414.195 -114.917 410.488 -113.08 407.237C-111.244 403.986 -108.517 401.325 -105.219 399.567C-102.801 398.209 -102.529 396.126 -104.766 394.586C-110.509 390.571 -112.414 384.503 -113.351 378.223C-114.288 371.944 -113.925 365.061 -114.953 358.57C-116.434 349.513 -112.384 342.117 -107.88 334.871C-106.924 333.243 -105.832 331.697 -104.615 330.252C-94.0956 318.569 -83.4553 307.007 -72.9964 295.203C-69.3135 291.147 -64.2232 288.643 -58.7589 288.199C-44.2797 286.568 -30.7678 290.493 -17.9813 297.255C-17.3806 297.559 -16.8498 297.984 -16.423 298.504C-15.9962 299.023 -15.6827 299.627 -15.5026 300.274C-15.3515 304.591 -11.8148 305.557 -7.46194 309.029ZM-43.7356 552.084C-43.4333 546.771 -43.1613 542.816 -42.9799 538.861C-42.8304 533.774 -44.3589 528.779 -47.3301 524.644C-50.3013 520.51 -54.5505 517.465 -59.424 515.978C-69.1078 513.496 -79.3621 514.567 -88.322 518.997C-89.9413 520.082 -91.4232 521.36 -92.7353 522.801C-86.6897 526.484 -85.5713 531.858 -84.5737 537.563C-83.5313 544.324 -83.798 551.221 -85.3596 557.881C-88.3824 573.157 -93.4305 587.406 -106.822 597.127C-110.932 600.464 -114.867 604.011 -118.611 607.754C-116.835 609.865 -114.948 611.88 -112.958 613.792C-103.889 621.52 -92.5237 623.332 -81.4904 623.241C-73.3591 623.241 -65.0162 619.92 -57.308 616.931C-52.5924 615.09 -47.1816 612.584 -46.4864 606.003C-46.1391 604.897 -45.3674 603.975 -44.3402 603.437C-37.3878 599.21 -30.3748 595.104 -22.3644 590.395C-42.4056 618.441 -70.7292 633.988 -98.8111 648.902L-87.7779 695.786C-81.7323 687.363 -76.8051 678.759 -70.1549 671.635C-63.5048 664.51 -55.0409 659.197 -47.7257 653.249C-48.1791 651.619 -48.3605 650.683 -48.6931 649.808C-50.4413 645.65 -50.9576 641.079 -50.1806 636.637C-49.4037 632.195 -47.366 628.07 -44.3099 624.75C-39.4621 618.688 -34.2428 612.93 -28.682 607.512C-14.1726 593.776 0.215973 579.829 17.0227 568.749C21.1035 566.062 26.3935 563.466 28.1467 559.511C29.8999 555.556 28.8117 549.337 28.4187 544.205C28.2084 539.997 27.4044 535.841 26.0307 531.858C23.2195 524.672 18.1412 522.469 10.7656 524.371C3.18973 526.377 -3.48114 530.889 -8.1572 537.171C-9.62085 539.024 -10.4168 541.316 -10.4168 543.677C-10.4168 546.037 -9.62085 548.329 -8.1572 550.183C-4.40894 554.862 -4.43915 555.254 -8.48972 559.239C-9.6384 560.417 -10.6359 561.715 -11.7846 562.862C-16.8629 567.753 -21.7901 572.825 -27.1404 577.383C-30.7375 580.402 -37.4179 580.704 -39.5944 578.108C-40.9164 576.553 -41.6744 574.599 -41.7457 572.561C-41.817 570.523 -41.1975 568.52 -39.9873 566.877C-35.5136 559.722 -31.0701 552.507 -26.0522 545.745C-22.5155 540.914 -18.072 536.688 -13.0239 531.163C-18.8579 535.39 -23.4224 538.68 -27.9566 542.031C-32.4908 545.382 -36.0275 550.726 -43.6147 552.084H-43.7356ZM-221.537 639.936C-225.648 643.679 -229.275 647.302 -233.296 650.502C-237.316 653.702 -238.374 659.559 -244.692 661.914C-244.934 656.117 -245.145 651.015 -245.327 646.547L-262.405 654.608C-260.894 660.042 -259.111 665.355 -258.022 670.819C-257.423 673.365 -257.643 676.034 -258.653 678.447C-259.663 680.859 -261.41 682.892 -263.645 684.254C-268.451 687.605 -273.318 690.896 -277.761 694.669C-288.25 703.726 -298.467 713.024 -308.866 722.142C-312.372 725.16 -316.09 727.998 -319.597 730.866C-314.488 742.308 -301.46 751.123 -289.762 750.097C-283.474 749.554 -276.613 748.316 -273.741 740.889C-270.506 732.587 -266.879 724.436 -263.856 716.134C-260.177 706.204 -255.164 696.82 -248.954 688.239C-247.679 686.702 -246.783 684.889 -246.337 682.944C-245.89 680.999 -245.907 678.976 -246.385 677.038C-248.107 671.725 -245.236 669.099 -241.639 666.563C-233.961 661.189 -226.253 655.856 -218.514 650.562C-213.436 647.06 -213.013 647.211 -210.292 652.555C-209.828 653.355 -209.324 654.131 -208.781 654.879C-206.302 653.37 -204.186 651.861 -201.919 650.804C-201.417 650.633 -200.882 650.582 -200.357 650.656C-199.832 650.729 -199.332 650.925 -198.896 651.227C-198.59 651.66 -198.379 652.152 -198.274 652.672C-198.17 653.192 -198.176 653.728 -198.292 654.246C-198.58 655.383 -199.215 656.403 -200.108 657.165C-201.001 657.928 -202.109 658.395 -203.279 658.502C-209.325 659.831 -209.325 660.072 -208.176 666.11C-205.909 678.608 -203.43 691.046 -201.224 703.575C-199.954 710.971 -198.957 718.398 -197.959 725.855C-197.022 732.829 -196.81 739.953 -195.208 746.746C-193.479 752.66 -193.479 758.945 -195.208 764.86L-207.058 772.92C-200.347 779.32 -199.017 787.351 -197.989 795.653C-197.227 802.43 -196.005 809.147 -194.332 815.759C-193.092 820.62 -193.304 826.114 -189.163 830.642C-184.941 827.441 -180.905 824.004 -177.072 820.348C-172.7 815.55 -168.603 810.511 -164.799 805.253C-164.111 804.033 -163.816 802.631 -163.953 801.238C-164.315 785.751 -164.769 770.264 -165.162 754.776C-165.162 753.871 -165.343 752.693 -164.859 752.12C-160.235 746.595 -161.051 740.044 -162.018 733.855C-164.681 717.383 -166.035 700.727 -166.069 684.042C-166.069 676.556 -167.247 668.948 -167.52 661.582C-167.52 659.197 -167.278 655.544 -165.766 654.547C-160.779 651.045 -158.149 645.309 -152.98 642.109C-152.462 641.805 -152.02 641.388 -151.685 640.89C-151.349 640.392 -151.13 639.825 -151.043 639.232C-150.956 638.638 -151.004 638.032 -151.182 637.459C-151.36 636.886 -151.665 636.36 -152.073 635.92C-152.586 634.984 -153.442 634.282 -154.462 633.961C-155.482 633.64 -156.586 633.726 -157.544 634.2C-161.081 635.498 -164.527 637.038 -168.124 638.124C-180.215 641.777 -192.306 645.762 -205.214 645.611C-206.786 645.611 -209.083 645.611 -209.809 644.706C-213.013 640.66 -217.879 641.506 -221.537 639.936ZM-115.739 460.58L-117.583 459.826C-121.21 462.663 -125.079 465.29 -128.465 468.46C-140.726 480.487 -154.187 491.23 -168.638 500.521C-174.925 504.385 -177.706 504.325 -183.45 496.989C-184.354 495.618 -185.027 494.108 -185.445 492.521C-187.591 486.483 -189.707 480.686 -191.944 474.407C-198.428 477.999 -204.271 482.641 -209.234 488.143C-213.738 492.913 -216.308 493.366 -223.169 490.589C-223.42 489.271 -223.602 487.94 -223.713 486.604C-224.409 474.86 -225.013 463.116 -225.739 451.403C-225.523 447.381 -226.334 443.372 -228.097 439.75L-267.212 482.951C-262.617 482.377 -260.259 478.06 -255.12 479.147C-249.982 480.234 -249.619 485.034 -247.019 487.69C-241.608 486.996 -238.314 480.898 -232.389 483.222C-233.266 488.083 -233.266 488.083 -236.953 488.475C-244.148 489.26 -246.203 491.343 -246.808 498.528C-246.959 500.159 -247.17 501.789 -247.352 503.449C-250.586 533.337 -253.397 563.255 -255.483 593.233C-255.554 595.549 -255.382 597.866 -254.969 600.146C-253.7 608.388 -252.339 616.66 -250.919 625.596L-243.634 628.615C-242.757 622.577 -241.881 617.475 -241.306 612.403C-240.006 600.72 -238.948 588.885 -234.384 577.957C-228.158 561.951 -223.216 545.476 -219.602 528.688C-219.164 526.438 -218.119 524.35 -216.58 522.65C-211.924 518.365 -207.04 514.334 -201.949 510.574C-201.196 510.086 -200.34 509.78 -199.448 509.681C-198.556 509.581 -197.653 509.69 -196.81 510C-196.167 510.6 -195.653 511.324 -195.3 512.128C-194.946 512.933 -194.761 513.801 -194.755 514.68C-194.726 517.159 -194.928 519.635 -195.36 522.076L-172.688 510.755C-172.274 510.519 -171.922 510.188 -171.661 509.789C-168.064 505.14 -162.592 505.019 -157.605 504.687C-156.333 504.595 -155.056 504.762 -153.851 505.177C-152.645 505.592 -151.537 506.247 -150.592 507.102C-147.561 510.327 -145.243 514.154 -143.79 518.333C-143.125 520.627 -145.695 523.827 -146.813 526.635C-147.066 527.451 -147.238 528.291 -147.327 529.14C-146.727 529.305 -146.105 529.377 -145.483 529.352C-143.67 528.869 -141.856 528.356 -140.103 527.722C-128.374 523.495 -116.615 519.087 -103.829 520.476C-101.865 520.814 -99.8464 520.648 -97.964 519.993C-96.0816 519.338 -94.3968 518.216 -93.0678 516.733C-91.7679 515.38 -90.3849 514.109 -88.9266 512.929C-81.7323 506.891 -75.0519 500.37 -65.3789 498.317C-58.7892 496.928 -57.7917 495.298 -57.9428 488.596C-57.9428 486.271 -58.3962 483.917 -58.6683 481.592C-59.7565 471.781 -61.0865 461.969 -61.8724 452.127C-62.4165 445.335 -63.0816 438.934 -70.6084 436.006C-71.6059 435.614 -72.3616 434.497 -73.2079 433.651C-79.0117 427.795 -79.2536 424.202 -74.2055 417.802C-72.4522 415.598 -70.4874 413.545 -68.6737 411.402C-67.918 410.526 -66.4369 409.258 -66.6787 408.654C-68.3715 404.035 -65.1371 400.171 -64.472 395.764C-66.981 395.764 -69.0063 396.126 -71.0013 396.035C-79.1931 395.613 -81.0975 397.182 -81.2184 405.485C-81.3696 416.745 -81.7928 428.066 -81.2184 439.327C-80.8401 450.156 -78.7382 460.856 -74.9915 471.026C-73.4498 474.799 -71.9686 478.573 -70.4572 482.136L-103.194 510.302C-111.386 494 -113.169 477.154 -115.739 460.58ZM57.9213 498.77C59.1909 507.163 60.6116 514.257 61.2766 521.442C62.1835 530.952 60.793 540.794 66.2643 549.518C66.6015 550.005 66.8386 550.553 66.9619 551.132C67.0852 551.71 67.0921 552.308 66.9825 552.889C66.8728 553.47 66.6487 554.024 66.323 554.518C65.9973 555.012 65.5767 555.437 65.0854 555.768C63.8763 557.152 63.2388 558.943 63.3019 560.779C63.2197 572.29 64.6631 583.761 67.5943 594.893C70.7867 604.216 75.1221 613.109 80.5017 621.369C81.114 622.657 81.6293 623.989 82.0433 625.354L80.7435 625.988L66.6875 602.652C58.7072 606.486 57.619 608.297 60.1884 614.909C61.6844 618.344 63.4323 621.663 65.4179 624.841C67.5641 628.645 69.8916 632.388 72.5215 636.917C64.4204 642.14 60.0373 650.653 51.3618 655.423L35.4014 627.558C27.0585 633.596 19.5619 639.121 11.7026 644.223C5.65704 648.087 1.00189 652.072 1.93893 660.193C2.18079 662.457 1.12283 664.661 3.81311 666.231C4.81064 666.834 5.17334 668.555 5.71747 669.793C8.5589 676.284 7.22891 682.684 5.47568 689.144C4.67563 691.343 4.24658 693.659 4.20605 695.997C4.65948 703.454 5.50589 710.881 6.35226 719.636L12.8815 716.255C13.7884 721.628 14.8161 727.395 15.6625 733.161C15.7469 734.543 15.604 735.93 15.2393 737.266C14.3133 740.665 13.5767 744.112 13.0327 747.591C12.67 751.939 10.0099 753.991 6.68478 756.165C2.36215 759.184 -1.8093 762.414 -5.95053 765.705C-6.43417 766.097 -6.37375 767.214 -6.73648 768.724L20.8617 757.01L19.8944 747.38C26.1819 743.546 26.2121 743.546 27.6933 735.455C28.0258 733.614 28.2071 731.742 28.6001 729.9C28.7267 728.378 29.2626 726.918 30.1512 725.675C31.0396 724.431 32.2478 723.45 33.6482 722.836C35.5214 721.622 36.9608 719.847 37.7592 717.764C42.2027 708.466 46.4347 699.047 50.7875 689.688C51.5734 687.967 52.5407 686.337 53.8103 683.65L32.8925 689.446C32.3782 687.735 32.343 685.916 32.7906 684.187C33.2383 682.457 34.1516 680.883 35.4316 679.635C43.0793 670.578 49.5783 660.283 59.6141 653.008C58.9491 655.272 58.3143 657.536 57.5888 659.951C64.6414 660.007 71.5498 657.956 77.4264 654.062C83.3029 650.167 87.8794 644.606 90.5676 638.094C95.608 624.605 97.6703 610.188 96.6133 595.829C96.2211 591.771 95.5954 587.739 94.7391 583.753C92.9254 584.478 91.7163 584.78 90.8699 585.293C88.2703 586.682 86.3659 585.474 84.5522 583.783C82.7386 582.093 83.4338 579.919 84.5522 578.017C86.0334 575.33 87.7262 572.794 89.0562 570.047C90.3391 568.143 91.0999 565.936 91.2628 563.647C89.9026 553.684 88.2401 543.752 86.2752 533.91C84.5825 525.639 82.2549 517.487 80.0482 509.336C79.2321 506.317 80.0482 504.446 83.5849 502.634C86.6078 510.846 89.6305 518.635 92.9556 527.812C92.7821 520.112 91.1621 512.514 88.1797 505.412C87.031 501.97 85.1568 499.132 80.7737 499.162C78.6298 499.052 76.5947 498.185 75.0304 496.717C70.8287 492.521 66.7177 493.547 62.3648 496.143C60.7325 497.079 58.9793 498.196 57.9213 498.77ZM377.825 268.606L378.127 266.794C376.253 265.466 374.349 264.198 372.535 262.809C369.059 260.092 365.431 257.526 362.227 254.477C358.938 251.46 355.97 248.111 353.37 244.484C352.875 243.616 352.212 242.853 351.421 242.24C350.63 241.627 349.726 241.176 348.76 240.912C347.794 240.649 346.786 240.578 345.793 240.704C344.8 240.83 343.841 241.15 342.972 241.646C340.361 242.689 337.924 244.125 335.747 245.903C328.613 251.941 321.782 258.462 314.588 264.621C304.28 273.496 290.647 276.183 278.828 269.572C269.185 264.168 266.737 258.039 271.845 248.198C273.104 245.663 274.667 243.291 276.5 241.133C281.458 235.488 286.597 230.023 291.614 224.529C298.325 217.314 305.398 210.37 311.777 202.883C317.55 196.091 317.187 194.521 311.263 188C310.5 187.112 309.649 186.302 308.724 185.585C301.015 180.211 293.307 174.807 285.478 169.614C283.424 168.703 281.26 168.063 279.04 167.712C279.04 170.339 279.04 171.879 279.342 173.448C279.644 175.018 279.765 176.86 280.158 180.181L272.51 175.441C271.906 177.735 271.422 179.698 270.908 181.66L266.465 181.479C265.044 185.253 269.004 189.479 264.016 192.558C262.868 190.777 261.9 188.996 260.691 187.396C258.726 184.86 256.882 187.758 255.038 188.241V180.543C249.204 183.743 244.126 186.581 239.048 189.328C233.97 192.075 233.516 192.347 236.237 198.083C241.523 209.381 245.871 221.093 249.235 233.103C253.255 246.869 257.729 260.515 262.414 274.07C264.39 278.836 266.682 283.466 269.276 287.927C269.858 289.078 270.795 290.013 271.948 290.595C273.101 291.176 274.411 291.373 275.684 291.157C289.074 290.102 302.527 292.169 314.981 297.195C316.943 297.585 318.979 297.33 320.785 296.47C322.273 295.741 323.631 294.772 324.805 293.602C334.529 285.021 346.057 278.728 358.539 275.187C365.189 273.496 371.447 270.9 377.825 268.696V268.606ZM63.0601 212.815C63.3661 213.484 63.7197 214.13 64.1181 214.748C64.715 215.475 65.3614 216.161 66.0526 216.8C70.9724 221.037 74.9063 226.296 77.5795 232.21C80.2527 238.123 81.6008 244.548 81.5294 251.035C82.0433 267.73 82.7688 284.425 84.5522 301.029C85.9253 309.095 88.1651 316.99 91.2326 324.577C92.5022 328.381 94.2555 328.532 97.6107 325.815C99.8779 323.943 101.964 321.799 104.11 319.777C104.067 322.089 103.387 324.346 102.145 326.298C101.147 328.139 99.1222 330.071 99.2733 331.732C100.103 336.748 101.203 341.717 102.568 346.615L107.284 345.045C107.767 349.453 108.191 353.649 108.674 358.298C109.771 357.32 110.783 356.249 111.697 355.098C120.411 341.917 126.725 327.302 130.348 311.927C133.733 296.32 135.275 280.289 138.6 264.651C140.867 253.843 135.003 247.473 128.504 239.926C122.851 245.963 117.712 251.518 111.757 258.039C110.695 255.831 109.952 253.483 109.551 251.065C109.259 242.453 111.891 233.996 117.017 227.065C122.156 220.635 128.02 214.778 133.159 208.378C137.754 202.642 142.227 197.389 151.054 201.645C153.048 188.005 153.797 174.212 153.291 160.437C145.25 163.154 138.177 166.777 131.043 167.592C123.909 168.407 115.929 166.445 108.311 165.69C106.407 175.894 108.704 197.298 112.543 204.936H116.261C115.957 206.934 115.825 208.954 115.868 210.974C116.836 219.608 112.423 225.767 106.8 231.412C104.986 233.254 103.173 235.095 101.389 236.997C99.1389 239.041 97.1123 241.318 95.3437 243.79C93.3801 246.956 90.5181 249.468 87.1216 251.005C80.5319 234.703 80.1087 217.344 75.0304 200.317C71.5542 203.668 68.9848 206.355 66.2038 208.861C65.084 210.12 64.0344 211.441 63.0601 212.815ZM-156.124 314.765C-162.471 310.267 -168.215 306.312 -173.837 302.206C-179.105 298.218 -185.204 295.465 -191.683 294.153C-198.161 292.842 -204.852 293.004 -211.259 294.629C-214.937 295.403 -218.398 296.977 -221.397 299.238C-224.396 301.5 -226.86 304.394 -228.611 307.715C-230.363 311.035 -231.361 314.701 -231.533 318.45C-231.705 322.199 -231.048 325.94 -229.608 329.407C-225.134 341.483 -215.915 348.759 -204.64 353.559C-200.884 354.893 -197.021 355.903 -193.092 356.578C-188.588 357.664 -184.024 359.597 -179.52 359.597C-171.603 358.902 -163.744 357.651 -156.003 355.853C-152.654 355.129 -149.552 353.549 -146.998 351.268C-144.444 348.987 -142.527 346.084 -141.433 342.841C-138.621 336.139 -135.387 329.558 -132.364 323.007C-121.98 301.446 -113.24 279.133 -106.217 256.258C-104.373 250.22 -102.983 244.182 -101.381 238.326C-103.671 238.567 -105.854 239.423 -107.698 240.801L-127.346 254.537C-129.411 256.276 -131.845 257.523 -134.464 258.182C-137.083 258.841 -139.817 258.896 -142.46 258.341C-144.022 257.978 -145.664 258.25 -147.025 259.096C-149.606 261.32 -152.058 263.689 -154.37 266.19C-145 274.462 -133.483 278.689 -124.445 288.138L-156.124 314.765ZM368.122 743.123C366.986 741.883 365.431 741.107 363.756 740.945C362.081 740.783 360.405 741.247 359.053 742.248C353.249 745.689 347.385 749.071 341.37 752.15C332.301 756.708 326.256 764.377 318.82 771.652C321.177 772.86 322.78 773.796 324.472 774.52C331.459 777.421 337.602 782.03 342.337 787.924C346.448 793.057 350.438 798.34 354.035 803.834C361.895 815.91 369.421 827.986 377.13 840.061C379.045 843.602 381.894 846.552 385.368 848.59C388.842 850.628 392.809 851.678 396.838 851.624C400.133 851.624 403.398 852.077 406.693 852.137C408.96 852.137 411.257 851.835 414.129 851.624C408.234 821.435 408.083 791.245 399.468 762.112C394.541 767.909 394.541 767.909 388.405 763.773C390.751 752.468 396.025 741.975 403.7 733.342C408.506 728.179 413.101 722.866 417.847 717.643C419.57 715.741 421.444 713.96 423.469 711.877L418.451 702.549C400.314 718.881 400.314 719.123 394.843 732.738C394.148 734.489 393.755 736.331 393.09 738.082C391.139 744.154 387.06 749.321 381.603 752.633C380.233 753.525 379 754.614 377.946 755.863C372.263 761.901 366.61 767.939 360.958 773.977L359.567 773.494C359.439 771.845 359.561 770.186 359.93 768.573C361.52 764.427 363.389 760.392 365.522 756.497C367.82 752.439 368.732 747.745 368.122 743.123ZM-128.102 702.398C-131.62 710.954 -133.457 720.107 -133.513 729.357C-133.163 745.784 -131.932 762.18 -129.825 778.475C-127.014 797.796 -130.158 816.272 -134.51 834.809C-135.961 840.846 -134.057 844.952 -127.891 846.462C-124.69 847.196 -121.45 847.75 -118.187 848.122C-100.413 850.326 -81.2184 834.446 -77.1981 818.748C-74.7496 809.268 -73.4498 799.517 -71.7873 789.857C-70.2154 780.8 -68.7644 771.743 -67.4042 762.837C-66.6787 757.886 -64.8953 753.025 -65.4091 747.048C-67.6533 748.333 -69.9987 749.434 -72.422 750.338C-76.1361 751.661 -80.0293 752.414 -83.9692 752.573C-86.4691 752.341 -88.9664 753.04 -90.9821 754.535C-96.544 758.52 -102.197 762.384 -108.665 766.882C-110.723 764.488 -112.395 761.789 -113.623 758.882C-116.646 746.806 -118.611 734.549 -121.482 722.504C-122.963 716.134 -123.447 709.583 -128.102 702.398ZM182.28 176.075L184.244 177.977C184.938 176.764 185.748 175.622 186.663 174.565C192.527 168.98 193.313 169.222 200.9 171.999C206.766 174.357 212.931 175.891 219.218 176.558C235.662 177.705 250.595 172.09 264.742 164.241C266.872 162.952 268.679 161.194 270.025 159.101C271.372 157.008 272.222 154.636 272.51 152.165C275.322 137.432 274.173 123.545 262.958 112.134C262.475 111.62 262.051 111.047 261.598 110.503C259.093 107.237 255.899 104.562 252.241 102.668C248.584 100.774 244.555 99.7076 240.438 99.5447C237.415 99.3334 234.393 98.9107 231.37 98.5183C221.062 97.1597 212.387 99.4843 206.19 108.662C200.84 116.632 194.915 124.24 189.383 132.089C188.143 133.798 187.259 135.738 186.784 137.795C183.927 150.359 182.417 163.191 182.28 176.075ZM-260.078 283.761C-262.043 287.836 -263.856 291.308 -265.458 294.931C-268.481 301.603 -271.262 308.275 -274.013 315.037C-280.603 331.369 -287.374 347.672 -293.601 364.155C-299.078 378.751 -301.005 394.437 -299.223 409.922C-298.564 413.845 -297.675 417.726 -296.563 421.545C-285.63 408.177 -273.229 396.076 -259.594 385.469C-246.384 374.933 -231.119 367.567 -214.917 360.532C-217.577 358.6 -219.24 357.302 -220.963 356.155C-229.118 351.315 -235.183 343.623 -237.981 334.57C-238.692 332.581 -239.712 330.716 -241.004 329.045C-245.719 322.101 -245.961 319.173 -240.399 312.833C-233.417 304.924 -226.132 297.255 -218.544 289.919C-212.922 284.485 -206.635 279.776 -199.289 273.617C-201.738 274.118 -204.159 274.743 -206.544 275.489C-215.612 279.142 -224.953 282.644 -233.749 286.78C-242.546 290.916 -251.009 289.829 -260.078 283.761ZM18.7155 446.784C18.2016 448.837 16.7508 451.342 17.4762 452.399C19.6972 456.353 22.7126 459.807 26.333 462.543C29.9301 464.807 30.8067 467.071 29.6278 470.482C29.311 471.368 29.3061 472.336 29.6139 473.225C29.9216 474.114 30.5236 474.872 31.3206 475.373C40.117 483.464 49.6388 489.743 62.3951 488.475C65.6597 488.143 67.3222 486.754 66.7177 483.494C65.9644 480.052 64.954 476.672 63.6949 473.381C59.662 462.472 58.9159 450.623 61.5487 439.297C64.2845 429.823 67.5235 420.501 71.2519 411.371C72.9749 406.632 75.0909 402.013 77.5091 396.277C74.888 396.871 72.2331 397.304 69.5591 397.575C64.2693 397.726 58.3445 400.594 54.4451 394.375C54.0219 393.771 52.6314 393.892 51.8455 393.409C48.8227 391.658 46.0115 389.786 43.1701 387.975C44.8024 383.537 46.1928 379.884 48.067 374.661C44.4699 376.382 42.0214 377.438 39.6938 378.706C34.0994 382.275 27.557 384.074 20.9222 383.869C17.5433 383.495 14.1235 383.804 10.8671 384.78C7.61072 385.755 4.58453 387.375 1.96921 389.545C-3.85938 393.43 -8.9725 398.292 -13.1448 403.915L18.7155 446.784ZM172.879 400.232C173.342 396.402 174.36 392.659 175.901 389.122C178.089 385.227 179.264 380.847 179.317 376.382C180.258 366.773 182.791 357.387 186.814 348.608C189.502 340.795 194.329 333.892 200.749 328.683C208.88 322.645 216.8 316.335 224.931 310.176C231.521 305.165 231.612 305.195 229.012 297.316C224.276 282.805 219.46 268.294 214.563 253.783C213.738 251.832 212.788 249.937 211.722 248.107C209.727 258.1 207.822 266.221 206.492 274.613C204.044 290.1 200.023 304.803 190.109 317.573C184.516 324.728 180.012 332.668 172.486 339.158C169.814 334.973 167.891 330.356 166.803 325.513C164.989 317.965 163.296 310.418 161.15 302.901C159.758 298.994 158.112 295.182 156.223 291.489C154.016 295.233 152.565 297.527 151.266 299.972C142.983 315.248 134.852 330.645 124.06 344.472C119.042 350.993 114.266 357.695 109.46 364.397C108.829 365.622 108.352 366.919 108.039 368.261C110.085 367.332 111.996 366.134 113.722 364.699C118.173 361.985 123.436 360.917 128.595 361.68C132.282 361.921 133.491 364.699 135.245 367.295C135.601 367.971 136.136 368.538 136.791 368.933C137.447 369.328 138.197 369.537 138.963 369.537C139.728 369.537 140.479 369.328 141.134 368.933C141.79 368.538 142.324 367.971 142.681 367.295C143.279 366.356 143.747 365.34 144.071 364.276C162.359 369.499 166.863 385.409 172.727 400.292L172.879 400.232ZM196.336 623.935C202.381 620.916 208.004 619.226 210.664 613.822C213.777 607.514 216.473 601.009 218.735 594.35C226.171 572.16 228.68 548.884 232.73 525.971C233.365 522.499 233.274 518.936 233.758 515.434C234.116 513.694 233.977 511.888 233.357 510.223C232.737 508.557 231.661 507.099 230.251 506.015C224.689 501.698 219.037 497.472 213.324 493.396C211.754 492.648 210.084 492.13 208.366 491.857C208.366 494.483 208.578 496.385 208.669 498.257L202.623 495.781C202.139 506.68 210.513 510.393 216.981 515.555C210.21 518.574 206.22 517.276 203.409 511.631C202.618 509.698 201.604 507.864 200.386 506.166C199.139 504.729 198.322 502.97 198.029 501.091C197.735 499.212 197.975 497.288 198.724 495.54C200.913 488.289 205.467 481.977 211.661 477.607C213.649 476.457 215.359 474.885 216.67 473.002C217.981 471.118 218.862 468.97 219.249 466.709L198.089 454.844C196.843 457.571 195.832 460.399 195.066 463.297C193.383 471.372 192.162 479.537 191.408 487.751C191.077 495.802 191.208 503.866 191.801 511.902C192.225 520.959 192.769 530.197 193.645 539.284C194.542 555.044 197.229 570.652 201.656 585.806C202.472 588.251 204.406 591.512 200.386 594.863C199.661 591.844 199.056 589.399 198.512 586.983C197.363 581.73 196.457 576.387 195.006 571.194C193.706 566.545 186.239 564.794 184.516 568.84C182.189 574.304 178.229 579.315 178.471 585.866C178.424 591.511 180.043 597.045 183.126 601.776C184.387 603.637 185.104 605.813 185.194 608.058C185.285 610.303 184.747 612.53 183.64 614.486C183.186 615.573 182.552 616.569 181.887 617.807C187.932 617.807 191.439 609.988 198.663 614.969C193.736 616.509 195.278 619.769 196.184 623.996L196.336 623.935ZM475.008 691.499C464.579 700.315 454.513 708.768 444.538 717.402C443.286 718.634 441.759 719.55 440.082 720.075C438.405 720.6 436.627 720.719 434.895 720.421C433.461 720.243 432.018 720.153 430.573 720.149C430.966 722.685 431.298 724.768 431.631 726.821C433.686 740.044 436.014 753.237 437.676 766.49C439.913 783.245 441.515 800.091 443.722 816.846C445.248 827.304 449.408 837.204 455.813 845.616C463.159 840.212 471.23 837.828 478.545 833.541C486.525 828.861 489.215 823.457 488.097 814.702C486.827 804.951 486.464 795.079 485.527 785.268C485.45 783.425 484.759 781.661 483.563 780.256C480.328 777.237 470.867 779.803 469.265 784.03C468.896 785.341 468.03 786.457 466.85 787.139C465.669 787.822 464.269 788.017 462.947 787.683C464.942 793.721 464.942 793.721 460.589 796.377L454.151 792.03C454.483 781.222 459.561 772.256 464.882 763.35C467.421 759.124 470.141 754.988 472.529 750.671C472.963 750.004 473.257 749.256 473.392 748.472C473.527 747.688 473.501 746.885 473.315 746.112C471.069 742.002 468.501 738.075 465.637 734.368C465.407 733.862 465.04 733.428 464.579 733.117C464.117 732.805 463.578 732.626 463.021 732.601C462.464 732.576 461.911 732.706 461.424 732.975C460.936 733.244 460.532 733.643 460.257 734.127C459.713 734.791 458.443 734.851 456.508 735.576C459.531 727.636 465.365 723.5 470.111 718.398C474.857 713.296 479.875 708.375 484.53 703.605L475.008 691.499ZM5.17337 381.303C5.05453 380.126 4.47955 379.043 3.57129 378.284C0.334442 375.494 -1.89301 371.719 -2.76712 367.539C-3.64124 363.36 -3.11346 359.009 -1.26523 355.159C0.18454 351.463 2.22638 348.026 4.7804 344.985C13.6674 334.962 22.9172 325.181 31.9856 315.46C37.1244 310.026 42.6562 304.924 47.8554 299.489C49.4153 298.057 50.4747 296.163 50.8782 294.085C51.6943 279.323 50.2736 264.953 41.2354 252.394C38.394 248.469 36.4292 248.348 32.4995 251.307C30.5707 252.582 28.55 253.712 26.4539 254.688C25.5471 256.469 24.9425 260.273 23.0684 261.028C17.5971 263.202 17.0228 267.79 15.9043 272.228C12.5793 284.485 9.10303 296.682 5.89886 308.939C5.39294 311.596 5.12985 314.294 5.11292 316.999C0.937958 321.99 -2.96701 327.2 -6.58533 332.607C-12.4057 342.251 -19.0936 351.346 -26.5661 359.778C-29.5889 363.219 -32.6117 366.902 -35.6345 370.736L-28.8332 371.099C-28.5914 376.593 -28.5309 381.695 -28.0775 386.797C-27.9577 388.848 -27.2436 390.82 -26.022 392.473C-23.1522 395.45 -20.1251 398.272 -16.9536 400.926C-9.5477 394.194 -1.3559 388.427 5.17337 381.303ZM133.884 666.17C135.91 658.08 137.451 650.532 139.93 643.226C141.088 640.456 143.032 638.085 145.522 636.404C152.233 631.362 159.246 626.773 166.138 622.003C167.141 621.401 167.903 620.47 168.295 619.368C168.686 618.267 168.682 617.064 168.284 615.965C166.44 608.478 164.566 600.871 163.417 593.323C161.301 579.406 159.699 565.398 157.825 551.45C157.523 549.247 156.979 547.073 156.495 544.658C147.808 545.439 139.299 547.589 131.285 551.028C129.822 551.505 128.57 552.471 127.738 553.764C126.906 555.056 126.547 556.596 126.72 558.122C126.932 563.043 126.962 567.994 126.72 572.885C126.478 590.593 121.477 607.912 112.241 623.03C110.217 625.587 109.17 628.779 109.286 632.037C109.402 635.294 110.675 638.404 112.876 640.811C119.194 648.932 125.662 656.963 132.101 664.963C132.615 665.459 133.207 665.867 133.854 666.17H133.884ZM492.026 701.341C499.674 708.043 502.576 716.617 506.113 724.738C506.806 726.916 506.911 729.239 506.415 731.47C505.75 736.149 506.415 737.78 510.828 738.323C518.248 739.471 525.75 740.006 533.258 739.923C542.326 739.47 550.699 736.542 555.536 727.455C557.772 723.869 560.278 720.458 563.032 717.251L564.271 718.066L552.18 745.237L590.691 734.67C589.95 732.463 589.092 730.296 588.121 728.179C580.078 713.473 568.468 701.017 554.357 691.952C552.412 690.648 550.322 689.574 548.13 688.752C543.626 687.061 541.903 687.575 539.061 691.56C532.135 701.845 524.018 711.28 514.879 719.666C510.345 715.772 509.861 712.058 513.7 707.288C519.232 700.284 525.096 693.552 530.537 686.488C536.588 678.673 543.584 671.636 551.364 665.536C554.387 663.091 557.41 660.615 560.765 657.959C557.742 651.921 554.991 646.517 551.697 639.845C546.618 646.759 542.205 652.404 538.124 658.321C532.182 667.345 524.882 675.4 516.481 682.201C508.591 688.299 500.672 694.579 492.026 701.341ZM-126.198 549.458C-128.846 548.39 -131.589 547.572 -134.39 547.013C-153.736 545.231 -170.18 553.05 -185.777 563.345C-191.482 567.448 -196.914 571.915 -202.04 576.719C-203.967 578.031 -205.494 579.849 -206.453 581.972C-208.751 590.546 -210.564 599.271 -212.499 607.935C-212.495 609.525 -212.24 611.104 -211.743 612.614C-205.486 609.263 -205.486 609.263 -201.133 609.988C-199.712 616.237 -197.445 618.592 -191.218 620.101C-189.172 620.657 -187.092 621.08 -184.991 621.369C-175.09 622.848 -164.973 621.682 -155.67 617.988C-156.004 605.426 -153.21 592.978 -147.539 581.761C-141.886 570.47 -133.422 561.292 -126.198 549.458ZM460.861 494.392C464.368 491.977 466.242 490.015 465.305 486.302C462.796 476.49 465.305 467.282 468.811 458.165C472.322 449.944 477.163 442.356 483.139 435.704C484.681 433.863 485.89 431.749 487.643 429.183C485.759 428.565 483.841 428.051 481.9 427.644C474.912 426.547 468.2 424.117 462.131 420.489C453.506 415.73 445.615 409.751 438.704 402.737C435.027 398.342 430.478 394.754 425.343 392.201L429.968 406.209C428.88 407.175 427.55 408.503 426.099 409.62C420.507 413.907 414.915 418.224 409.232 422.36C407.72 423.293 406.516 424.648 405.769 426.259C405.022 427.869 404.765 429.663 405.03 431.417C406.118 439.78 407.025 448.203 408.053 456.565C408.529 458.617 409.145 460.635 409.897 462.603C411.357 460.812 412.943 459.127 414.643 457.561C418.965 454.271 419.177 454.391 423.711 457.561C425.537 459.02 427.576 460.191 429.757 461.033C438.227 463.286 445.515 468.686 450.13 476.128C450.584 476.852 451.43 477.818 452.065 477.818C453.909 477.818 453.848 478.362 454.181 480.083C455.097 485.36 457.403 490.299 460.861 494.392ZM175.418 412.549L173.604 412.881C173.241 415.356 172.788 417.802 172.546 420.277C171.549 430.813 167.861 439.75 158.792 446.059C154.953 448.716 151.81 452.339 148.213 455.388C139.839 462.543 131.436 469.728 122.912 476.732C120.336 478.674 117.652 480.469 114.871 482.105C117.712 498.347 120.372 513.834 123.153 529.291C123.569 530.978 124.104 532.632 124.756 534.242C132.947 530.831 140.323 527.057 148.122 524.703C151.119 524.156 153.799 522.5 155.626 520.065C157.453 517.63 158.292 514.596 157.976 511.57C157.976 508.068 158.309 504.536 158.551 501.004C158.913 496.566 159.669 492.128 159.639 487.66C159.639 477.547 167.377 473.864 174.118 468.49C174.692 470.784 175.115 472.384 175.66 474.528C176.355 473.411 176.839 472.988 176.778 472.626C176.325 470.325 176.628 467.939 177.641 465.824C178.654 463.708 180.323 461.975 182.4 460.882C186.722 457.506 190.71 453.725 194.31 449.591C185.877 438.059 178.41 426.466 175.418 412.549ZM-139.74 225.374C-138.531 221.178 -137.745 218.34 -136.868 215.533C-136.334 212.767 -135.311 210.119 -133.845 207.713C-129.95 202.723 -125.621 198.086 -120.908 193.857C-114.862 188.664 -108.333 184.075 -101.804 179.486C-100.718 178.79 -99.8133 177.847 -99.1619 176.735C-98.5106 175.623 -98.1314 174.372 -98.0554 173.086C-96.4231 154.58 -94.7001 136.104 -93.3096 117.568C-92.8562 111.53 -94.0956 110.111 -100.534 109.839C-107.537 109.492 -114.556 109.613 -121.543 110.202C-130.611 111.047 -133.392 114.277 -133.241 123.394C-133.162 125.962 -134.058 128.464 -135.75 130.398C-139.127 134.586 -142.265 138.961 -145.151 143.501C-146.115 145.082 -146.44 146.972 -146.058 148.784C-144.758 153.222 -143.911 158.444 -141.009 161.675C-134.964 168.195 -137.261 175.35 -137.987 182.264C-138.773 191.139 -140.798 199.925 -141.795 208.8C-143.009 214.358 -142.284 220.164 -139.74 225.254V225.374ZM-97.602 344.804C-97.9043 351.445 -98.2973 356.125 -98.3275 360.834C-98.2545 363.181 -97.9096 365.511 -97.2997 367.778C-94.8815 377.68 -90.8007 381.031 -80.6441 381.605C-79.0168 381.786 -77.3744 381.786 -75.7471 381.605C-58.8497 378.586 -43.1613 372.97 -30.6771 360.472C-28.0056 358.189 -26.2345 355.031 -25.6807 351.563C-25.1269 348.095 -25.8265 344.543 -27.6543 341.543C-28.8867 339.265 -30.3667 337.128 -32.0676 335.173C-45.1261 319.626 -62.87 316.546 -81.7323 317.06C-83.8894 317.124 -85.9691 317.877 -87.6665 319.208C-89.3638 320.539 -90.5893 322.378 -91.1634 324.456C-93.6119 331.822 -95.879 339.219 -97.602 344.804ZM500.913 501.97C497.027 504.197 492.986 506.144 488.822 507.797C484.651 509.125 479.452 508.4 476.006 510.604C472.56 512.808 470.353 517.94 467.209 521.352C461.345 527.752 455.118 533.759 449.072 540.16C439.33 550.43 428.437 559.547 416.607 567.33C411.529 570.772 405.816 574.123 400.012 566.968C399.217 572.085 399.839 577.322 401.81 582.111C403.782 586.9 407.028 591.06 411.197 594.138C417.756 591.784 419.812 582.696 428.729 585.082L433.354 599.452C439.764 599.984 446.216 599.192 452.307 597.127C456.116 595.859 457.748 593.957 457.204 589.942C456.418 584.115 456.236 578.198 455.148 572.462C454.32 569.162 454.47 565.693 455.581 562.477C456.692 559.261 458.716 556.437 461.405 554.349C464.247 551.933 466.665 549.005 469.295 546.288L482.293 532.763C483.322 535.337 484.13 537.993 484.711 540.703C485.558 549.579 486.162 558.485 486.857 567.39C487.19 571.194 487.583 574.968 487.915 578.772C492.463 571.477 495.17 563.19 495.805 554.62C497.578 540.19 499.251 525.749 500.823 511.298C501.01 508.203 501.04 505.099 500.913 502V501.97ZM392.606 557.669C392.456 555.776 392.203 553.891 391.851 552.024C389.832 546.518 388.195 540.879 386.954 535.148C385.675 524.981 382.947 515.049 378.853 505.653C378.268 503.697 378.063 501.648 378.248 499.615C378.522 497.533 378.664 495.436 378.671 493.336C376.577 475.627 373.121 458.106 368.333 440.927C367.57 439.358 367.382 437.571 367.802 435.877C368.222 434.184 369.223 432.691 370.631 431.659C372.91 429.346 375.021 426.874 376.948 424.262C381.543 419.251 386.349 414.421 390.823 409.168C392.265 407.702 393.069 405.728 393.06 403.673C391.927 398.997 390.524 394.391 388.858 389.877C370.117 404.005 355.849 421.908 335.173 430.24C335.596 438.542 342.76 439.146 346.629 442.98C341.309 447.206 341.34 447.206 343.607 453.969C344.483 456.656 345.209 459.373 346.085 462.06C353.794 485.698 361.018 509.487 371.537 532.099C376.582 542.064 383.754 550.802 392.546 557.7L392.606 557.669ZM285.146 521.442C285.625 520.736 286.059 520 286.445 519.238C292.098 504.778 297.781 490.377 303.222 475.886C304.097 473.801 304.236 471.48 303.615 469.305C302.345 466.286 302.527 461.244 296.753 462.361C296.421 462.361 295.363 460.912 295.393 460.158C295.007 457.472 295.298 454.733 296.239 452.188C299.36 447.87 302.742 443.746 306.366 439.84L311.988 433.108C301.559 427.07 296.118 417.651 291.04 408.775C285.66 414.511 281.035 420.157 275.684 424.987C265.195 434.436 254.283 443.402 243.552 452.58C242.343 453.606 241.254 454.784 239.652 456.324C250.746 464.444 263.079 471.147 269.397 483.253C275.714 495.358 279.765 508.37 285.085 521.563L285.146 521.442ZM106.498 465.863C111.727 467.856 113.148 468.007 118.045 465.622C124.997 462.21 131.829 458.497 138.66 454.814C139.944 454.256 141.007 453.29 141.683 452.067C143.618 446.331 146.58 440.534 146.792 434.678C147.119 427.014 145.74 419.373 142.756 412.305C139.771 405.237 135.255 398.917 129.532 393.801C121.37 386.163 111.697 385.62 101.782 392.624C96.0087 396.669 94.7391 403.009 92.7138 408.896C89.617 417.201 88.6012 426.138 89.7551 434.925C90.909 443.713 94.1974 452.085 99.3338 459.312C100.356 460.466 101.524 461.481 102.81 462.331C105.44 453.274 117.924 441.35 128.595 436.821C129.925 444.731 128.897 446.421 122.549 446.18C120.04 454.784 112.574 459.342 106.437 465.984L106.498 465.863ZM333.843 643.679L331.818 643.468C330.488 645.883 329.127 648.268 327.828 650.683C321.782 662.034 321.51 674.533 320.754 686.91C320.634 692.295 321.938 697.616 324.533 702.337C326.921 707.288 329.279 712.873 326.86 718.489C324.863 723.305 322.295 727.866 319.213 732.074C313.885 739.201 308.174 746.034 302.104 752.542C299.081 755.712 298.144 758.037 301.197 761.448C301.467 761.782 301.655 762.174 301.744 762.594C301.834 763.014 301.822 763.449 301.711 763.863C299.171 767.969 301.711 771.471 302.829 776.603C308.054 772.258 313.01 767.6 317.671 762.656C324.861 754.316 332.816 746.665 341.43 739.802L356.544 727.364C353.975 720.934 351.496 715.107 349.29 709.251C343.758 694.397 341.279 678.85 338.377 663.393C337.198 656.721 335.385 650.23 333.843 643.679ZM534.164 483.675L532.109 484.007C530.986 486.963 530.057 489.988 529.328 493.064C528.179 499.766 527.575 506.559 526.486 513.261C524.945 522.771 523.675 532.371 521.408 541.699C517.841 556.311 508.591 567.813 498.586 578.379C490.968 586.47 486.495 594.742 488.943 606.033C489.85 610.048 490.092 614.214 490.817 619.679C493.387 617.173 494.898 615.784 496.289 614.305C498.858 611.558 501.246 608.659 503.876 605.942C511.493 598.033 519.564 590.485 526.789 582.214C534.23 573.897 538.416 563.177 538.578 552.024C538.724 546.62 539.249 541.233 540.15 535.903C540.725 533.499 541.751 531.225 543.172 529.201C546.618 523.676 551.485 518.453 545.318 511.751C544.895 511.298 544.956 510.393 544.714 509.729C542.175 502.423 539.666 495.117 536.976 487.871C536.185 486.38 535.243 484.974 534.164 483.675ZM29.3558 571.225C26.5314 572.233 23.7835 573.444 21.1338 574.847C11.8538 580.734 2.48306 586.531 -6.40399 592.961C-11.6168 596.571 -16.2624 600.936 -20.188 605.912C-22.0233 608.153 -23.2692 610.817 -23.8127 613.661C-24.3563 616.505 -24.1802 619.439 -23.3004 622.198C-22.4207 624.957 -20.8652 627.452 -18.775 629.459C-16.6848 631.465 -14.1262 632.918 -11.3312 633.686C0.0345764 636.947 10.3424 634.23 20.2874 628.917C23.7939 627.045 26.9074 624.449 30.3232 622.396C31.5742 621.751 32.5929 620.733 33.2376 619.483C33.8824 618.233 34.1209 616.813 33.9203 615.422C33.1645 605.58 32.8623 595.708 32.0159 585.866C31.6834 581.217 30.4743 576.719 29.3558 571.225ZM-177.585 209.163C-178.765 208.883 -179.971 208.732 -181.183 208.71C-182.58 208.874 -183.957 209.178 -185.294 209.615C-199.609 214.074 -213.339 220.226 -226.192 227.94C-233.9 232.559 -238.283 247.775 -234.898 256.107C-232.54 261.934 -227.794 263.534 -222.807 265.526C-220.837 266.613 -218.549 266.976 -216.339 266.551C-214.13 266.126 -212.14 264.941 -210.715 263.202C-209.297 261.483 -207.515 260.099 -205.498 259.149C-203.48 258.199 -201.278 257.707 -199.047 257.707C-192.223 257.365 -185.565 255.476 -179.581 252.183C-177.826 251.532 -176.331 250.329 -175.322 248.755C-174.313 247.181 -173.845 245.321 -173.988 243.458C-174.072 240.904 -174.416 238.365 -175.016 235.88C-176.83 228.786 -178.825 221.782 -177.374 214.355C-177.259 212.622 -177.33 210.881 -177.585 209.163ZM417.545 699.198L396.022 618.169C392.848 622.003 390.369 624.479 388.465 627.226C385.719 631.304 383.303 635.595 381.241 640.056C379.366 644.283 373.593 646.759 375.527 652.676C370.57 655.181 372.082 660.132 372.656 663.514C375.209 678.4 380.399 692.712 387.981 705.779L402.189 707.832L417.545 699.198ZM168.768 840.937C171.549 839.035 174.42 836.741 177.564 834.899C178.938 834.25 180.062 833.17 180.766 831.824C181.47 830.478 181.715 828.94 181.463 827.442C180.526 815.759 179.922 804.045 179.045 792.362C178.169 780.679 176.99 768.211 176.022 755.924C175.539 753.657 175.804 751.295 176.778 749.191C179.378 745.81 177.776 743.153 176.778 740.134C173.937 731.953 171.307 723.711 168.526 715.53C167.679 713.024 166.591 710.579 165.08 706.745L154.077 739.47C155.497 745.206 157.553 749.825 157.674 754.565C158.017 769.338 157.926 784.11 157.402 798.883C156.844 807.997 157.576 817.144 159.578 826.054C160.63 832.003 163.917 837.327 168.768 840.937ZM565.753 793.902C580.595 790.098 594.167 775.547 592.958 764.618C589.935 765.645 587.184 766.701 584.282 767.637C580.716 768.724 576.967 770.656 573.491 770.415C559.737 769.116 547.676 774.49 535.343 778.988C529.479 781.162 528.693 782.007 530.597 787.713C532.985 794.898 529.751 799.427 525.096 803.955C519.05 797.917 518.022 792.845 521.559 786.294C523.826 782.037 526.396 777.932 529.419 772.739L518.234 776.211C517.188 776.407 516.242 776.959 515.558 777.774C514.875 778.589 514.496 779.616 514.486 780.679C513.609 797.947 519.594 812.891 529.811 826.416C530.162 827.042 530.653 827.579 531.246 827.983C531.839 828.388 532.518 828.651 533.229 828.75C533.94 828.85 534.665 828.783 535.347 828.556C536.028 828.33 536.648 827.948 537.157 827.442C539.754 825.13 542.132 822.583 544.26 819.835C545.137 818.808 545.167 816.997 546.135 816.182C552.194 810.784 556.189 803.454 557.44 795.441C557.73 794.299 558.178 793.201 558.77 792.181C560.07 789.675 561.793 789.524 563.848 791.366C564.56 792.151 565.197 793 565.753 793.902ZM216.014 617.867C214.805 618.471 213.989 618.622 213.596 619.105C208.638 625.354 203.469 631.513 198.905 638.064C197.5 640.493 196.907 643.306 197.212 646.094C198.535 666.531 202.717 686.682 209.636 705.96C211.56 710.748 213.981 715.322 216.86 719.606C219.611 723.742 222.422 724.406 225.929 722.987C227.85 722.467 229.509 721.252 230.582 719.577C231.654 717.903 232.065 715.89 231.733 713.93C231.551 709.251 230.433 704.269 231.733 699.952C233.758 692.767 229.254 687.333 228.408 680.993C223.45 678.578 225.022 673.838 224.478 669.884C223.886 663.345 222.877 656.851 221.455 650.442C219.128 641.825 217.679 632.994 217.132 624.086C216.77 622.124 216.377 620.162 216.014 617.867ZM129.108 707.53L127.567 707.198C121.521 719.877 115.476 732.587 109.43 745.206C108.061 748.431 106.217 751.433 103.959 754.112C94.8902 763.592 85.4591 772.83 75.9675 781.947C71.131 786.596 65.9015 790.822 60.4001 795.623C62.5764 802.657 68.5313 807.91 74.6374 813.283C75.4991 812.882 76.3191 812.396 77.0859 811.834C87.2425 802.536 98.6385 794.445 106.921 783.185C111.643 777.637 115.701 771.558 119.012 765.071C122.66 755.65 125.57 745.96 127.718 736.089C129.953 726.738 130.425 717.053 129.108 707.53ZM-268.693 818.929C-264.931 813.796 -263.043 807.531 -263.342 801.178C-263.614 797.223 -263.947 791.94 -258.113 790.128C-257.418 789.917 -257.115 788.136 -256.874 787.109C-256.571 785.509 -256.662 783.788 -256.239 782.219C-254.727 776.181 -249.558 774.822 -245.296 779.2C-244.442 780.255 -243.721 781.41 -243.15 782.641C-245.508 786.717 -251.765 788.83 -248.38 795.411C-246.838 794.415 -245.357 793.479 -243.815 792.392C-240.55 790.098 -237.467 787.502 -234.051 785.509C-232.551 784.855 -231.345 783.67 -230.665 782.183C-229.984 780.696 -229.877 779.01 -230.364 777.449C-231.573 770.535 -232.147 763.531 -232.721 756.527C-233.45 744.823 -235.406 733.227 -238.555 721.93C-239.19 719.787 -240.248 717.734 -241.578 714.836C-248.047 731.5 -253.095 747.682 -260.501 762.716C-267.907 777.751 -277.912 792.03 -287.283 807.487L-268.693 818.929ZM-253.942 456.656C-240.943 443.553 -226.222 397.424 -230.122 383.808C-231.18 383.808 -232.298 383.808 -233.447 383.959C-242.563 385.018 -251.412 387.718 -259.564 391.929C-264.062 394.19 -267.587 398.001 -269.488 402.658C-271.388 407.315 -271.536 412.502 -269.902 417.258L-263.494 414.602C-265.096 418.074 -266.093 420.036 -266.879 422.058C-268.143 424.243 -268.926 426.672 -269.176 429.183C-269.114 431.703 -268.547 434.184 -267.509 436.481C-266.47 438.778 -264.982 440.844 -263.131 442.557L-253.035 435.885L-252.521 436.7L-262.254 446.089L-253.942 456.656ZM80.4412 670.85C76.8139 677.552 72.8238 684.163 69.4987 691.107C67.3988 695.199 66.224 699.702 66.0568 704.298C65.8897 708.894 66.7344 713.47 68.5314 717.704C72.9447 728.33 77.4587 738.897 82.0736 749.403C82.6479 750.701 84.0384 751.606 85.5196 753.207C92.1697 740.768 98.7896 729.055 101.994 716.043C103.717 708.919 104.775 701.703 101.147 694.699C96.4621 685.642 89.3887 678.488 82.5269 671.152C82.406 670.85 82.1037 671.001 80.4412 670.85ZM436.105 486.241C434.472 476.973 419.056 469.667 410.773 473.622C410.773 475.464 410.773 477.335 410.773 479.177C410.985 487.388 413.494 489.532 421.807 488.506C424.376 488.204 426.915 487.721 429.454 487.328L429.817 488.868C426.583 490.075 423.409 491.404 420.144 492.491C414.401 494.392 413.131 495.721 414.098 501.547C415.073 508.281 416.703 514.904 418.965 521.321C421.343 526.712 424.39 531.784 428.034 536.416C428.72 537.288 429.598 537.992 430.598 538.473C431.599 538.954 432.696 539.201 433.807 539.194C438.464 538.404 442.686 535.983 445.717 532.364C448.747 528.746 450.387 524.167 450.342 519.45C450.856 508.914 446.896 499.766 442.845 490.528C441.606 487.841 440.095 485.426 436.105 486.151V486.241ZM261.296 339.068C257.797 337.658 254.471 335.855 251.381 333.694C247.494 329.992 243.801 326.093 240.317 322.011C239.078 320.682 237.869 318.992 236.297 318.418C230.977 316.969 220.427 322.101 217.495 327.143C213.007 334.883 210.042 343.408 208.759 352.261C208.604 354.27 208.604 356.289 208.759 358.298C213.022 356.94 216.528 355.763 220.095 354.766C226.57 352.694 233.161 351.001 239.834 349.694C251.925 347.853 264.016 346.675 276.107 345.377C285.871 344.23 285.871 344.26 287.745 334.841C288.015 333.706 288.227 332.557 288.38 331.4C288.743 326.298 284.571 324.758 281.276 322.735C277.982 320.713 275.926 322.735 273.961 324.969C270.032 329.226 266.162 333.603 261.296 339.068ZM-55.2827 967.159C-51.4529 960.871 -47.2435 954.822 -42.6776 949.045C-36.9432 943.105 -30.8886 937.481 -24.5408 932.2C-19.9764 928.124 -15.1701 924.35 -10.5755 920.305C-8.4595 918.464 -6.31329 916.622 -7.069 913.18C-8.39905 907.142 -9.45703 901.286 -10.5755 895.55C-15.5638 894.54 -20.6124 893.855 -25.6895 893.497C-36.1786 893.497 -36.3297 893.738 -39.2014 903.761C-44.5518 922.539 -49.8719 941.287 -59.1821 958.646C-60.1186 960.8 -60.8966 963.02 -61.5097 965.287L-55.2827 967.159ZM-10.8475 530.076L25.5168 501.789C2.05988 489.924 -14.4446 471.388 -30.8887 452.489C-31.3613 460.789 -30.421 469.108 -28.1077 477.094L-42.9195 493.215C-29.9214 493.215 -29.9214 493.215 -22.9992 498.045L-9.457 492.158C-8.87198 494.406 -8.47763 496.698 -8.27811 499.011C-8.68839 502.74 -8.82983 506.493 -8.70129 510.242C-7.65991 516.934 -8.43231 523.783 -10.9382 530.076H-10.8475ZM506.052 661.551C510.586 668.465 511.372 668.887 517.962 665.506C522.316 663.163 526.506 660.531 530.507 657.627C531.744 656.589 532.543 655.122 532.744 653.521C533.427 649.337 533.508 645.078 532.985 640.872C532.431 637.018 530.878 633.376 528.482 630.305C526.086 627.234 522.928 624.841 519.322 623.362C510.889 619.92 503.664 622.456 496.5 626.381C494.131 627.672 492.241 629.689 491.109 632.136C489.977 634.582 489.662 637.327 490.213 639.966C490.575 642.079 490.727 644.192 491.271 646.245C492.359 651.597 494.829 656.571 498.435 660.676C502.939 660.676 504.48 654.638 509.68 656.238L506.052 661.551ZM-325.703 721.689C-319.657 717.583 -314.7 714.232 -309.773 710.73C-305.306 706.96 -300.579 703.51 -295.626 700.405C-291.968 698.533 -290.397 696.511 -291.364 692.888C-292.576 688.399 -294.101 684.001 -295.928 679.725C-296.716 678.035 -298.139 676.723 -299.888 676.073C-306.154 674.155 -312.535 672.633 -318.992 671.514C-324.343 670.669 -327.819 673.235 -329.935 678.216C-336.162 692.858 -332.655 706.564 -325.703 721.689ZM-278.366 493.034C-283.263 487.449 -287.888 482.437 -292.18 477.184C-293.01 476.065 -294.219 475.286 -295.581 474.992C-296.944 474.697 -298.367 474.908 -299.586 475.584C-304.876 477.305 -304.755 481.864 -305.359 485.849C-306.599 494.181 -307.596 502.574 -308.382 510.966C-309.622 523.254 -310.982 535.571 -307.324 547.737C-306.204 547.57 -305.072 547.489 -303.939 547.496C-302.707 547.725 -301.494 548.048 -300.311 548.462C-298.981 545.05 -297.923 541.971 -296.624 539.043C-293.873 532.824 -292.603 525.699 -285.409 522.318C-284.657 521.777 -284.034 521.077 -283.585 520.268C-283.136 519.459 -282.871 518.561 -282.809 517.638C-282.673 514.361 -283.092 511.085 -284.049 507.947C-286.558 500.551 -286.769 500.642 -281.026 495.66C-280.331 494.906 -279.514 494.091 -278.366 493.034ZM-63.7466 117.84C-64.5514 119.689 -65.2479 121.584 -65.8323 123.515C-67.1019 129.553 -68.2505 135.591 -69.4294 141.629C-70.6083 147.667 -72.15 154.067 -72.9964 160.346C-73.8428 166.626 -72.9964 167.803 -66.9508 170.399C-64.0968 171.478 -61.3282 172.77 -58.6683 174.264C-57.4369 175.19 -55.9125 175.642 -54.3746 175.536C-52.8367 175.431 -51.3884 174.775 -50.2951 173.69C-49.0723 172.55 -47.7352 171.538 -46.305 170.671C-41.9521 168.497 -41.2267 164.844 -41.8917 160.588C-43.8782 150.655 -44.5389 140.504 -43.8565 130.398C-43.6002 128.993 -43.8514 127.542 -44.5654 126.303C-45.2794 125.065 -46.4099 124.12 -47.7559 123.636C-52.9552 121.704 -58.0033 119.953 -63.8373 117.84H-63.7466ZM458.594 614.456C451.37 616.569 446.503 622.215 439.339 620.886C439.046 621.865 438.913 622.884 438.946 623.905C442.483 641.264 444.992 658.895 452.73 675.227C454.503 678.802 456.806 682.09 459.561 684.978C460.875 686.352 462.658 687.182 464.556 687.305C466.453 687.428 468.328 686.835 469.809 685.642C473.648 683.227 474.131 681.899 472.65 676.797C468.332 663.684 464.928 650.288 462.463 636.705C461.284 629.4 459.864 622.335 458.594 614.456ZM218.281 200.317L217.586 198.959C215.168 199.411 212.689 199.683 210.301 200.287C202.132 202.678 193.489 202.959 185.181 201.102C177.292 198.928 172.183 201.102 168.042 207.563C166.742 209.585 164.203 210.944 165.019 214.627L172.244 209.676L173.695 210.642C173.362 213.057 172.939 215.472 172.667 217.887C172.153 222.959 170.551 227.94 173.03 232.982C176.415 239.956 179.226 247.201 182.37 254.296C183.357 256.121 184.437 257.894 185.605 259.609C186.512 255.986 187.176 253.813 187.569 251.609C190.344 235.521 198.267 220.765 210.15 209.555C213.052 206.778 215.561 203.457 218.281 200.317ZM315.978 245.42C325.258 247.141 332.694 243.246 339.647 238.114C343.758 235.095 344.362 233.586 341.521 229.269C336.171 221.057 330.276 213.208 324.412 205.298C324.081 204.818 323.645 204.419 323.136 204.132C322.628 203.845 322.061 203.677 321.478 203.642C320.895 203.607 320.311 203.706 319.772 203.93C319.233 204.154 318.752 204.498 318.366 204.936C312.011 210.758 306.025 216.969 300.441 223.533C294.849 230.597 297.418 238.235 305.489 241.888C308.923 243.242 312.424 244.421 315.978 245.42ZM51.6642 306.071C49.073 307.462 46.5603 308.994 44.1374 310.659C39.7542 314.192 35.4619 317.845 31.3206 321.679C29.0508 323.703 27.0222 325.983 25.275 328.471C23.3196 331.286 22.2719 334.63 22.2719 338.056C22.2719 341.482 23.3196 344.827 25.275 347.642C27.7918 350.644 31.239 352.722 35.0714 353.548C38.9038 354.373 42.9024 353.899 46.4347 352.2C48.7564 351.076 50.9986 349.795 53.1453 348.366C57.8307 345.347 58.1934 343.807 57.0447 338.373C55.8961 332.939 54.8381 326.871 54.0219 321.075C53.0546 316.728 52.5407 312.35 51.6642 306.071ZM209.364 378.012C209.526 387.821 212.358 397.401 217.556 405.726C223.027 401.016 228.136 397.182 232.67 392.714C241.505 384.262 251.73 377.389 262.898 372.397C266.888 370.435 271.059 369.378 275.17 373.061C278.021 375.223 281.055 377.132 284.239 378.767C283.664 371.008 285.146 363.974 282.909 356.547C279.705 358.359 276.863 359.566 274.415 361.378C262.653 369.361 248.794 373.698 234.574 373.846C225.999 373.844 217.482 375.252 209.364 378.012ZM515.755 426.315C513.186 425.914 510.557 426.165 508.111 427.046C505.665 427.927 503.481 429.41 501.76 431.357C495.102 438.876 491.303 448.494 491.029 458.527C490.76 462.778 491.812 467.008 494.041 470.639C496.27 474.27 499.568 477.126 503.483 478.815C507.05 480.113 508.712 479.539 510.133 475.796C513.156 467.916 516.179 460.007 518.96 452.037C519.362 450.464 519.31 448.81 518.809 447.267C518.053 444.55 517.114 441.887 515.997 439.297C514.274 435.372 512.4 431.236 515.755 426.315ZM258.817 427.311C260.752 415.719 258.817 407.839 252.771 401.047C251.731 399.744 250.351 398.753 248.783 398.183C247.215 397.613 245.52 397.486 243.884 397.816C236.535 399.395 229.648 402.638 223.752 407.296C220.73 409.59 221.304 412.096 223.329 414.662C225.541 417.988 228.083 421.083 230.916 423.9C235.112 427.628 239.826 430.73 244.912 433.108C254.071 437.032 257.91 434.376 258.908 427.402L258.817 427.311ZM-49.9022 1020.23L-48.4512 1018.57C-50.9299 1010.21 -51.3229 1001.33 -55.4339 992.548C-62.5375 994.028 -69.369 995.567 -76.2307 996.835C-82.9926 997.892 -89.0643 1001.57 -93.1283 1007.07C-94.6701 1009.12 -96.4796 1010.96 -98.5089 1012.53C-99.9306 1013.51 -100.942 1014.97 -101.35 1016.64C-101.757 1018.31 -101.531 1020.08 -100.715 1021.59C-99.325 1021.59 -97.4509 1022.16 -96.272 1021.59C-84.876 1015.13 -72.9964 1015.73 -60.8447 1018.57C-57.2778 1019.45 -53.5598 1019.72 -49.9022 1020.23ZM11.219 975.22C7.38004 960.125 4.08517 945.875 -2.74637 933.286C-6.25482 934.284 -9.81747 935.08 -13.4169 935.671C-14.4804 935.716 -15.5015 936.101 -16.3289 936.769C-17.1564 937.438 -17.7463 938.355 -18.0115 939.385C-21.012 947.606 -21.2666 956.577 -18.737 964.955C-18.2352 966.692 -17.0748 968.165 -15.5026 969.061C-7.49216 971.838 0.427582 975.763 11.219 975.22ZM-202.796 564.794L-201.224 565.519C-193.757 559.481 -186.11 553.715 -178.915 547.405C-176.524 545.288 -174.901 542.44 -174.3 539.306C-173.699 536.171 -174.152 532.926 -175.59 530.076C-176.144 529.103 -176.904 528.264 -177.819 527.617C-178.733 526.97 -179.778 526.532 -180.88 526.333C-184.857 526.478 -188.717 527.705 -192.047 529.881C-195.376 532.057 -198.047 535.1 -199.773 538.68C-203.068 547.405 -201.194 556.13 -202.947 564.794H-202.796ZM219.188 782.732C214.624 794.083 211.51 804.83 213.928 816.695C216.347 828.559 219.248 839.156 228.831 847.79C230.675 832.242 224.81 792.755 219.188 782.732ZM-9.60815 999.22C-7.76422 1010.21 -6.37375 1019.66 -4.56006 1029.05C-3.53232 1034.3 0.367096 1035.45 4.84085 1032.22C14.5743 1025.24 14.0604 1014.77 15.058 1004.29L-9.60815 999.22ZM536.794 581.036C528.995 586.229 524.703 594.923 518.144 601.323C517.297 602.139 517.297 603.829 516.783 605.399C517.88 606.021 519.034 606.536 520.229 606.939C528.814 608.629 536.129 612.192 540.754 620.101C541.207 620.886 542.931 620.916 544.593 621.43C541.903 607.452 539.394 594.47 536.794 581.036ZM-13.8703 861.798C-11.845 842.96 -11.9962 822.884 -14.4749 815.729C-21.4273 831.065 -24.2385 846.522 -27.8961 862.794L-13.8703 861.798ZM-105.492 224.801C-105.219 222.778 -105.008 221.45 -104.827 220.152C-103.769 213.208 -102.741 206.234 -101.804 199.26C-101.411 196.755 -101.622 194.279 -104.313 193.434C-107.003 192.589 -108.484 194.823 -109.663 196.936C-113.965 204.227 -115.977 212.641 -115.437 221.087C-115.013 226.371 -111.356 231.14 -107.487 231.563C-102.408 232.137 -100.897 228.001 -98.8716 224.62C-98.6902 224.318 -98.8716 223.774 -99.0529 223.412L-105.492 224.801ZM185.967 111.409L188.234 112.104C190.32 109.725 192.135 107.123 193.645 104.345C196.245 98.0956 198.421 91.6351 200.386 85.1443C201.03 82.6695 201.133 80.085 200.688 77.5668C200.144 74.1856 197.968 73.3101 195.066 75.212C192.331 76.8399 190.026 79.098 188.343 81.7975C186.66 84.4971 185.649 87.5597 185.393 90.7294C185.227 97.5877 185.418 104.45 185.967 111.288V111.409ZM-141.614 649.355C-141.765 659.136 -143.367 668.404 -140.828 677.914C-134.783 668.585 -123.9 664.842 -117.522 656.057L-141.614 649.355ZM38.0917 224.921C26.0005 222.114 28.2978 211.729 24.7611 204.423C20.106 207.804 18.2621 211.125 19.0179 216.317C19.9549 222.567 19.8037 228.997 20.1967 235.337C20.1967 236.997 20.8013 238.658 21.3756 241.767L38.0917 224.921ZM-120.666 563.043C-121.24 563.315 -122.087 563.466 -122.359 563.949C-125.279 568.227 -126.991 573.212 -127.316 578.379C-127.316 587.617 -126.953 596.855 -126.772 606.093C-117.643 599.844 -113.925 574.243 -120.666 563.073V563.043ZM-39.2619 182.385C-45.5795 194.46 -49.358 212.574 -47.3932 219.427C-42.6172 214.748 -37.9016 210.37 -33.4581 205.57C-32.8363 204.95 -32.3574 204.202 -32.0546 203.378C-31.7518 202.554 -31.6324 201.675 -31.7048 200.8C-33.7603 194.974 -36.36 189.328 -39.2619 182.385ZM-243.12 803.502C-245.666 810.481 -246.696 817.922 -246.143 825.329C-245.995 826.186 -245.643 826.996 -245.117 827.689C-244.591 828.383 -243.906 828.94 -243.12 829.314C-239.474 830.758 -235.507 831.196 -231.633 830.582C-232.087 812.951 -234.807 806.249 -243.12 803.502ZM211.933 773.313C214.503 770.143 215.379 767.999 213.777 765.463C212.175 762.927 213.293 761.056 215.198 759.425C216.476 758.063 217.839 756.782 219.279 755.591C225.838 750.882 226.171 744.723 223.692 737.055C219.551 739.5 215.651 741.493 212.145 744.029C211.451 744.613 210.89 745.337 210.499 746.155C210.108 746.972 209.897 747.863 209.878 748.769C210.301 756.407 211.147 764.195 211.933 773.222V773.313ZM266.737 827.05L272.389 822.552C269.125 809.117 266.948 796.226 263.079 783.698C260.389 798.128 262.323 812.166 266.737 826.959V827.05ZM242.796 445.818C237.1 443.371 231.593 440.505 226.322 437.244C221.751 433.47 217.467 429.364 213.505 424.957L212.629 425.349L215.651 436.64C222.301 440.625 230.977 443.04 234.967 451.161C237.325 449.44 239.652 447.901 242.796 445.727V445.818ZM129.38 374.601C134.066 377.62 137.905 380.095 141.865 382.48C145.824 384.865 147.91 389.786 153.442 391.295C147.759 378.012 138.6 371.491 129.38 374.51V374.601ZM-124.807 1034.36C-119.219 1034.66 -113.623 1033.92 -108.303 1032.19C-104.313 1031.04 -104.403 1030.74 -106.398 1025.52C-114.741 1022.71 -117.976 1030.1 -124.807 1034.36ZM537.187 631.151C540.996 625.324 537.187 622.275 534.678 618.833C532.169 615.392 529.691 612.343 524.159 612.795L537.187 631.151ZM273.175 828.318C269.639 829.435 268.611 831.337 269.488 833.541C271.415 839.387 274.499 844.787 278.556 849.42C276.863 842.537 275.08 835.624 273.206 828.318H273.175ZM247.3 708.888C252.106 704.451 250.534 700.345 246.393 696.42L247.3 708.888ZM401.161 371.37C406.209 366.329 405.967 365.333 399.347 361.861C398.651 363.443 398.452 365.199 398.775 366.897C399.099 368.595 399.931 370.155 401.161 371.37ZM10.2517 1038.56L15.9648 1040.37L16.3578 1033.46L15.1184 1032.94C13.879 1034.45 12.5188 1036.14 10.3726 1038.5L10.2517 1038.56ZM-175.077 262.447L-175.983 260.756L-180.336 262.658L-179.943 264.047C-178.941 264.188 -177.923 264.188 -176.92 264.047C-176.195 263.987 -175.651 263.051 -175.077 262.447ZM380.364 710.096L381.936 709.16C380.394 707.319 380.576 704.269 377.13 703.635L380.364 710.096ZM-388.366 680.54L-386.431 681.718L-384.315 678.156L-385.826 677.159L-388.366 680.54ZM30.2022 878.825L28.7815 879.096L29.9604 883.414H30.6859C30.5347 881.813 30.3534 880.304 30.2022 878.825Z" fill="black"/>
<path d="M441.576 311.746C443.111 310.099 444.802 308.603 446.624 307.278C455.954 301.422 465.365 295.665 474.857 290.01C476.66 288.91 478.588 288.029 480.6 287.383C488.006 285.089 492.51 286.931 495.382 293.995C497.049 298.531 498.383 303.182 499.372 307.912C499.394 309.309 499.039 310.686 498.344 311.897C497.116 314.413 496.105 317.029 495.321 319.716C493.9 326.63 488.822 329.317 482.988 331.4C480.63 332.245 478.363 333.181 475.401 334.419C474.585 331.4 473.648 328.381 472.862 325.362C471.743 320.803 471.048 316.124 469.627 311.656C467.269 304.32 462.221 302.388 455.36 306.041C451.853 307.942 448.589 310.207 445.173 312.29C444.414 312.674 443.625 312.997 442.815 313.256L441.576 311.746Z" fill="black"/>
<path d="M42.7165 865.572C46.0592 870.017 47.7768 875.472 47.5833 881.029C47.7949 888.334 46.9182 896.123 50.7874 902.916C52.6918 906.327 51.2106 908.531 48.3994 910.131C46.3439 903.761 44.228 897.421 42.3538 891.021C41.5679 888.395 41.1749 885.678 40.6006 882.991C40.6006 882.749 40.6006 882.357 40.6006 882.297C47.6437 877.678 40.6913 871.428 42.7165 865.572Z" fill="black"/>
<path d="M44.4698 830.341C44.8325 840.846 45.2255 851.473 45.5278 861.828C45.5278 862.16 44.4396 862.492 42.9281 863.368C41.6644 853.827 40.9679 844.22 40.8424 834.597C40.8424 833.027 42.112 831.397 42.777 829.797L44.4698 830.341Z" fill="black"/>
<path d="M107.737 853.828C111.939 858.356 116.201 862.885 120.312 867.474C121.702 869.043 124.393 870.13 123.153 873.119H123.335C120.584 870.643 117.743 868.228 115.022 865.692C112.846 863.67 110.82 861.466 108.674 859.413C106.528 857.36 106.075 856.092 107.767 853.949L107.737 853.828Z" fill="black"/>
<path d="M107.767 853.828C105.399 853.255 103.113 852.383 100.966 851.232C98.8903 849.434 97.0245 847.409 95.4041 845.194C95.4041 845.194 95.404 844.771 95.6458 844.167C98.4268 843.443 99.1523 846.341 100.724 847.518C103.203 849.36 105.379 851.684 107.707 853.798L107.767 853.828Z" fill="black"/>
<path d="M596.797 798.762C593.774 795.472 596.283 794.113 597.401 792.241C598.386 790.085 599.842 788.176 601.663 786.656C600.061 790.702 598.429 794.626 596.797 798.762Z" fill="black"/>
<path d="M154.863 899.293L164.657 907.746L163.901 908.592L153.926 900.35L154.863 899.293Z" fill="black"/>
<path d="M52.9034 934.494C52.722 931.053 52.6313 929.06 52.5406 927.007C54.8078 929.422 54.8077 929.422 52.9034 934.494Z" fill="black"/>
<path d="M139.205 883.444L142.227 888.546L140.988 889.602L137.058 884.893L139.205 883.444Z" fill="black"/>
<path d="M123.063 873.119C126.932 873.692 126.932 873.692 127.688 877.889L123.365 873.119H123.063Z" fill="black"/>
<path d="M43.6536 825.721L43.9861 819.955H45.0743L45.4975 825.993L43.6536 825.721Z" fill="black"/>
<path d="M108.463 839.518L111.002 841.269L110.639 841.843L108.039 840.152L108.463 839.518Z" fill="black"/>
<path d="M131.315 878.613L132.766 880.727L131.859 881.361L130.378 879.247L131.315 878.613Z" fill="black"/>
<path d="M387.891 773.494L388.102 767.969C391.79 769.962 390.732 771.803 387.891 773.494Z" fill="black"/>
</g>
<defs>
<clipPath id="clip0_150_425">
<rect width="1185" height="1200" fill="white" transform="translate(-548 -102)"/>
</clipPath>
</defs>
</svg>
