<svg width="803" height="851" viewBox="0 0 803 851" fill="none" xmlns="http://www.w3.org/2000/svg">
<path d="M117.449 340.023C117.449 339.531 117.042 338.867 117.235 338.61C124.1 329.162 129.738 318.882 134.013 308.016C137.613 299.453 141.063 290.739 144.427 282.047C145.06 280.012 146.348 278.244 148.091 277.016C150.512 275.41 152.376 273.033 154.755 271.299C155.884 270.629 157.197 270.337 158.505 270.464C160.016 270.635 161.536 270.227 162.758 269.32C163.979 268.414 164.81 267.078 165.083 265.583C165.783 263.7 166.342 261.768 166.754 259.802C167.68 252.774 171.12 246.317 176.439 241.626C182.425 236.345 188.46 231.121 194.546 225.954C202.688 219.06 212.416 215.035 222.123 210.968C224.115 210.133 226.13 209.362 228.144 208.57C228.64 208.456 229.109 208.246 229.523 207.951C229.938 207.655 230.29 207.281 230.559 206.849C230.827 206.417 231.008 205.936 231.09 205.434C231.172 204.932 231.154 204.419 231.037 203.924C230.309 200.186 229.173 196.539 227.651 193.048C225.508 188.895 222.273 188.531 218.609 191.464C214.944 194.397 211.602 197.116 208.388 200.263C205.174 203.41 205.174 204.952 208.388 208.827C206.213 213.091 202.739 216.554 198.467 218.718C196.795 219.66 195.574 218.911 194.76 217.39C194.256 216.321 194.058 215.134 194.187 213.959C194.315 212.784 194.766 211.668 195.488 210.732C200.974 201.945 208.491 194.602 217.409 189.323C218.266 188.788 219.551 188.531 219.959 187.803C222.876 184.094 226.657 181.154 230.972 179.239C233.265 178.04 235.708 177.098 239.136 175.706C240.172 173.62 241.088 171.475 241.879 169.284C244.686 160.399 250.921 153.762 256.578 146.804C260.564 141.901 265.406 137.684 269.435 132.824C271.22 130.721 273.474 129.066 276.016 127.992C278.558 126.917 281.316 126.453 284.07 126.636C288.239 126.575 292.408 126.825 296.54 127.386C297.761 127.621 299.022 127.549 300.208 127.175C301.394 126.801 302.468 126.138 303.333 125.245C305.24 123.532 307.426 122.098 309.59 120.449C311.604 122.59 310.682 124.517 310.511 126.208C310.401 126.655 310.385 127.119 310.462 127.572C310.539 128.025 310.708 128.458 310.959 128.843C311.21 129.228 311.537 129.558 311.921 129.812C312.305 130.066 312.736 130.238 313.189 130.319C317.196 131.389 321.203 132.46 325.253 133.466C328.982 128.285 326.625 122.483 327.846 117.045L331.103 117.687C331.103 114.54 334.231 113.833 335.388 111.864C336.642 109.532 338.373 107.49 340.467 105.869C342.609 104.349 344.752 102.851 347.152 101.181C349.189 104.042 350.062 107.57 349.595 111.05C349.145 115.675 348.181 120.278 347.323 124.859C346.638 128.627 345.631 132.353 344.988 136.121C344.452 139.311 344.988 140.402 347.859 140.938C351.62 141.668 355.431 142.112 359.259 142.265C362.858 142.394 365.365 139.889 368.065 137.983C371.387 135.564 372.115 135.842 372.951 139.717C367.015 145.348 361.294 150.85 355.487 156.267C354.347 157.225 353.112 158.064 351.802 158.772C349.98 159.928 348.159 161.127 346.231 162.133C344.78 162.798 343.597 163.935 342.877 165.358C342.157 166.782 341.942 168.407 342.267 169.969C342.717 174.251 342.802 178.533 343.295 182.814C343.789 187.211 345.223 191.449 347.5 195.243C349.778 199.037 352.845 202.297 356.494 204.802C359.745 207.415 363.786 208.849 367.958 208.87C370.101 208.87 371.151 208.056 371.172 206.022C371.429 201.358 371.429 196.684 371.172 192.02C370.534 187.054 369.575 182.134 368.301 177.291C368.142 176.609 367.85 175.965 367.442 175.395C367.034 174.826 366.518 174.342 365.923 173.972C364.465 173.287 363.223 174.315 362.344 175.856C361.766 176.884 360.566 177.526 359.087 178.832C360.737 171.639 379.7 150.443 386.471 147.981C387.636 149.925 388.578 151.993 389.278 154.147C390.248 158.366 390.814 162.667 390.971 166.993C391.143 177.184 390.843 187.375 390.757 197.544C390.706 198.881 390.764 200.22 390.928 201.548C391.785 207.97 396.692 210.454 402.178 207.093C402.9 206.576 403.507 205.915 403.96 205.153C404.414 204.39 404.704 203.541 404.813 202.661C405.478 196.024 405.799 189.344 406.078 182.665C406.249 178.511 406.078 174.336 406.078 170.183C406.115 169.033 405.94 167.887 405.563 166.8C401.278 156.096 403.228 145.798 407.385 135.65C411.462 124.821 418.162 115.17 426.884 107.561C428.534 106.19 429.669 104.435 428.212 102.315C428.008 101.898 427.716 101.529 427.356 101.236C426.996 100.942 426.576 100.73 426.126 100.614C425.676 100.498 425.206 100.481 424.749 100.564C424.291 100.647 423.857 100.828 423.477 101.095C422.732 101.476 422.075 102.009 421.548 102.658C418.741 106.94 414.499 107.86 409.806 107.925C404.299 107.925 398.792 107.925 393.307 108.224C388.486 108.503 383.707 109.209 378.908 109.766C378.436 109.766 377.729 109.958 377.558 110.301C375.886 113.298 372.822 114.583 370.401 116.724C369.03 117.88 368.258 119.314 366.115 119.314C365.344 119.314 364.53 120.171 363.823 120.749C363.116 121.327 362.644 122.397 362.194 122.333C359.044 121.948 359.109 124.667 358.187 126.615C357.613 126.498 357.07 126.259 356.596 125.916C356.121 125.572 355.726 125.131 355.436 124.622C355.145 124.113 354.968 123.549 354.914 122.965C354.86 122.382 354.931 121.794 355.123 121.241C355.839 118.014 357.155 114.949 359.001 112.206C363.48 106.404 368.558 101.052 373.358 95.4859C375.543 93.151 378.419 91.5756 381.565 90.9899C391.782 88.0367 402.343 86.4317 412.977 86.2156C413.843 86.0768 414.682 85.8023 415.463 85.4021C415.416 84.3902 415.265 83.3858 415.013 82.4048C409.785 69.3237 404.492 56.2854 398.921 42.4978C396.478 46.4799 394.421 49.6699 392.493 52.9669C384.262 66.9618 373.224 79.1053 360.073 88.6349C352.633 93.7371 344.744 98.1514 336.503 101.823C328.574 105.698 320.303 108.909 312.118 112.206C308.325 113.748 304.34 114.84 300.462 116.124L299.99 115.097C302.411 113.769 304.79 112.42 307.211 111.136C310.19 109.53 312.568 106.426 316.575 107.454C326.753 103.942 336.46 99.7678 343.402 90.9043C348.202 84.7384 353.923 79.1934 358.23 72.7064C364.621 63.7074 369.552 53.7585 372.844 43.2257C374.301 38.1089 375.908 33.0134 377.558 27.9394C379.918 21.3124 383.405 15.1418 387.864 9.69864C389.496 7.62414 391.748 6.12409 394.293 5.41677C397.662 4.47876 400.87 3.03502 403.806 1.1349C408.092 -1.30576 411.542 0.107255 413.706 4.75308C414.884 7.30079 416.663 9.57018 417.991 12.0109C423.348 21.1741 426.241 31.2793 429.262 41.4059C433.49 55.5404 440.321 68.7623 449.404 80.3923C452.382 84.2246 456.925 86.8151 460.868 89.8766C461.511 90.3691 462.775 90.1978 463.76 90.155C467.232 89.9837 470.681 89.7268 474.153 89.5127C474.574 90.3008 474.687 91.2176 474.469 92.0843C474.252 92.9511 473.719 93.7058 472.974 94.2013C467.724 98.7615 462.368 103.193 457.032 107.668C456.513 108.081 455.926 108.399 455.297 108.61C448.473 110.622 441.269 110.989 434.276 109.68C431.644 113.18 429.212 116.825 426.991 120.599C424.278 125.543 423.218 131.224 423.966 136.813C424.714 142.402 427.23 147.605 431.148 151.664C436.254 157.653 442.552 162.516 449.64 165.944C452.41 167.442 455.572 168.062 458.704 167.721C459.003 167.335 459.389 167.036 459.368 166.822C457.654 156.802 459.368 146.568 457.632 136.634C456.282 128.884 458.061 123.232 464.425 118.415C468.597 114.826 472.546 110.986 476.253 106.918C477.25 106.131 478.303 105.416 479.402 104.777C481.352 111.885 479.402 119.122 482.167 126.187C483.667 124.988 484.824 124.046 485.916 123.189C492.345 117.794 498.516 112.313 504.901 106.961C506.352 105.832 507.935 104.883 509.615 104.135C514.158 101.994 517.565 104.135 517.008 109.059C516.417 112.688 515.55 116.267 514.415 119.764C513.815 121.905 512.979 124.046 511.865 127.471C514.951 126.315 517.115 125.694 519.108 124.731C524.651 121.866 530.862 120.541 537.093 120.895C543.324 121.249 549.345 123.269 554.527 126.743C565.241 133.551 572.226 145.519 569.526 159.243C569.296 160.732 568.945 162.199 568.477 163.632C568.239 164.114 568.102 164.64 568.076 165.176C568.049 165.713 568.133 166.25 568.321 166.753C568.51 167.257 568.8 167.716 569.173 168.104C569.546 168.491 569.994 168.798 570.491 169.005C575.312 172.003 579.919 175.3 584.654 178.425C591.897 183.521 598.137 189.908 603.06 197.266C608.674 205.144 614.438 212.916 620.202 220.816C621.359 222.422 622.345 224.456 624.852 223.856C625.094 226.344 625.905 228.743 627.224 230.867C628.544 232.99 630.335 234.782 632.459 236.102C636.336 238.978 640.798 240.966 645.53 241.926C646.922 244.752 644.673 246.207 643.194 247.835C642.687 248.485 641.989 248.963 641.199 249.201C640.408 249.438 639.563 249.425 638.78 249.162C636.851 248.988 634.908 249.053 632.995 249.355C633.217 251.7 633.101 254.065 632.652 256.377C631.558 258.486 630.173 260.432 628.538 262.157C630.145 262.907 631.13 263.463 632.18 263.849C638.33 265.99 640.58 273.312 640.451 278.086C640.299 278.779 640.007 279.434 639.595 280.011C639.182 280.589 638.658 281.077 638.052 281.447C632.352 285.258 626.545 288.876 620.781 292.559C619.949 293.106 619.067 293.572 618.145 293.95C614.138 295.406 612.339 294.079 612.639 289.904C613.153 282.496 611.931 280.912 604.689 279.67C603.38 279.39 602.032 279.332 600.703 279.499C596.418 280.313 592.132 281.148 588.018 282.282C582.726 283.717 581.59 286.414 582.576 291.895C583.561 297.033 581.204 301.636 579.426 306.282C578.292 308.478 577.518 310.842 577.133 313.283C576.897 325.957 578.312 338.353 585.854 349.122C587.78 351.832 590.081 354.254 592.69 356.316C594.309 357.671 596.267 358.563 598.354 358.895C600.44 359.226 602.578 358.986 604.539 358.2C611.076 356.137 617.173 352.878 622.517 348.587C623.61 347.826 624.447 346.751 624.917 345.505C625.388 344.26 625.469 342.901 625.152 341.608C623.609 334.971 622.024 328.312 620.867 321.59C620.374 318.828 618.081 318.1 616.346 316.43C616.453 315.788 616.345 314.931 616.667 314.546C618.981 312.105 618.81 309.237 618.617 306.154C618.274 302 618.617 301.872 622.774 300.266C623.449 299.881 624.057 299.39 624.574 298.81C625.409 298.104 626.202 297.397 627.638 296.134L629.459 303.927C632.095 300.116 627.916 295.192 632.866 292.559C633.423 294.55 633.959 296.348 634.602 298.66C638.009 295.856 633.638 290.91 638.33 288.705C638.844 291.445 639.294 293.972 639.766 296.626C647.372 299.367 654.765 302.107 661.879 294.721L662.286 296.027L654.036 304.013L692.606 348.972L691.17 352.291L705.955 362.182C705.098 362.127 704.239 362.241 703.426 362.518C702.613 362.794 701.863 363.229 701.219 363.795C700.574 364.362 700.047 365.05 699.669 365.82C699.29 366.59 699.067 367.427 699.013 368.284C704.884 372.565 712.491 368.883 715.083 360.833C720.419 359.27 725.583 357.579 730.875 356.316C733.725 355.609 737.025 356.316 739.661 355.16C742.296 354.004 743.946 351.499 746.089 349.743C747.551 348.704 749.083 347.767 750.674 346.938C750.927 349.55 750.308 352.172 748.912 354.396C747.517 356.619 745.424 358.318 742.961 359.227C744.091 372.267 747.197 385.058 752.174 397.165C754.602 403.348 756.188 409.828 756.888 416.433C757.584 420.687 758.83 424.832 760.595 428.765C762.352 433.432 764.495 437.95 766.509 442.51C768.159 446.214 767.838 447.712 764.731 450.217C763.76 451.134 762.705 451.958 761.581 452.679C756.824 455.313 755.388 459.102 755.624 464.626C756.09 479.497 759.43 494.139 765.459 507.744C767.602 512.732 770.109 517.678 772.68 522.538C773.819 525.073 775.672 527.222 778.011 528.723C780.351 530.225 783.078 531.014 785.858 530.995C789.844 530.995 793.829 530.995 797.772 531.166C799.58 531.444 801.354 531.911 803.065 532.557C802.486 533.928 801.565 535.02 801.822 535.598C803.686 539.879 801.415 542.406 798.693 545.103C794.836 548.893 791.194 552.896 787.422 556.771C786.866 557.213 786.253 557.58 785.601 557.863C783.758 555.08 783.458 550.691 778.059 551.633C778.723 552.789 779.087 553.646 779.623 554.374C782.623 558.506 786.265 562.209 788.001 567.219C788.118 567.538 788.309 567.824 788.558 568.054C790.262 569.453 791.594 571.249 792.439 573.283C793.283 575.318 793.614 577.53 793.401 579.722C793.165 582.548 795.736 583.233 798.243 582.976C798.243 583.918 798.243 584.561 798.072 584.882C794.815 589.014 793.915 594.174 791.922 598.862C788.944 605.906 783.737 611.365 779.066 617.189C773.023 624.746 766.724 632.175 760.402 639.411C757.038 643.287 753.396 646.926 749.86 650.673C749.303 651.294 748.446 651.765 748.146 652.471C744.803 660.136 737.432 664.418 732.825 671.076C732.375 671.74 731.732 672.66 731.047 672.767C725.133 673.795 721.212 678.248 716.455 681.224C711.698 684.2 710.026 684.328 706.598 679.468C704.005 675.807 701.991 671.761 699.527 667.543C698.571 668.053 697.691 668.694 696.913 669.449C691.085 677.156 683.264 682.508 675.485 687.861C670.386 691.329 665.157 694.626 660.036 698.052C656.993 700.064 656.436 700.064 654.401 697.152C652.687 694.712 651.079 692.207 649.022 689.103C647.908 690.173 646.73 691.243 645.744 692.292C643.967 694.824 641.997 697.215 639.851 699.443C637.975 700.877 635.761 701.805 633.423 702.141C624.169 703.646 614.711 703.355 605.568 701.284C604.196 700.848 602.977 700.032 602.053 698.929C593.632 690.173 587.933 679.511 581.44 669.406C579.919 667.072 578.333 664.781 576.79 662.469L575.676 662.898C576.426 666.302 577.069 669.749 577.947 673.131C579.887 679.341 580.962 685.789 581.14 692.292C581.14 695.932 581.89 697.174 585.811 700.471C584.67 701 583.468 701.388 582.233 701.627C579.568 702.052 577.152 703.439 575.44 705.523C573.662 707.172 572.548 709.548 569.741 709.934C569.436 710.057 569.163 710.248 568.944 710.493C568.724 710.738 568.565 711.03 568.477 711.347C567.748 715.222 564.191 716.442 561.598 719.525C556.97 712.46 558.341 703.982 554.292 696.917C552.149 699.422 550.006 701.755 547.863 704.26C547.373 704.911 546.747 705.449 546.03 705.837C545.313 706.225 544.52 706.454 543.706 706.508C540.585 706.909 537.512 707.626 534.535 708.649C532.607 709.292 531.214 709.185 530.25 707.579C528.093 704.21 526.021 700.799 524.036 697.345C522.407 694.498 520.95 691.565 519.3 688.396C516.151 690.751 513.579 692.849 510.729 694.669C507.958 696.475 505.098 698.14 502.158 699.657C496.952 702.376 492.366 699.465 489.688 695.568C485.264 689.456 482.329 682.396 481.117 674.951C480.788 673.496 480.359 672.065 479.831 670.669C478.717 671.59 477.86 672.211 477.11 672.81C470.039 679.618 463.032 686.533 455.875 693.256C452.511 696.403 451.804 696.125 448.911 692.314C442.761 684.221 440.962 674.951 441.047 665.017C441.047 653.52 440.94 642.023 440.812 630.505C440.639 629.484 440.373 628.481 440.019 627.508C438.755 628.985 437.876 630.034 436.912 631.147C436.29 631.897 435.969 633.01 435.198 633.502C430.283 637.002 426.38 641.736 423.884 647.226C422.234 650.309 419.191 650.502 416.106 651.315L423.177 640.503L422.384 639.775L407.599 651.401L408.949 653.948L404.535 652.964C408.82 659.386 414.434 663.54 417.391 669.727C404.321 659.022 396.242 644.229 385.572 631.426L389.3 633.181C384.543 620.122 377.858 608.925 374.665 596.4L371.858 602.587C372.763 604.198 373.564 605.864 374.258 607.576C374.502 608.654 374.502 609.773 374.258 610.851C373.979 612.992 373.615 614.962 373.208 617.017C372.951 618.302 372.608 619.586 372.265 620.871C372.029 621.813 371.279 622.883 371.515 623.697C372.715 627.979 371.022 631.961 371.172 636.072C371.344 640.824 372.115 645.577 372.586 650.33C372.887 652.459 373.059 654.604 373.101 656.753C372.915 663.212 373.425 669.672 374.622 676.021C374.843 677.171 374.915 678.344 374.836 679.511C374.404 683.948 375.525 688.396 378.008 692.1C377.386 696.382 376.829 700.15 376.315 703.875C376.239 704.21 376.293 704.562 376.465 704.86C379.55 708.499 377.986 712.931 378.479 716.999C379.24 725.356 383.191 733.099 389.514 738.622C392.214 740.913 392.278 742.904 390.243 746.009C390.017 746.454 389.721 746.859 389.364 747.208C384.95 750.248 386.171 754.294 387.35 758.319C387.907 760.203 388.529 762.066 389.107 763.928C394.035 764.72 397.142 763.821 403.613 759.646C404.171 762.451 402.285 764.035 400.956 765.684C399.628 767.332 397.699 769.024 398.149 771.743C398.149 772.235 397.657 773.263 397.271 773.327C394.228 773.776 394.121 776.752 394.228 778.294C394.421 781.227 393.328 784.717 396.242 787.115L396.35 787.008C393.95 788.335 393.564 786.151 392.835 784.867C392.107 783.582 391.464 781.784 390.564 779.707C388.075 783.5 387.005 788.049 387.543 792.552C388.229 802.315 392.128 811.243 395.278 820.385C395.565 820.975 395.967 821.502 396.46 821.936C396.953 822.37 397.527 822.701 398.149 822.911C400.987 823.858 403.896 824.574 406.849 825.052C410.127 825.587 413.47 825.694 416.77 826.101C419.727 826.465 422.598 825.416 425.769 826.572C428.555 827.6 432.026 827 435.176 826.829C438.98 826.683 442.773 826.311 446.533 825.716C450.325 825.073 450.818 825.052 453.132 828.863C444.561 832.652 435.54 840.509 434.148 845.412C433.505 845.112 432.391 844.449 432.305 844.577C428.469 849.715 422.513 849.309 417.306 849.48C406.828 849.844 396.328 849.373 385.85 848.945C384.674 848.728 383.461 848.823 382.333 849.221C381.204 849.62 380.201 850.307 379.422 851.214C374.793 844.941 367.272 845.198 361.166 842.458C354.815 839.929 348.318 837.784 341.709 836.035C337.167 834.6 337.081 834.622 334.231 838.304C331.609 842.073 328.099 845.139 324.01 847.232C324.01 843.678 324.01 840.509 324.182 837.341C324.311 835.897 324.555 834.465 324.91 833.059C325.617 829.933 324.182 828.113 321.589 826.636C316.283 823.723 310.461 821.869 304.447 821.177C295.533 819.749 286.591 818.65 277.62 817.88C274.145 817.581 270.645 817.878 267.27 818.758C259.497 820.698 251.835 823.063 244.322 825.844C240.572 827.639 237.135 830.024 234.144 832.909C230.994 835.564 228.251 838.711 224.587 842.393L224.287 836.955C222.545 836.669 220.772 836.618 219.016 836.806C214.237 837.876 209.545 839.31 204.874 840.574C203.545 838.433 204.874 837.341 205.902 836.463C211.859 831.646 217.837 826.872 223.901 822.226C224.961 821.457 226.258 821.085 227.565 821.177C234.636 822.14 239.586 818.137 244.514 814.154C246.987 812.168 249.328 810.022 251.521 807.732C255.657 803.45 259.878 799.168 263.606 794.522C267.758 789.55 271.553 784.292 274.963 778.786C282.14 766.184 287.609 752.685 291.226 738.644C294.526 726.804 297.033 714.751 301.254 703.104C304.359 693.602 306.977 683.949 309.097 674.18C311.208 666.329 313.857 658.632 317.025 651.144C318.611 647.183 319.639 642.987 320.968 638.726L321.375 640.268C323.518 636.585 325.467 633.331 327.374 630.056C327.904 628.815 328.627 627.665 329.517 626.651C331.446 625.067 334.081 624.211 335.646 622.37C337.21 620.528 337.274 617.296 340.36 616.375C340.662 616.24 340.934 616.046 341.158 615.803C341.383 615.56 341.556 615.274 341.667 614.962C343.809 608.753 344.988 602.48 342.717 596.036C342.502 595.437 342.202 594.623 341.709 594.366C338.131 592.568 338.624 589.314 338.538 586.188C338.538 584.475 338.195 582.762 338.003 580.9C335.955 581.351 334.092 582.41 332.657 583.938C331.223 585.467 330.286 587.393 329.967 589.463C327.546 599.162 325.017 608.732 322.532 618.516C321.31 623.697 320.389 628.942 318.825 634.059C316.755 641.14 312.694 647.478 307.126 652.321C295.512 662.876 284.134 673.731 272.842 684.435C269.159 687.551 265.045 690.118 260.628 692.057C260.199 692.293 259.492 692.571 259.235 692.4C255.357 689.702 250.321 692.1 246.207 688.632C242.093 685.163 237.529 686.855 233.351 690.43C228.637 694.369 223.687 698.03 218.737 701.691C217.408 702.561 215.892 703.104 214.313 703.275C212.734 703.446 211.136 703.241 209.652 702.676C200.824 700.214 196.153 694.112 193.838 685.549C192.403 680.239 190.817 674.972 189.274 669.684C189.039 668.935 188.717 668.228 188.353 667.222C187.487 667.446 186.657 667.792 185.889 668.25C182.803 671.033 179.718 673.838 176.782 676.814C173.847 679.789 173.761 683.108 173.504 686.598C173.476 687.647 173.225 688.679 172.767 689.624C172.309 690.569 171.654 691.406 170.847 692.078C166.926 695.226 163.476 699.058 157.99 701.113C158.29 695.59 158.547 690.409 158.869 684.414C157.455 686.555 156.447 688.203 155.44 689.83C155.226 689.638 154.862 689.445 154.862 689.274C155.269 683.322 155.205 683.451 149.934 680.71C143.12 677.199 136.456 673.431 129.706 669.834C125.678 667.693 124.092 668.014 120.878 671.054C117.166 674.862 113.223 678.436 109.071 681.759C104.68 684.74 100.067 687.381 95.272 689.659C88.844 692.956 82.416 696.831 75.602 698.822C70.695 700.257 65.338 700.963 59.681 697.795C50.6805 692.888 42.4681 686.66 35.3179 679.318C34.4343 678.361 33.6249 677.337 32.8966 676.257C31.3426 673.746 28.9877 671.83 26.2112 670.819C24.6102 670.197 23.1989 669.169 22.1159 667.836C21.033 666.504 20.3158 664.912 20.0348 663.219C19.7537 661.526 19.9186 659.788 20.5131 658.178C21.1077 656.568 22.1114 655.139 23.4257 654.034C25.9541 651.893 28.1826 649.281 30.9681 646.477C29.2968 646.048 28.0754 645.706 26.8326 645.449C24.6899 645.064 21.8829 645.449 20.8115 644.186C19.3116 642.473 16.9974 642.537 15.8832 641.06C13.9119 638.405 12.4119 635.386 10.6763 632.496C9.4764 630.527 8.2122 628.6 6.7765 626.352L11.2549 624.939C13.6333 619.629 15.8618 614.405 18.3259 609.267C19.0347 608.164 19.9971 607.247 21.1329 606.591C22.3573 605.761 23.3784 604.666 24.1204 603.387C24.8624 602.108 25.3061 600.679 25.4184 599.205C26.4255 590.791 28.1397 582.484 29.5111 574.113C30.0922 571.166 30.4716 568.183 30.6467 565.185C30.6296 564.119 30.8964 563.068 31.4198 562.139C31.9431 561.209 32.7042 560.436 33.6251 559.897C37.9106 556.836 42.0462 553.474 46.4816 549.963C47.5731 551.735 48.226 553.74 48.3863 555.814C48.5465 557.888 48.2094 559.971 47.403 561.888C44.5746 569.146 43.2461 576.875 39.0677 583.726C38.6394 584.812 38.3513 585.949 38.2106 587.108C37.1178 590.898 36.7321 594.837 34.7822 598.498C31.5681 604.493 33.068 610.894 34.9322 616.953C36.625 622.498 45.646 626.395 51.0671 624.468C54.3455 623.312 54.9026 620.079 55.3526 617.638C57.2597 608.004 58.8667 598.37 59.9595 588.543C60.5381 583.319 62.1023 579.637 66.988 576.982C70.252 575.517 73.134 573.319 75.409 570.559C77.102 568.204 79.694 568.654 82.823 571.03C82.823 583.983 82.501 596.721 83.337 609.567C83.723 615.561 86.444 621.406 88.201 627.315C88.651 628.835 90.344 630.676 89.915 631.597C88.888 633.849 87.338 635.823 85.394 637.356C81.666 640.28 77.789 643.009 73.78 645.534C71.21 647.034 68.564 648.398 65.852 649.624C61.5666 641.981 60.1738 633.609 57.9453 625.602C50.8957 627.165 48.4958 629.135 42.7533 638.02L46.0531 639.326L41.9819 646.113C45.1746 650.245 48.603 654.077 51.2814 658.359C56.2311 666.195 64.845 669.834 70.93 676.407C75.537 681.395 82.458 681.374 88.779 680.325C93.69 679.47 98.481 678.033 103.05 676.043C108.986 673.474 114.578 670.134 120.192 667.094C120.975 666.556 121.693 665.931 122.335 665.231C113.914 655.576 102.322 653.799 90.194 651.529C92.636 648.361 94.479 645.663 96.622 643.308C99.513 640.073 102.643 637.06 105.986 634.295C107.817 632.846 110.079 632.048 112.414 632.025C117.085 632.154 122.356 631.254 125.463 636.307C125.678 636.65 126.342 636.778 126.813 636.907L139.863 640.439C145.798 633.353 147.341 624.061 149.762 615.112L148.905 614.213C147.491 614.77 146.147 615.489 144.898 616.354C141.718 619.344 137.522 621.019 133.156 621.042C130.869 621.415 128.608 621.93 126.385 622.584C122.988 623.108 119.513 622.752 116.293 621.548C113.074 620.345 110.218 618.335 108 615.711C105.339 612.734 102.971 609.508 100.929 606.077C100.102 604.133 99.568 602.076 99.343 599.975C98.486 596.422 97.629 592.889 96.751 589.271C93.558 576.618 96.193 565.378 105.621 556.215C114.471 547.651 123.792 539.494 134.806 533.714C138.304 532.239 141.944 531.127 145.669 530.395C146.912 530.053 148.219 529.945 149.741 529.689C149.76 528.793 149.703 527.898 149.569 527.012C146.762 515.665 147.255 504.211 148.112 492.757C148.584 486.784 148.905 480.79 149.205 474.774C149.216 473.457 148.93 472.154 148.369 470.963C145.005 477.214 141.298 483.273 141.191 490.231L108.193 533.906L104.314 533.35C104.314 532.707 104.057 532.108 104.314 531.765C107.152 527.737 109.694 523.508 111.921 519.112C114.578 512.818 117.514 506.481 114.942 499.03C112.631 492.262 110.91 485.307 109.8 478.242C108.707 471.198 108.707 464.005 108.214 456.683C107.353 456.439 106.445 456.411 105.57 456.601C104.696 456.792 103.882 457.195 103.2 457.775C99.536 460.087 95.829 462.313 91.972 464.197C90.473 464.89 88.815 465.164 87.172 464.99C83.894 464.711 80.744 464.005 77.38 463.534C76.137 463.341 74.873 463.32 72.859 463.17C75.002 467.13 77.144 470.278 78.794 473.639C83.701 483.744 85.051 494.599 85.008 505.753C85.008 512.561 84.837 519.391 84.88 526.22C84.88 530.181 85.18 534.142 85.351 538.102C85.523 542.063 85.523 545.767 82.244 548.807C81.494 549.492 81.28 550.777 80.53 552.468C85.351 551.098 87.987 547.758 91.244 545.467C94.501 543.176 97.565 540.222 100.95 537.375C101.409 538.412 101.502 539.573 101.214 540.67C100.926 541.767 100.274 542.733 99.365 543.412C93.215 548.7 87.58 554.566 81.58 560.068C79.097 562.288 76.47 564.341 73.716 566.213C71.573 567.754 70.245 567.262 69.045 564.843C68.252 563.216 67.395 561.61 66.516 560.026C65.203 557.546 64.471 554.801 64.374 551.997C63.492 544.789 63.177 537.524 63.431 530.267C60.1309 521.981 62.2094 512.797 59.1453 504.575C58.3096 502.285 57.3882 500.015 56.3383 497.253C47.0173 504.768 41.5533 514.723 33.8823 522.945L29.8325 521.51C33.7948 515.079 36.7976 508.104 38.7463 500.807C39.2606 498.881 39.9248 496.997 40.5034 495.091C41.8747 490.595 42.9675 485.971 44.6817 481.603C46.1911 477.975 47.9081 474.437 49.8243 471.006C52.5242 465.996 57.024 462.849 61.4594 459.616C63.211 458.319 64.859 456.887 66.388 455.334C67.245 454.499 68.531 453.193 68.273 452.337C68.006 451.777 67.607 451.29 67.111 450.917C66.615 450.545 66.036 450.297 65.424 450.196C63.504 449.97 61.6562 449.335 60.0038 448.334C58.3514 447.333 56.9333 445.989 55.8455 444.394C52.0099 439.448 47.6816 434.717 46.6959 428.037C46.1602 424.29 44.8746 420.672 43.9961 416.968C43.3104 414.078 41.8533 413.265 39.4106 415.084C34.8894 418.553 29.4468 420.094 24.4113 422.599C21.2193 423.935 18.1864 425.622 15.3689 427.63C9.3478 432.512 3.6695 429.578 0.3697 422.77C0.214 422.472 0.122097 422.145 0.099997 421.81C0.077797 421.474 0.125899 421.138 0.241099 420.822C2.641 417.611 0.776799 413.864 1.7196 410.524C2.2687 408.434 3.1514 406.446 4.3338 404.637C7.5693 399.884 11.0406 395.302 14.5333 390.742C15.4546 389.522 16.9331 388.751 17.9617 387.595C18.888 386.452 19.7397 385.25 20.5115 383.998C21.1897 384.882 21.5224 385.982 21.4475 387.093C21.3725 388.205 20.8951 389.25 20.1044 390.035C19.5044 390.785 18.2402 391.555 18.3045 392.176C18.8188 397.4 17.2546 402.731 19.2473 407.912C19.7334 409.239 20.6051 410.389 21.7505 411.217C22.8959 412.045 24.2627 412.512 25.6756 412.558C27.9837 412.566 30.2872 412.351 32.5538 411.916C33.8231 411.569 35.1392 411.425 36.4536 411.488C42.389 413.008 45.7531 408.833 47.6601 403.373C48.7315 400.248 49.3529 396.951 50.6386 393.889C54.0027 386.01 59.381 379.438 64.609 372.758C68.549 367.836 73.988 364.333 80.101 362.781C78.409 365.864 76.866 369.054 75.002 372.052C70.764 377.8 68.115 384.562 67.322 391.657C66.528 398.752 67.618 405.931 70.48 412.472C71.523 414.506 72.78 416.422 74.23 418.189C75.537 415.363 76.48 413.35 77.401 411.316C78.323 409.282 79.266 406.692 80.401 404.465C82.544 400.355 86.594 398.235 89.894 395.324C90.901 394.467 92.018 393.747 93.215 393.183C94.345 392.742 95.514 392.412 96.708 392.198C97.217 393.69 97.407 395.273 97.265 396.844C96.237 399.573 95.049 402.239 93.708 404.829C89.883 413.053 89.064 422.356 91.394 431.12C93.279 438.635 98.636 442.917 105.043 446.107C107.764 447.498 109.328 446.535 109.886 443.259C110.591 438.812 111.063 434.332 111.3 429.835C111.535 425.297 112.393 421.486 116.849 418.959C120.035 416.823 123.064 414.462 125.913 411.894C127.842 410.396 128.313 408.854 126.706 406.799C125.802 405.402 124.8 404.071 123.706 402.817C120.921 400.269 120.149 396.801 119.185 393.504C114.771 378.303 116.4 363.231 120.492 348.244C121.215 344.816 121.737 341.349 122.056 337.861L117.299 339.895L117.449 340.023ZM329.839 554.673L332.324 557.542C332.684 553.421 332.358 549.268 331.36 545.253C330.353 543.005 321.932 540.222 319.832 541.464C319.571 541.656 319.334 541.879 319.125 542.127C309.075 551.911 305.947 563.772 308.797 577.282C309.009 578.868 309.613 580.376 310.556 581.67C311.499 582.963 312.751 584.001 314.197 584.689C314.833 583.824 315.42 582.923 315.954 581.992C319.531 574.487 323.837 567.352 328.81 560.689C329.903 559.276 329.517 556.707 329.796 554.652L329.839 554.673ZM549.149 493.742C547.456 495.22 545.721 496.654 544.092 498.217C542.056 500.229 540.107 502.349 537.664 504.811C534.685 479.848 532.135 467.002 529.093 462.378L518.208 488.583C520.029 488.583 521.272 489.182 522.686 487.298C524.933 484.912 527.417 482.76 530.1 480.875C530.9 483.682 531.488 486.544 531.857 489.439C532.243 500.272 532.178 511.127 532.693 521.96C533.357 536.261 534.385 550.541 535.328 564.778C535.623 566.944 536.053 569.089 536.614 571.201L541.221 566.042C541.928 569.467 542.056 569.574 539.678 572.143C538.819 572.955 538.174 573.966 537.8 575.086C537.427 576.207 537.336 577.402 537.535 578.566C538.285 583.34 538.928 588.136 539.914 592.868C540.285 595.366 541.337 597.714 542.954 599.655C544.572 601.596 546.693 603.055 549.085 603.872L559.798 594.345C559.789 593.499 559.718 592.654 559.584 591.818C557.634 581.114 555.599 570.559 553.756 559.897C553.049 555.808 552.556 551.676 552.256 547.544C551.613 538.745 551.227 529.924 550.67 521.125C550.113 512.326 549.47 502.863 548.849 493.721C551.763 493.079 549.899 496.782 552.534 497.082L550.52 489.996C551.356 489.996 552.492 490.253 552.942 489.803C556.327 486.527 559.52 483.08 562.884 479.762C564.206 478.62 565.586 477.548 567.019 476.551C567.727 477.514 568.198 477.899 568.241 478.306C569.369 489.253 570.462 500.186 571.519 511.105C571.511 511.758 571.259 512.385 570.812 512.861C569.119 514.509 569.462 516.5 569.719 518.491C570.019 520.975 570.062 523.501 570.598 525.921C571.133 528.34 570.726 531.423 573.126 534.056C574.99 531.037 576.812 528.468 578.247 525.706C583.497 515.601 591.425 507.787 599.782 500.379C603.146 497.382 605.075 497.896 606.21 502.092C608.203 509.457 609.917 516.929 611.76 524.336C612.103 525.706 612.424 527.055 612.96 529.218L631.023 505.089C628.495 502.948 626.181 500.593 623.609 498.666C621.038 496.74 618.681 498.966 616.067 499.673C615.113 498.239 614.268 496.736 613.539 495.177C612.907 493.067 612.399 490.923 612.017 488.754L608.76 493.571C604.132 489.054 599.503 485.735 596.461 481.303C592.474 475.368 589.134 469.023 586.497 462.378C582.319 452.037 578.912 441.375 575.14 430.863C574.611 429.64 574.002 428.453 573.319 427.309C572.196 429.372 571.429 431.608 571.048 433.925C569.162 443.388 567.284 452.85 565.412 462.313C565.201 463.293 564.908 464.253 564.534 465.182C561.02 474.11 557.656 483.123 550.627 490.103L549.149 493.742ZM346.166 291.488C346.831 287.956 347.388 285.429 347.773 282.924C348.995 274.917 346.595 267.146 346.231 259.224C345.654 250.226 343.409 241.413 339.61 233.233C337.681 228.952 335.196 224.67 330.224 222.4C329.529 223.132 328.878 223.904 328.274 224.712C325.604 228.774 323.829 233.358 323.068 238.158C322.699 240.04 321.825 241.786 320.539 243.21C317.668 246.957 313.961 250.511 313.939 256.056C313.939 259.695 311.24 262.029 308.604 264.084C305.454 266.525 302.176 268.773 298.919 271.085L291.933 275.966L290.991 275.303C291.783 267.638 295.876 260.316 294.355 252.309C293.121 253.656 292.082 255.17 291.269 256.805C285.355 268.366 279.527 279.97 273.591 291.552C268.754 301.088 262.49 309.831 255.014 317.479C250.728 321.761 246.764 326.236 242.436 330.325C239.053 333.578 235.475 336.624 231.722 339.445C230.189 340.73 228.278 341.482 226.28 341.586C221.48 341.351 218.544 345.226 214.452 346.425C213.766 346.617 213.209 348.351 213.166 349.379C213.166 352.698 213.166 356.037 213.337 359.377C213.552 368.391 213.637 377.404 213.98 386.396C213.979 390.865 214.702 395.304 216.123 399.541C216.573 399.134 216.744 399.049 216.766 398.92C220.066 383.934 223.323 368.947 226.751 353.961C227.137 352.025 228.118 350.259 229.558 348.908C235.215 344.219 241.107 339.852 246.979 335.442C248.248 334.748 249.592 334.202 250.986 333.815C249.957 338.546 249.464 342.378 248.307 345.889C245.264 355.267 241.6 364.451 240.058 374.214C238.6 383.548 238.579 392.904 242.329 401.768C245.414 409.111 250.343 409.646 256.107 404.53C262.157 399.385 266.3 392.357 267.87 384.576C268.881 379.346 269.433 374.038 269.52 368.712C269.379 366.068 269.996 363.439 271.298 361.134C272.6 358.828 274.533 356.941 276.87 355.695C278.584 354.731 278.777 353.254 277.191 352.162C273.12 349.315 271.77 345.012 271.106 340.558C270.442 336.105 270.699 331.224 269.97 326.621C268.92 320.198 271.792 314.953 274.984 309.815C275.662 308.659 276.436 307.564 277.298 306.539C284.755 298.254 292.298 290.054 299.712 281.683C302.322 278.807 305.931 277.031 309.804 276.716C320.068 275.56 329.646 278.343 338.71 283.139C339.135 283.354 339.512 283.655 339.814 284.024C340.117 284.392 340.339 284.82 340.467 285.28C340.574 288.341 343.081 289.026 346.166 291.488ZM320.453 463.855C320.668 460.087 320.861 457.282 320.989 454.478C321.095 450.87 320.012 447.328 317.905 444.395C315.799 441.463 312.787 439.304 309.333 438.249C302.468 436.489 295.199 437.249 288.848 440.39C287.7 441.16 286.65 442.066 285.719 443.088C290.005 445.7 290.798 449.511 291.505 453.557C292.244 458.351 292.055 463.243 290.948 467.965C288.805 478.799 285.227 488.904 275.734 495.798C272.82 498.164 270.031 500.679 267.378 503.334C268.636 504.831 269.974 506.26 271.384 507.616C277.813 513.096 285.869 514.381 293.69 514.317C299.454 514.317 305.368 511.962 310.832 509.842C314.175 508.536 318.011 506.759 318.504 502.092C318.75 501.308 319.297 500.654 320.025 500.272C324.953 497.275 329.924 494.363 335.603 491.023C321.396 510.913 301.319 521.938 281.413 532.515L289.234 565.763C293.519 559.79 297.012 553.688 301.726 548.636C306.44 543.583 312.44 539.815 317.625 535.598C317.304 534.441 317.175 533.778 316.939 533.157C315.7 530.209 315.334 526.967 315.885 523.817C316.436 520.667 317.88 517.741 320.046 515.387C323.483 511.088 327.182 507.005 331.124 503.162C341.409 493.421 351.609 483.53 363.523 475.673C366.415 473.767 370.165 471.926 371.408 469.122C372.651 466.317 371.879 461.907 371.601 458.267C371.452 455.283 370.882 452.335 369.908 449.511C367.915 444.415 364.315 442.852 359.087 444.201C353.717 445.624 348.988 448.824 345.674 453.279C344.636 454.593 344.072 456.218 344.072 457.892C344.072 459.566 344.636 461.192 345.674 462.506C348.331 465.825 348.309 466.103 345.438 468.929C344.624 469.764 343.917 470.684 343.102 471.498C339.502 474.966 336.01 478.563 332.217 481.796C329.667 483.937 324.932 484.151 323.389 482.31C322.452 481.207 321.915 479.821 321.864 478.376C321.813 476.931 322.253 475.51 323.11 474.345C326.282 469.271 329.432 464.155 332.988 459.359C335.495 455.933 338.645 452.936 342.224 449.018C338.088 452.015 334.853 454.349 331.639 456.726C328.424 459.102 325.917 462.891 320.539 463.855H320.453ZM194.417 526.156C191.503 528.811 188.932 531.38 186.082 533.649C183.232 535.919 182.482 540.072 178.004 541.742C177.832 537.631 177.682 534.013 177.554 530.845L165.447 536.561C166.518 540.415 167.783 544.183 168.554 548.058C168.979 549.863 168.823 551.756 168.107 553.467C167.391 555.178 166.153 556.619 164.568 557.585C161.162 559.961 157.712 562.295 154.562 564.971C147.127 571.394 139.884 577.988 132.513 584.454C130.027 586.595 127.392 588.607 124.906 590.641C128.527 598.755 137.763 605.007 146.055 604.279C150.512 603.893 155.376 603.016 157.412 597.749C159.704 591.861 162.276 586.081 164.418 580.193C167.027 573.151 170.58 566.497 174.982 560.411C175.886 559.321 176.521 558.035 176.838 556.656C177.154 555.276 177.142 553.842 176.804 552.468C175.582 548.7 177.618 546.837 180.168 545.039C185.61 541.228 191.074 537.446 196.56 533.692C200.16 531.209 200.46 531.316 202.388 535.105C202.717 535.672 203.074 536.223 203.459 536.754C205.216 535.683 206.716 534.613 208.323 533.863C208.679 533.742 209.058 533.706 209.43 533.758C209.803 533.81 210.157 533.949 210.466 534.163C210.683 534.47 210.833 534.82 210.907 535.188C210.981 535.557 210.977 535.937 210.895 536.304C210.69 537.111 210.24 537.834 209.607 538.375C208.974 538.915 208.189 539.247 207.359 539.323C203.074 540.265 203.074 540.436 203.888 544.718C205.495 553.581 207.252 562.402 208.816 571.287C209.716 576.532 210.423 581.799 211.13 587.087C211.795 592.033 211.945 597.085 213.08 601.902C214.306 606.097 214.306 610.554 213.08 614.748L204.681 620.464C209.438 625.003 210.38 630.698 211.109 636.585C211.649 641.391 212.516 646.155 213.702 650.844C214.58 654.291 214.43 658.187 217.366 661.399C220.358 659.129 223.22 656.691 225.937 654.098C229.035 650.696 231.94 647.122 234.636 643.394C235.124 642.528 235.333 641.534 235.236 640.546C234.979 629.563 234.658 618.58 234.379 607.597C234.379 606.955 234.251 606.12 234.593 605.713C237.872 601.795 237.293 597.149 236.608 592.76C234.72 581.079 233.76 569.267 233.736 557.435C233.736 552.126 232.901 546.73 232.708 541.507C232.708 539.815 232.879 537.225 233.951 536.518C237.486 534.035 239.35 529.967 243.014 527.698C243.381 527.481 243.695 527.186 243.933 526.833C244.17 526.48 244.326 526.078 244.387 525.657C244.449 525.236 244.415 524.806 244.289 524.4C244.163 523.994 243.947 523.621 243.657 523.309C243.294 522.644 242.687 522.146 241.964 521.919C241.241 521.691 240.458 521.752 239.779 522.088C237.272 523.009 234.829 524.101 232.279 524.871C223.708 527.462 215.137 530.288 205.988 530.181C204.874 530.181 203.245 530.181 202.731 529.539C200.46 526.67 197.01 527.269 194.417 526.156ZM269.413 398.963L268.106 398.428C265.535 400.44 262.792 402.303 260.392 404.551C251.701 413.08 242.159 420.699 231.915 427.288C227.458 430.028 225.487 429.985 221.416 424.783C220.775 423.81 220.297 422.74 220.001 421.614C218.48 417.332 216.98 413.222 215.394 408.769C210.798 411.316 206.656 414.608 203.138 418.51C199.945 421.893 198.124 422.214 193.26 420.244C193.082 419.309 192.953 418.366 192.874 417.418C192.381 409.09 191.953 400.762 191.439 392.455C191.591 389.603 191.016 386.759 189.767 384.191L162.04 414.827C165.297 414.421 166.968 411.359 170.611 412.13C174.254 412.901 174.511 416.305 176.354 418.189C180.189 417.696 182.525 413.372 186.725 415.02C186.103 418.467 186.103 418.467 183.489 418.745C178.389 419.302 176.932 420.779 176.504 425.875C176.396 427.031 176.246 428.187 176.118 429.364C173.825 450.56 171.832 471.776 170.354 493.036C170.304 494.678 170.426 496.321 170.718 497.939C171.618 503.783 172.582 509.649 173.589 515.987L178.753 518.128C179.375 513.846 179.996 510.227 180.403 506.631C181.325 498.345 182.075 489.953 185.31 482.203C189.723 470.852 193.227 459.168 195.788 447.263C196.099 445.667 196.84 444.187 197.931 442.981C201.231 439.942 204.693 437.083 208.302 434.417C208.836 434.071 209.443 433.854 210.075 433.783C210.708 433.713 211.348 433.79 211.945 434.01C212.401 434.435 212.765 434.949 213.015 435.519C213.266 436.09 213.397 436.706 213.402 437.329C213.423 439.087 213.279 440.843 212.973 442.574L229.044 434.545C229.337 434.378 229.587 434.143 229.772 433.86C232.322 430.563 236.201 430.478 239.736 430.242C240.638 430.177 241.543 430.295 242.397 430.59C243.252 430.884 244.038 431.349 244.707 431.955C246.856 434.242 248.499 436.956 249.528 439.919C250 441.546 248.179 443.816 247.386 445.807C247.207 446.386 247.085 446.981 247.021 447.584C247.447 447.701 247.888 447.751 248.329 447.734C249.614 447.391 250.9 447.027 252.143 446.578C260.456 443.58 268.792 440.454 277.856 441.439C279.248 441.679 280.679 441.561 282.013 441.097C283.347 440.632 284.542 439.837 285.484 438.785C286.405 437.825 287.386 436.924 288.419 436.087C293.519 431.805 298.255 427.181 305.111 425.725C309.783 424.74 310.49 423.584 310.382 418.831C310.382 417.182 310.061 415.513 309.868 413.864C309.097 406.906 308.154 399.948 307.597 392.969C307.211 388.151 306.74 383.613 301.404 381.536C300.697 381.258 300.162 380.465 299.562 379.866C295.448 375.713 295.276 373.165 298.855 368.626C300.097 367.063 301.49 365.607 302.776 364.087C303.311 363.466 304.361 362.567 304.19 362.139C302.99 358.863 305.283 356.123 305.754 352.997C303.976 352.997 302.54 353.254 301.126 353.19C295.319 352.89 293.969 354.004 293.883 359.891C293.776 367.877 293.476 375.905 293.883 383.891C294.151 391.571 295.641 399.159 298.297 406.371C299.39 409.047 300.44 411.723 301.512 414.249L278.306 434.224C272.499 422.663 271.234 410.717 269.413 398.963ZM392.514 426.046C393.414 431.998 394.421 437.029 394.892 442.124C395.535 448.868 394.55 455.848 398.428 462.035C398.667 462.38 398.835 462.769 398.923 463.179C399.01 463.59 399.015 464.013 398.937 464.425C398.859 464.838 398.701 465.23 398.47 465.581C398.239 465.931 397.941 466.232 397.592 466.467C396.735 467.448 396.283 468.719 396.328 470.021C396.27 478.184 397.293 486.319 399.371 494.213C401.634 500.825 404.707 507.132 408.52 512.989C408.954 513.903 409.32 514.847 409.613 515.815L408.692 516.265L398.728 499.716C393.071 502.435 392.3 503.719 394.121 508.408C395.181 510.844 396.421 513.198 397.828 515.451C399.349 518.149 400.999 520.804 402.863 524.015C397.121 527.719 394.014 533.756 387.864 537.139L376.551 517.378C370.637 521.66 365.323 525.578 359.751 529.196C355.466 531.937 352.166 534.763 352.83 540.522C353.002 542.127 352.252 543.69 354.159 544.804C354.866 545.232 355.123 546.452 355.509 547.33C357.523 551.933 356.58 556.472 355.337 561.053C354.77 562.612 354.466 564.255 354.437 565.913C354.759 571.201 355.359 576.468 355.959 582.677L360.587 580.279C361.23 584.09 361.958 588.179 362.558 592.268C362.618 593.249 362.517 594.232 362.258 595.18C361.602 597.59 361.08 600.034 360.694 602.502C360.437 605.585 358.551 607.041 356.194 608.582C353.13 610.723 350.173 613.014 347.238 615.347C346.895 615.626 346.938 616.418 346.681 617.488L366.244 609.181L365.558 602.352C370.015 599.633 370.037 599.633 371.087 593.895C371.322 592.589 371.451 591.262 371.729 589.956C371.819 588.876 372.199 587.841 372.829 586.959C373.459 586.077 374.315 585.382 375.308 584.946C376.636 584.086 377.656 582.826 378.222 581.349C381.372 574.755 384.372 568.076 387.457 561.439C388.014 560.218 388.7 559.062 389.6 557.157L374.772 561.267C374.408 560.054 374.383 558.764 374.7 557.537C375.017 556.311 375.665 555.194 376.572 554.309C381.993 547.887 386.6 540.586 393.714 535.426C393.243 537.032 392.793 538.638 392.278 540.35C397.278 540.39 402.175 538.936 406.34 536.174C410.506 533.412 413.75 529.468 415.656 524.85C419.229 515.284 420.69 505.06 419.941 494.877C419.663 491.999 419.22 489.14 418.613 486.313C417.327 486.827 416.47 487.041 415.87 487.405C414.027 488.39 412.677 487.534 411.392 486.335C410.106 485.136 410.599 483.594 411.392 482.245C412.442 480.34 413.642 478.542 414.584 476.593C415.494 475.243 416.033 473.678 416.149 472.055C415.184 464.99 414.006 457.946 412.613 450.966C411.413 445.1 409.763 439.32 408.199 433.539C407.62 431.398 408.199 430.071 410.706 428.786C412.849 434.61 414.991 440.133 417.348 446.642C417.225 441.181 416.077 435.793 413.963 430.756C413.149 428.315 411.82 426.303 408.713 426.324C407.193 426.246 405.751 425.631 404.642 424.59C401.664 421.614 398.749 422.342 395.664 424.183C394.507 424.847 393.264 425.639 392.514 426.046ZM619.281 262.821L619.495 261.537C618.167 260.595 616.817 259.695 615.531 258.711C613.067 256.784 610.496 254.964 608.224 252.802C605.893 250.662 603.789 248.287 601.946 245.715C601.595 245.099 601.125 244.558 600.565 244.124C600.004 243.689 599.363 243.369 598.678 243.182C597.994 242.995 597.279 242.945 596.575 243.034C595.871 243.124 595.191 243.351 594.575 243.703C592.724 244.442 590.997 245.46 589.454 246.721C584.397 251.003 579.555 255.628 574.455 259.995C567.148 266.289 557.484 268.195 549.106 263.506C542.271 259.674 540.535 255.328 544.156 248.348C545.049 246.551 546.157 244.869 547.456 243.339C550.97 239.335 554.613 235.46 558.17 231.563C562.927 226.447 567.941 221.522 572.462 216.213C576.555 211.396 576.298 210.283 572.098 205.658C571.557 205.028 570.954 204.454 570.298 203.945C564.834 200.135 559.37 196.302 553.82 192.62C552.364 191.973 550.83 191.52 549.256 191.271C549.256 193.134 549.256 194.226 549.47 195.339C549.685 196.452 549.77 197.758 550.049 200.113L544.628 196.752C544.199 198.379 543.856 199.771 543.492 201.162L540.342 201.034C539.335 203.71 542.142 206.707 538.607 208.891C537.792 207.628 537.107 206.365 536.25 205.23C534.857 203.432 533.55 205.487 532.243 205.829V200.37C528.107 202.639 524.507 204.652 520.907 206.6C517.308 208.548 516.986 208.741 518.915 212.809C522.662 220.821 525.744 229.127 528.129 237.644C530.978 247.406 534.15 257.083 537.471 266.696C538.871 270.076 540.496 273.359 542.335 276.523C542.748 277.34 543.412 278.003 544.229 278.415C545.047 278.827 545.975 278.967 546.878 278.814C556.369 278.066 565.905 279.532 574.733 283.096C576.124 283.372 577.567 283.192 578.847 282.582C579.903 282.065 580.865 281.378 581.697 280.548C588.59 274.463 596.762 270 605.61 267.488C610.324 266.289 614.76 264.448 619.281 262.885V262.821ZM396.157 223.257C396.374 223.731 396.624 224.189 396.907 224.627C397.33 225.143 397.788 225.629 398.278 226.083C401.765 229.087 404.554 232.817 406.449 237.01C408.344 241.204 409.299 245.76 409.249 250.361C409.613 262.2 410.127 274.04 411.392 285.815C412.365 291.535 413.953 297.134 416.127 302.514C417.027 305.212 418.27 305.319 420.648 303.392C422.255 302.064 423.734 300.544 425.255 299.11C425.225 300.75 424.743 302.35 423.862 303.734C423.155 305.04 421.72 306.411 421.827 307.588C422.415 311.146 423.195 314.669 424.162 318.143L427.505 317.03C427.848 320.155 428.148 323.131 428.491 326.428C429.268 325.734 429.985 324.975 430.634 324.159C436.811 314.811 441.286 304.447 443.854 293.544C446.254 282.475 447.347 271.107 449.704 260.016C451.311 252.352 447.154 247.835 442.547 242.482C438.54 246.764 434.898 250.703 430.676 255.328C429.923 253.762 429.397 252.096 429.112 250.382C428.906 244.275 430.771 238.277 434.405 233.362C438.047 228.802 442.204 224.648 445.847 220.109C449.104 216.042 452.275 212.316 458.532 215.335C459.946 205.662 460.476 195.881 460.118 186.111C454.418 188.038 449.404 190.607 444.347 191.185C439.29 191.764 433.633 190.372 428.234 189.837C426.884 197.073 428.512 212.252 431.233 217.669H433.869C433.653 219.085 433.56 220.518 433.59 221.951C434.276 228.074 431.148 232.441 427.162 236.445C425.877 237.751 424.591 239.057 423.327 240.406C421.732 241.855 420.295 243.47 419.041 245.223C417.649 247.468 415.621 249.249 413.213 250.339C408.542 238.778 408.242 226.468 404.642 214.393C402.178 216.77 400.356 218.675 398.385 220.452C397.591 221.345 396.847 222.282 396.157 223.257ZM240.786 295.556C236.286 292.366 232.215 289.561 228.23 286.65C224.496 283.821 220.172 281.869 215.58 280.939C210.987 280.009 206.244 280.124 201.702 281.276C199.096 281.825 196.642 282.941 194.516 284.545C192.39 286.149 190.644 288.201 189.402 290.556C188.16 292.911 187.453 295.51 187.331 298.169C187.209 300.828 187.675 303.481 188.696 305.94C191.867 314.503 198.402 319.663 206.395 323.067C209.057 324.013 211.796 324.729 214.58 325.208C217.773 325.979 221.008 327.349 224.201 327.349C229.814 326.856 235.384 325.969 240.872 324.694C243.245 324.18 245.444 323.06 247.255 321.443C249.065 319.825 250.424 317.766 251.2 315.467C253.193 310.714 255.485 306.047 257.628 301.401C264.989 286.11 271.185 270.287 276.163 254.065C277.47 249.783 278.456 245.501 279.591 241.348C277.967 241.519 276.42 242.126 275.113 243.103L261.185 252.844C259.722 254.078 257.996 254.962 256.14 255.429C254.283 255.897 252.345 255.935 250.471 255.542C249.364 255.285 248.201 255.477 247.236 256.077C245.406 257.655 243.668 259.334 242.029 261.108C248.671 266.975 256.835 269.972 263.242 276.673L240.786 295.556ZM612.403 599.333C611.598 598.453 610.495 597.903 609.308 597.788C608.121 597.674 606.933 598.003 605.975 598.712C601.861 601.153 597.704 603.551 593.44 605.735C587.011 608.967 582.726 614.405 577.455 619.565C579.126 620.421 580.262 621.085 581.462 621.599C586.414 623.656 590.769 626.925 594.125 631.105C597.039 634.744 599.868 638.491 602.418 642.387C607.989 650.951 613.324 659.515 618.788 668.079C620.146 670.59 622.165 672.681 624.628 674.127C627.091 675.572 629.903 676.316 632.759 676.278C635.095 676.278 637.409 676.599 639.744 676.642C641.351 676.642 642.98 676.428 645.016 676.278C640.837 654.869 640.73 633.46 634.623 612.8C631.13 616.91 631.13 616.91 626.781 613.977C628.444 605.96 632.183 598.519 637.623 592.397C641.03 588.736 644.287 584.968 647.651 581.264C648.872 579.915 650.201 578.652 651.637 577.174L648.08 570.559C635.223 582.141 635.223 582.313 631.345 591.968C630.852 593.21 630.573 594.516 630.102 595.758C628.719 600.064 625.828 603.728 621.959 606.077C620.988 606.71 620.114 607.482 619.367 608.368C615.338 612.65 611.331 616.932 607.325 621.214L606.339 620.871C606.248 619.701 606.335 618.525 606.596 617.381C607.723 614.441 609.048 611.58 610.56 608.818C612.189 605.94 612.836 602.611 612.403 599.333ZM260.649 570.452C258.156 576.52 256.853 583.011 256.814 589.57C257.062 601.22 257.934 612.847 259.428 624.404C261.421 638.105 259.192 651.208 256.107 664.353C255.078 668.635 256.428 671.547 260.799 672.617C263.068 673.138 265.365 673.531 267.678 673.795C280.277 675.358 293.883 664.096 296.733 652.964C298.469 646.241 299.39 639.326 300.569 632.475C301.683 626.052 302.711 619.629 303.676 613.313C304.19 609.802 305.454 606.355 305.09 602.116C303.499 603.028 301.837 603.809 300.119 604.45C297.486 605.388 294.726 605.922 291.933 606.034C290.161 605.87 288.391 606.366 286.962 607.426C283.02 610.252 279.013 612.992 274.427 616.182C272.969 614.484 271.783 612.57 270.913 610.509C268.77 601.945 267.378 593.253 265.342 584.711C264.292 580.193 263.949 575.547 260.649 570.452ZM480.667 197.201L482.059 198.55C482.551 197.69 483.125 196.88 483.774 196.131C487.931 192.17 488.488 192.342 493.866 194.311C498.024 195.983 502.394 197.071 506.851 197.544C518.508 198.358 529.093 194.375 539.121 188.809C540.631 187.895 541.912 186.648 542.866 185.164C543.821 183.68 544.423 181.997 544.628 180.245C546.62 169.798 545.806 159.949 537.857 151.856C537.514 151.493 537.214 151.086 536.892 150.7C535.117 148.384 532.852 146.487 530.26 145.144C527.668 143.801 524.811 143.044 521.893 142.929C519.75 142.779 517.608 142.479 515.465 142.201C508.158 141.237 502.008 142.886 497.616 149.394C493.823 155.046 489.623 160.442 485.702 166.008C484.823 167.22 484.196 168.596 483.859 170.054C481.834 178.965 480.764 188.065 480.667 197.201ZM167.097 273.569C165.704 276.459 164.418 278.921 163.283 281.49C161.14 286.222 159.169 290.953 157.219 295.749C152.548 307.331 147.748 318.892 143.334 330.582C139.451 340.932 138.085 352.057 139.348 363.038C139.816 365.82 140.445 368.572 141.234 371.281C148.984 361.8 157.774 353.219 167.44 345.697C176.804 338.225 187.624 333.001 199.11 328.013C197.224 326.642 196.045 325.722 194.824 324.908C189.043 321.476 184.744 316.021 182.76 309.601C182.257 308.19 181.534 306.868 180.618 305.683C177.275 300.758 177.104 298.682 181.046 294.186C185.996 288.577 191.16 283.139 196.538 277.936C200.524 274.082 204.981 270.743 210.188 266.375C208.452 266.73 206.736 267.174 205.045 267.702C198.617 270.293 191.996 272.776 185.76 275.71C179.525 278.643 173.525 277.872 167.097 273.569ZM364.723 389.179C364.358 390.635 363.33 392.412 363.844 393.161C365.418 395.966 367.556 398.415 370.122 400.355C372.672 401.96 373.294 403.566 372.458 405.985C372.233 406.614 372.23 407.3 372.448 407.93C372.666 408.561 373.093 409.098 373.658 409.454C379.893 415.191 386.643 419.645 395.685 418.745C397.999 418.51 399.178 417.525 398.749 415.213C398.215 412.772 397.499 410.375 396.607 408.041C393.748 400.305 393.219 391.902 395.085 383.87C397.025 377.151 399.321 370.54 401.964 364.066C403.185 360.705 404.685 357.429 406.399 353.361C404.541 353.782 402.659 354.09 400.764 354.282C397.014 354.389 392.814 356.423 390.05 352.012C389.75 351.584 388.764 351.67 388.207 351.327C386.064 350.086 384.072 348.758 382.057 347.474C383.215 344.327 384.2 341.736 385.529 338.032C382.979 339.252 381.243 340.002 379.593 340.901C375.628 343.432 370.99 344.708 366.287 344.562C363.892 344.297 361.467 344.516 359.159 345.208C356.851 345.899 354.706 347.049 352.852 348.587C348.72 351.342 345.096 354.79 342.138 358.778L364.723 389.179ZM474.003 356.166C474.331 353.45 475.053 350.796 476.145 348.287C477.696 345.525 478.529 342.419 478.567 339.253C479.234 332.438 481.029 325.782 483.881 319.556C485.786 314.016 489.208 309.12 493.759 305.426C499.523 301.144 505.137 296.669 510.901 292.302C515.572 288.748 515.636 288.769 513.794 283.181C510.437 272.891 507.022 262.6 503.551 252.309C502.966 250.926 502.293 249.582 501.537 248.284C500.123 255.371 498.773 261.13 497.83 267.082C496.094 278.065 493.245 288.491 486.216 297.547C482.252 302.621 479.06 308.252 473.724 312.855C471.83 309.887 470.467 306.612 469.696 303.178C468.41 297.825 467.21 292.473 465.689 287.142C464.702 284.372 463.535 281.668 462.196 279.049C460.632 281.704 459.603 283.331 458.682 285.065C452.811 295.899 447.047 306.817 439.397 316.623C435.84 321.247 432.455 326 429.048 330.753C428.601 331.622 428.262 332.542 428.041 333.493C429.49 332.835 430.845 331.985 432.069 330.967C435.224 329.043 438.955 328.285 442.611 328.826C445.226 328.997 446.083 330.967 447.326 332.808C447.578 333.288 447.957 333.69 448.422 333.97C448.886 334.25 449.419 334.398 449.961 334.398C450.504 334.398 451.036 334.25 451.5 333.97C451.965 333.69 452.344 333.288 452.597 332.808C453.021 332.143 453.352 331.422 453.582 330.667C466.546 334.371 469.739 345.654 473.896 356.209L474.003 356.166ZM490.63 514.809C494.916 512.668 498.901 511.469 500.787 507.637C502.994 503.164 504.905 498.551 506.508 493.828C511.779 478.092 513.558 461.585 516.429 445.336C516.879 442.874 516.815 440.347 517.158 437.864C517.412 436.63 517.313 435.349 516.874 434.168C516.434 432.987 515.671 431.953 514.672 431.184C510.729 428.123 506.723 425.125 502.673 422.235C501.56 421.705 500.376 421.337 499.159 421.143C499.159 423.006 499.309 424.355 499.373 425.682L495.087 423.926C494.745 431.655 500.68 434.289 505.265 437.95C500.466 440.09 497.637 439.17 495.645 435.166C495.084 433.796 494.365 432.495 493.502 431.291C492.618 430.272 492.039 429.025 491.831 427.692C491.622 426.36 491.793 424.995 492.323 423.755C493.876 418.613 497.104 414.137 501.494 411.038C502.903 410.223 504.115 409.108 505.045 407.772C505.974 406.436 506.598 404.913 506.872 403.309L491.873 394.895C490.99 396.829 490.274 398.835 489.731 400.89C488.537 406.617 487.672 412.407 487.138 418.232C486.903 423.941 486.996 429.66 487.416 435.359C487.716 441.782 488.102 448.333 488.723 454.777C489.359 465.954 491.264 477.022 494.402 487.769C494.98 489.503 496.352 491.815 493.502 494.192C492.987 492.051 492.559 490.317 492.173 488.604C491.359 484.879 490.716 481.089 489.688 477.407C488.766 474.11 483.474 472.868 482.252 475.737C480.602 479.612 477.795 483.166 477.967 487.812C477.934 491.815 479.082 495.739 481.267 499.095C482.161 500.414 482.668 501.957 482.733 503.549C482.797 505.142 482.416 506.721 481.631 508.108C481.309 508.879 480.86 509.585 480.388 510.463C484.674 510.463 487.159 504.918 492.28 508.451C488.788 509.542 489.88 511.855 490.523 514.852L490.63 514.809ZM688.17 562.723C680.778 568.975 673.643 574.969 666.572 581.092C665.684 581.966 664.601 582.616 663.413 582.988C662.224 583.361 660.964 583.445 659.736 583.233C658.72 583.108 657.696 583.043 656.672 583.041C656.951 584.839 657.186 586.316 657.422 587.772C658.879 597.149 660.529 606.505 661.707 615.904C663.293 627.786 664.429 639.733 665.993 651.615C667.075 659.031 670.024 666.052 674.564 672.018C679.771 668.186 685.492 666.494 690.677 663.454C696.334 660.136 698.241 656.303 697.449 650.095C696.549 643.18 696.291 636.179 695.627 629.221C695.572 627.914 695.082 626.663 694.234 625.667C691.942 623.526 685.235 625.346 684.099 628.343C683.838 629.273 683.224 630.064 682.387 630.548C681.551 631.032 680.558 631.17 679.621 630.933C681.035 635.215 681.035 635.215 677.95 637.099L673.385 634.016C673.621 626.352 677.221 619.993 680.992 613.677C682.792 610.68 684.721 607.747 686.413 604.685C686.721 604.213 686.929 603.682 687.025 603.126C687.121 602.571 687.102 602.001 686.97 601.453C685.378 598.538 683.558 595.753 681.528 593.124C681.364 592.765 681.105 592.458 680.777 592.237C680.45 592.016 680.068 591.889 679.673 591.871C679.279 591.854 678.887 591.945 678.541 592.136C678.195 592.327 677.909 592.61 677.714 592.953C677.328 593.424 676.428 593.467 675.057 593.981C677.2 588.35 681.335 585.417 684.699 581.799C688.063 578.181 691.62 574.691 694.92 571.308L688.17 562.723ZM355.123 342.742C355.039 341.908 354.631 341.139 353.987 340.601C351.693 338.623 350.114 335.945 349.494 332.981C348.875 330.017 349.249 326.932 350.559 324.202C351.587 321.581 353.034 319.144 354.845 316.987C361.144 309.879 367.701 302.942 374.129 296.048C377.772 292.195 381.693 288.577 385.379 284.723C386.484 283.707 387.235 282.364 387.521 280.891C388.1 270.421 387.093 260.231 380.686 251.324C378.672 248.541 377.279 248.455 374.493 250.554C373.126 251.457 371.694 252.259 370.208 252.951C369.565 254.215 369.137 256.912 367.808 257.447C363.93 258.989 363.523 262.243 362.73 265.39C360.373 274.082 357.909 282.732 355.637 291.424C355.279 293.309 355.092 295.222 355.08 297.14C352.121 300.68 349.353 304.374 346.788 308.209C342.662 315.048 337.921 321.498 332.624 327.477C330.481 329.918 328.339 332.53 326.196 335.249L331.017 335.506C331.189 339.402 331.231 343.021 331.553 346.639C331.638 348.093 332.144 349.491 333.01 350.664C335.044 352.775 337.19 354.776 339.438 356.658C344.688 351.884 350.495 347.795 355.123 342.742ZM446.361 544.761C447.797 539.023 448.89 533.671 450.647 528.49C451.468 526.525 452.846 524.843 454.611 523.651C459.368 520.076 464.339 516.822 469.224 513.439C469.935 513.012 470.476 512.352 470.753 511.57C471.031 510.789 471.028 509.936 470.746 509.157C469.439 503.848 468.11 498.452 467.296 493.1C465.796 483.23 464.66 473.296 463.332 463.405C463.118 461.842 462.732 460.301 462.389 458.588C456.231 459.142 450.199 460.667 444.519 463.106C443.482 463.444 442.594 464.129 442.004 465.046C441.415 465.962 441.16 467.054 441.283 468.137C441.433 471.626 441.454 475.138 441.283 478.606C441.111 491.164 437.566 503.446 431.019 514.167C429.585 515.98 428.842 518.244 428.925 520.555C429.007 522.865 429.909 525.07 431.469 526.777C435.948 532.536 440.533 538.231 445.097 543.904C445.461 544.256 445.881 544.546 446.34 544.761H446.361ZM700.234 569.703C705.655 574.456 707.712 580.536 710.219 586.295C710.711 587.84 710.785 589.487 710.434 591.069C709.962 594.388 710.434 595.544 713.562 595.929C718.821 596.743 724.139 597.123 729.461 597.064C735.889 596.743 741.825 594.666 745.253 588.222C746.839 585.679 748.615 583.26 750.567 580.985L751.446 581.563L742.875 600.832L770.173 593.339C769.648 591.773 769.04 590.237 768.352 588.736C762.65 578.306 754.421 569.473 744.418 563.044C743.039 562.12 741.558 561.358 740.003 560.775C736.811 559.576 735.589 559.94 733.575 562.766C728.666 570.06 722.912 576.751 716.433 582.698C713.219 579.936 712.876 577.303 715.598 573.92C719.519 568.953 723.676 564.179 727.533 559.169C731.822 553.628 736.781 548.637 742.296 544.311C744.439 542.577 746.582 540.821 748.96 538.937C746.817 534.656 744.867 530.823 742.532 526.092C738.932 530.995 735.804 534.998 732.911 539.194C728.699 545.594 723.524 551.306 717.569 556.129C711.976 560.454 706.362 564.907 700.234 569.703ZM261.999 461.992C260.122 461.235 258.178 460.655 256.192 460.258C242.479 458.995 230.822 464.54 219.766 471.841C215.722 474.75 211.871 477.918 208.238 481.325C206.871 482.255 205.789 483.544 205.109 485.05C203.481 491.13 202.195 497.318 200.824 503.462C200.826 504.59 201.007 505.71 201.359 506.781C205.795 504.404 205.795 504.404 208.881 504.918C209.888 509.35 211.495 511.02 215.909 512.09C217.359 512.484 218.834 512.784 220.323 512.989C227.341 514.038 234.513 513.211 241.107 510.591C240.87 501.683 242.851 492.855 246.871 484.9C250.878 476.893 256.878 470.385 261.999 461.992ZM678.142 422.942C680.628 421.229 681.956 419.837 681.292 417.204C679.514 410.246 681.292 403.716 683.778 397.25C686.266 391.42 689.698 386.039 693.934 381.322C695.027 380.016 695.884 378.517 697.127 376.697C695.791 376.259 694.432 375.894 693.056 375.606C688.102 374.828 683.345 373.105 679.042 370.532C672.928 367.157 667.335 362.917 662.436 357.943C659.829 354.826 656.604 352.281 652.965 350.471L656.243 360.405C655.472 361.09 654.529 362.032 653.501 362.824C649.537 365.864 645.573 368.926 641.544 371.859C640.473 372.52 639.619 373.482 639.09 374.623C638.56 375.765 638.378 377.037 638.566 378.282C639.337 384.212 639.98 390.185 640.709 396.116C641.046 397.571 641.483 399.002 642.016 400.398C643.051 399.128 644.175 397.933 645.38 396.822C648.444 394.489 648.594 394.574 651.808 396.822C653.102 397.857 654.547 398.687 656.093 399.284C662.098 400.882 667.264 404.711 670.536 409.989C670.857 410.503 671.457 411.188 671.907 411.188C673.214 411.188 673.171 411.573 673.407 412.794C674.056 416.536 675.691 420.039 678.142 422.942ZM475.803 364.901L474.517 365.136C474.26 366.892 473.938 368.626 473.767 370.382C473.06 377.854 470.446 384.191 464.018 388.665C461.296 390.549 459.068 393.118 456.518 395.281C450.583 400.355 444.626 405.45 438.583 410.417C436.757 411.795 434.854 413.067 432.883 414.228C434.898 425.746 436.783 436.729 438.755 447.691C439.049 448.887 439.428 450.06 439.89 451.202C445.697 448.783 450.925 446.107 456.454 444.437C458.578 444.049 460.478 442.874 461.773 441.148C463.068 439.421 463.663 437.27 463.439 435.124C463.439 432.64 463.675 430.135 463.846 427.63C464.103 424.483 464.639 421.336 464.618 418.167C464.618 410.995 470.103 408.383 474.881 404.572C475.288 406.199 475.588 407.334 475.974 408.854C476.467 408.062 476.81 407.762 476.767 407.505C476.446 405.874 476.66 404.182 477.379 402.682C478.096 401.181 479.28 399.952 480.752 399.177C483.816 396.783 486.643 394.102 489.195 391.17C483.217 382.992 477.924 374.771 475.803 364.901ZM252.4 232.163C253.257 229.187 253.814 227.175 254.435 225.183C254.814 223.223 255.539 221.345 256.578 219.638C259.339 216.099 262.408 212.811 265.749 209.812C270.035 206.129 274.663 202.875 279.291 199.621C280.061 199.127 280.702 198.458 281.164 197.669C281.626 196.881 281.894 195.994 281.948 195.082C283.105 181.958 284.327 168.856 285.312 155.71C285.634 151.428 284.755 150.422 280.191 150.229C275.227 149.983 270.252 150.069 265.299 150.486C258.871 151.086 256.9 153.377 257.007 159.842C257.063 161.663 256.427 163.437 255.228 164.809C252.834 167.779 250.61 170.881 248.564 174.101C247.881 175.222 247.651 176.562 247.921 177.847C248.843 180.995 249.443 184.698 251.5 186.989C255.785 191.614 254.157 196.688 253.643 201.59C253.085 207.885 251.65 214.115 250.943 220.409C250.082 224.351 250.596 228.468 252.4 232.077V232.163ZM282.27 316.858C282.055 321.568 281.777 324.887 281.755 328.227C281.807 329.891 282.052 331.543 282.484 333.151C284.198 340.173 287.091 342.55 294.29 342.956C295.444 343.085 296.608 343.085 297.762 342.956C309.74 340.815 320.861 336.833 329.71 327.97C331.604 326.351 332.859 324.111 333.252 321.652C333.644 319.192 333.148 316.674 331.853 314.546C330.979 312.93 329.93 311.415 328.724 310.029C319.468 299.003 306.89 296.819 293.519 297.183C291.99 297.229 290.516 297.763 289.313 298.707C288.109 299.651 287.241 300.955 286.834 302.428C285.098 307.652 283.491 312.898 282.27 316.858ZM706.534 428.315C703.779 429.895 700.914 431.275 697.963 432.447C695.006 433.389 691.32 432.876 688.878 434.438C686.435 436.001 684.871 439.641 682.642 442.06C678.485 446.599 674.071 450.859 669.786 455.398C662.88 462.682 655.158 469.147 646.772 474.667C643.173 477.107 639.123 479.484 635.009 474.41C634.445 478.038 634.886 481.752 636.283 485.149C637.681 488.545 639.982 491.495 642.937 493.678C647.587 492.008 649.044 485.564 655.365 487.255L658.643 497.446C663.187 497.823 667.761 497.262 672.078 495.798C674.778 494.898 675.935 493.55 675.55 490.702C674.993 486.57 674.864 482.374 674.093 478.306C673.505 475.966 673.612 473.505 674.4 471.225C675.187 468.944 676.622 466.941 678.528 465.461C680.542 463.748 682.256 461.671 684.121 459.744L693.334 450.153C694.063 451.978 694.637 453.862 695.049 455.784C695.649 462.078 696.077 468.394 696.57 474.709C696.806 477.407 697.084 480.083 697.32 482.781C700.544 477.608 702.463 471.73 702.913 465.653C704.17 455.42 705.355 445.179 706.469 434.931C706.602 432.735 706.623 430.534 706.534 428.337V428.315ZM629.759 467.816C629.652 466.472 629.473 465.136 629.223 463.812C627.792 459.907 626.632 455.909 625.752 451.844C624.845 444.634 622.912 437.591 620.01 430.927C619.595 429.54 619.45 428.087 619.581 426.645C619.776 425.169 619.876 423.681 619.881 422.192C618.396 409.634 615.946 397.208 612.553 385.026C612.012 383.913 611.879 382.646 612.176 381.445C612.474 380.244 613.183 379.185 614.181 378.453C615.797 376.813 617.293 375.06 618.66 373.208C621.917 369.654 625.324 366.228 628.495 362.503C629.517 361.464 630.087 360.063 630.081 358.607C629.277 355.291 628.283 352.024 627.102 348.822C613.817 358.842 603.703 371.538 589.047 377.447C589.347 383.334 594.425 383.763 597.168 386.482C593.397 389.479 593.418 389.479 595.025 394.275C595.647 396.18 596.161 398.107 596.782 400.012C602.246 416.776 607.367 433.646 614.824 449.682C618.4 456.748 623.484 462.946 629.716 467.837L629.759 467.816ZM553.584 442.124C553.924 441.623 554.232 441.101 554.506 440.561C558.513 430.306 562.541 420.094 566.398 409.818C567.018 408.339 567.117 406.693 566.677 405.15C565.777 403.01 565.905 399.434 561.813 400.226C561.577 400.226 560.827 399.199 560.848 398.663C560.574 396.759 560.781 394.816 561.448 393.011C563.66 389.949 566.058 387.025 568.627 384.255L572.612 379.481C565.22 375.199 561.363 368.519 557.763 362.225C553.949 366.292 550.67 370.296 546.878 373.722C539.442 380.423 531.707 386.781 524.1 393.29C523.243 394.018 522.472 394.853 521.336 395.944C529.2 401.704 537.942 406.456 542.421 415.042C546.899 423.627 549.77 432.854 553.542 442.21L553.584 442.124ZM426.948 402.71C430.655 404.123 431.662 404.23 435.133 402.539C440.062 400.119 444.904 397.486 449.747 394.874C450.657 394.478 451.41 393.793 451.89 392.926C453.261 388.858 455.361 384.747 455.511 380.594C455.742 375.159 454.765 369.74 452.65 364.728C450.534 359.715 447.333 355.234 443.276 351.606C437.49 346.189 430.634 345.804 423.605 350.771C419.513 353.64 418.613 358.135 417.177 362.31C414.982 368.2 414.262 374.538 415.08 380.769C415.898 387.001 418.229 392.939 421.87 398.064C422.594 398.882 423.423 399.602 424.334 400.205C426.198 393.782 435.048 385.325 442.611 382.114C443.554 387.723 442.826 388.922 438.326 388.751C436.548 394.853 431.255 398.085 426.905 402.795L426.948 402.71ZM588.104 528.811L586.668 528.661C585.726 530.374 584.761 532.065 583.84 533.778C579.555 541.828 579.362 550.691 578.826 559.469C578.741 563.288 579.665 567.061 581.504 570.409C583.197 573.92 584.869 577.881 583.154 581.863C581.738 585.279 579.918 588.513 577.733 591.497C573.957 596.552 569.908 601.398 565.605 606.013C563.462 608.261 562.798 609.909 564.962 612.329C565.154 612.565 565.287 612.844 565.35 613.141C565.414 613.439 565.406 613.747 565.327 614.041C563.527 616.953 565.327 619.437 566.12 623.076C569.823 619.995 573.337 616.691 576.64 613.185C581.737 607.271 587.376 601.845 593.482 596.978L604.196 588.157C602.375 583.597 600.618 579.465 599.054 575.312C595.132 564.779 593.375 553.753 591.318 542.791C590.483 538.06 589.197 533.457 588.104 528.811ZM730.104 415.341L728.647 415.577C727.851 417.673 727.192 419.818 726.676 422C725.861 426.752 725.433 431.57 724.661 436.322C723.569 443.066 722.669 449.875 721.062 456.49C718.533 466.852 711.976 475.009 704.884 482.502C699.484 488.24 696.313 494.106 698.049 502.113C698.691 504.961 698.863 507.915 699.377 511.79C701.198 510.013 702.27 509.029 703.255 507.98C705.077 506.031 706.769 503.976 708.634 502.049C714.033 496.44 719.755 491.088 724.876 485.221C730.151 479.323 733.118 471.721 733.232 463.812C733.336 459.98 733.708 456.16 734.347 452.379C734.755 450.674 735.482 449.062 736.489 447.627C738.932 443.709 742.382 440.005 738.011 435.252C737.711 434.931 737.754 434.289 737.582 433.818C735.782 428.637 734.004 423.455 732.097 418.317C731.537 417.259 730.869 416.262 730.104 415.341ZM372.265 477.428C370.263 478.143 368.315 479.002 366.437 479.997C359.859 484.172 353.216 488.283 346.916 492.843C343.221 495.403 339.928 498.499 337.145 502.028C335.844 503.617 334.961 505.506 334.576 507.523C334.191 509.54 334.315 511.621 334.939 513.577C335.563 515.533 336.665 517.303 338.147 518.726C339.629 520.149 341.442 521.179 343.424 521.724C351.48 524.036 358.787 522.11 365.837 518.342C368.322 517.014 370.529 515.173 372.951 513.717C373.838 513.26 374.56 512.538 375.017 511.652C375.474 510.765 375.643 509.759 375.501 508.772C374.965 501.792 374.751 494.791 374.151 487.812C373.915 484.515 373.058 481.325 372.265 477.428ZM225.573 220.666C224.737 220.468 223.882 220.361 223.023 220.345C222.032 220.462 221.056 220.677 220.109 220.987C209.961 224.149 200.228 228.512 191.117 233.983C185.653 237.258 182.546 248.049 184.946 253.958C186.617 258.09 189.981 259.224 193.517 260.637C194.913 261.408 196.535 261.665 198.101 261.364C199.668 261.063 201.078 260.222 202.088 258.989C203.094 257.77 204.357 256.788 205.787 256.115C207.217 255.441 208.778 255.092 210.359 255.092C215.197 254.85 219.916 253.51 224.158 251.174C225.402 250.713 226.462 249.86 227.177 248.744C227.892 247.627 228.224 246.309 228.122 244.987C228.063 243.176 227.819 241.375 227.394 239.613C226.108 234.582 224.694 229.615 225.723 224.349C225.804 223.119 225.754 221.885 225.573 220.666ZM647.437 568.183L632.18 510.72C629.93 513.439 628.173 515.194 626.823 517.143C624.877 520.035 623.165 523.077 621.702 526.242C620.374 529.239 616.281 530.995 617.653 535.191C614.138 536.968 615.21 540.479 615.617 542.877C617.427 553.433 621.105 563.583 626.481 572.85L636.552 574.306L647.437 568.183ZM471.089 668.699C473.06 667.351 475.096 665.724 477.324 664.418C478.298 663.957 479.095 663.191 479.594 662.237C480.093 661.282 480.266 660.191 480.088 659.129C479.424 650.844 478.995 642.537 478.374 634.252C477.753 625.966 476.917 617.124 476.231 608.411C475.888 606.803 476.076 605.128 476.767 603.636C478.61 601.239 477.474 599.355 476.767 597.214C474.753 591.412 472.888 585.567 470.917 579.765C470.317 577.988 469.546 576.254 468.474 573.535L460.675 596.743C461.682 600.81 463.139 604.086 463.225 607.447C463.468 617.924 463.403 628.4 463.032 638.876C462.636 645.34 463.156 651.826 464.575 658.145C465.32 662.364 467.65 666.139 471.089 668.699ZM752.496 635.344C763.017 632.646 772.638 622.327 771.78 614.577C769.638 615.305 767.688 616.054 765.631 616.718C763.102 617.488 760.445 618.859 757.981 618.687C748.232 617.767 739.682 621.578 730.94 624.767C726.783 626.309 726.226 626.908 727.576 630.955C729.268 636.05 726.976 639.262 723.676 642.473C719.39 638.191 718.662 634.594 721.169 629.948C722.776 626.93 724.597 624.018 726.74 620.336L718.812 622.798C718.07 622.937 717.4 623.328 716.915 623.906C716.43 624.484 716.162 625.212 716.155 625.966C715.533 638.213 719.776 648.81 727.018 658.402C727.267 658.846 727.615 659.226 728.035 659.513C728.456 659.8 728.937 659.987 729.441 660.057C729.945 660.128 730.459 660.081 730.942 659.92C731.425 659.759 731.864 659.488 732.225 659.129C734.066 657.49 735.752 655.684 737.261 653.734C737.882 653.006 737.904 651.722 738.589 651.144C742.884 647.316 745.717 642.117 746.603 636.436C746.809 635.625 747.126 634.847 747.546 634.123C748.467 632.346 749.689 632.239 751.146 633.545C751.65 634.102 752.102 634.704 752.496 635.344ZM504.58 510.506C503.723 510.934 503.144 511.041 502.866 511.384C499.351 515.815 495.687 520.183 492.452 524.829C491.456 526.551 491.036 528.546 491.252 530.524C492.19 545.016 495.154 559.307 500.059 572.978C501.422 576.374 503.139 579.617 505.18 582.655C507.13 585.588 509.122 586.059 511.608 585.053C512.97 584.685 514.146 583.823 514.906 582.635C515.667 581.448 515.957 580.02 515.722 578.63C515.594 575.312 514.801 571.779 515.722 568.718C517.158 563.622 513.965 559.769 513.365 555.273C509.851 553.56 510.965 550.199 510.579 547.394C510.16 542.757 509.444 538.152 508.437 533.607C506.787 527.496 505.76 521.234 505.373 514.916C505.115 513.525 504.837 512.133 504.58 510.506ZM442.976 574.092L441.883 573.856C437.597 582.848 433.312 591.861 429.026 600.81C428.056 603.097 426.749 605.226 425.148 607.126C418.72 613.849 412.034 620.4 405.306 626.866C401.878 630.163 398.171 633.16 394.271 636.564C395.814 641.552 400.035 645.278 404.363 649.088C404.974 648.803 405.556 648.459 406.099 648.061C413.299 641.467 421.377 635.729 427.248 627.743C430.595 623.809 433.472 619.498 435.819 614.898C438.405 608.216 440.468 601.345 441.99 594.345C443.575 587.713 443.909 580.845 442.976 574.092ZM160.99 653.092C163.657 649.452 164.995 645.009 164.783 640.503C164.59 637.699 164.354 633.952 168.49 632.668C168.983 632.518 169.197 631.255 169.368 630.527C169.583 629.392 169.518 628.172 169.818 627.058C170.89 622.776 174.554 621.813 177.575 624.917C178.18 625.666 178.691 626.485 179.096 627.358C177.425 630.248 172.989 631.747 175.389 636.414C176.482 635.708 177.532 635.044 178.625 634.273C180.939 632.646 183.125 630.805 185.546 629.392C186.61 628.928 187.464 628.088 187.947 627.033C188.429 625.978 188.505 624.783 188.16 623.676C187.303 618.773 186.896 613.806 186.489 608.839C185.972 600.539 184.586 592.315 182.353 584.304C181.903 582.784 181.153 581.328 180.211 579.273C175.625 591.091 172.047 602.566 166.797 613.228C161.547 623.89 154.455 634.016 147.812 644.978L160.99 653.092ZM171.447 396.18C180.661 386.888 191.096 354.175 188.332 344.519C187.582 344.519 186.789 344.519 185.975 344.626C179.512 345.377 173.24 347.292 167.461 350.278C164.273 351.881 161.774 354.584 160.427 357.887C159.079 361.189 158.975 364.867 160.133 368.241L164.676 366.357C163.54 368.819 162.833 370.21 162.276 371.645C161.38 373.194 160.824 374.917 160.647 376.697C160.691 378.484 161.093 380.244 161.829 381.873C162.565 383.502 163.621 384.967 164.933 386.182L172.09 381.45L172.454 382.028L165.554 388.687L171.447 396.18ZM408.477 548.079C405.906 552.832 403.078 557.521 400.721 562.445C399.232 565.347 398.399 568.541 398.281 571.8C398.162 575.059 398.761 578.304 400.035 581.306C403.164 588.843 406.363 596.336 409.635 603.786C410.042 604.707 411.027 605.349 412.077 606.484C416.791 597.663 421.484 589.356 423.755 580.129C424.977 575.076 425.727 569.96 423.155 564.993C419.834 558.57 414.82 553.496 409.956 548.293C409.87 548.079 409.656 548.186 408.477 548.079ZM660.593 417.161C659.436 410.588 648.508 405.407 642.637 408.212C642.637 409.518 642.637 410.845 642.637 412.151C642.787 417.975 644.565 419.495 650.458 418.767C652.279 418.553 654.079 418.21 655.879 417.932L656.136 419.024C653.844 419.88 651.594 420.822 649.28 421.593C645.208 422.942 644.308 423.884 644.994 428.016C645.685 432.791 646.84 437.488 648.444 442.039C650.129 445.862 652.289 449.458 654.872 452.743C655.359 453.362 655.981 453.861 656.69 454.202C657.399 454.543 658.177 454.718 658.965 454.713C662.266 454.153 665.259 452.436 667.407 449.87C669.555 447.304 670.718 444.057 670.686 440.711C671.05 433.24 668.243 426.752 665.372 420.201C664.493 418.296 663.422 416.583 660.593 417.097V417.161ZM536.678 312.791C534.198 311.791 531.84 310.512 529.65 308.98C526.895 306.355 524.277 303.589 521.807 300.694C520.929 299.752 520.072 298.553 518.958 298.147C515.186 297.119 507.708 300.758 505.63 304.334C502.448 309.823 500.346 315.869 499.437 322.146C499.327 323.572 499.327 325.003 499.437 326.428C502.458 325.465 504.944 324.63 507.472 323.923C512.063 322.454 516.735 321.253 521.465 320.327C530.036 319.021 538.607 318.186 547.178 317.265C554.099 316.452 554.099 316.473 555.427 309.793C555.619 308.988 555.769 308.173 555.877 307.353C556.134 303.734 553.177 302.643 550.842 301.208C548.506 299.774 547.049 301.208 545.656 302.792C542.871 305.811 540.128 308.915 536.678 312.791ZM312.268 758.212C314.983 753.753 317.967 749.463 321.203 745.366C325.268 741.154 329.56 737.166 334.06 733.42C337.295 730.53 340.702 727.853 343.959 724.985C345.459 723.679 346.981 722.373 346.445 719.932C345.502 715.65 344.752 711.497 343.959 707.429C340.423 706.713 336.845 706.227 333.246 705.973C325.81 705.973 325.703 706.144 323.668 713.252C319.875 726.569 316.104 739.864 309.504 752.174C308.84 753.702 308.289 755.276 307.854 756.885L312.268 758.212ZM343.767 448.247L369.544 428.187C352.916 419.773 341.217 406.628 329.56 393.225C329.225 399.111 329.892 405.011 331.531 410.674L321.032 422.107C330.246 422.107 330.246 422.107 335.153 425.532L344.752 421.357C345.167 422.951 345.446 424.577 345.588 426.217C345.297 428.861 345.197 431.523 345.288 434.182C346.026 438.927 345.479 443.784 343.702 448.247H343.767ZM710.176 541.485C713.391 546.388 713.948 546.688 718.619 544.29C721.705 542.628 724.676 540.761 727.511 538.702C728.388 537.966 728.955 536.926 729.097 535.79C729.581 532.823 729.639 529.803 729.268 526.82C728.875 524.087 727.775 521.504 726.076 519.326C724.377 517.148 722.139 515.451 719.583 514.402C713.605 511.962 708.484 513.76 703.405 516.543C701.726 517.459 700.386 518.89 699.584 520.625C698.781 522.359 698.558 524.306 698.948 526.177C699.206 527.676 699.313 529.175 699.698 530.631C700.47 534.426 702.22 537.953 704.777 540.864C707.969 540.864 709.062 536.582 712.748 537.717L710.176 541.485ZM120.578 584.133C124.863 581.221 128.377 578.844 131.87 576.361C135.036 573.688 138.387 571.241 141.898 569.039C144.491 567.712 145.605 566.277 144.919 563.708C144.06 560.525 142.979 557.406 141.684 554.374C141.125 553.175 140.117 552.245 138.877 551.783C134.435 550.423 129.912 549.344 125.335 548.55C121.542 547.951 119.078 549.771 117.578 553.303C113.164 563.687 115.65 573.406 120.578 584.133ZM154.133 421.978C150.662 418.017 147.384 414.464 144.341 410.738C143.753 409.945 142.896 409.392 141.93 409.183C140.964 408.974 139.955 409.124 139.091 409.604C135.341 410.824 135.427 414.057 134.999 416.883C134.12 422.792 133.413 428.744 132.856 434.695C131.977 443.409 131.013 452.144 133.606 460.772C134.4 460.653 135.202 460.596 136.006 460.601C136.879 460.763 137.739 460.992 138.577 461.286C139.52 458.866 140.27 456.683 141.191 454.606C143.141 450.196 144.041 445.143 149.141 442.745C149.674 442.362 150.115 441.866 150.434 441.292C150.752 440.718 150.94 440.081 150.983 439.427C151.08 437.103 150.783 434.779 150.105 432.554C148.326 427.309 148.176 427.373 152.248 423.841C152.741 423.306 153.319 422.728 154.133 421.978ZM306.268 155.903C305.698 157.215 305.204 158.559 304.79 159.928C303.89 164.21 303.076 168.492 302.24 172.773C301.404 177.055 300.312 181.594 299.712 186.047C299.112 190.5 299.712 191.335 303.997 193.177C306.02 193.942 307.983 194.858 309.868 195.917C310.741 196.574 311.822 196.894 312.912 196.819C314.002 196.745 315.029 196.28 315.804 195.51C316.67 194.701 317.618 193.984 318.632 193.369C321.718 191.828 322.232 189.237 321.76 186.218C320.352 179.175 319.884 171.976 320.368 164.809C320.549 163.812 320.371 162.783 319.865 161.905C319.359 161.027 318.558 160.357 317.604 160.013C313.918 158.643 310.34 157.402 306.204 155.903H306.268ZM676.535 508.087C671.414 509.585 667.964 513.589 662.886 512.647C662.678 513.341 662.584 514.064 662.607 514.788C665.114 527.098 666.893 539.601 672.378 551.184C673.635 553.719 675.268 556.05 677.221 558.099C678.152 559.073 679.416 559.661 680.761 559.749C682.106 559.836 683.435 559.415 684.485 558.57C687.206 556.857 687.549 555.915 686.499 552.297C683.438 542.998 681.025 533.498 679.278 523.865C678.442 518.684 677.435 513.674 676.535 508.087ZM506.187 214.393L505.694 213.43C503.98 213.751 502.223 213.944 500.53 214.372C494.739 216.068 488.612 216.267 482.724 214.95C477.131 213.408 473.51 214.95 470.574 219.531C469.653 220.966 467.853 221.929 468.432 224.541L473.553 221.03L474.581 221.715C474.346 223.428 474.046 225.141 473.853 226.853C473.488 230.45 472.353 233.983 474.11 237.558C476.51 242.504 478.503 247.642 480.731 252.673C481.431 253.967 482.196 255.225 483.024 256.441C483.667 253.872 484.138 252.331 484.416 250.768C486.383 239.359 492 228.894 500.423 220.944C502.48 218.975 504.258 216.62 506.187 214.393ZM575.44 246.379C582.019 247.599 587.29 244.837 592.218 241.198C595.132 239.057 595.561 237.986 593.547 234.925C589.754 229.101 585.576 223.535 581.419 217.926C581.184 217.585 580.875 217.302 580.515 217.098C580.154 216.895 579.752 216.776 579.339 216.751C578.925 216.727 578.512 216.796 578.13 216.955C577.748 217.114 577.407 217.358 577.133 217.669C572.628 221.798 568.385 226.202 564.427 230.857C560.463 235.867 562.284 241.283 568.005 243.874C570.44 244.834 572.921 245.67 575.44 246.379ZM388.079 289.39C386.242 290.377 384.461 291.463 382.743 292.644C379.636 295.149 376.593 297.74 373.658 300.459C372.049 301.895 370.611 303.511 369.372 305.276C367.986 307.272 367.243 309.644 367.243 312.073C367.243 314.503 367.986 316.875 369.372 318.871C371.156 321 373.6 322.474 376.317 323.059C379.033 323.645 381.868 323.309 384.372 322.104C386.017 321.307 387.607 320.398 389.128 319.385C392.45 317.244 392.707 316.152 391.893 312.298C391.078 308.444 390.328 304.141 389.75 300.031C389.064 296.948 388.7 293.843 388.079 289.39ZM499.866 340.409C499.981 347.365 501.988 354.159 505.673 360.062C509.551 356.722 513.172 354.004 516.386 350.835C522.649 344.841 529.898 339.967 537.814 336.426C540.642 335.035 543.599 334.286 546.513 336.897C548.534 338.431 550.685 339.785 552.942 340.944C552.534 335.442 553.584 330.453 551.999 325.187C549.727 326.471 547.713 327.327 545.978 328.612C537.641 334.273 527.816 337.349 517.736 337.454C511.658 337.453 505.62 338.451 499.866 340.409ZM717.055 374.664C715.234 374.379 713.37 374.557 711.636 375.182C709.902 375.807 708.354 376.858 707.134 378.239C702.414 383.571 699.722 390.392 699.527 397.507C699.336 400.522 700.082 403.522 701.662 406.097C703.242 408.672 705.58 410.697 708.355 411.894C710.884 412.815 712.062 412.408 713.069 409.753C715.212 404.166 717.355 398.556 719.326 392.904C719.611 391.789 719.574 390.616 719.219 389.522C718.683 387.595 718.017 385.706 717.226 383.87C716.005 381.086 714.676 378.153 717.055 374.664ZM534.921 375.37C536.292 367.149 534.921 361.561 530.636 356.744C529.898 355.82 528.92 355.117 527.808 354.713C526.697 354.309 525.495 354.219 524.336 354.453C519.127 355.573 514.244 357.873 510.065 361.176C507.922 362.803 508.33 364.58 509.765 366.4C511.333 368.758 513.135 370.953 515.143 372.951C518.117 375.595 521.459 377.794 525.064 379.481C531.557 382.264 534.278 380.38 534.985 375.434L534.921 375.37ZM316.082 795.85L317.111 794.672C315.354 788.742 315.075 782.447 312.161 776.217C307.126 777.266 302.283 778.358 297.419 779.257C292.626 780.007 288.322 782.615 285.441 786.515C284.348 787.971 283.065 789.274 281.627 790.39C280.619 791.079 279.902 792.116 279.613 793.302C279.324 794.488 279.484 795.738 280.063 796.813C281.048 796.813 282.377 797.22 283.212 796.813C291.291 792.231 299.712 792.66 308.325 794.672C310.854 795.293 313.489 795.486 316.082 795.85ZM359.409 763.928C356.687 753.224 354.352 743.118 349.509 734.191C347.022 734.898 344.497 735.463 341.945 735.882C341.191 735.913 340.467 736.186 339.881 736.661C339.294 737.135 338.876 737.785 338.688 738.515C336.561 744.346 336.381 750.708 338.174 756.649C338.53 757.881 339.352 758.925 340.467 759.561C346.145 761.53 351.759 764.314 359.409 763.928ZM207.702 472.868L208.816 473.382C214.109 469.1 219.53 465.011 224.63 460.536C226.325 459.035 227.475 457.016 227.901 454.793C228.328 452.57 228.006 450.269 226.987 448.247C226.594 447.558 226.055 446.962 225.407 446.503C224.759 446.045 224.018 445.734 223.237 445.593C220.418 445.696 217.681 446.566 215.321 448.109C212.961 449.652 211.068 451.81 209.845 454.349C207.509 460.536 208.838 466.724 207.595 472.868H207.702ZM506.83 627.422C503.594 635.472 501.387 643.094 503.101 651.508C504.815 659.922 506.872 667.436 513.665 673.559C514.972 662.534 510.815 634.53 506.83 627.422ZM344.645 780.949C345.952 788.742 346.938 795.443 348.223 802.101C348.952 805.826 351.716 806.64 354.887 804.349C361.787 799.404 361.423 791.974 362.13 784.545L344.645 780.949ZM731.968 484.386C726.44 488.069 723.397 494.235 718.747 498.773C718.147 499.352 718.147 500.55 717.783 501.664C718.561 502.105 719.379 502.47 720.226 502.756C726.311 503.955 731.497 506.481 734.775 512.09C735.097 512.647 736.318 512.668 737.497 513.032C735.589 503.12 733.811 493.914 731.968 484.386ZM341.624 683.493C343.059 670.134 342.952 655.897 341.195 650.823C336.267 661.699 334.274 672.66 331.681 684.2L341.624 683.493ZM276.677 231.756C276.87 230.322 277.02 229.38 277.148 228.459C277.898 223.535 278.627 218.589 279.291 213.644C279.57 211.867 279.42 210.111 277.513 209.512C275.606 208.912 274.556 210.497 273.72 211.995C270.67 217.166 269.245 223.133 269.627 229.123C269.927 232.869 272.52 236.252 275.263 236.552C278.863 236.959 279.934 234.026 281.37 231.628C281.498 231.414 281.37 231.028 281.241 230.771L276.677 231.756ZM483.281 151.343L484.888 151.835C486.366 150.149 487.653 148.303 488.723 146.333C490.566 141.901 492.109 137.32 493.502 132.717C493.958 130.961 494.031 129.129 493.716 127.343C493.33 124.945 491.788 124.324 489.731 125.673C487.792 126.827 486.158 128.429 484.965 130.343C483.772 132.258 483.055 134.429 482.874 136.677C482.756 141.541 482.892 146.407 483.281 151.257V151.343ZM251.071 532.836C250.964 539.772 249.828 546.345 251.628 553.089C255.914 546.474 263.628 543.819 268.149 537.589L251.071 532.836ZM378.458 231.842C369.887 229.851 371.515 222.486 369.008 217.305C365.708 219.703 364.401 222.058 364.937 225.74C365.601 230.172 365.494 234.732 365.773 239.228C365.773 240.406 366.201 241.583 366.608 243.788L378.458 231.842ZM265.92 471.626C265.513 471.819 264.913 471.926 264.721 472.269C262.651 475.303 261.437 478.838 261.206 482.502C261.206 489.054 261.464 495.605 261.592 502.156C268.063 497.724 270.699 479.569 265.92 471.648V471.626ZM323.625 201.676C319.146 210.24 316.468 223.085 317.861 227.945C321.246 224.627 324.589 221.522 327.739 218.118C328.179 217.679 328.519 217.148 328.734 216.564C328.948 215.98 329.033 215.356 328.982 214.736C327.524 210.604 325.682 206.6 323.625 201.676ZM179.118 642.152C177.313 647.101 176.583 652.378 176.975 657.631C177.08 658.239 177.329 658.813 177.702 659.305C178.075 659.796 178.56 660.192 179.118 660.457C181.702 661.481 184.514 661.792 187.26 661.356C186.939 648.853 185.01 644.1 179.118 642.152ZM501.687 620.742C503.508 618.495 504.13 616.974 502.994 615.176C501.858 613.378 502.651 612.05 504.001 610.894C504.907 609.928 505.873 609.02 506.894 608.175C511.544 604.835 511.779 600.468 510.022 595.03C507.087 596.764 504.323 598.177 501.837 599.975C501.345 600.389 500.948 600.903 500.671 601.483C500.393 602.062 500.243 602.695 500.23 603.337C500.53 608.753 501.13 614.277 501.687 620.678V620.742ZM540.535 658.851L544.542 655.661C542.228 646.134 540.685 636.992 537.942 628.107C536.035 638.341 537.407 648.296 540.535 658.787V658.851ZM523.564 388.494C519.527 386.759 515.623 384.727 511.887 382.414C508.646 379.738 505.61 376.825 502.801 373.7L502.18 373.978L504.323 381.986C509.037 384.812 515.186 386.524 518.015 392.283C519.686 391.063 521.336 389.971 523.564 388.43V388.494ZM443.169 337.989C446.49 340.13 449.211 341.886 452.018 343.577C454.825 345.268 456.304 348.758 460.225 349.829C456.197 340.409 449.704 335.784 443.169 337.925V337.989ZM262.985 805.869C266.947 806.081 270.913 805.558 274.684 804.328C277.513 803.514 277.448 803.3 276.034 799.596C270.12 797.605 267.828 802.85 262.985 805.869ZM732.247 519.926C734.947 515.794 732.247 513.632 730.468 511.191C728.69 508.75 726.933 506.588 723.011 506.909L732.247 519.926ZM545.099 659.75C542.592 660.542 541.864 661.891 542.485 663.454C543.851 667.6 546.037 671.43 548.913 674.715C547.713 669.834 546.449 664.931 545.121 659.75H545.099ZM526.757 575.055C530.164 571.908 529.05 568.996 526.114 566.213L526.757 575.055ZM635.823 335.699C639.401 332.123 639.23 331.417 634.537 328.955C634.044 330.077 633.903 331.322 634.132 332.526C634.362 333.73 634.951 334.836 635.823 335.699ZM358.723 808.845L362.773 810.13L363.051 805.227L362.173 804.863C361.294 805.933 360.33 807.132 358.809 808.802L358.723 808.845ZM227.351 258.454L226.708 257.255L223.623 258.603L223.901 259.588C224.612 259.688 225.333 259.688 226.044 259.588C226.558 259.545 226.944 258.882 227.351 258.454ZM621.081 575.911L622.195 575.248C621.102 573.942 621.231 571.779 618.788 571.33L621.081 575.911ZM76.159 554.952L77.53 555.787L79.03 553.26L77.959 552.554L76.159 554.952ZM372.865 695.568L371.858 695.761L372.694 698.822H373.208C373.101 697.688 372.972 696.617 372.865 695.568Z" fill="black"/>
</svg>
