<svg width="21" height="19" viewBox="0 0 21 19" fill="none" xmlns="http://www.w3.org/2000/svg">
<path fill-rule="evenodd" clip-rule="evenodd" d="M4.78778 11.0196C4.83155 11.0344 4.87574 11.0448 4.91988 11.0512C4.96801 11.1644 5.03021 11.3107 5.10276 11.4818C5.27984 11.8994 5.51843 12.4643 5.76471 13.0535C6.26695 14.2552 6.77356 15.4939 6.88545 15.8485C7.02396 16.2868 7.17037 16.5848 7.33021 16.7883C7.41285 16.8935 7.50843 16.9853 7.62028 17.0549C7.67657 17.0899 7.73605 17.1186 7.79813 17.14C7.80086 17.141 7.80359 17.1419 7.80633 17.1428C8.12634 17.2636 8.4181 17.2133 8.60077 17.1518C8.69851 17.1188 8.7776 17.0791 8.83364 17.0469C8.86222 17.0304 8.88636 17.0151 8.90562 17.0021L8.91017 16.9991L11.7364 15.2366L15.0009 17.7394C15.0491 17.7763 15.1016 17.8073 15.1573 17.8316C15.5494 18.0027 15.9292 18.0624 16.2865 18.0136C16.6431 17.9649 16.9263 17.8151 17.1371 17.6464C17.3435 17.4813 17.4834 17.2963 17.5705 17.1589C17.615 17.0887 17.6485 17.0266 17.672 16.9791C17.6839 16.9552 17.6934 16.9346 17.7007 16.9181L17.7102 16.8963L17.7137 16.8877L17.7152 16.8841L17.7159 16.8824L17.7165 16.8808C17.7337 16.8379 17.7468 16.7935 17.7558 16.7482L20.736 1.72274C20.7456 1.67469 20.7504 1.62581 20.7504 1.57682C20.7504 1.13681 20.5846 0.718409 20.1947 0.464515C19.8616 0.247518 19.4904 0.238177 19.2558 0.255982C19.0028 0.275189 18.769 0.337656 18.6122 0.387572C18.5306 0.41355 18.4622 0.438614 18.4128 0.457735C18.3881 0.467345 18.3677 0.47559 18.3526 0.481878L18.3412 0.486665L1.6275 7.04321L1.62533 7.04399C1.61468 7.04786 1.60101 7.05297 1.58475 7.05929C1.55239 7.07189 1.50903 7.08965 1.45838 7.1126C1.35959 7.15738 1.22101 7.22734 1.0788 7.32473C0.851615 7.48031 0.329125 7.90641 0.417106 8.60971C0.487295 9.17078 0.871675 9.51537 1.10587 9.68107C1.23446 9.77206 1.35662 9.83713 1.44559 9.87949C1.48687 9.89913 1.57256 9.93395 1.60975 9.94905L1.61913 9.95287L4.78778 11.0196ZM18.9261 1.86786L18.9238 1.86888C18.9155 1.8725 18.9071 1.87596 18.8987 1.87928L2.16465 8.44378C2.15591 8.44721 2.14711 8.45047 2.13825 8.45357L2.12893 8.4571C2.11823 8.46127 2.1002 8.46858 2.07758 8.47884C2.06475 8.48465 2.05137 8.49099 2.03772 8.4978C2.05647 8.50836 2.07442 8.51754 2.09036 8.52513C2.10567 8.53242 2.11735 8.5374 2.12374 8.54003L5.26637 9.59802C5.32389 9.61738 5.37752 9.64304 5.42674 9.67397L15.8035 3.59948L15.8132 3.59374C15.8208 3.58927 15.8307 3.58353 15.8426 3.5768C15.8662 3.56345 15.8987 3.54568 15.9373 3.52603C16.0093 3.48938 16.1245 3.43497 16.2543 3.39485C16.3447 3.36692 16.6112 3.28823 16.8993 3.38064C17.0771 3.43767 17.2612 3.56028 17.3809 3.76798C17.4404 3.87117 17.4721 3.97483 17.4874 4.06972C17.5282 4.2192 17.5218 4.36681 17.4898 4.49424C17.4211 4.76875 17.2282 4.98287 17.0527 5.14665C16.9024 5.28706 14.957 7.16292 13.0378 9.01468C12.0808 9.93813 11.1335 10.8525 10.4255 11.5359L9.96041 11.9849L15.8323 16.4867C15.967 16.5349 16.0466 16.5325 16.0835 16.5274C16.1273 16.5214 16.1633 16.5045 16.1999 16.4752C16.241 16.4424 16.2769 16.398 16.3037 16.3557L16.3048 16.354L19.1953 1.78102C19.1523 1.79133 19.109 1.80361 19.0672 1.81691C19.0198 1.83198 18.9808 1.84634 18.9549 1.85637C18.9421 1.86134 18.9329 1.86511 18.9278 1.86719L18.9261 1.86786ZM10.4649 14.2618L9.29339 13.3636L9.00953 15.1693L10.4649 14.2618ZM8.2187 11.5814L9.38368 10.4567C10.0918 9.77321 11.0391 8.85879 11.9963 7.93524L12.9688 6.997L6.44877 10.8138L6.48376 10.8963C6.66146 11.3154 6.90111 11.8827 7.14869 12.4751C7.33382 12.918 7.52741 13.3844 7.70374 13.8162L7.98677 12.0158C8.01406 11.8422 8.09886 11.692 8.2187 11.5814Z" fill="white"/>
</svg>
