<svg width="840" height="851" viewBox="0 0 840 851" fill="none" xmlns="http://www.w3.org/2000/svg">
<g clip-path="url(#clip0_403_1489)">
<path d="M154.449 340.023C154.449 339.531 154.042 338.867 154.235 338.61C161.1 329.162 166.738 318.882 171.013 308.016C174.613 299.453 178.063 290.739 181.427 282.047C182.06 280.012 183.348 278.244 185.091 277.016C187.512 275.41 189.376 273.033 191.755 271.299C192.884 270.629 194.197 270.337 195.504 270.464C197.016 270.635 198.536 270.227 199.758 269.32C200.979 268.414 201.81 267.078 202.083 265.583C202.783 263.7 203.342 261.768 203.754 259.802C204.68 252.774 208.12 246.317 213.439 241.626C219.425 236.345 225.46 231.121 231.546 225.954C239.688 219.06 249.416 215.035 259.123 210.968C261.115 210.133 263.13 209.362 265.144 208.57C265.64 208.456 266.109 208.246 266.523 207.951C266.938 207.655 267.29 207.281 267.559 206.849C267.827 206.417 268.008 205.936 268.09 205.434C268.172 204.932 268.154 204.419 268.037 203.924C267.309 200.186 266.173 196.539 264.651 193.048C262.508 188.895 259.273 188.531 255.609 191.464C251.944 194.397 248.602 197.116 245.388 200.263C242.174 203.41 242.174 204.952 245.388 208.827C243.213 213.091 239.739 216.554 235.467 218.718C233.795 219.66 232.574 218.911 231.76 217.39C231.256 216.321 231.058 215.134 231.187 213.959C231.315 212.784 231.766 211.668 232.488 210.732C237.974 201.945 245.491 194.602 254.409 189.323C255.266 188.788 256.551 188.531 256.959 187.803C259.876 184.094 263.657 181.154 267.972 179.239C270.265 178.04 272.708 177.098 276.136 175.706C277.172 173.62 278.088 171.475 278.879 169.284C281.686 160.399 287.921 153.762 293.578 146.804C297.564 141.901 302.406 137.684 306.435 132.824C308.22 130.721 310.474 129.066 313.016 127.992C315.558 126.917 318.316 126.453 321.07 126.636C325.239 126.575 329.408 126.825 333.54 127.386C334.761 127.621 336.022 127.549 337.208 127.175C338.394 126.801 339.468 126.138 340.333 125.245C342.24 123.532 344.425 122.098 346.59 120.449C348.604 122.59 347.682 124.517 347.511 126.208C347.401 126.655 347.385 127.119 347.462 127.572C347.539 128.025 347.708 128.458 347.959 128.843C348.21 129.228 348.537 129.558 348.921 129.812C349.305 130.066 349.736 130.238 350.189 130.319C354.196 131.389 358.203 132.46 362.253 133.466C365.982 128.285 363.625 122.483 364.846 117.045L368.103 117.687C368.103 114.54 371.231 113.833 372.388 111.864C373.642 109.532 375.373 107.49 377.467 105.869C379.609 104.349 381.752 102.851 384.152 101.181C386.189 104.042 387.062 107.57 386.595 111.05C386.145 115.675 385.181 120.278 384.323 124.859C383.638 128.627 382.631 132.353 381.988 136.121C381.452 139.311 381.988 140.402 384.859 140.938C388.62 141.668 392.431 142.112 396.259 142.265C399.858 142.394 402.365 139.889 405.065 137.983C408.387 135.564 409.115 135.842 409.951 139.717C404.015 145.348 398.294 150.85 392.487 156.267C391.347 157.225 390.112 158.064 388.802 158.772C386.98 159.928 385.159 161.127 383.231 162.133C381.78 162.798 380.597 163.935 379.877 165.358C379.157 166.782 378.942 168.407 379.267 169.969C379.717 174.251 379.802 178.533 380.295 182.814C380.789 187.211 382.223 191.449 384.5 195.243C386.778 199.037 389.845 202.297 393.494 204.802C396.745 207.415 400.786 208.849 404.958 208.87C407.101 208.87 408.151 208.056 408.172 206.022C408.429 201.358 408.429 196.684 408.172 192.02C407.534 187.054 406.575 182.134 405.301 177.291C405.142 176.609 404.85 175.965 404.442 175.395C404.034 174.826 403.518 174.342 402.923 173.972C401.465 173.287 400.223 174.315 399.344 175.856C398.766 176.884 397.566 177.526 396.087 178.832C397.737 171.639 416.7 150.443 423.471 147.981C424.636 149.925 425.578 151.993 426.278 154.147C427.248 158.366 427.814 162.667 427.971 166.993C428.143 177.184 427.843 187.375 427.757 197.544C427.706 198.881 427.764 200.22 427.928 201.548C428.786 207.97 433.692 210.454 439.178 207.093C439.9 206.576 440.507 205.915 440.96 205.153C441.414 204.39 441.704 203.541 441.813 202.661C442.478 196.024 442.799 189.344 443.078 182.665C443.249 178.511 443.078 174.336 443.078 170.183C443.115 169.033 442.94 167.887 442.563 166.8C438.278 156.096 440.228 145.798 444.385 135.65C448.462 124.821 455.162 115.17 463.884 107.561C465.534 106.19 466.669 104.435 465.212 102.315C465.008 101.898 464.716 101.529 464.356 101.236C463.996 100.942 463.576 100.73 463.126 100.614C462.676 100.498 462.206 100.481 461.749 100.564C461.291 100.647 460.857 100.828 460.477 101.095C459.732 101.476 459.075 102.009 458.548 102.658C455.741 106.94 451.499 107.86 446.806 107.925C441.299 107.925 435.792 107.925 430.307 108.224C425.486 108.503 420.707 109.209 415.908 109.766C415.436 109.766 414.729 109.958 414.558 110.301C412.886 113.298 409.822 114.583 407.401 116.724C406.03 117.88 405.258 119.314 403.115 119.314C402.344 119.314 401.53 120.171 400.823 120.749C400.116 121.327 399.644 122.397 399.194 122.333C396.044 121.948 396.109 124.667 395.187 126.615C394.613 126.498 394.07 126.259 393.596 125.916C393.121 125.572 392.726 125.131 392.436 124.622C392.145 124.113 391.968 123.549 391.914 122.965C391.86 122.382 391.931 121.794 392.123 121.241C392.839 118.014 394.155 114.949 396.001 112.206C400.48 106.404 405.558 101.052 410.358 95.4857C412.543 93.1508 415.419 91.5754 418.565 90.9897C428.782 88.0365 439.343 86.4315 449.977 86.2154C450.843 86.0766 451.682 85.8021 452.463 85.4019C452.416 84.39 452.265 83.3856 452.013 82.4046C446.785 69.3235 441.492 56.2852 435.921 42.4976C433.478 46.4797 431.421 49.6697 429.493 52.9667C421.262 66.9616 410.224 79.1051 397.073 88.6347C389.633 93.7369 381.744 98.1512 373.503 101.823C365.574 105.698 357.303 108.909 349.118 112.206C345.325 113.748 341.34 114.84 337.462 116.124L336.99 115.097C339.411 113.769 341.79 112.42 344.211 111.136C347.19 109.53 349.568 106.426 353.575 107.454C363.753 103.942 373.46 99.7676 380.402 90.9041C385.202 84.7382 390.923 79.1932 395.23 72.7062C401.621 63.7072 406.553 53.7583 409.844 43.2255C411.301 38.1087 412.908 33.0132 414.558 27.9392C416.918 21.3122 420.405 15.1416 424.864 9.69846C426.496 7.62396 428.748 6.12391 431.293 5.41659C434.662 4.47858 437.87 3.03484 440.806 1.13472C445.092 -1.30594 448.542 0.107073 450.706 4.7529C451.884 7.30061 453.663 9.57 454.991 12.0107C460.348 21.1739 463.241 31.2791 466.262 41.4057C470.49 55.5402 477.321 68.7621 486.404 80.3921C489.382 84.2244 493.925 86.8149 497.868 89.8764C498.511 90.3689 499.775 90.1976 500.76 90.1548C504.232 89.9835 507.681 89.7266 511.153 89.5125C511.574 90.3006 511.687 91.2174 511.469 92.0841C511.252 92.9509 510.719 93.7056 509.974 94.2011C504.724 98.7613 499.368 103.193 494.032 107.668C493.513 108.081 492.926 108.399 492.297 108.61C485.473 110.622 478.269 110.989 471.276 109.68C468.644 113.18 466.212 116.825 463.991 120.599C461.278 125.543 460.218 131.224 460.966 136.813C461.714 142.402 464.23 147.605 468.148 151.664C473.254 157.653 479.552 162.516 486.64 165.944C489.41 167.442 492.572 168.062 495.704 167.721C496.003 167.335 496.389 167.036 496.368 166.822C494.654 156.802 496.368 146.568 494.632 136.634C493.282 128.884 495.061 123.232 501.425 118.415C505.597 114.826 509.546 110.986 513.253 106.918C514.25 106.131 515.303 105.416 516.402 104.777C518.352 111.885 516.402 119.122 519.167 126.187C520.667 124.988 521.824 124.046 522.916 123.189C529.345 117.794 535.516 112.313 541.901 106.961C543.352 105.832 544.935 104.883 546.615 104.135C551.158 101.994 554.565 104.135 554.008 109.059C553.417 112.688 552.55 116.267 551.415 119.764C550.815 121.905 549.979 124.046 548.865 127.471C551.951 126.315 554.115 125.694 556.108 124.731C561.651 121.866 567.862 120.541 574.093 120.895C580.324 121.249 586.345 123.269 591.527 126.743C602.241 133.552 609.226 145.519 606.526 159.243C606.296 160.732 605.945 162.199 605.477 163.632C605.239 164.114 605.102 164.64 605.076 165.176C605.049 165.713 605.133 166.25 605.321 166.753C605.51 167.257 605.8 167.716 606.173 168.104C606.546 168.491 606.994 168.798 607.491 169.005C612.312 172.003 616.919 175.3 621.654 178.425C628.897 183.521 635.137 189.908 640.06 197.266C645.674 205.144 651.438 212.916 657.202 220.816C658.36 222.422 659.345 224.456 661.852 223.856C662.094 226.344 662.905 228.743 664.224 230.867C665.544 232.99 667.335 234.782 669.459 236.102C673.336 238.978 677.798 240.966 682.53 241.926C683.923 244.752 681.673 246.207 680.194 247.835C679.687 248.485 678.989 248.963 678.199 249.201C677.408 249.438 676.563 249.425 675.78 249.162C673.851 248.988 671.908 249.053 669.995 249.355C670.217 251.7 670.101 254.065 669.652 256.377C668.558 258.486 667.173 260.432 665.538 262.157C667.145 262.907 668.13 263.463 669.18 263.849C675.33 265.99 677.58 273.312 677.451 278.086C677.299 278.779 677.007 279.434 676.595 280.011C676.182 280.589 675.658 281.077 675.052 281.447C669.352 285.258 663.545 288.876 657.781 292.559C656.949 293.106 656.067 293.572 655.145 293.95C651.138 295.406 649.339 294.079 649.639 289.904C650.153 282.496 648.931 280.912 641.689 279.67C640.38 279.39 639.032 279.332 637.703 279.499C633.418 280.313 629.132 281.148 625.018 282.282C619.726 283.717 618.59 286.414 619.576 291.895C620.561 297.033 618.204 301.636 616.426 306.282C615.292 308.478 614.518 310.842 614.133 313.283C613.897 325.957 615.312 338.353 622.854 349.122C624.78 351.832 627.081 354.254 629.69 356.316C631.309 357.671 633.267 358.563 635.354 358.895C637.44 359.226 639.578 358.986 641.539 358.2C648.076 356.137 654.173 352.878 659.517 348.587C660.61 347.825 661.447 346.751 661.917 345.505C662.388 344.26 662.469 342.901 662.152 341.608C660.609 334.971 659.024 328.312 657.867 321.59C657.374 318.828 655.081 318.1 653.346 316.43C653.453 315.788 653.345 314.931 653.667 314.546C655.981 312.105 655.81 309.237 655.617 306.154C655.274 302 655.617 301.872 659.774 300.266C660.449 299.881 661.056 299.39 661.574 298.81C662.409 298.104 663.202 297.397 664.638 296.134L666.459 303.927C669.095 300.116 664.916 295.192 669.866 292.559C670.423 294.55 670.959 296.348 671.602 298.66C675.009 295.856 670.637 290.91 675.33 288.705C675.844 291.445 676.294 293.972 676.766 296.626C684.372 299.367 691.765 302.107 698.879 294.721L699.286 296.027L691.036 304.013L729.606 348.972L728.17 352.291L742.955 362.182C742.098 362.127 741.239 362.241 740.426 362.518C739.613 362.794 738.863 363.229 738.218 363.795C737.574 364.362 737.047 365.05 736.669 365.82C736.29 366.59 736.067 367.427 736.013 368.284C741.884 372.565 749.491 368.883 752.083 360.833C757.419 359.27 762.583 357.579 767.875 356.316C770.725 355.609 774.025 356.316 776.661 355.16C779.296 354.004 780.946 351.499 783.089 349.743C784.551 348.704 786.083 347.767 787.674 346.938C787.927 349.55 787.308 352.172 785.912 354.396C784.517 356.619 782.424 358.318 779.96 359.227C781.091 372.266 784.197 385.058 789.174 397.165C791.602 403.348 793.188 409.828 793.888 416.433C794.584 420.687 795.83 424.832 797.595 428.765C799.352 433.432 801.495 437.95 803.509 442.51C805.159 446.214 804.838 447.712 801.731 450.217C800.76 451.134 799.705 451.958 798.581 452.679C793.824 455.313 792.388 459.102 792.624 464.626C793.09 479.497 796.43 494.139 802.459 507.744C804.602 512.732 807.109 517.678 809.68 522.538C810.819 525.073 812.671 527.222 815.011 528.723C817.351 530.225 820.077 531.014 822.858 530.995C826.844 530.995 830.829 530.995 834.772 531.166C836.58 531.444 838.354 531.911 840.065 532.557C839.486 533.928 838.565 535.02 838.822 535.598C840.686 539.879 838.415 542.406 835.693 545.103C831.836 548.893 828.194 552.896 824.423 556.771C823.866 557.213 823.253 557.58 822.601 557.863C820.758 555.08 820.458 550.691 815.059 551.633C815.723 552.789 816.087 553.646 816.623 554.374C819.623 558.506 823.265 562.209 825.001 567.219C825.118 567.538 825.309 567.824 825.558 568.054C827.262 569.453 828.594 571.249 829.439 573.283C830.283 575.318 830.614 577.53 830.401 579.722C830.165 582.548 832.736 583.233 835.243 582.976C835.243 583.918 835.243 584.561 835.072 584.882C831.815 589.014 830.915 594.174 828.922 598.862C825.944 605.906 820.737 611.365 816.066 617.189C810.023 624.746 803.724 632.175 797.402 639.411C794.038 643.287 790.396 646.926 786.86 650.673C786.303 651.294 785.446 651.765 785.146 652.471C781.803 660.136 774.432 664.418 769.825 671.076C769.375 671.74 768.732 672.66 768.047 672.767C762.133 673.795 758.212 678.248 753.455 681.224C748.698 684.2 747.026 684.328 743.598 679.468C741.005 675.807 738.991 671.761 736.527 667.543C735.571 668.053 734.691 668.694 733.913 669.449C728.085 677.156 720.264 682.508 712.485 687.861C707.386 691.329 702.157 694.626 697.036 698.052C693.993 700.064 693.436 700.064 691.401 697.152C689.687 694.712 688.079 692.207 686.022 689.103C684.908 690.173 683.73 691.243 682.744 692.293C680.967 694.824 678.997 697.215 676.851 699.443C674.975 700.877 672.761 701.805 670.423 702.141C661.169 703.646 651.711 703.355 642.567 701.284C641.196 700.848 639.977 700.032 639.053 698.929C630.632 690.173 624.933 679.511 618.44 669.406C616.919 667.072 615.333 664.782 613.79 662.469L612.676 662.898C613.426 666.302 614.069 669.749 614.947 673.131C616.887 679.341 617.962 685.789 618.14 692.293C618.14 695.932 618.89 697.174 622.811 700.471C621.67 701 620.468 701.388 619.233 701.627C616.568 702.052 614.152 703.439 612.44 705.524C610.662 707.172 609.548 709.548 606.741 709.934C606.436 710.057 606.163 710.248 605.944 710.493C605.724 710.738 605.565 711.03 605.477 711.347C604.748 715.222 601.191 716.442 598.598 719.525C593.97 712.46 595.341 703.982 591.292 696.917C589.149 699.422 587.006 701.755 584.863 704.26C584.373 704.911 583.747 705.449 583.03 705.837C582.313 706.225 581.52 706.454 580.706 706.508C577.585 706.909 574.512 707.626 571.535 708.649C569.607 709.292 568.214 709.185 567.25 707.579C565.093 704.21 563.021 700.799 561.036 697.345C559.407 694.498 557.95 691.565 556.3 688.396C553.151 690.751 550.579 692.849 547.729 694.669C544.958 696.475 542.098 698.14 539.158 699.657C533.952 702.376 529.366 699.465 526.688 695.568C522.264 689.456 519.329 682.396 518.117 674.951C517.788 673.496 517.359 672.065 516.831 670.669C515.717 671.59 514.86 672.211 514.11 672.81C507.039 679.618 500.032 686.533 492.875 693.256C489.511 696.403 488.804 696.125 485.911 692.314C479.761 684.221 477.962 674.951 478.047 665.017C478.047 653.52 477.94 642.023 477.812 630.505C477.639 629.484 477.373 628.481 477.019 627.508C475.755 628.985 474.876 630.034 473.912 631.147C473.29 631.897 472.969 633.01 472.198 633.502C467.283 637.002 463.38 641.736 460.884 647.226C459.234 650.309 456.191 650.502 453.106 651.315L460.177 640.503L459.384 639.775L444.599 651.401L445.949 653.948L441.535 652.964C445.82 659.386 451.434 663.54 454.391 669.727C441.321 659.022 433.242 644.229 422.572 631.426L426.3 633.181C421.543 620.122 414.858 608.925 411.665 596.4L408.858 602.587C409.763 604.198 410.564 605.864 411.258 607.576C411.502 608.654 411.502 609.773 411.258 610.851C410.979 612.992 410.615 614.962 410.208 617.017C409.951 618.302 409.608 619.586 409.265 620.871C409.029 621.813 408.279 622.883 408.515 623.697C409.715 627.979 408.022 631.961 408.172 636.072C408.344 640.824 409.115 645.577 409.586 650.33C409.887 652.459 410.059 654.604 410.101 656.753C409.915 663.212 410.425 669.672 411.622 676.021C411.843 677.171 411.915 678.344 411.836 679.511C411.404 683.948 412.525 688.396 415.008 692.1C414.386 696.382 413.829 700.15 413.315 703.875C413.239 704.21 413.293 704.562 413.465 704.86C416.55 708.499 414.986 712.931 415.479 716.999C416.24 725.356 420.191 733.099 426.514 738.622C429.214 740.913 429.278 742.904 427.243 746.009C427.017 746.454 426.721 746.859 426.364 747.208C421.95 750.248 423.171 754.294 424.35 758.319C424.907 760.203 425.529 762.066 426.107 763.928C431.035 764.72 434.142 763.821 440.613 759.646C441.171 762.451 439.285 764.035 437.956 765.684C436.628 767.332 434.699 769.024 435.149 771.743C435.149 772.235 434.657 773.263 434.271 773.327C431.228 773.776 431.121 776.752 431.228 778.294C431.421 781.227 430.328 784.717 433.242 787.114L433.35 787.007C430.95 788.335 430.564 786.151 429.835 784.867C429.107 783.582 428.464 781.784 427.564 779.707C425.075 783.5 424.005 788.049 424.543 792.552C425.229 802.315 429.128 811.243 432.278 820.385C432.565 820.975 432.967 821.502 433.46 821.936C433.953 822.37 434.527 822.701 435.149 822.911C437.987 823.858 440.896 824.574 443.849 825.052C447.127 825.587 450.47 825.694 453.77 826.101C456.727 826.465 459.598 825.416 462.769 826.572C465.555 827.6 469.026 827 472.176 826.829C475.98 826.683 479.773 826.311 483.533 825.716C487.325 825.073 487.818 825.052 490.132 828.863C481.561 832.652 472.54 840.509 471.148 845.412C470.505 845.112 469.391 844.449 469.305 844.577C465.469 849.715 459.513 849.309 454.306 849.48C443.828 849.844 433.328 849.373 422.85 848.945C421.674 848.728 420.461 848.823 419.333 849.221C418.205 849.62 417.201 850.307 416.422 851.214C411.793 844.941 404.272 845.198 398.166 842.458C391.815 839.929 385.318 837.784 378.709 836.035C374.167 834.6 374.081 834.622 371.231 838.304C368.609 842.073 365.099 845.139 361.01 847.232C361.01 843.678 361.01 840.509 361.182 837.341C361.311 835.897 361.555 834.465 361.91 833.059C362.617 829.933 361.182 828.113 358.589 826.636C353.283 823.723 347.461 821.869 341.447 821.177C332.533 819.749 323.591 818.65 314.62 817.88C311.145 817.581 307.645 817.878 304.27 818.758C296.497 820.698 288.835 823.063 281.322 825.844C277.572 827.639 274.135 830.024 271.144 832.909C267.994 835.564 265.251 838.711 261.587 842.393L261.287 836.955C259.545 836.669 257.772 836.618 256.016 836.806C251.237 837.876 246.545 839.31 241.874 840.574C240.545 838.433 241.874 837.341 242.902 836.463C248.859 831.646 254.837 826.872 260.901 822.226C261.961 821.457 263.258 821.085 264.565 821.177C271.636 822.14 276.586 818.137 281.514 814.155C283.987 812.168 286.328 810.022 288.521 807.732C292.657 803.45 296.878 799.168 300.606 794.522C304.758 789.55 308.553 784.292 311.963 778.786C319.14 766.184 324.609 752.685 328.226 738.644C331.526 726.804 334.033 714.751 338.254 703.104C341.359 693.602 343.977 683.949 346.097 674.18C348.208 666.329 350.857 658.632 354.025 651.144C355.611 647.183 356.639 642.987 357.968 638.726L358.375 640.268C360.518 636.585 362.467 633.331 364.374 630.056C364.904 628.815 365.627 627.665 366.517 626.652C368.446 625.067 371.081 624.211 372.645 622.37C374.21 620.528 374.274 617.296 377.36 616.375C377.662 616.24 377.934 616.046 378.158 615.803C378.383 615.56 378.556 615.274 378.667 614.962C380.809 608.753 381.988 602.48 379.717 596.036C379.502 595.437 379.202 594.623 378.709 594.366C375.131 592.568 375.624 589.314 375.538 586.188C375.538 584.475 375.195 582.762 375.003 580.9C372.955 581.351 371.092 582.41 369.657 583.938C368.223 585.467 367.286 587.393 366.967 589.463C364.546 599.162 362.017 608.732 359.532 618.516C358.31 623.697 357.389 628.942 355.825 634.059C353.755 641.14 349.694 647.478 344.126 652.321C332.512 662.876 321.134 673.731 309.842 684.435C306.159 687.551 302.045 690.118 297.628 692.057C297.199 692.293 296.492 692.571 296.235 692.4C292.357 689.702 287.321 692.1 283.207 688.632C279.093 685.163 274.529 686.855 270.351 690.43C265.637 694.369 260.687 698.03 255.737 701.691C254.408 702.561 252.892 703.104 251.313 703.275C249.734 703.446 248.136 703.241 246.652 702.676C237.824 700.214 233.153 694.112 230.838 685.549C229.403 680.239 227.817 674.972 226.274 669.684C226.039 668.935 225.717 668.228 225.353 667.222C224.487 667.446 223.657 667.792 222.889 668.25C219.803 671.033 216.718 673.838 213.782 676.814C210.847 679.789 210.761 683.108 210.504 686.598C210.476 687.647 210.225 688.679 209.767 689.624C209.309 690.569 208.654 691.406 207.847 692.078C203.926 695.226 200.476 699.058 194.99 701.113C195.29 695.59 195.547 690.408 195.869 684.414C194.455 686.555 193.447 688.203 192.44 689.83C192.226 689.638 191.862 689.445 191.862 689.274C192.269 683.322 192.205 683.451 186.934 680.71C180.12 677.199 173.456 673.431 166.706 669.834C162.678 667.693 161.092 668.014 157.878 671.054C154.166 674.861 150.223 678.436 146.071 681.759C141.68 684.74 137.067 687.381 132.272 689.659C125.844 692.956 119.416 696.831 112.602 698.822C107.695 700.257 102.338 700.963 96.681 697.795C87.6805 692.889 79.4681 686.66 72.3179 679.318C71.4343 678.361 70.6249 677.337 69.8966 676.257C68.3426 673.746 65.9877 671.83 63.2112 670.819C61.6102 670.197 60.1989 669.169 59.1159 667.836C58.033 666.504 57.3158 664.912 57.0348 663.219C56.7537 661.526 56.9186 659.788 57.5131 658.178C58.1077 656.568 59.1114 655.139 60.4257 654.034C62.9541 651.893 65.1826 649.281 67.9681 646.477C66.2968 646.048 65.0754 645.706 63.8326 645.449C61.6899 645.064 58.8829 645.449 57.8115 644.186C56.3116 642.473 53.9974 642.537 52.8832 641.06C50.9119 638.405 49.4119 635.386 47.6763 632.496C46.4764 630.527 45.2122 628.6 43.7765 626.352L48.2549 624.939C50.6333 619.629 52.8618 614.405 55.3259 609.267C56.0347 608.164 56.9971 607.247 58.1329 606.591C59.3573 605.761 60.3784 604.666 61.1204 603.387C61.8624 602.108 62.3061 600.679 62.4184 599.205C63.4255 590.791 65.1397 582.484 66.5111 574.113C67.0922 571.166 67.4716 568.183 67.6467 565.185C67.6296 564.119 67.8964 563.068 68.4198 562.139C68.9431 561.209 69.7042 560.436 70.6251 559.897C74.9106 556.836 79.0461 553.474 83.4816 549.963C84.5731 551.735 85.226 553.74 85.3863 555.814C85.5465 557.888 85.2094 559.971 84.403 561.888C81.5746 569.146 80.2461 576.875 76.0677 583.726C75.6394 584.812 75.3513 585.949 75.2106 587.108C74.1178 590.898 73.7321 594.837 71.7822 598.498C68.5681 604.493 70.068 610.894 71.9322 616.953C73.625 622.498 82.646 626.395 88.0671 624.468C91.3455 623.312 91.9026 620.079 92.3526 617.638C94.2597 608.004 95.8667 598.37 96.9595 588.543C97.5381 583.319 99.1023 579.637 103.988 576.982C107.252 575.517 110.134 573.319 112.409 570.559C114.102 568.204 116.694 568.654 119.823 571.03C119.823 583.983 119.501 596.721 120.337 609.567C120.723 615.561 123.444 621.406 125.201 627.315C125.651 628.835 127.344 630.676 126.915 631.597C125.888 633.849 124.338 635.823 122.394 637.356C118.666 640.28 114.789 643.009 110.78 645.535C108.21 647.034 105.564 648.398 102.852 649.624C98.5666 641.981 97.1738 633.61 94.9453 625.602C87.8957 627.165 85.4958 629.135 79.7533 638.02L83.0531 639.326L78.9819 646.113C82.1746 650.245 85.603 654.077 88.2814 658.359C93.2311 666.195 101.845 669.834 107.93 676.407C112.537 681.395 119.458 681.374 125.779 680.325C130.69 679.47 135.481 678.033 140.05 676.043C145.986 673.474 151.578 670.134 157.192 667.094C157.975 666.556 158.693 665.931 159.335 665.231C150.914 655.576 139.322 653.799 127.194 651.529C129.636 648.361 131.479 645.663 133.622 643.308C136.513 640.073 139.643 637.06 142.986 634.295C144.817 632.846 147.079 632.048 149.414 632.025C154.085 632.154 159.356 631.254 162.463 636.307C162.678 636.65 163.342 636.778 163.813 636.907L176.863 640.439C182.798 633.353 184.341 624.061 186.762 615.112L185.905 614.213C184.491 614.77 183.147 615.489 181.898 616.354C178.718 619.343 174.522 621.019 170.156 621.042C167.869 621.415 165.608 621.93 163.385 622.584C159.988 623.108 156.513 622.752 153.293 621.548C150.074 620.345 147.218 618.335 145 615.711C142.339 612.734 139.971 609.508 137.929 606.077C137.102 604.133 136.568 602.076 136.343 599.975C135.486 596.421 134.629 592.889 133.751 589.271C130.558 576.618 133.193 565.378 142.621 556.215C151.471 547.651 160.792 539.494 171.806 533.714C175.304 532.239 178.944 531.127 182.669 530.395C183.912 530.053 185.219 529.945 186.741 529.689C186.76 528.793 186.703 527.898 186.569 527.012C183.762 515.665 184.255 504.211 185.112 492.757C185.584 486.784 185.905 480.79 186.205 474.774C186.216 473.457 185.93 472.154 185.369 470.963C182.005 477.214 178.298 483.273 178.191 490.231L145.193 533.906L141.314 533.35C141.314 532.707 141.057 532.108 141.314 531.765C144.152 527.737 146.694 523.508 148.921 519.112C151.578 512.818 154.514 506.481 151.942 499.03C149.631 492.262 147.91 485.307 146.8 478.242C145.707 471.198 145.707 464.005 145.214 456.683C144.353 456.439 143.445 456.411 142.57 456.601C141.696 456.792 140.882 457.195 140.2 457.775C136.536 460.087 132.829 462.313 128.972 464.197C127.473 464.89 125.815 465.164 124.172 464.99C120.894 464.711 117.744 464.005 114.38 463.534C113.137 463.341 111.873 463.32 109.859 463.17C112.002 467.13 114.144 470.278 115.794 473.639C120.701 483.744 122.051 494.599 122.008 505.753C122.008 512.561 121.837 519.391 121.88 526.22C121.88 530.181 122.18 534.142 122.351 538.102C122.523 542.063 122.523 545.767 119.244 548.807C118.494 549.492 118.28 550.777 117.53 552.468C122.351 551.098 124.987 547.758 128.244 545.467C131.501 543.176 134.565 540.222 137.95 537.375C138.409 538.412 138.502 539.573 138.214 540.67C137.926 541.767 137.274 542.733 136.365 543.412C130.215 548.7 124.58 554.566 118.58 560.068C116.097 562.288 113.47 564.341 110.716 566.213C108.573 567.754 107.245 567.262 106.045 564.843C105.252 563.216 104.395 561.61 103.516 560.026C102.203 557.546 101.471 554.801 101.374 551.997C100.492 544.789 100.177 537.524 100.431 530.267C97.1309 521.981 99.2094 512.797 96.1453 504.575C95.3096 502.285 94.3882 500.015 93.3383 497.253C84.0173 504.768 78.5533 514.723 70.8823 522.945L66.8325 521.51C70.7948 515.079 73.7976 508.104 75.7463 500.807C76.2606 498.881 76.9248 496.997 77.5034 495.091C78.8747 490.595 79.9675 485.971 81.6817 481.603C83.1911 477.975 84.9081 474.437 86.8243 471.006C89.5242 465.996 94.024 462.849 98.4595 459.616C100.211 458.319 101.859 456.887 103.388 455.334C104.245 454.499 105.531 453.193 105.273 452.337C105.006 451.777 104.607 451.29 104.111 450.917C103.615 450.545 103.036 450.297 102.424 450.196C100.504 449.97 98.6562 449.335 97.0038 448.334C95.3514 447.333 93.9333 445.989 92.8455 444.394C89.0099 439.448 84.6816 434.717 83.6959 428.037C83.1602 424.29 81.8746 420.672 80.9961 416.968C80.3104 414.078 78.8533 413.265 76.4106 415.084C71.8894 418.553 66.4468 420.094 61.4113 422.599C58.2193 423.935 55.1864 425.622 52.3689 427.63C46.3478 432.512 40.6695 429.578 37.3697 422.77C37.214 422.472 37.1221 422.145 37.1 421.81C37.0778 421.474 37.1259 421.138 37.2411 420.822C39.641 417.611 37.7768 413.864 38.7196 410.524C39.2687 408.434 40.1514 406.446 41.3338 404.637C44.5693 399.884 48.0406 395.302 51.5333 390.742C52.4546 389.522 53.9331 388.751 54.9617 387.595C55.888 386.452 56.7397 385.25 57.5115 383.998C58.1897 384.882 58.5224 385.982 58.4475 387.093C58.3725 388.205 57.8951 389.25 57.1044 390.035C56.5044 390.785 55.2402 391.555 55.3045 392.176C55.8188 397.4 54.2546 402.731 56.2473 407.912C56.7334 409.239 57.6051 410.389 58.7505 411.217C59.8959 412.045 61.2627 412.512 62.6756 412.558C64.9837 412.566 67.2872 412.351 69.5538 411.916C70.8231 411.569 72.1392 411.425 73.4536 411.488C79.389 413.008 82.7531 408.833 84.6601 403.373C85.7315 400.248 86.3529 396.951 87.6386 393.889C91.0027 386.01 96.381 379.438 101.609 372.758C105.549 367.836 110.988 364.333 117.101 362.781C115.409 365.864 113.866 369.054 112.002 372.052C107.764 377.8 105.115 384.562 104.322 391.657C103.528 398.752 104.618 405.931 107.48 412.472C108.523 414.506 109.78 416.422 111.23 418.189C112.537 415.363 113.48 413.35 114.401 411.316C115.323 409.282 116.266 406.692 117.401 404.465C119.544 400.355 123.594 398.235 126.894 395.324C127.901 394.467 129.018 393.747 130.215 393.183C131.345 392.742 132.514 392.412 133.708 392.198C134.217 393.69 134.407 395.273 134.265 396.844C133.237 399.573 132.049 402.239 130.708 404.829C126.883 413.053 126.064 422.356 128.394 431.12C130.279 438.635 135.636 442.917 142.043 446.106C144.764 447.498 146.328 446.535 146.886 443.259C147.591 438.812 148.063 434.332 148.3 429.835C148.535 425.297 149.393 421.486 153.849 418.959C157.035 416.823 160.064 414.462 162.913 411.894C164.842 410.396 165.313 408.854 163.706 406.799C162.802 405.402 161.8 404.071 160.706 402.817C157.921 400.269 157.149 396.801 156.185 393.504C151.771 378.303 153.4 363.231 157.492 348.244C158.215 344.816 158.737 341.349 159.056 337.861L154.299 339.895L154.449 340.023ZM366.839 554.673L369.324 557.542C369.684 553.421 369.358 549.268 368.36 545.253C367.353 543.005 358.932 540.222 356.832 541.464C356.571 541.656 356.334 541.879 356.125 542.127C346.075 551.911 342.947 563.772 345.797 577.282C346.009 578.868 346.613 580.376 347.556 581.67C348.499 582.963 349.751 584.001 351.197 584.689C351.833 583.824 352.42 582.923 352.954 581.992C356.531 574.487 360.837 567.352 365.81 560.689C366.903 559.276 366.517 556.707 366.796 554.652L366.839 554.673ZM586.149 493.742C584.456 495.22 582.721 496.654 581.092 498.217C579.056 500.229 577.107 502.349 574.664 504.811C571.685 479.848 569.135 467.002 566.093 462.378L555.208 488.583C557.029 488.583 558.272 489.182 559.686 487.298C561.933 484.912 564.417 482.76 567.1 480.875C567.9 483.682 568.488 486.544 568.857 489.439C569.243 500.272 569.178 511.127 569.693 521.96C570.357 536.261 571.385 550.541 572.328 564.778C572.623 566.944 573.053 569.089 573.614 571.201L578.221 566.042C578.928 569.467 579.056 569.574 576.678 572.143C575.819 572.955 575.174 573.966 574.8 575.086C574.427 576.207 574.335 577.402 574.535 578.566C575.285 583.34 575.928 588.136 576.914 592.868C577.285 595.366 578.337 597.714 579.954 599.655C581.572 601.596 583.693 603.055 586.085 603.872L596.798 594.345C596.789 593.499 596.718 592.654 596.584 591.818C594.634 581.114 592.599 570.559 590.756 559.897C590.049 555.808 589.556 551.676 589.256 547.544C588.613 538.745 588.227 529.924 587.67 521.125C587.113 512.326 586.47 502.863 585.849 493.721C588.763 493.079 586.899 496.782 589.534 497.082L587.52 489.996C588.356 489.996 589.492 490.253 589.942 489.803C593.327 486.527 596.52 483.08 599.884 479.762C601.206 478.62 602.586 477.548 604.019 476.551C604.727 477.514 605.198 477.899 605.241 478.306C606.369 489.253 607.462 500.186 608.519 511.105C608.511 511.758 608.259 512.385 607.812 512.861C606.119 514.509 606.462 516.5 606.719 518.491C607.019 520.975 607.062 523.501 607.598 525.921C608.134 528.34 607.726 531.423 610.126 534.056C611.99 531.037 613.812 528.468 615.247 525.706C620.497 515.601 628.425 507.787 636.782 500.379C640.146 497.382 642.075 497.896 643.21 502.092C645.203 509.457 646.917 516.929 648.76 524.336C649.103 525.706 649.424 527.055 649.96 529.218L668.023 505.089C665.495 502.948 663.181 500.593 660.609 498.666C658.038 496.74 655.681 498.966 653.067 499.673C652.113 498.239 651.268 496.736 650.539 495.177C649.907 493.067 649.399 490.923 649.017 488.754L645.76 493.571C641.132 489.054 636.504 485.735 633.461 481.303C629.474 475.368 626.134 469.023 623.497 462.378C619.319 452.037 615.912 441.375 612.14 430.863C611.611 429.64 611.002 428.453 610.319 427.309C609.196 429.372 608.429 431.608 608.048 433.925C606.162 443.388 604.284 452.85 602.412 462.313C602.201 463.293 601.908 464.253 601.534 465.182C598.02 474.11 594.656 483.123 587.627 490.103L586.149 493.742ZM383.166 291.488C383.831 287.956 384.388 285.429 384.773 282.924C385.995 274.917 383.595 267.146 383.231 259.224C382.654 250.226 380.409 241.413 376.61 233.233C374.681 228.952 372.196 224.67 367.224 222.4C366.529 223.132 365.878 223.904 365.274 224.712C362.604 228.774 360.829 233.358 360.068 238.158C359.699 240.04 358.825 241.786 357.539 243.21C354.668 246.957 350.961 250.511 350.939 256.056C350.939 259.695 348.24 262.029 345.604 264.084C342.454 266.525 339.176 268.773 335.919 271.085L328.933 275.966L327.991 275.303C328.783 267.638 332.876 260.316 331.355 252.309C330.121 253.656 329.082 255.17 328.269 256.805C322.355 268.366 316.527 279.97 310.591 291.552C305.754 301.088 299.49 309.831 292.014 317.479C287.728 321.761 283.764 326.236 279.436 330.325C276.053 333.578 272.475 336.624 268.722 339.445C267.189 340.731 265.278 341.482 263.28 341.586C258.48 341.351 255.544 345.226 251.452 346.425C250.766 346.617 250.209 348.351 250.166 349.379C250.166 352.698 250.166 356.037 250.337 359.377C250.552 368.391 250.637 377.404 250.98 386.396C250.979 390.865 251.702 395.304 253.123 399.541C253.573 399.134 253.744 399.049 253.766 398.92C257.066 383.934 260.323 368.947 263.751 353.961C264.137 352.025 265.118 350.259 266.558 348.908C272.215 344.219 278.107 339.852 283.979 335.442C285.248 334.748 286.592 334.202 287.985 333.815C286.957 338.546 286.464 342.378 285.307 345.889C282.264 355.267 278.6 364.451 277.058 374.214C275.6 383.548 275.579 392.904 279.329 401.768C282.414 409.111 287.343 409.646 293.107 404.53C299.157 399.385 303.3 392.357 304.87 384.576C305.881 379.346 306.433 374.038 306.52 368.712C306.379 366.068 306.996 363.439 308.298 361.134C309.6 358.828 311.533 356.941 313.87 355.695C315.584 354.731 315.777 353.254 314.191 352.162C310.12 349.315 308.77 345.012 308.106 340.558C307.442 336.105 307.699 331.224 306.97 326.621C305.92 320.198 308.792 314.953 311.984 309.815C312.662 308.659 313.436 307.564 314.298 306.539C321.755 298.254 329.298 290.054 336.712 281.683C339.322 278.807 342.931 277.031 346.804 276.716C357.068 275.56 366.646 278.343 375.71 283.139C376.135 283.354 376.512 283.655 376.814 284.024C377.117 284.392 377.339 284.82 377.467 285.28C377.574 288.341 380.081 289.026 383.166 291.488V291.488ZM357.453 463.855C357.668 460.087 357.861 457.282 357.989 454.478C358.095 450.87 357.012 447.328 354.905 444.395C352.799 441.463 349.787 439.304 346.333 438.249C339.468 436.489 332.199 437.249 325.848 440.39C324.7 441.16 323.65 442.066 322.719 443.088C327.005 445.7 327.798 449.511 328.505 453.557C329.244 458.351 329.055 463.243 327.948 467.965C325.805 478.799 322.227 488.904 312.734 495.798C309.82 498.164 307.031 500.679 304.378 503.334C305.636 504.831 306.974 506.26 308.384 507.616C314.813 513.096 322.869 514.381 330.69 514.317C336.454 514.317 342.368 511.962 347.832 509.842C351.175 508.536 355.011 506.759 355.504 502.092C355.75 501.308 356.297 500.654 357.025 500.272C361.953 497.275 366.924 494.363 372.603 491.023C358.396 510.913 338.319 521.938 318.413 532.515L326.234 565.763C330.519 559.79 334.012 553.688 338.726 548.636C343.44 543.583 349.44 539.815 354.625 535.598C354.304 534.441 354.175 533.778 353.939 533.157C352.7 530.209 352.334 526.967 352.885 523.817C353.436 520.667 354.88 517.741 357.046 515.387C360.483 511.088 364.182 507.005 368.124 503.162C378.409 493.421 388.609 483.53 400.523 475.673C403.415 473.767 407.165 471.926 408.408 469.122C409.651 466.317 408.879 461.907 408.601 458.267C408.452 455.283 407.882 452.335 406.908 449.511C404.915 444.415 401.315 442.852 396.087 444.201C390.717 445.624 385.988 448.824 382.674 453.279C381.636 454.593 381.072 456.218 381.072 457.892C381.072 459.566 381.636 461.192 382.674 462.506C385.331 465.825 385.309 466.103 382.438 468.929C381.624 469.764 380.916 470.684 380.102 471.498C376.502 474.966 373.01 478.563 369.217 481.796C366.667 483.937 361.932 484.151 360.389 482.31C359.452 481.207 358.915 479.821 358.864 478.376C358.813 476.931 359.253 475.51 360.11 474.345C363.282 469.271 366.432 464.155 369.988 459.359C372.495 455.933 375.645 452.936 379.224 449.018C375.088 452.015 371.853 454.349 368.639 456.726C365.424 459.102 362.917 462.891 357.539 463.855H357.453ZM231.417 526.156C228.503 528.811 225.932 531.38 223.082 533.649C220.232 535.919 219.482 540.072 215.004 541.742C214.832 537.631 214.682 534.013 214.554 530.845L202.447 536.561C203.518 540.415 204.783 544.183 205.554 548.058C205.979 549.863 205.823 551.756 205.107 553.467C204.391 555.178 203.153 556.619 201.568 557.585C198.162 559.961 194.712 562.295 191.562 564.971C184.127 571.394 176.884 577.988 169.513 584.454C167.027 586.595 164.392 588.607 161.906 590.641C165.527 598.755 174.763 605.007 183.055 604.279C187.512 603.893 192.376 603.016 194.412 597.749C196.704 591.861 199.276 586.081 201.418 580.193C204.027 573.151 207.58 566.497 211.982 560.411C212.886 559.321 213.521 558.035 213.838 556.656C214.154 555.276 214.142 553.842 213.804 552.468C212.582 548.7 214.618 546.837 217.168 545.039C222.61 541.228 228.074 537.446 233.56 533.692C237.16 531.209 237.46 531.316 239.388 535.105C239.717 535.673 240.074 536.223 240.459 536.754C242.216 535.683 243.716 534.613 245.323 533.863C245.679 533.742 246.058 533.706 246.431 533.758C246.803 533.81 247.157 533.949 247.466 534.163C247.683 534.47 247.833 534.82 247.907 535.188C247.981 535.557 247.977 535.937 247.895 536.304C247.69 537.111 247.24 537.834 246.607 538.375C245.974 538.915 245.189 539.247 244.359 539.323C240.074 540.265 240.074 540.436 240.888 544.718C242.495 553.581 244.252 562.402 245.816 571.287C246.716 576.532 247.423 581.799 248.13 587.087C248.795 592.033 248.945 597.085 250.08 601.902C251.306 606.097 251.306 610.554 250.08 614.748L241.681 620.464C246.438 625.003 247.38 630.698 248.109 636.585C248.649 641.391 249.516 646.155 250.702 650.844C251.58 654.291 251.43 658.187 254.366 661.399C257.358 659.129 260.22 656.691 262.937 654.098C266.035 650.696 268.94 647.122 271.636 643.394C272.124 642.528 272.333 641.534 272.236 640.546C271.979 629.563 271.658 618.58 271.379 607.597C271.379 606.955 271.251 606.12 271.593 605.713C274.872 601.795 274.293 597.149 273.608 592.76C271.72 581.079 270.76 569.267 270.736 557.435C270.736 552.126 269.901 546.73 269.708 541.507C269.708 539.815 269.879 537.225 270.951 536.518C274.486 534.035 276.35 529.967 280.014 527.698C280.381 527.481 280.695 527.186 280.933 526.833C281.17 526.48 281.326 526.078 281.387 525.657C281.449 525.236 281.415 524.806 281.289 524.4C281.163 523.994 280.947 523.621 280.657 523.309C280.294 522.644 279.687 522.146 278.964 521.919C278.241 521.691 277.458 521.752 276.779 522.088C274.272 523.009 271.829 524.101 269.279 524.871C260.708 527.462 252.137 530.288 242.988 530.181C241.874 530.181 240.245 530.181 239.731 529.539C237.46 526.67 234.01 527.269 231.417 526.156ZM306.413 398.963L305.106 398.428C302.535 400.44 299.792 402.303 297.392 404.551C288.701 413.08 279.159 420.699 268.915 427.288C264.458 430.028 262.487 429.985 258.416 424.783C257.775 423.81 257.297 422.74 257.001 421.614C255.48 417.332 253.98 413.222 252.394 408.769C247.798 411.316 243.656 414.608 240.138 418.51C236.945 421.893 235.124 422.214 230.26 420.244C230.082 419.309 229.953 418.366 229.874 417.418C229.381 409.09 228.953 400.762 228.439 392.455C228.591 389.603 228.016 386.759 226.767 384.191L199.04 414.827C202.297 414.421 203.968 411.359 207.611 412.13C211.254 412.901 211.511 416.305 213.354 418.189C217.189 417.696 219.525 413.372 223.725 415.02C223.103 418.467 223.103 418.467 220.489 418.745C215.389 419.302 213.932 420.779 213.504 425.875C213.396 427.031 213.246 428.187 213.118 429.364C210.825 450.56 208.832 471.776 207.354 493.036C207.304 494.678 207.426 496.321 207.718 497.939C208.618 503.783 209.582 509.649 210.589 515.987L215.753 518.128C216.375 513.846 216.996 510.227 217.403 506.631C218.325 498.345 219.075 489.953 222.31 482.203C226.723 470.852 230.227 459.168 232.788 447.263C233.099 445.667 233.84 444.187 234.931 442.981C238.231 439.942 241.693 437.083 245.302 434.417C245.836 434.071 246.443 433.854 247.075 433.783C247.708 433.713 248.348 433.79 248.945 434.01C249.401 434.435 249.765 434.949 250.015 435.519C250.266 436.09 250.397 436.706 250.402 437.329C250.423 439.087 250.279 440.843 249.973 442.574L266.044 434.545C266.337 434.378 266.587 434.143 266.772 433.86C269.322 430.563 273.201 430.478 276.736 430.242C277.638 430.177 278.543 430.295 279.397 430.59C280.252 430.884 281.038 431.349 281.707 431.955C283.856 434.242 285.499 436.956 286.528 439.919C287 441.546 285.179 443.816 284.386 445.807C284.207 446.386 284.085 446.981 284.021 447.584C284.447 447.701 284.888 447.751 285.329 447.734C286.614 447.391 287.9 447.027 289.143 446.578C297.456 443.58 305.792 440.454 314.856 441.439C316.248 441.679 317.679 441.561 319.013 441.097C320.347 440.632 321.542 439.837 322.484 438.785C323.405 437.825 324.386 436.924 325.419 436.087C330.519 431.805 335.255 427.181 342.111 425.725C346.783 424.74 347.49 423.584 347.382 418.831C347.382 417.182 347.061 415.513 346.868 413.864C346.097 406.906 345.154 399.948 344.597 392.969C344.211 388.151 343.74 383.613 338.404 381.536C337.697 381.258 337.162 380.465 336.562 379.866C332.448 375.713 332.276 373.165 335.855 368.626C337.097 367.063 338.49 365.607 339.776 364.087C340.311 363.466 341.361 362.567 341.19 362.139C339.99 358.863 342.283 356.123 342.754 352.997C340.976 352.997 339.54 353.254 338.126 353.19C332.319 352.89 330.969 354.004 330.883 359.891C330.776 367.877 330.476 375.905 330.883 383.891C331.151 391.571 332.641 399.159 335.297 406.371C336.39 409.047 337.44 411.723 338.512 414.249L315.306 434.224C309.499 422.663 308.234 410.717 306.413 398.963ZM429.514 426.046C430.414 431.998 431.421 437.029 431.892 442.124C432.535 448.868 431.55 455.848 435.428 462.035C435.667 462.38 435.835 462.769 435.923 463.179C436.01 463.59 436.015 464.013 435.937 464.425C435.859 464.838 435.7 465.23 435.47 465.581C435.239 465.931 434.941 466.232 434.592 466.467C433.735 467.448 433.283 468.719 433.328 470.021C433.27 478.184 434.293 486.319 436.371 494.213C438.634 500.825 441.707 507.132 445.52 512.989C445.954 513.903 446.32 514.847 446.613 515.815L445.692 516.265L435.728 499.716C430.071 502.434 429.3 503.719 431.121 508.408C432.182 510.844 433.421 513.198 434.828 515.451C436.349 518.149 437.999 520.804 439.863 524.015C434.121 527.719 431.014 533.756 424.864 537.139L413.551 517.378C407.637 521.66 402.323 525.578 396.751 529.196C392.466 531.937 389.166 534.763 389.83 540.522C390.002 542.127 389.252 543.69 391.159 544.804C391.866 545.232 392.123 546.452 392.509 547.33C394.523 551.933 393.58 556.472 392.337 561.053C391.77 562.612 391.466 564.255 391.437 565.913C391.759 571.201 392.359 576.468 392.959 582.677L397.587 580.279C398.23 584.09 398.958 588.179 399.558 592.268C399.618 593.249 399.517 594.232 399.258 595.18C398.602 597.59 398.08 600.034 397.694 602.502C397.437 605.585 395.551 607.041 393.194 608.582C390.13 610.723 387.173 613.014 384.238 615.347C383.895 615.626 383.938 616.418 383.681 617.488L403.244 609.181L402.558 602.352C407.015 599.633 407.037 599.633 408.087 593.895C408.322 592.589 408.451 591.262 408.729 589.956C408.819 588.876 409.199 587.841 409.829 586.959C410.459 586.077 411.315 585.382 412.308 584.946C413.636 584.086 414.656 582.826 415.222 581.349C418.372 574.755 421.372 568.076 424.457 561.439C425.014 560.218 425.7 559.062 426.6 557.157L411.772 561.267C411.408 560.054 411.383 558.764 411.7 557.537C412.017 556.311 412.665 555.194 413.572 554.309C418.993 547.887 423.6 540.586 430.714 535.426C430.243 537.032 429.793 538.638 429.278 540.35C434.278 540.39 439.175 538.936 443.34 536.174C447.506 533.412 450.75 529.468 452.656 524.85C456.229 515.284 457.69 505.06 456.941 494.877C456.663 491.999 456.22 489.14 455.613 486.313C454.327 486.827 453.47 487.041 452.87 487.405C451.027 488.39 449.677 487.534 448.392 486.335C447.106 485.136 447.599 483.594 448.392 482.245C449.442 480.34 450.642 478.542 451.584 476.593C452.494 475.243 453.033 473.678 453.149 472.055C452.184 464.99 451.006 457.946 449.613 450.966C448.413 445.1 446.763 439.32 445.199 433.539C444.62 431.398 445.199 430.071 447.706 428.786C449.849 434.61 451.991 440.133 454.348 446.642C454.225 441.181 453.077 435.793 450.963 430.756C450.149 428.315 448.82 426.303 445.713 426.324C444.193 426.246 442.751 425.631 441.642 424.59C438.664 421.614 435.749 422.342 432.664 424.183C431.507 424.847 430.264 425.639 429.514 426.046ZM656.281 262.821L656.495 261.537C655.167 260.595 653.817 259.695 652.531 258.711C650.067 256.784 647.496 254.964 645.224 252.802C642.893 250.662 640.789 248.287 638.946 245.715C638.595 245.099 638.125 244.558 637.565 244.124C637.004 243.689 636.363 243.369 635.678 243.182C634.994 242.995 634.279 242.945 633.575 243.034C632.871 243.124 632.191 243.351 631.575 243.703C629.724 244.442 627.997 245.46 626.454 246.721C621.397 251.003 616.554 255.628 611.455 259.995C604.148 266.289 594.484 268.195 586.106 263.506C579.271 259.674 577.535 255.328 581.156 248.348C582.049 246.551 583.157 244.869 584.456 243.339C587.97 239.335 591.613 235.46 595.17 231.563C599.927 226.447 604.941 221.522 609.462 216.213C613.555 211.396 613.298 210.283 609.098 205.658C608.557 205.028 607.954 204.454 607.298 203.945C601.834 200.135 596.37 196.302 590.82 192.62C589.364 191.973 587.83 191.52 586.256 191.271C586.256 193.134 586.256 194.226 586.47 195.339C586.685 196.452 586.77 197.758 587.049 200.113L581.628 196.752C581.199 198.379 580.856 199.771 580.492 201.162L577.342 201.034C576.335 203.71 579.142 206.707 575.607 208.891C574.792 207.628 574.107 206.365 573.25 205.23C571.857 203.432 570.55 205.487 569.243 205.829V200.37C565.107 202.639 561.507 204.652 557.907 206.6C554.308 208.548 553.986 208.741 555.915 212.809C559.662 220.821 562.744 229.127 565.129 237.644C567.978 247.406 571.15 257.083 574.471 266.696C575.871 270.076 577.496 273.359 579.335 276.523C579.748 277.34 580.412 278.003 581.229 278.415C582.047 278.827 582.975 278.967 583.878 278.814C593.369 278.066 602.905 279.532 611.733 283.096C613.124 283.372 614.567 283.192 615.847 282.582C616.903 282.065 617.865 281.378 618.697 280.548C625.59 274.463 633.762 270 642.61 267.488C647.324 266.289 651.76 264.448 656.281 262.885V262.821ZM433.157 223.257C433.374 223.731 433.624 224.189 433.907 224.627C434.33 225.143 434.788 225.629 435.278 226.083C438.765 229.087 441.554 232.817 443.449 237.01C445.344 241.204 446.299 245.76 446.249 250.361C446.613 262.2 447.127 274.04 448.392 285.815C449.365 291.535 450.953 297.134 453.127 302.514C454.027 305.212 455.27 305.319 457.648 303.392C459.255 302.064 460.734 300.544 462.255 299.11C462.225 300.75 461.743 302.35 460.862 303.734C460.155 305.04 458.72 306.411 458.827 307.588C459.415 311.146 460.195 314.669 461.162 318.143L464.505 317.03C464.848 320.155 465.148 323.131 465.491 326.428C466.268 325.734 466.985 324.975 467.634 324.159C473.811 314.811 478.286 304.447 480.854 293.544C483.254 282.475 484.347 271.107 486.704 260.016C488.311 252.352 484.154 247.835 479.547 242.482C475.54 246.764 471.898 250.703 467.676 255.328C466.923 253.762 466.397 252.096 466.112 250.382C465.906 244.275 467.771 238.277 471.405 233.362C475.047 228.802 479.204 224.648 482.847 220.109C486.104 216.042 489.275 212.316 495.532 215.335C496.946 205.662 497.476 195.881 497.118 186.111C491.418 188.038 486.404 190.607 481.347 191.185C476.29 191.764 470.633 190.372 465.234 189.837C463.884 197.073 465.512 212.252 468.233 217.669H470.869C470.653 219.085 470.56 220.518 470.59 221.951C471.276 228.074 468.148 232.441 464.162 236.445C462.877 237.751 461.591 239.057 460.327 240.406C458.732 241.855 457.295 243.47 456.041 245.223C454.649 247.468 452.621 249.249 450.213 250.339C445.542 238.778 445.242 226.468 441.642 214.393C439.178 216.77 437.356 218.675 435.385 220.452C434.591 221.345 433.847 222.282 433.157 223.257V223.257ZM277.786 295.556C273.286 292.366 269.215 289.561 265.23 286.65C261.496 283.821 257.172 281.869 252.58 280.939C247.987 280.009 243.244 280.124 238.702 281.276C236.096 281.825 233.642 282.941 231.516 284.545C229.39 286.149 227.644 288.201 226.402 290.556C225.16 292.911 224.453 295.51 224.331 298.169C224.209 300.828 224.675 303.481 225.696 305.94C228.867 314.503 235.402 319.663 243.395 323.067C246.057 324.013 248.796 324.729 251.58 325.208C254.773 325.979 258.008 327.349 261.201 327.349C266.814 326.856 272.384 325.969 277.872 324.694C280.245 324.18 282.444 323.06 284.255 321.443C286.065 319.825 287.424 317.766 288.2 315.467C290.193 310.714 292.485 306.047 294.628 301.401C301.989 286.11 308.185 270.287 313.163 254.065C314.47 249.783 315.456 245.501 316.591 241.348C314.967 241.519 313.42 242.126 312.113 243.103L298.185 252.844C296.722 254.078 294.996 254.962 293.14 255.429C291.283 255.897 289.345 255.935 287.471 255.542C286.364 255.285 285.201 255.477 284.236 256.077C282.406 257.655 280.668 259.334 279.029 261.108C285.671 266.975 293.835 269.972 300.242 276.673L277.786 295.556ZM649.403 599.333C648.598 598.453 647.495 597.903 646.308 597.788C645.121 597.674 643.933 598.003 642.975 598.712C638.861 601.153 634.704 603.551 630.44 605.735C624.011 608.967 619.726 614.405 614.455 619.565C616.126 620.421 617.262 621.085 618.462 621.599C623.414 623.656 627.769 626.925 631.125 631.105C634.039 634.744 636.868 638.491 639.418 642.387C644.989 650.951 650.324 659.515 655.788 668.079C657.146 670.59 659.165 672.681 661.628 674.127C664.091 675.572 666.903 676.316 669.759 676.278C672.095 676.278 674.409 676.599 676.744 676.642C678.351 676.642 679.98 676.428 682.015 676.278C677.837 654.869 677.73 633.46 671.623 612.8C668.13 616.91 668.13 616.91 663.781 613.977C665.444 605.96 669.183 598.519 674.623 592.397C678.03 588.736 681.287 584.968 684.651 581.264C685.872 579.915 687.201 578.652 688.637 577.174L685.08 570.559C672.223 582.141 672.223 582.313 668.345 591.968C667.852 593.21 667.573 594.516 667.102 595.758C665.719 600.064 662.828 603.728 658.959 606.077C657.988 606.71 657.114 607.482 656.367 608.368C652.338 612.65 648.331 616.932 644.325 621.214L643.339 620.871C643.248 619.701 643.335 618.525 643.596 617.381C644.723 614.441 646.048 611.58 647.56 608.817C649.189 605.94 649.836 602.611 649.403 599.333ZM297.649 570.452C295.156 576.52 293.853 583.011 293.814 589.571C294.062 601.22 294.934 612.847 296.428 624.403C298.421 638.105 296.192 651.208 293.107 664.353C292.078 668.635 293.428 671.547 297.799 672.617C300.068 673.138 302.365 673.531 304.678 673.795C317.277 675.358 330.883 664.096 333.733 652.964C335.469 646.241 336.39 639.326 337.569 632.475C338.683 626.052 339.711 619.629 340.676 613.313C341.19 609.802 342.454 606.355 342.09 602.116C340.499 603.028 338.837 603.809 337.119 604.45C334.486 605.388 331.726 605.922 328.933 606.034C327.161 605.87 325.391 606.366 323.962 607.426C320.02 610.252 316.013 612.992 311.427 616.182C309.969 614.484 308.783 612.57 307.913 610.509C305.77 601.945 304.378 593.253 302.342 584.711C301.292 580.193 300.949 575.547 297.649 570.452ZM517.667 197.201L519.059 198.55C519.551 197.69 520.125 196.88 520.774 196.131C524.931 192.17 525.488 192.342 530.866 194.311C535.024 195.983 539.394 197.071 543.851 197.544C555.508 198.358 566.093 194.375 576.121 188.809C577.631 187.895 578.912 186.648 579.866 185.164C580.821 183.68 581.423 181.997 581.628 180.245C583.62 169.798 582.806 159.949 574.857 151.856C574.514 151.493 574.214 151.086 573.892 150.7C572.117 148.384 569.852 146.487 567.26 145.144C564.668 143.801 561.811 143.044 558.893 142.929C556.75 142.779 554.608 142.479 552.465 142.201C545.158 141.237 539.008 142.886 534.616 149.394C530.823 155.046 526.623 160.442 522.702 166.008C521.823 167.22 521.196 168.596 520.859 170.054C518.834 178.965 517.764 188.065 517.667 197.201V197.201ZM204.097 273.569C202.704 276.459 201.418 278.921 200.283 281.49C198.14 286.222 196.169 290.953 194.219 295.749C189.548 307.331 184.748 318.892 180.334 330.582C176.451 340.932 175.085 352.057 176.348 363.038C176.816 365.82 177.445 368.572 178.234 371.281C185.984 361.8 194.774 353.219 204.44 345.697C213.804 338.225 224.624 333.001 236.11 328.013C234.224 326.642 233.045 325.722 231.824 324.908C226.043 321.476 221.744 316.021 219.76 309.601C219.257 308.19 218.534 306.868 217.618 305.683C214.275 300.758 214.104 298.682 218.046 294.186C222.996 288.577 228.16 283.139 233.538 277.936C237.524 274.082 241.981 270.743 247.188 266.375C245.452 266.731 243.736 267.174 242.045 267.702C235.617 270.293 228.996 272.776 222.76 275.71C216.525 278.643 210.525 277.872 204.097 273.569ZM401.723 389.179C401.358 390.635 400.33 392.412 400.844 393.161C402.418 395.966 404.556 398.415 407.122 400.355C409.672 401.96 410.294 403.566 409.458 405.985C409.233 406.614 409.23 407.3 409.448 407.93C409.666 408.561 410.093 409.098 410.658 409.454C416.893 415.191 423.643 419.645 432.685 418.745C434.999 418.51 436.178 417.525 435.749 415.213C435.215 412.772 434.499 410.375 433.607 408.041C430.748 400.305 430.219 391.902 432.085 383.87C434.025 377.151 436.321 370.54 438.964 364.066C440.185 360.705 441.685 357.429 443.399 353.361C441.541 353.782 439.659 354.09 437.764 354.282C434.014 354.389 429.814 356.423 427.05 352.012C426.75 351.584 425.764 351.67 425.207 351.327C423.064 350.086 421.072 348.758 419.057 347.474C420.215 344.327 421.2 341.736 422.529 338.032C419.979 339.252 418.243 340.002 416.593 340.901C412.628 343.432 407.99 344.708 403.287 344.562C400.892 344.297 398.467 344.516 396.159 345.208C393.851 345.899 391.706 347.049 389.852 348.587C385.72 351.342 382.096 354.79 379.138 358.778L401.723 389.179ZM511.003 356.166C511.331 353.45 512.053 350.796 513.145 348.287C514.696 345.525 515.529 342.419 515.567 339.252C516.234 332.438 518.029 325.782 520.881 319.556C522.786 314.016 526.208 309.12 530.759 305.426C536.523 301.144 542.137 296.669 547.901 292.302C552.572 288.748 552.636 288.769 550.794 283.181C547.437 272.891 544.022 262.6 540.551 252.309C539.966 250.926 539.293 249.582 538.537 248.284C537.123 255.371 535.773 261.13 534.83 267.082C533.094 278.065 530.245 288.491 523.216 297.547C519.252 302.621 516.06 308.252 510.724 312.855C508.83 309.887 507.467 306.612 506.696 303.178C505.41 297.825 504.21 292.473 502.689 287.142C501.702 284.372 500.535 281.668 499.196 279.049C497.632 281.704 496.603 283.331 495.682 285.065C489.811 295.899 484.047 306.817 476.397 316.623C472.84 321.247 469.455 326 466.048 330.753C465.601 331.622 465.262 332.542 465.041 333.493C466.49 332.835 467.845 331.985 469.069 330.967C472.224 329.043 475.955 328.285 479.611 328.826C482.226 328.997 483.083 330.967 484.326 332.808C484.578 333.288 484.957 333.69 485.422 333.97C485.886 334.25 486.419 334.398 486.961 334.398C487.504 334.398 488.036 334.25 488.5 333.97C488.965 333.69 489.344 333.288 489.597 332.808C490.021 332.143 490.352 331.422 490.582 330.667C503.546 334.371 506.739 345.654 510.896 356.209L511.003 356.166ZM527.63 514.809C531.916 512.668 535.901 511.469 537.787 507.637C539.994 503.164 541.905 498.551 543.508 493.828C548.779 478.092 550.558 461.585 553.429 445.336C553.879 442.874 553.815 440.347 554.158 437.864C554.412 436.63 554.313 435.349 553.874 434.168C553.434 432.987 552.671 431.953 551.672 431.184C547.729 428.123 543.723 425.125 539.673 422.235C538.56 421.705 537.376 421.337 536.159 421.143C536.159 423.006 536.309 424.355 536.373 425.682L532.087 423.926C531.745 431.655 537.68 434.289 542.265 437.95C537.466 440.09 534.637 439.17 532.644 435.166C532.084 433.795 531.365 432.495 530.502 431.291C529.618 430.272 529.039 429.025 528.831 427.692C528.622 426.36 528.793 424.995 529.323 423.755C530.876 418.613 534.104 414.137 538.494 411.038C539.903 410.223 541.115 409.108 542.045 407.772C542.974 406.436 543.598 404.913 543.873 403.309L528.873 394.895C527.99 396.829 527.274 398.835 526.731 400.89C525.537 406.617 524.672 412.407 524.138 418.232C523.903 423.941 523.996 429.66 524.416 435.359C524.716 441.782 525.102 448.333 525.723 454.777C526.359 465.954 528.264 477.022 531.402 487.769C531.98 489.503 533.352 491.815 530.502 494.192C529.987 492.051 529.559 490.317 529.173 488.604C528.359 484.879 527.716 481.089 526.688 477.407C525.766 474.11 520.474 472.868 519.252 475.737C517.602 479.612 514.795 483.166 514.967 487.812C514.934 491.815 516.082 495.739 518.267 499.095C519.161 500.414 519.668 501.957 519.733 503.549C519.797 505.142 519.416 506.721 518.631 508.108C518.309 508.879 517.86 509.585 517.388 510.463C521.674 510.463 524.159 504.918 529.28 508.451C525.788 509.542 526.881 511.855 527.523 514.852L527.63 514.809ZM725.17 562.723C717.778 568.975 710.643 574.969 703.572 581.092C702.684 581.966 701.601 582.616 700.413 582.988C699.224 583.361 697.964 583.445 696.736 583.233C695.72 583.108 694.696 583.043 693.672 583.041C693.951 584.839 694.186 586.316 694.422 587.772C695.879 597.149 697.529 606.505 698.707 615.904C700.293 627.786 701.429 639.733 702.993 651.615C704.075 659.031 707.024 666.052 711.564 672.018C716.771 668.186 722.492 666.494 727.677 663.454C733.334 660.136 735.241 656.303 734.449 650.095C733.549 643.179 733.291 636.179 732.627 629.221C732.572 627.914 732.082 626.663 731.234 625.667C728.942 623.526 722.235 625.346 721.099 628.343C720.838 629.273 720.224 630.064 719.387 630.548C718.551 631.032 717.558 631.17 716.621 630.933C718.035 635.215 718.035 635.215 714.95 637.099L710.385 634.016C710.621 626.352 714.221 619.993 717.992 613.677C719.792 610.68 721.721 607.747 723.413 604.686C723.721 604.213 723.929 603.682 724.025 603.126C724.121 602.571 724.102 602.001 723.97 601.453C722.378 598.538 720.558 595.753 718.528 593.124C718.364 592.765 718.105 592.458 717.777 592.237C717.45 592.016 717.068 591.889 716.673 591.871C716.279 591.854 715.887 591.945 715.541 592.136C715.195 592.327 714.909 592.61 714.714 592.953C714.328 593.424 713.428 593.467 712.057 593.981C714.2 588.35 718.335 585.417 721.699 581.799C725.063 578.181 728.62 574.691 731.92 571.308L725.17 562.723ZM392.123 342.742C392.039 341.908 391.631 341.139 390.987 340.601C388.693 338.623 387.114 335.945 386.494 332.981C385.875 330.017 386.249 326.932 387.559 324.202C388.587 321.581 390.034 319.144 391.845 316.987C398.144 309.879 404.701 302.942 411.129 296.048C414.772 292.195 418.693 288.577 422.379 284.723C423.484 283.707 424.235 282.364 424.521 280.891C425.1 270.421 424.093 260.231 417.686 251.324C415.672 248.541 414.279 248.455 411.493 250.554C410.126 251.457 408.694 252.259 407.208 252.951C406.565 254.215 406.137 256.912 404.808 257.447C400.93 258.989 400.523 262.243 399.73 265.39C397.373 274.082 394.909 282.732 392.637 291.424C392.279 293.309 392.092 295.222 392.08 297.14C389.121 300.68 386.353 304.374 383.788 308.209C379.662 315.048 374.921 321.498 369.624 327.477C367.481 329.918 365.339 332.53 363.196 335.249L368.017 335.506C368.189 339.402 368.231 343.021 368.553 346.639C368.638 348.093 369.144 349.491 370.01 350.664C372.044 352.775 374.19 354.776 376.438 356.658C381.688 351.884 387.495 347.795 392.123 342.742ZM483.361 544.761C484.797 539.023 485.89 533.671 487.647 528.49C488.468 526.525 489.846 524.843 491.611 523.651C496.368 520.076 501.339 516.822 506.224 513.439C506.935 513.012 507.476 512.352 507.753 511.57C508.031 510.789 508.028 509.936 507.746 509.157C506.439 503.848 505.11 498.452 504.296 493.1C502.796 483.23 501.66 473.296 500.332 463.405C500.118 461.842 499.732 460.301 499.389 458.588C493.231 459.142 487.199 460.667 481.519 463.106C480.482 463.444 479.594 464.129 479.004 465.046C478.415 465.962 478.16 467.054 478.283 468.137C478.433 471.626 478.454 475.138 478.283 478.606C478.111 491.164 474.566 503.446 468.019 514.167C466.585 515.98 465.842 518.244 465.925 520.554C466.007 522.865 466.909 525.07 468.469 526.777C472.948 532.536 477.533 538.231 482.097 543.904C482.461 544.256 482.881 544.546 483.34 544.761H483.361ZM737.234 569.703C742.655 574.456 744.712 580.536 747.219 586.295C747.711 587.84 747.785 589.487 747.434 591.069C746.962 594.388 747.434 595.544 750.562 595.929C755.821 596.743 761.139 597.123 766.461 597.064C772.889 596.743 778.825 594.666 782.253 588.222C783.839 585.679 785.615 583.26 787.567 580.985L788.446 581.563L779.875 600.832L807.173 593.339C806.648 591.773 806.04 590.237 805.352 588.736C799.65 578.306 791.421 569.473 781.418 563.044C780.039 562.12 778.558 561.358 777.003 560.775C773.811 559.576 772.589 559.94 770.575 562.766C765.666 570.06 759.912 576.751 753.433 582.698C750.219 579.936 749.876 577.303 752.598 573.92C756.519 568.953 760.676 564.179 764.533 559.169C768.822 553.628 773.781 548.637 779.296 544.311C781.439 542.577 783.582 540.821 785.96 538.937C783.817 534.656 781.867 530.823 779.532 526.092C775.932 530.995 772.804 534.998 769.911 539.194C765.699 545.594 760.524 551.306 754.569 556.129C748.976 560.454 743.362 564.907 737.234 569.703ZM298.999 461.992C297.122 461.235 295.178 460.655 293.192 460.258C279.479 458.995 267.822 464.54 256.766 471.841C252.722 474.75 248.871 477.918 245.238 481.325C243.871 482.255 242.789 483.544 242.109 485.05C240.481 491.13 239.195 497.318 237.824 503.462C237.826 504.59 238.007 505.71 238.359 506.781C242.795 504.404 242.795 504.404 245.881 504.918C246.888 509.35 248.495 511.02 252.909 512.09C254.359 512.484 255.834 512.784 257.323 512.989C264.341 514.038 271.513 513.211 278.107 510.591C277.87 501.683 279.851 492.855 283.871 484.9C287.878 476.893 293.878 470.385 298.999 461.992ZM715.142 422.942C717.628 421.229 718.956 419.837 718.292 417.204C716.514 410.246 718.292 403.716 720.778 397.25C723.266 391.42 726.698 386.039 730.934 381.322C732.027 380.016 732.884 378.517 734.127 376.697C732.791 376.259 731.432 375.894 730.056 375.606C725.102 374.828 720.345 373.105 716.042 370.532C709.928 367.157 704.335 362.917 699.436 357.943C696.829 354.826 693.605 352.281 689.965 350.471L693.243 360.405C692.472 361.09 691.529 362.032 690.501 362.824C686.537 365.864 682.573 368.926 678.544 371.859C677.473 372.52 676.619 373.481 676.09 374.623C675.56 375.765 675.378 377.037 675.566 378.282C676.337 384.212 676.98 390.185 677.709 396.116C678.046 397.571 678.483 399.002 679.016 400.398C680.051 399.128 681.175 397.933 682.38 396.822C685.444 394.489 685.594 394.574 688.808 396.822C690.102 397.857 691.547 398.687 693.093 399.284C699.098 400.882 704.264 404.711 707.536 409.989C707.857 410.503 708.457 411.188 708.907 411.188C710.214 411.188 710.171 411.573 710.407 412.794C711.056 416.536 712.691 420.039 715.142 422.942V422.942ZM512.803 364.901L511.517 365.136C511.26 366.892 510.938 368.626 510.767 370.382C510.06 377.854 507.446 384.191 501.018 388.665C498.296 390.549 496.068 393.118 493.518 395.281C487.583 400.355 481.626 405.45 475.583 410.417C473.757 411.795 471.854 413.067 469.883 414.228C471.898 425.746 473.783 436.729 475.755 447.691C476.049 448.887 476.428 450.06 476.89 451.202C482.697 448.783 487.925 446.106 493.454 444.437C495.578 444.049 497.478 442.874 498.773 441.148C500.068 439.421 500.663 437.27 500.439 435.124C500.439 432.64 500.675 430.135 500.846 427.63C501.103 424.483 501.639 421.336 501.618 418.167C501.618 410.995 507.103 408.383 511.881 404.572C512.288 406.199 512.588 407.334 512.974 408.854C513.467 408.062 513.81 407.762 513.767 407.505C513.446 405.874 513.66 404.182 514.378 402.682C515.096 401.181 516.28 399.952 517.752 399.177C520.816 396.783 523.643 394.102 526.195 391.17C520.217 382.992 514.924 374.771 512.803 364.901ZM289.4 232.163C290.257 229.187 290.814 227.175 291.435 225.183C291.814 223.223 292.539 221.345 293.578 219.638C296.339 216.099 299.408 212.811 302.749 209.812C307.035 206.129 311.663 202.875 316.291 199.621C317.061 199.127 317.702 198.458 318.164 197.669C318.626 196.881 318.894 195.994 318.948 195.082C320.105 181.958 321.327 168.856 322.312 155.71C322.634 151.428 321.755 150.422 317.191 150.229C312.227 149.983 307.252 150.069 302.299 150.486C295.871 151.086 293.9 153.377 294.007 159.842C294.063 161.663 293.427 163.437 292.228 164.809C289.834 167.779 287.61 170.881 285.564 174.101C284.881 175.222 284.651 176.562 284.921 177.847C285.843 180.995 286.443 184.698 288.5 186.989C292.785 191.614 291.157 196.688 290.643 201.59C290.085 207.885 288.65 214.115 287.943 220.409C287.082 224.351 287.596 228.468 289.4 232.077V232.163ZM319.27 316.858C319.055 321.568 318.777 324.887 318.755 328.227C318.807 329.891 319.052 331.543 319.484 333.151C321.198 340.173 324.091 342.55 331.29 342.956C332.444 343.085 333.608 343.085 334.762 342.956C346.74 340.815 357.861 336.833 366.71 327.97C368.604 326.351 369.859 324.111 370.252 321.652C370.644 319.192 370.148 316.674 368.853 314.546C367.979 312.93 366.93 311.415 365.724 310.029C356.468 299.003 343.89 296.819 330.519 297.183C328.99 297.229 327.516 297.763 326.313 298.707C325.109 299.651 324.241 300.955 323.834 302.428C322.098 307.652 320.491 312.898 319.27 316.858ZM743.534 428.315C740.779 429.895 737.914 431.275 734.963 432.447C732.006 433.389 728.32 432.876 725.878 434.438C723.435 436.001 721.871 439.641 719.642 442.06C715.485 446.599 711.071 450.859 706.786 455.398C699.88 462.682 692.158 469.147 683.772 474.667C680.173 477.107 676.123 479.484 672.009 474.41C671.445 478.038 671.886 481.752 673.283 485.149C674.681 488.545 676.982 491.495 679.937 493.678C684.587 492.008 686.044 485.564 692.365 487.255L695.643 497.446C700.187 497.823 704.761 497.262 709.078 495.798C711.778 494.898 712.935 493.55 712.55 490.702C711.993 486.57 711.864 482.374 711.093 478.306C710.505 475.966 710.612 473.505 711.4 471.225C712.187 468.944 713.622 466.941 715.528 465.461C717.542 463.748 719.256 461.671 721.121 459.744L730.334 450.153C731.063 451.978 731.637 453.862 732.049 455.784C732.649 462.078 733.077 468.394 733.57 474.709C733.806 477.407 734.084 480.083 734.32 482.781C737.544 477.608 739.463 471.73 739.913 465.653C741.17 455.42 742.355 445.179 743.469 434.931C743.602 432.735 743.624 430.534 743.534 428.337V428.315ZM666.759 467.816C666.652 466.472 666.473 465.136 666.223 463.812C664.792 459.907 663.632 455.909 662.752 451.844C661.845 444.634 659.912 437.591 657.01 430.927C656.595 429.54 656.45 428.087 656.581 426.645C656.776 425.169 656.876 423.682 656.881 422.192C655.396 409.634 652.946 397.208 649.553 385.026C649.012 383.913 648.879 382.646 649.176 381.445C649.474 380.244 650.183 379.185 651.181 378.453C652.797 376.813 654.293 375.06 655.66 373.208C658.917 369.654 662.324 366.228 665.495 362.503C666.517 361.464 667.087 360.063 667.081 358.607C666.277 355.291 665.283 352.024 664.102 348.822C650.817 358.842 640.703 371.538 626.047 377.447C626.347 383.334 631.425 383.763 634.168 386.481C630.397 389.479 630.418 389.479 632.025 394.274C632.647 396.18 633.161 398.107 633.782 400.012C639.246 416.776 644.367 433.646 651.824 449.682C655.4 456.748 660.484 462.946 666.716 467.837L666.759 467.816ZM590.584 442.124C590.924 441.623 591.232 441.101 591.506 440.561C595.513 430.306 599.541 420.094 603.398 409.818C604.018 408.339 604.117 406.693 603.677 405.15C602.777 403.01 602.905 399.434 598.813 400.226C598.577 400.226 597.827 399.199 597.848 398.663C597.574 396.759 597.781 394.816 598.448 393.011C600.66 389.949 603.058 387.025 605.627 384.255L609.612 379.481C602.22 375.199 598.363 368.519 594.763 362.225C590.949 366.292 587.67 370.296 583.878 373.722C576.442 380.423 568.707 386.781 561.1 393.29C560.243 394.018 559.472 394.853 558.336 395.944C566.2 401.704 574.942 406.456 579.421 415.042C583.899 423.627 586.77 432.854 590.542 442.21L590.584 442.124ZM463.948 402.71C467.655 404.123 468.662 404.23 472.133 402.539C477.062 400.119 481.904 397.486 486.747 394.874C487.657 394.478 488.41 393.793 488.89 392.926C490.261 388.858 492.361 384.747 492.511 380.594C492.742 375.159 491.765 369.74 489.65 364.728C487.534 359.715 484.333 355.234 480.276 351.606C474.49 346.189 467.634 345.804 460.605 350.771C456.513 353.64 455.613 358.136 454.177 362.31C451.982 368.2 451.262 374.538 452.08 380.769C452.898 387.001 455.229 392.939 458.87 398.064C459.594 398.882 460.423 399.602 461.334 400.205C463.198 393.782 472.048 385.325 479.611 382.114C480.554 387.723 479.826 388.922 475.326 388.751C473.548 394.853 468.255 398.085 463.905 402.795L463.948 402.71ZM625.104 528.811L623.668 528.661C622.726 530.374 621.761 532.065 620.84 533.778C616.554 541.828 616.362 550.691 615.826 559.469C615.741 563.288 616.665 567.061 618.504 570.409C620.197 573.92 621.869 577.881 620.154 581.863C618.738 585.279 616.918 588.513 614.733 591.497C610.957 596.552 606.908 601.398 602.605 606.013C600.462 608.261 599.798 609.909 601.962 612.329C602.154 612.565 602.287 612.844 602.35 613.141C602.414 613.439 602.406 613.747 602.327 614.041C600.527 616.953 602.327 619.437 603.119 623.076C606.823 619.994 610.337 616.691 613.64 613.185C618.737 607.271 624.376 601.845 630.482 596.978L641.196 588.157C639.375 583.597 637.618 579.465 636.054 575.312C632.132 564.778 630.375 553.753 628.318 542.791C627.483 538.06 626.197 533.457 625.104 528.811ZM767.104 415.341L765.647 415.577C764.851 417.673 764.192 419.818 763.676 422C762.861 426.752 762.433 431.57 761.661 436.322C760.569 443.066 759.669 449.875 758.062 456.49C755.533 466.852 748.976 475.009 741.884 482.502C736.484 488.24 733.313 494.106 735.048 502.113C735.691 504.961 735.863 507.915 736.377 511.79C738.198 510.013 739.27 509.029 740.255 507.98C742.077 506.031 743.769 503.976 745.634 502.049C751.033 496.44 756.755 491.088 761.876 485.221C767.151 479.323 770.118 471.721 770.232 463.812C770.336 459.98 770.708 456.16 771.347 452.379C771.755 450.674 772.482 449.062 773.489 447.627C775.932 443.709 779.382 440.005 775.011 435.252C774.711 434.931 774.754 434.289 774.582 433.818C772.782 428.636 771.004 423.455 769.097 418.317C768.537 417.259 767.869 416.262 767.104 415.341V415.341ZM409.265 477.428C407.263 478.143 405.315 479.002 403.437 479.997C396.859 484.172 390.216 488.283 383.916 492.843C380.221 495.403 376.928 498.499 374.145 502.028C372.844 503.617 371.961 505.506 371.576 507.523C371.191 509.54 371.316 511.621 371.939 513.577C372.563 515.533 373.665 517.303 375.147 518.726C376.629 520.149 378.442 521.179 380.424 521.724C388.48 524.037 395.787 522.11 402.837 518.342C405.322 517.014 407.529 515.173 409.951 513.717C410.838 513.26 411.56 512.538 412.017 511.652C412.474 510.765 412.643 509.759 412.501 508.772C411.965 501.792 411.751 494.791 411.151 487.812C410.915 484.515 410.058 481.325 409.265 477.428ZM262.573 220.666C261.737 220.468 260.882 220.361 260.023 220.345C259.032 220.462 258.056 220.677 257.109 220.987C246.961 224.149 237.228 228.512 228.117 233.983C222.653 237.258 219.546 248.049 221.946 253.958C223.617 258.09 226.981 259.224 230.517 260.637C231.913 261.408 233.535 261.666 235.101 261.364C236.668 261.063 238.078 260.222 239.088 258.989C240.094 257.77 241.357 256.788 242.787 256.115C244.217 255.441 245.778 255.092 247.359 255.092C252.197 254.85 256.916 253.51 261.158 251.174C262.402 250.713 263.462 249.86 264.177 248.744C264.892 247.627 265.224 246.309 265.122 244.987C265.063 243.176 264.819 241.375 264.394 239.613C263.108 234.582 261.694 229.615 262.723 224.349C262.804 223.119 262.754 221.885 262.573 220.666V220.666ZM684.437 568.183L669.18 510.72C666.93 513.439 665.173 515.194 663.824 517.143C661.877 520.035 660.165 523.077 658.702 526.242C657.374 529.239 653.281 530.995 654.653 535.191C651.138 536.968 652.21 540.479 652.617 542.877C654.427 553.433 658.105 563.583 663.481 572.85L673.552 574.306L684.437 568.183ZM508.089 668.699C510.06 667.351 512.096 665.724 514.324 664.418C515.298 663.957 516.095 663.191 516.594 662.237C517.093 661.282 517.266 660.191 517.088 659.129C516.424 650.844 515.995 642.537 515.374 634.252C514.753 625.966 513.917 617.124 513.231 608.411C512.888 606.803 513.076 605.128 513.767 603.636C515.61 601.239 514.474 599.355 513.767 597.214C511.753 591.412 509.888 585.567 507.917 579.765C507.317 577.988 506.546 576.254 505.474 573.535L497.675 596.743C498.682 600.81 500.139 604.086 500.225 607.447C500.468 617.924 500.403 628.4 500.032 638.876C499.636 645.34 500.156 651.826 501.575 658.145C502.32 662.364 504.65 666.139 508.089 668.699ZM789.496 635.344C800.017 632.646 809.638 622.327 808.78 614.577C806.638 615.305 804.688 616.054 802.631 616.718C800.102 617.488 797.445 618.859 794.981 618.687C785.232 617.767 776.682 621.577 767.94 624.767C763.783 626.309 763.226 626.908 764.576 630.955C766.268 636.05 763.976 639.262 760.676 642.473C756.39 638.191 755.662 634.594 758.169 629.949C759.776 626.93 761.597 624.018 763.74 620.336L755.812 622.798C755.07 622.937 754.4 623.329 753.915 623.906C753.43 624.484 753.162 625.212 753.155 625.966C752.533 638.213 756.776 648.81 764.018 658.402C764.267 658.846 764.615 659.226 765.035 659.513C765.456 659.8 765.937 659.987 766.441 660.057C766.945 660.128 767.459 660.08 767.942 659.92C768.425 659.759 768.864 659.488 769.225 659.129C771.066 657.49 772.752 655.684 774.261 653.734C774.882 653.006 774.904 651.722 775.589 651.144C779.884 647.316 782.717 642.117 783.603 636.436C783.809 635.625 784.126 634.847 784.546 634.123C785.467 632.346 786.689 632.239 788.146 633.545C788.65 634.102 789.102 634.704 789.496 635.344V635.344ZM541.58 510.506C540.723 510.934 540.144 511.041 539.866 511.384C536.351 515.815 532.687 520.183 529.452 524.829C528.456 526.551 528.036 528.546 528.252 530.524C529.19 545.016 532.154 559.307 537.059 572.978C538.422 576.374 540.139 579.617 542.18 582.655C544.13 585.588 546.122 586.059 548.608 585.053C549.97 584.685 551.146 583.823 551.906 582.635C552.667 581.448 552.957 580.02 552.722 578.63C552.594 575.312 551.801 571.779 552.722 568.718C554.158 563.622 550.965 559.769 550.365 555.273C546.851 553.56 547.965 550.199 547.579 547.394C547.16 542.757 546.444 538.152 545.437 533.607C543.787 527.496 542.76 521.234 542.373 514.916C542.115 513.525 541.837 512.133 541.58 510.506V510.506ZM479.976 574.092L478.883 573.856C474.597 582.848 470.312 591.861 466.026 600.81C465.056 603.097 463.749 605.226 462.148 607.126C455.72 613.849 449.034 620.4 442.306 626.866C438.878 630.163 435.171 633.16 431.271 636.564C432.814 641.552 437.035 645.278 441.363 649.088C441.974 648.803 442.556 648.459 443.099 648.061C450.299 641.467 458.377 635.729 464.248 627.743C467.595 623.809 470.472 619.498 472.819 614.898C475.405 608.216 477.468 601.345 478.99 594.345C480.575 587.713 480.909 580.845 479.976 574.092ZM197.99 653.092C200.657 649.452 201.995 645.009 201.783 640.503C201.59 637.699 201.354 633.952 205.49 632.668C205.983 632.518 206.197 631.255 206.368 630.527C206.583 629.392 206.518 628.172 206.818 627.058C207.89 622.776 211.554 621.813 214.575 624.917C215.18 625.666 215.691 626.485 216.096 627.358C214.425 630.248 209.989 631.747 212.389 636.414C213.482 635.708 214.532 635.044 215.625 634.273C217.939 632.646 220.125 630.805 222.546 629.392C223.61 628.928 224.464 628.088 224.947 627.033C225.429 625.978 225.505 624.783 225.16 623.676C224.303 618.773 223.896 613.806 223.489 608.839C222.972 600.539 221.586 592.315 219.353 584.304C218.903 582.784 218.153 581.328 217.211 579.273C212.625 591.091 209.047 602.566 203.797 613.228C198.547 623.89 191.455 634.016 184.812 644.978L197.99 653.092ZM208.447 396.18C217.661 386.888 228.096 354.175 225.332 344.519C224.582 344.519 223.789 344.519 222.975 344.626C216.512 345.377 210.24 347.292 204.461 350.278C201.273 351.881 198.774 354.584 197.427 357.887C196.079 361.189 195.975 364.867 197.133 368.241L201.676 366.357C200.54 368.819 199.833 370.21 199.276 371.645C198.38 373.194 197.824 374.917 197.647 376.697C197.691 378.484 198.093 380.244 198.829 381.873C199.565 383.502 200.621 384.967 201.933 386.182L209.09 381.45L209.454 382.028L202.554 388.687L208.447 396.18ZM445.477 548.079C442.906 552.832 440.078 557.521 437.721 562.445C436.232 565.347 435.399 568.541 435.281 571.8C435.162 575.059 435.761 578.304 437.035 581.306C440.163 588.843 443.363 596.336 446.635 603.786C447.042 604.707 448.027 605.349 449.077 606.484C453.791 597.663 458.484 589.356 460.755 580.129C461.977 575.076 462.727 569.96 460.155 564.993C456.834 558.57 451.82 553.496 446.956 548.293C446.87 548.079 446.656 548.186 445.477 548.079ZM697.593 417.161C696.436 410.588 685.508 405.407 679.637 408.212C679.637 409.518 679.637 410.845 679.637 412.151C679.787 417.975 681.565 419.495 687.458 418.767C689.279 418.553 691.079 418.21 692.879 417.932L693.136 419.024C690.844 419.88 688.594 420.822 686.28 421.593C682.208 422.942 681.308 423.884 681.994 428.016C682.685 432.791 683.84 437.488 685.444 442.039C687.129 445.862 689.289 449.458 691.872 452.743C692.359 453.362 692.981 453.861 693.69 454.202C694.399 454.543 695.177 454.718 695.965 454.713C699.266 454.153 702.259 452.436 704.407 449.87C706.555 447.304 707.718 444.057 707.686 440.711C708.05 433.24 705.243 426.752 702.372 420.201C701.493 418.296 700.422 416.583 697.593 417.097V417.161ZM573.678 312.791C571.198 311.791 568.84 310.512 566.65 308.98C563.895 306.355 561.277 303.589 558.807 300.694C557.929 299.752 557.072 298.553 555.958 298.147C552.186 297.119 544.708 300.758 542.63 304.334C539.448 309.823 537.346 315.869 536.437 322.146C536.327 323.572 536.327 325.003 536.437 326.428C539.458 325.465 541.944 324.63 544.472 323.923C549.063 322.454 553.735 321.253 558.465 320.327C567.036 319.021 575.607 318.186 584.178 317.265C591.099 316.452 591.099 316.473 592.427 309.793C592.619 308.988 592.769 308.173 592.877 307.353C593.134 303.734 590.177 302.643 587.842 301.208C585.506 299.774 584.049 301.208 582.656 302.792C579.871 305.811 577.128 308.915 573.678 312.791ZM349.268 758.212C351.983 753.753 354.967 749.463 358.203 745.366C362.268 741.154 366.56 737.166 371.06 733.42C374.295 730.53 377.702 727.853 380.959 724.985C382.459 723.679 383.981 722.373 383.445 719.932C382.502 715.65 381.752 711.497 380.959 707.429C377.423 706.713 373.845 706.227 370.246 705.973C362.81 705.973 362.703 706.144 360.668 713.252C356.875 726.569 353.104 739.864 346.504 752.174C345.84 753.702 345.289 755.277 344.854 756.885L349.268 758.212ZM380.766 448.247L406.544 428.187C389.916 419.773 378.217 406.628 366.56 393.225C366.225 399.111 366.892 405.011 368.531 410.674L358.032 422.107C367.246 422.107 367.246 422.107 372.153 425.532L381.752 421.357C382.167 422.951 382.446 424.577 382.588 426.217C382.297 428.861 382.197 431.523 382.288 434.182C383.026 438.928 382.479 443.784 380.702 448.247H380.766ZM747.176 541.485C750.391 546.388 750.948 546.688 755.619 544.29C758.705 542.628 761.676 540.761 764.511 538.702C765.388 537.966 765.955 536.926 766.097 535.79C766.581 532.823 766.639 529.803 766.268 526.82C765.875 524.087 764.775 521.504 763.076 519.326C761.377 517.148 759.139 515.451 756.583 514.402C750.605 511.962 745.484 513.76 740.405 516.543C738.726 517.459 737.386 518.89 736.584 520.625C735.781 522.359 735.558 524.306 735.948 526.177C736.206 527.676 736.313 529.175 736.698 530.631C737.47 534.426 739.22 537.953 741.777 540.864C744.969 540.864 746.062 536.582 749.748 537.717L747.176 541.485ZM157.578 584.133C161.863 581.221 165.377 578.844 168.87 576.361C172.036 573.688 175.387 571.241 178.898 569.039C181.491 567.712 182.605 566.277 181.919 563.708C181.06 560.525 179.979 557.406 178.684 554.374C178.125 553.175 177.117 552.245 175.877 551.783C171.435 550.423 166.912 549.344 162.335 548.55C158.542 547.951 156.078 549.771 154.578 553.303C150.164 563.687 152.65 573.406 157.578 584.133ZM191.133 421.978C187.662 418.017 184.384 414.464 181.341 410.738C180.753 409.945 179.896 409.392 178.93 409.183C177.964 408.974 176.955 409.124 176.091 409.604C172.341 410.824 172.427 414.057 171.999 416.883C171.12 422.792 170.413 428.744 169.856 434.695C168.977 443.409 168.013 452.144 170.606 460.772C171.4 460.653 172.202 460.596 173.006 460.601C173.879 460.763 174.739 460.992 175.577 461.286C176.52 458.866 177.27 456.683 178.191 454.606C180.141 450.196 181.041 445.143 186.141 442.745C186.674 442.362 187.115 441.866 187.434 441.292C187.752 440.718 187.94 440.081 187.983 439.427C188.08 437.103 187.783 434.779 187.105 432.554C185.326 427.309 185.176 427.373 189.248 423.841C189.741 423.306 190.319 422.728 191.133 421.978ZM343.268 155.903C342.698 157.215 342.204 158.559 341.79 159.928C340.89 164.21 340.076 168.492 339.24 172.773C338.404 177.055 337.312 181.594 336.712 186.047C336.112 190.5 336.712 191.335 340.997 193.177C343.02 193.942 344.983 194.858 346.868 195.917C347.741 196.574 348.822 196.894 349.912 196.819C351.002 196.745 352.029 196.28 352.804 195.51C353.67 194.701 354.618 193.984 355.632 193.369C358.718 191.828 359.232 189.237 358.76 186.218C357.352 179.175 356.884 171.976 357.368 164.809C357.549 163.812 357.371 162.783 356.865 161.905C356.359 161.027 355.558 160.357 354.604 160.013C350.918 158.643 347.34 157.402 343.204 155.903H343.268ZM713.535 508.087C708.414 509.585 704.964 513.589 699.886 512.647C699.678 513.341 699.584 514.064 699.607 514.788C702.114 527.098 703.893 539.601 709.378 551.184C710.635 553.719 712.268 556.05 714.221 558.099C715.152 559.073 716.416 559.661 717.761 559.749C719.106 559.836 720.435 559.415 721.485 558.57C724.206 556.857 724.549 555.915 723.499 552.297C720.438 542.998 718.025 533.498 716.278 523.865C715.442 518.684 714.435 513.674 713.535 508.087ZM543.187 214.393L542.694 213.43C540.98 213.751 539.223 213.944 537.53 214.372C531.739 216.068 525.612 216.267 519.724 214.95C514.131 213.408 510.51 214.95 507.574 219.531C506.653 220.966 504.853 221.929 505.432 224.541L510.553 221.03L511.581 221.715C511.346 223.428 511.046 225.141 510.853 226.853C510.488 230.45 509.353 233.983 511.11 237.558C513.51 242.504 515.502 247.642 517.731 252.673C518.431 253.967 519.196 255.225 520.024 256.441C520.667 253.872 521.138 252.331 521.416 250.768C523.383 239.359 529 228.894 537.423 220.944C539.48 218.975 541.258 216.62 543.187 214.393ZM612.44 246.379C619.019 247.599 624.29 244.837 629.218 241.198C632.132 239.057 632.561 237.986 630.547 234.925C626.754 229.101 622.576 223.535 618.419 217.926C618.184 217.585 617.875 217.302 617.515 217.098C617.154 216.895 616.752 216.776 616.339 216.751C615.925 216.727 615.512 216.796 615.13 216.955C614.748 217.114 614.407 217.358 614.133 217.669C609.628 221.798 605.385 226.202 601.427 230.857C597.463 235.867 599.284 241.283 605.005 243.874C607.44 244.834 609.921 245.67 612.44 246.379V246.379ZM425.079 289.39C423.242 290.377 421.461 291.463 419.743 292.644C416.636 295.149 413.593 297.74 410.658 300.459C409.049 301.895 407.611 303.511 406.372 305.276C404.986 307.272 404.244 309.644 404.244 312.073C404.244 314.503 404.986 316.875 406.372 318.871C408.156 321 410.6 322.474 413.317 323.059C416.033 323.645 418.868 323.309 421.372 322.104C423.017 321.307 424.607 320.398 426.128 319.385C429.45 317.244 429.707 316.152 428.893 312.298C428.078 308.444 427.328 304.141 426.75 300.031C426.064 296.948 425.7 293.843 425.079 289.39ZM536.866 340.409C536.981 347.365 538.988 354.159 542.673 360.062C546.551 356.722 550.172 354.004 553.386 350.835C559.649 344.841 566.898 339.967 574.814 336.426C577.642 335.035 580.599 334.286 583.513 336.897C585.534 338.431 587.685 339.785 589.942 340.944C589.534 335.442 590.584 330.453 588.999 325.187C586.727 326.471 584.713 327.327 582.978 328.612C574.641 334.273 564.816 337.349 554.736 337.454C548.658 337.453 542.62 338.451 536.866 340.409V340.409ZM754.055 374.664C752.234 374.379 750.37 374.557 748.636 375.182C746.902 375.807 745.354 376.858 744.134 378.239C739.414 383.571 736.722 390.392 736.527 397.507C736.337 400.522 737.082 403.522 738.662 406.097C740.242 408.672 742.58 410.697 745.355 411.894C747.884 412.815 749.062 412.408 750.069 409.753C752.212 404.166 754.355 398.556 756.326 392.904C756.611 391.789 756.574 390.616 756.219 389.522C755.683 387.595 755.017 385.706 754.226 383.87C753.005 381.086 751.676 378.153 754.055 374.664ZM571.921 375.37C573.292 367.149 571.921 361.561 567.636 356.744C566.898 355.82 565.92 355.117 564.808 354.713C563.697 354.309 562.495 354.219 561.336 354.453C556.127 355.573 551.244 357.873 547.065 361.176C544.922 362.803 545.33 364.58 546.765 366.4C548.333 368.758 550.135 370.953 552.143 372.951C555.117 375.595 558.459 377.794 562.064 379.481C568.557 382.264 571.278 380.38 571.985 375.434L571.921 375.37ZM353.082 795.85L354.111 794.672C352.354 788.742 352.075 782.447 349.161 776.217C344.126 777.266 339.283 778.358 334.419 779.257C329.626 780.007 325.322 782.615 322.441 786.515C321.348 787.971 320.065 789.274 318.627 790.39C317.619 791.079 316.902 792.116 316.613 793.302C316.324 794.488 316.484 795.738 317.063 796.813C318.048 796.813 319.377 797.22 320.212 796.813C328.291 792.231 336.712 792.66 345.325 794.672C347.854 795.293 350.489 795.486 353.082 795.85ZM396.409 763.928C393.687 753.224 391.352 743.118 386.509 734.191C384.022 734.898 381.497 735.463 378.945 735.882C378.191 735.913 377.467 736.186 376.881 736.661C376.294 737.135 375.876 737.785 375.688 738.515C373.561 744.346 373.381 750.708 375.174 756.649C375.53 757.881 376.352 758.925 377.467 759.561C383.145 761.53 388.759 764.314 396.409 763.928ZM244.702 472.868L245.816 473.382C251.109 469.1 256.53 465.011 261.63 460.536C263.325 459.035 264.475 457.016 264.901 454.793C265.328 452.57 265.006 450.269 263.987 448.247C263.594 447.558 263.055 446.962 262.407 446.503C261.759 446.045 261.018 445.734 260.237 445.593C257.418 445.696 254.681 446.566 252.321 448.109C249.961 449.652 248.068 451.81 246.845 454.349C244.509 460.536 245.838 466.724 244.595 472.868H244.702ZM543.83 627.422C540.594 635.472 538.387 643.094 540.101 651.508C541.815 659.922 543.872 667.436 550.665 673.559C551.972 662.534 547.815 634.53 543.83 627.422ZM381.645 780.949C382.952 788.742 383.938 795.443 385.223 802.101C385.952 805.826 388.716 806.64 391.887 804.349C398.787 799.404 398.423 791.974 399.13 784.545L381.645 780.949ZM768.968 484.386C763.44 488.069 760.397 494.235 755.747 498.773C755.147 499.352 755.147 500.55 754.783 501.664C755.561 502.105 756.379 502.47 757.226 502.756C763.311 503.955 768.497 506.481 771.775 512.09C772.097 512.647 773.318 512.668 774.496 513.032C772.589 503.12 770.811 493.914 768.968 484.386ZM378.624 683.493C380.059 670.134 379.952 655.897 378.195 650.823C373.267 661.699 371.274 672.66 368.681 684.2L378.624 683.493ZM313.677 231.756C313.87 230.322 314.02 229.38 314.148 228.459C314.898 223.535 315.627 218.589 316.291 213.644C316.57 211.867 316.42 210.111 314.513 209.512C312.606 208.912 311.556 210.497 310.72 211.995C307.67 217.166 306.245 223.133 306.627 229.123C306.927 232.869 309.52 236.252 312.263 236.552C315.863 236.959 316.934 234.026 318.37 231.628C318.498 231.414 318.37 231.028 318.241 230.771L313.677 231.756ZM520.281 151.343L521.888 151.835C523.366 150.149 524.653 148.303 525.723 146.333C527.566 141.901 529.109 137.32 530.502 132.717C530.958 130.961 531.031 129.129 530.716 127.343C530.33 124.945 528.788 124.324 526.731 125.673C524.792 126.827 523.157 128.429 521.965 130.343C520.772 132.258 520.055 134.429 519.874 136.677C519.756 141.541 519.892 146.407 520.281 151.257V151.343ZM288.071 532.836C287.964 539.772 286.828 546.345 288.628 553.089C292.914 546.473 300.628 543.819 305.149 537.589L288.071 532.836ZM415.458 231.842C406.887 229.851 408.515 222.486 406.008 217.305C402.708 219.703 401.401 222.058 401.937 225.74C402.601 230.172 402.494 234.732 402.773 239.228C402.773 240.406 403.201 241.583 403.608 243.788L415.458 231.842ZM302.92 471.626C302.513 471.819 301.913 471.926 301.721 472.269C299.651 475.303 298.437 478.838 298.206 482.502C298.206 489.054 298.464 495.605 298.592 502.156C305.063 497.724 307.699 479.569 302.92 471.648V471.626ZM360.625 201.676C356.146 210.24 353.468 223.085 354.861 227.945C358.246 224.627 361.589 221.522 364.739 218.118C365.179 217.679 365.519 217.148 365.734 216.564C365.948 215.98 366.033 215.356 365.982 214.736C364.524 210.604 362.682 206.6 360.625 201.676ZM216.118 642.152C214.313 647.101 213.583 652.378 213.975 657.631C214.08 658.239 214.329 658.813 214.702 659.305C215.075 659.796 215.56 660.192 216.118 660.457C218.702 661.481 221.514 661.792 224.26 661.356C223.939 648.853 222.01 644.1 216.118 642.152ZM538.687 620.743C540.508 618.495 541.13 616.974 539.994 615.176C538.858 613.378 539.651 612.05 541.001 610.894C541.907 609.928 542.873 609.02 543.894 608.175C548.544 604.835 548.779 600.468 547.022 595.03C544.087 596.764 541.323 598.177 538.837 599.975C538.345 600.389 537.948 600.903 537.671 601.483C537.393 602.062 537.243 602.694 537.23 603.337C537.53 608.753 538.13 614.277 538.687 620.678V620.743ZM577.535 658.851L581.542 655.661C579.228 646.134 577.685 636.992 574.942 628.107C573.035 638.341 574.407 648.296 577.535 658.787V658.851ZM560.564 388.494C556.527 386.759 552.623 384.727 548.887 382.414C545.646 379.738 542.61 376.825 539.801 373.7L539.18 373.978L541.323 381.986C546.037 384.812 552.186 386.524 555.015 392.283C556.686 391.063 558.336 389.971 560.564 388.43V388.494ZM480.169 337.989C483.49 340.13 486.211 341.886 489.018 343.577C491.825 345.268 493.304 348.758 497.225 349.829C493.197 340.409 486.704 335.784 480.169 337.925V337.989ZM299.985 805.869C303.946 806.081 307.913 805.558 311.684 804.328C314.513 803.514 314.448 803.3 313.034 799.596C307.12 797.605 304.828 802.85 299.985 805.869ZM769.247 519.926C771.947 515.794 769.247 513.632 767.468 511.191C765.69 508.75 763.933 506.588 760.012 506.909L769.247 519.926ZM582.099 659.75C579.592 660.542 578.864 661.891 579.485 663.454C580.851 667.6 583.037 671.43 585.913 674.715C584.713 669.834 583.449 664.931 582.121 659.75H582.099ZM563.757 575.055C567.164 571.908 566.05 568.996 563.114 566.213L563.757 575.055ZM672.823 335.699C676.401 332.123 676.23 331.417 671.537 328.955C671.044 330.077 670.903 331.322 671.132 332.526C671.362 333.73 671.951 334.836 672.823 335.699V335.699ZM395.723 808.845L399.773 810.13L400.051 805.227L399.173 804.863C398.294 805.933 397.33 807.132 395.809 808.802L395.723 808.845ZM264.351 258.454L263.708 257.255L260.623 258.603L260.901 259.588C261.612 259.688 262.333 259.688 263.044 259.588C263.558 259.545 263.944 258.882 264.351 258.454ZM658.081 575.911L659.195 575.248C658.102 573.942 658.231 571.779 655.788 571.33L658.081 575.911ZM113.159 554.952L114.53 555.787L116.03 553.26L114.959 552.554L113.159 554.952ZM409.865 695.568L408.858 695.761L409.694 698.822H410.208C410.101 697.688 409.972 696.617 409.865 695.568Z" fill="black"/>
<path d="M33.2773 626.33L39.1056 627.572C38.1413 633.845 33.4058 636.949 28.9275 640.418L27.7918 638.705L20.9351 645.128C19.275 645.162 17.6685 644.541 16.4647 643.398C15.2609 642.256 14.5573 640.684 14.5068 639.026C14.5426 638.294 14.3575 637.568 13.9755 636.942C13.5934 636.316 13.0321 635.819 12.3641 635.515C11.8734 635.124 11.4915 634.613 11.2551 634.032C11.0188 633.451 10.9358 632.819 11.0141 632.197C12.4712 629.371 10.8856 627.144 10.4142 624.618C9.71903 621.726 9.71903 618.71 10.4142 615.818C11.3006 612.677 12.0159 609.489 12.5569 606.27C13.1354 602.63 15.8139 600.168 16.6281 596.7C17.6174 593.817 18.9103 591.046 20.4851 588.436C20.6779 588.029 20.4851 587.43 20.4851 586.959C20.5744 585.52 20.9533 584.115 21.5993 582.827C23.9563 579.851 23.4421 576.147 24.5563 572.871C24.6844 572.507 24.7284 572.118 24.6852 571.734C24.642 571.349 24.5126 570.98 24.3066 570.653C24.1007 570.326 23.8235 570.049 23.4957 569.844C23.1679 569.639 22.798 569.51 22.4135 569.467C21.4493 569.21 20.5279 568.868 19.2423 568.44C20.0565 567.005 20.7851 565.806 21.385 564.522C21.8136 563.644 22.6921 562.381 22.3707 561.845C20.6136 559.169 20.3779 555.936 19.3066 552.961C14.8496 555.765 14.8925 555.316 10.607 553.153C6.31473 551.06 2.84553 547.594 0.750366 543.305C-0.19328 541.479 -0.519574 539.398 -0.179637 537.371C0.1603 535.345 1.14817 533.483 2.63598 532.065C3.09422 531.578 3.5963 531.133 4.13591 530.738C6.36547 529.512 8.51925 528.154 10.5856 526.67C12.2569 525.257 12.5569 522.709 15.2139 521.81C15.5896 521.606 15.9032 521.304 16.1217 520.937C16.3402 520.569 16.4555 520.15 16.4555 519.723C16.4555 519.295 16.3402 518.876 16.1217 518.508C15.9032 518.141 15.5896 517.839 15.2139 517.635C12.3212 515.794 11.8069 513.118 11.1427 510.078C10.4227 507.533 9.30154 505.119 7.82143 502.927C6.8696 501.664 6.30434 500.153 6.19406 498.576C6.08378 497 6.4332 495.425 7.20004 494.042C7.66652 493.372 7.94069 492.587 7.99285 491.773C7.76411 487.114 8.69931 482.471 10.7141 478.263C11.3958 476.43 12.3414 474.707 13.5211 473.147C16.0188 470.304 18.6577 467.589 21.4279 465.011C22.4382 464.388 23.536 463.919 24.6849 463.619C24.4432 464.775 24.0618 465.896 23.5492 466.959C22.4232 468.511 21.6663 470.299 21.3358 472.188C21.0054 474.076 21.1101 476.015 21.6422 477.857C22.2207 480.297 22.4135 482.824 23.1849 485.179C24.1168 487.663 24.1168 490.401 23.1849 492.886C22.7561 494.177 22.8057 495.579 23.3249 496.837C23.8441 498.094 24.7982 499.123 26.0134 499.737C28.7775 501.557 31.6702 503.248 34.5844 504.79C36.6491 505.829 38.7999 506.689 41.0126 507.359C44.3767 508.408 47.7837 509.2 50.9764 506.845C52.412 505.817 53.3977 506.31 54.5333 507.851C53.8262 508.622 53.2691 509.757 52.3906 510.185C47.5174 512.873 42.4112 515.116 37.1342 516.886C32.9962 517.942 29.1317 519.869 25.7991 522.538C21.5136 525.963 20.6779 528.661 23.6563 533.093C25.7714 536.899 28.6973 540.195 32.2273 542.748C32.962 543.349 33.8425 543.744 34.7796 543.895C35.7167 544.045 36.6769 543.945 37.5628 543.605C41.8483 542.234 46.1338 541.464 51.3835 540.115C50.4331 544.97 49.2316 549.772 47.7837 554.502C45.2002 562.03 41.5953 569.169 37.0699 575.719C36.541 576.547 36.1368 577.449 35.87 578.395C33.8295 583.655 32.0559 589.014 30.556 594.452C29.6478 599.452 29.0112 604.498 28.6489 609.567C28.349 612.008 27.9418 614.427 27.5776 616.996L33.2773 626.33ZM19.0709 616.996C18.428 616.525 17.9995 616.011 17.7852 616.075C17.5723 616.162 17.3801 616.292 17.2213 616.458C17.0625 616.625 16.9407 616.822 16.8638 617.039C16.8638 617.338 17.1638 617.788 17.3352 618.152L19.0709 616.996Z" fill="black"/>
<path d="M154.278 339.895C148.75 344.669 143.393 349.679 137.629 354.132C135.488 355.821 133.017 357.044 130.375 357.723C127.733 358.401 124.978 358.52 122.287 358.071C121.644 349.615 124.43 342.378 127.43 335.121C133.28 320.519 141.893 307.395 149.372 293.693C154.771 283.781 161.307 274.425 167.285 264.855C168.297 263.05 169.213 261.191 170.028 259.289L169.149 258.496C167.826 259.012 166.531 259.598 165.271 260.252C159.357 263.656 153.293 266.846 147.679 270.721C143.738 273.212 140.283 276.397 137.479 280.12C132.958 286.8 126.508 291.189 120.552 296.177C119.887 296.734 118.559 296.477 117.552 296.584C117.83 295.599 117.787 294.271 118.43 293.672C123.659 288.769 128.844 283.781 134.372 279.221C141.401 273.44 148.514 267.702 155.993 262.543C163.471 257.383 171.763 252.695 179.563 247.835C182.841 245.844 186.12 243.852 189.441 241.926C190.984 241.026 192.634 240.277 194.412 239.378C196.083 241.947 194.969 243.831 193.726 245.587C190.448 250.211 187.063 254.75 183.741 259.353C178.684 266.397 173.22 273.183 168.742 280.548C162.314 290.889 156.7 301.658 150.7 312.234C149.05 315.124 147.143 317.886 145.493 320.798C143.173 324.889 142.241 329.621 142.836 334.286C143.35 338.76 145.3 340.323 149.886 340.237C151.364 340.237 152.843 340.109 154.321 340.045L154.278 339.895Z" fill="black"/>
<path d="M76.6892 429.921C77.1276 431.307 77.0824 432.801 76.5608 434.159C76.0392 435.516 75.0722 436.656 73.8179 437.393C70.6501 439.562 68.3501 442.778 67.3231 446.476C66.2961 450.173 66.608 454.113 68.2039 457.603C68.7981 458.491 69.0495 459.565 68.9116 460.624C68.7737 461.683 68.2557 462.656 67.454 463.363C65.3288 465.465 63.0669 467.425 60.6829 469.229C57.6402 471.541 54.4475 473.66 51.2334 475.651C49.6988 476.522 48.118 477.308 46.4979 478.007C45.3837 473.575 46.6265 469.914 47.0336 466.274C47.4407 462.635 48.3407 459.102 48.8763 455.57C49.4977 451.288 48.1692 450.132 43.8837 450.967C41.599 451.607 39.2477 451.98 36.877 452.08C38.334 450.902 39.7054 449.596 41.1624 448.547C47.6978 444.008 54.0189 439.491 62.1614 437.479C67.1754 436.258 71.5038 432.726 76.6892 429.921Z" fill="black"/>
<path d="M701.472 293.415C702.56 292.247 703.758 291.186 705.05 290.247C711.664 286.093 718.335 282.011 725.063 278C726.342 277.221 727.708 276.595 729.135 276.138C734.384 274.511 737.577 275.817 739.613 280.826C740.795 284.043 741.74 287.342 742.441 290.696C742.457 291.687 742.205 292.663 741.712 293.522C740.842 295.307 740.125 297.162 739.57 299.067C738.563 303.97 734.963 305.875 730.827 307.353C729.156 307.952 727.549 308.616 725.449 309.494C724.87 307.353 724.206 305.212 723.649 303.071C722.856 299.838 722.363 296.52 721.356 293.351C719.685 288.148 716.107 286.778 711.243 289.369C708.757 290.718 706.443 292.323 704.022 293.801C703.483 294.073 702.925 294.302 702.35 294.486L701.472 293.415Z" fill="black"/>
<path d="M74.1184 352.698L96.4244 337.005C96.1672 339.381 96.4244 340.794 95.8673 341.65C93.7408 344.991 91.4153 348.201 88.9033 351.263C82.8179 358.457 76.4968 365.436 70.3686 372.672C69.34 373.85 68.5472 374.557 66.4688 373.272C67.3687 371.131 68.1829 368.99 69.3186 366.849C70.6374 364 72.3151 361.331 74.3112 358.906C76.2611 356.658 75.8111 355.074 74.1184 352.698Z" fill="black"/>
<path d="M418.736 686.17C421.106 689.322 422.323 693.191 422.186 697.131C422.336 702.312 421.715 707.836 424.457 712.653C425.807 715.072 424.757 716.635 422.765 717.77C421.308 713.252 419.808 708.756 418.479 704.218C417.922 702.355 417.643 700.428 417.236 698.523C417.236 698.351 417.236 698.073 417.236 698.03C422.229 694.755 417.301 690.323 418.736 686.17Z" fill="black"/>
<path d="M419.979 661.185C420.236 668.635 420.514 676.171 420.728 683.515C420.728 683.75 419.957 683.986 418.886 684.607C417.99 677.841 417.496 671.028 417.407 664.204C417.407 663.09 418.307 661.934 418.779 660.799L419.979 661.185Z" fill="black"/>
<path d="M464.827 677.841C467.805 681.053 470.826 684.264 473.74 687.518C474.726 688.632 476.633 689.402 475.755 691.522H475.883C473.933 689.766 471.919 688.054 469.991 686.255C468.448 684.821 467.012 683.258 465.491 681.802C463.97 680.346 463.648 679.447 464.848 677.927L464.827 677.841Z" fill="black"/>
<path d="M189.826 708.007C190.04 703.34 190.255 698.801 190.49 693.706C192.89 695.525 191.348 697.238 191.369 698.758C191.39 700.278 191.54 702.055 191.54 703.725C191.54 705.395 193.919 707.279 189.826 708.007Z" fill="black"/>
<path d="M66.426 375.242C67.176 379.374 67.176 379.374 62.2691 380.787C61.1548 377.34 61.1548 377.34 66.426 375.242Z" fill="black"/>
<path d="M359.468 618.302L362.725 617.103C360.99 621.792 363.647 626.673 359.254 630.527C359.747 627.123 360.282 624.104 360.54 621.128C360.413 620.1 360.078 619.109 359.554 618.216L359.468 618.302Z" fill="black"/>
<path d="M464.848 677.841C463.169 677.435 461.549 676.817 460.027 676C458.555 674.726 457.233 673.289 456.084 671.718C456.084 671.718 456.084 671.418 456.255 670.99C458.227 670.476 458.741 672.532 459.855 673.367C461.612 674.673 463.155 676.321 464.805 677.82L464.848 677.841Z" fill="black"/>
<path d="M811.502 638.791C809.359 636.457 811.137 635.494 811.93 634.166C812.628 632.637 813.661 631.283 814.951 630.205C813.816 633.074 812.659 635.858 811.502 638.791Z" fill="black"/>
<path d="M441.406 787.864C442.649 791.268 443.549 793.751 444.47 796.235C441.706 794.522 441.706 794.522 441.406 787.864Z" fill="black"/>
<path d="M498.233 710.084L505.175 716.078L504.639 716.678L497.568 710.833L498.233 710.084Z" fill="black"/>
<path d="M425.957 735.047C425.829 732.606 425.764 731.193 425.7 729.738C427.307 731.45 427.307 731.45 425.957 735.047Z" fill="black"/>
<path d="M433.243 787.029L435.386 793.302C433.243 791.568 432.064 789.555 433.243 786.879V787.029Z" fill="black"/>
<path d="M487.133 698.844L489.275 702.462L488.397 703.211L485.611 699.872L487.133 698.844Z" fill="black"/>
<path d="M446.635 799.532L448.114 802.508L447.364 802.915L445.692 799.939L446.635 799.532Z" fill="black"/>
<path d="M475.69 691.522C478.433 691.929 478.433 691.928 478.969 694.904L475.905 691.522H475.69Z" fill="black"/>
<path d="M419.4 657.909L419.636 653.82H420.407L420.707 658.102L419.4 657.909Z" fill="black"/>
<path d="M55.9473 504.34L58.24 503.12L58.5614 503.762L56.2258 504.897L55.9473 504.34Z" fill="black"/>
<path d="M465.341 667.693L467.141 668.935L466.884 669.342L465.041 668.143L465.341 667.693Z" fill="black"/>
<path d="M481.54 695.418L482.569 696.917L481.926 697.367L480.876 695.868L481.54 695.418Z" fill="black"/>
<path d="M268.594 589.892L266.665 573.428L267.972 573.278C269.322 578.695 268.422 584.347 268.594 589.892Z" fill="black"/>
<path d="M266.923 545.639L267.608 548.893L266.601 549.086L266.087 545.789L266.923 545.639Z" fill="black"/>
<path d="M663.416 620.871L663.566 616.953C666.18 618.366 665.43 619.672 663.416 620.871Z" fill="black"/>
<path d="M366.817 554.652L367.246 549.878H367.717L366.817 554.609V554.652Z" fill="black"/>
</g>
<defs>
<clipPath id="clip0_403_1489">
<rect width="840" height="851" fill="white"/>
</clipPath>
</defs>
</svg>
