<svg width="521" height="128" viewBox="0 0 521 128" fill="none" xmlns="http://www.w3.org/2000/svg">
<path d="M520.99 110.501C510.372 115.295 499.14 118.492 487.639 119.992C475.891 121.386 474.496 111.163 475.677 110.532C488.526 104.017 500.016 86.3968 497.893 77.8262C494.259 63.1823 468.58 77.946 463.912 97.4144C462.732 102.259 462.466 107.293 463.128 112.241C457.757 114.909 452.201 116.366 449.172 115.886C445.612 115.319 443.482 111.264 442.558 107.688C440.313 98.9911 443.696 85.9365 448.934 72.7999C449.038 72.535 449.142 72.2764 449.252 72.0115C455.676 69.6466 478.981 51.5656 485.314 43.386C505.302 17.529 492.117 7.50789 490.239 6.77633C483.246 4.0582 471.535 4.7393 451.779 43.6446C449.099 48.9295 445.128 58.8812 442.149 66.3167C437.462 68.751 420.857 77.5865 413.092 84.5364C406.185 90.7168 401.339 97.6478 398.873 104.257C395.547 106.543 391.972 108.418 388.221 109.845C392.278 101.905 393.679 92.6151 389.102 84.9274C380.371 70.2646 362.94 80.6831 356.779 93.4728C354.019 99.1992 352.349 104.043 351.511 108.117C342.193 115.634 327.698 124.798 325.202 110.816C323.452 101.047 329.258 90.9439 331.712 82.0264C331.727 81.9679 331.73 81.9066 331.721 81.8468C331.711 81.7869 331.69 81.7299 331.657 81.6795C328.286 76.6343 307.795 102.586 302.019 105.474C301.952 105.507 301.877 105.519 301.803 105.51C301.73 105.501 301.66 105.471 301.602 105.423C301.544 105.375 301.5 105.311 301.476 105.239C301.451 105.167 301.446 105.089 301.463 105.014C302.876 98.8208 308.083 76.7226 296.892 82.3922C280.532 90.6727 271.452 104.465 281.541 80.4245C281.787 79.8396 281.834 79.1863 281.675 78.5702C281.516 77.9542 281.16 77.4115 280.665 77.03C280.169 76.6484 279.564 76.4504 278.945 76.4678C278.327 76.4853 277.733 76.7172 277.258 77.1262C272.052 81.6984 267.61 93.1953 265.823 97.5027C265.799 97.5583 265.764 97.6078 265.719 97.6478C265.669 97.6938 265.631 97.7525 265.609 97.818L263.106 104.888C261.921 105.964 260.661 106.95 259.338 107.839H259.307C233.157 130.436 250.441 95.3459 246.703 83.9436C246.683 83.8837 246.647 83.8307 246.6 83.7906C246.552 83.7505 246.495 83.7248 246.434 83.7165C236.271 82.3228 222.884 105.909 216.974 113.54C216.943 113.583 216.902 113.618 216.855 113.642C216.808 113.667 216.757 113.679 216.705 113.679C216.652 113.679 216.601 113.667 216.554 113.642C216.507 113.618 216.467 113.583 216.435 113.54C214.068 109.92 216.656 90.597 216.527 89.6952V89.6573C216.778 74.2377 197.738 93.6809 191.344 98.3856C191.284 98.4307 191.211 98.4536 191.137 98.4507C191.063 98.4479 190.992 98.4194 190.935 98.3699C190.879 98.3204 190.84 98.2527 190.826 98.1778C190.811 98.1028 190.821 98.025 190.855 97.9568C196.33 86.4284 197.407 86.2455 200.907 79.3461C205.838 69.697 192.763 75.4045 189.796 77.6685C189.75 77.7066 189.714 77.7566 189.692 77.8136C187.508 83.3192 182.919 93.4917 179.903 100.063C177.773 101.602 171.111 106.13 163.713 108.218C165.56 105.533 167.156 102.674 168.48 99.6785C170.927 94.1918 172.273 77.9776 161.492 76.6532C149.323 75.1585 139.252 82.3291 132.736 91.7133C129.616 94.6837 120.799 102.844 113.647 107.36C97.9041 117.305 81.0296 118.901 64.7976 115.968C37.3016 110.992 14.7737 91.1898 22.3544 65.2761C26.0146 66.216 29.7729 66.6883 33.5449 66.6825C42.1106 66.6825 50.5295 64.2923 56.4827 59.5561C56.9629 59.101 57.3445 58.5465 57.6024 57.929C57.8104 57.5253 58.0674 57.0271 58.41 56.4469L61.6589 50.8908L56.1523 54C46.6382 59.3542 34.6095 62.2364 24.453 59.6759C26.9371 54.1198 30.8039 48.324 36.2676 42.3896C44.0012 33.964 55.4671 26.2195 68.2116 20.5057C85.2697 30.344 105.216 48.652 111.726 61.6877C112.062 62.9049 112.827 66.6194 112.992 67.0293C113.671 68.7573 148.479 47.2519 152.872 31.4287C157.014 16.52 148.203 6.46731 133.495 2.80319C109.928 -2.83891 85.1931 0.090961 63.4821 11.0963L63.2252 10.9639C57.9022 8.3719 50.0829 6.95292 41.768 7.05382C32.6822 7.16734 23.9207 9.11608 17.0926 12.5405C8.32497 16.9552 2.70218 23.7095 0.829953 32.1351C-1.83766 44.1554 1.97409 54.2585 11.5616 60.584C12.5072 61.2054 13.4834 61.7758 14.4862 62.2931C9.04694 80.4561 16.2483 98.5118 25.23 107.07C59.5236 139.864 104.396 123.202 125.137 109.63C124.28 114.505 124.574 118.914 126.226 121.979C130.631 130.177 146.741 127.118 158.917 114.177C165.206 113.622 171.361 110.961 175.95 108.438C173.748 113.105 168.951 123.688 168.645 124.571C167.929 126.639 171.802 126.349 174.323 125.832H174.396C181.181 122.805 203.391 82.3165 204.535 103.223C205.612 110.337 202.088 117.867 204.45 124.482C204.467 124.52 204.487 124.556 204.511 124.589C209.277 130.398 218.712 119.178 221.501 115.13C224.291 111.081 232.105 97.1558 234.075 99.9118C234.111 99.968 234.13 100.034 234.13 100.101C234.179 108.3 230.765 117.274 234.424 124.924C234.45 124.976 234.488 125.021 234.534 125.056C241.6 130.19 252.332 116.517 261.026 111.522L257.79 122.496C257.637 123.002 257.601 123.539 257.686 124.062C257.77 124.586 257.972 125.081 258.275 125.51C258.578 125.939 258.974 126.289 259.431 126.532C259.889 126.775 260.395 126.905 260.91 126.91H262.458C262.75 126.914 263.036 126.83 263.284 126.67C263.531 126.51 263.729 126.281 263.853 126.008C265.272 122.855 269.971 112.418 272.131 106.363C274.211 100.587 280.489 97.6478 285.414 94.5954C289.942 91.5556 293.301 92.0727 293.753 96.8342C293.75 96.8677 293.75 96.9016 293.753 96.9351C295.13 100.719 283.53 131.527 291.049 125.416C297.987 119.305 314.574 97.5973 315.89 99.4199C315.922 99.4681 315.944 99.5227 315.955 99.5803C315.965 99.6379 315.964 99.6972 315.951 99.7542C313.057 111.352 309.221 126.242 324.101 127.718C331.773 128.493 343.349 120.181 350.856 114.146C350.905 128.468 364.317 129.313 369.915 127.043C375.281 124.713 380.06 121.151 383.889 116.631C384.012 116.479 384.128 116.328 384.244 116.17C388.762 115.194 393.109 113.514 397.136 111.188C396.64 115.527 397.338 119.525 399.35 122.843C405.873 133.564 423.751 114.013 430.946 105.222C430.609 112.575 432.169 132.34 460.479 118.737C461.862 118.077 463.124 117.459 464.266 116.883C464.688 118.076 465.223 119.223 465.863 120.307C473.995 132.92 507.866 119.746 519.662 112.834C520.188 112.544 521.106 110.324 520.99 110.501ZM486.727 12.3261C497.52 14.7731 491.824 28.3574 481.484 40.4661C472.141 51.4143 458.846 61.0129 453.712 62.7346C453.498 62.8269 453.293 62.941 453.1 63.0751C462.156 43.3671 474.802 9.62059 486.727 12.3261ZM131.408 15.0569C141.926 19.9192 146.857 36.6695 128.594 51.1683C124.828 54.1853 120.785 56.8151 116.522 59.02C114.21 54.6937 110.734 50.0079 106.158 45.0446C100.631 39.1706 94.7011 33.714 88.4145 28.7169C83.3546 24.6429 78.3559 20.9661 74.1526 17.9957C93.8905 10.3774 115.776 7.82953 131.39 15.0569H131.408ZM13.7764 18.5948C12.7298 19.3768 11.7268 20.219 10.7723 21.1175C11.7146 20.2044 12.7185 19.3614 13.7764 18.5948ZM10.4113 50.4115C3.63217 41.3174 5.79807 33.655 8.8022 28.8304C12.3019 23.2113 18.9281 18.3867 26.986 15.5866C35.5694 12.6367 44.7699 12.1505 53.601 14.1802C54.4942 14.3884 55.4365 14.6532 56.3726 14.9686C48.1951 19.8854 40.586 25.7439 33.6918 32.4315C28.5584 37.3695 19.2279 51.3512 16.7255 56.3397C14.2951 54.767 12.1568 52.7594 10.4113 50.4115ZM138.5 123.524C133.495 123.959 133.654 115.231 138.726 104.175C140.292 107.89 143.621 110.803 148.638 112.834C149.455 113.164 150.293 113.438 151.146 113.654C147.206 119.153 142.66 123.158 138.5 123.524ZM154.089 109.126C152.832 108.961 151.6 108.639 150.418 108.167C146.466 106.565 143.982 104.421 143.039 101.797C141.901 98.6442 143.345 95.5666 143.462 95.3143L143.407 95.2828C147.078 88.415 153.869 76.2495 159.4 81.2633C163.952 85.0977 160.367 98.4361 154.089 109.126ZM374.84 119.721C362.139 132.334 359.973 122.079 362.481 109.391C364.317 111.787 367.088 113.742 370.753 115.224C372.879 116.078 375.125 116.574 377.404 116.694C376.631 117.773 375.773 118.785 374.84 119.721ZM380.347 111.667C377.691 111.906 375.016 111.526 372.521 110.557C368.569 108.955 366.085 106.811 365.143 104.188C364.772 103.135 364.634 102.01 364.739 100.896C366.96 94.2674 370.092 88.1879 373.305 85.4887C386.043 74.8621 387.609 96.6324 380.359 111.667H380.347ZM438.257 75.9279C438.257 75.9279 437.976 77.1514 437.517 79.0181C436.764 82.0957 435.547 86.9266 434.366 90.9502C432.163 96.9604 428.921 101.949 427.201 103.885C422.643 109.019 412.86 121.089 407.28 113.578C403.823 108.918 404.759 102.397 407.476 98.846C418.36 84.6247 429.612 78.9677 438.563 75.1648L438.257 75.9279ZM474.356 105.134C474.356 105.052 474.356 104.97 474.356 104.888C473.046 92.7728 476.485 84.2526 482.151 80.3741C497.869 69.6151 496.639 93.6683 474.417 105.115L474.356 105.134Z" fill="white"/>
</svg>
