<svg width="637" height="931" viewBox="0 0 637 931" fill="none" xmlns="http://www.w3.org/2000/svg">
<path d="M-330.116 377.469C-330.116 376.774 -330.69 375.838 -330.418 375.476C-320.734 362.154 -312.78 347.658 -306.75 332.336C-301.671 320.26 -296.805 307.973 -292.059 295.716C-291.165 292.847 -289.348 290.353 -286.89 288.621C-283.474 286.357 -280.844 283.006 -277.489 280.561C-275.896 279.616 -274.043 279.204 -272.199 279.383C-270.067 279.625 -267.922 279.048 -266.199 277.77C-264.476 276.492 -263.304 274.609 -262.919 272.5C-261.931 269.845 -261.143 267.121 -260.561 264.349C-259.255 254.438 -254.402 245.333 -246.898 238.718C-238.454 231.271 -229.94 223.905 -221.355 216.619C-209.869 206.898 -196.145 201.223 -182.452 195.487C-179.641 194.309 -176.799 193.223 -173.958 192.106C-173.258 191.946 -172.596 191.649 -172.012 191.232C-171.427 190.816 -170.931 190.288 -170.551 189.679C-170.172 189.07 -169.917 188.392 -169.801 187.684C-169.686 186.976 -169.711 186.252 -169.877 185.554C-170.904 180.284 -172.505 175.141 -174.653 170.218C-177.676 164.361 -182.24 163.848 -187.409 167.984C-192.578 172.12 -197.294 175.954 -201.828 180.392C-206.362 184.83 -206.362 187.004 -201.828 192.468C-204.896 198.48 -209.797 203.364 -215.824 206.415C-218.181 207.744 -219.904 206.687 -221.053 204.544C-221.763 203.036 -222.043 201.361 -221.862 199.705C-221.68 198.048 -221.045 196.474 -220.025 195.155C-212.287 182.763 -201.682 172.41 -189.102 164.965C-187.893 164.211 -186.079 163.848 -185.505 162.822C-181.389 157.592 -176.055 153.447 -169.968 150.746C-166.733 149.055 -163.287 147.727 -158.451 145.765C-156.989 142.822 -155.698 139.798 -154.582 136.708C-150.622 124.179 -141.825 114.821 -133.845 105.009C-128.223 98.0956 -121.391 92.1483 -115.708 85.2953C-113.189 82.3307 -110.009 79.9972 -106.424 78.482C-102.838 76.9669 -98.9472 76.3122 -95.0626 76.5705C-89.1802 76.4839 -83.2995 76.837 -77.4698 77.6272C-75.7473 77.9594 -73.9689 77.8574 -72.2957 77.3302C-70.6226 76.8031 -69.1075 75.8675 -67.8875 74.6082C-65.1973 72.1931 -62.114 70.1704 -59.061 67.8458C-56.2195 70.8647 -57.5193 73.5818 -57.7612 75.9668C-57.9159 76.5964 -57.9396 77.2509 -57.831 77.8901C-57.7223 78.5292 -57.4835 79.1392 -57.1293 79.6825C-56.7752 80.2258 -56.3132 80.6908 -55.772 81.0486C-55.2307 81.4065 -54.6218 81.6497 -53.9827 81.7631C-48.33 83.2726 -42.6774 84.7821 -36.9643 86.201C-31.7046 78.8951 -35.0297 70.7138 -33.3066 63.0457L-28.712 63.9514C-28.712 59.5135 -24.2987 58.5173 -22.6664 55.7398C-20.8972 52.4523 -18.4565 49.5725 -15.5023 47.2868C-12.4795 45.1433 -9.45673 43.0301 -6.0712 40.6753C-3.19772 44.7105 -1.96603 49.685 -2.62518 54.5926C-3.25998 61.1135 -4.62024 67.6043 -5.82938 74.0648C-6.79666 79.3782 -8.21738 84.6311 -9.12421 89.9445C-9.87991 94.4427 -9.12421 95.9824 -5.07367 96.7371C0.231506 97.7674 5.60742 98.3931 11.0076 98.6088C16.0859 98.79 19.6226 95.2578 23.4314 92.5709C28.1167 89.1595 29.1445 89.552 30.3234 95.0163C21.9503 102.956 13.8793 110.715 5.68753 118.353C4.07925 119.704 2.33716 120.887 0.488281 121.885C-2.08109 123.515 -4.65045 125.206 -7.37097 126.625C-9.418 127.562 -11.0859 129.165 -12.1018 131.173C-13.1176 133.18 -13.4214 135.472 -12.9632 137.674C-12.3284 143.712 -12.2075 149.75 -11.5122 155.788C-10.8157 161.987 -8.79248 167.964 -5.57968 173.313C-2.36691 178.663 1.96021 183.26 7.10825 186.792C11.6934 190.477 17.3949 192.5 23.2803 192.528C26.3031 192.528 27.7842 191.381 27.8145 188.513C28.1773 181.937 28.1773 175.345 27.8145 168.769C26.9139 161.766 25.5609 154.828 23.7639 147.999C23.5398 147.037 23.1282 146.129 22.5524 145.326C21.9767 144.523 21.2482 143.841 20.4086 143.319C18.3531 142.353 16.5999 143.802 15.3605 145.976C14.5443 147.425 12.8516 148.331 10.7659 150.172C13.0934 140.029 39.8452 110.141 49.3973 106.669C51.0406 109.41 52.369 112.326 53.3572 115.364C54.7244 121.313 55.5239 127.378 55.7452 133.478C55.987 147.848 55.5638 162.218 55.4429 176.558C55.3713 178.443 55.4521 180.331 55.6848 182.203C56.8939 191.26 63.8161 194.762 71.5545 190.022C72.5728 189.294 73.4289 188.362 74.0688 187.287C74.7087 186.211 75.1186 185.015 75.2725 183.773C76.2096 174.415 76.663 164.995 77.056 155.576C77.2978 149.72 77.056 143.833 77.056 137.976C77.1084 136.355 76.8625 134.738 76.3304 133.206C70.2849 118.111 73.0356 103.59 78.8998 89.2803C84.6522 74.0108 94.103 60.4025 106.407 49.6718C108.735 47.7396 110.337 45.2641 108.282 42.2753C107.994 41.6866 107.582 41.1672 107.074 40.753C106.566 40.3387 105.974 40.0395 105.339 39.8759C104.704 39.7123 104.041 39.6883 103.395 39.8054C102.75 39.9226 102.138 40.1782 101.601 40.5545C100.551 41.0924 99.6243 41.843 98.8806 42.7584C94.9207 48.7963 88.9356 50.0944 82.3157 50.185C74.5471 50.185 66.7784 50.185 59.04 50.6076C52.2388 51.0001 45.4979 51.9963 38.7268 52.7813C38.0618 52.7813 37.0643 53.053 36.8224 53.536C34.4647 57.7625 30.142 59.5739 26.7263 62.5928C24.7917 64.2231 23.7034 66.2458 20.6807 66.2458C19.5925 66.2458 18.4437 67.4533 17.4462 68.2685C16.4487 69.0836 15.7837 70.593 15.1489 70.5025C10.7054 69.9591 10.7961 73.7931 9.49625 76.5404C8.68616 76.3752 7.92078 76.039 7.25131 75.5544C6.58188 75.0698 6.02383 74.4479 5.61456 73.7305C5.20526 73.013 4.95422 72.2165 4.87817 71.3942C4.80212 70.572 4.90286 69.743 5.17365 68.9628C6.18396 64.4119 8.03976 60.0906 10.6449 56.2229C16.9626 48.0415 24.1266 40.4941 30.8977 32.6449C33.981 29.3525 38.0377 27.131 42.475 26.3051C56.8893 22.1408 71.7872 19.8775 86.7894 19.5729C88.0114 19.3772 89.1948 18.99 90.2958 18.4257C90.2301 16.9988 90.0174 15.5825 89.6611 14.1992C82.2854 -4.24658 74.8191 -22.632 66.9598 -42.074C63.5138 -36.4587 60.6119 -31.9605 57.8914 -27.3113C46.2804 -7.57703 30.7095 9.54659 12.1563 22.9843C1.66122 30.1789 -9.46841 36.4035 -21.0945 41.581C-32.2789 47.0453 -43.947 51.5737 -55.4941 56.2229C-60.8445 58.3965 -66.4668 59.9362 -71.9381 61.7475L-72.6031 60.2984C-69.1873 58.4267 -65.8321 56.5248 -62.4163 54.7134C-58.2146 52.4492 -54.8593 48.0717 -49.2066 49.5208C-34.8483 44.5697 -21.155 38.6828 -11.3611 26.1844C-4.59003 17.4898 3.48087 9.67074 9.5567 0.523338C18.5723 -12.1661 25.5295 -26.1951 30.1722 -41.0475C32.2278 -48.2628 34.4949 -55.4479 36.8224 -62.6028C40.1526 -71.9475 45.0712 -80.6488 51.3621 -88.3242C53.6644 -91.2494 56.8413 -93.3647 60.4305 -94.3621C65.1844 -95.6848 69.7098 -97.7206 73.8518 -100.4C79.8974 -103.842 84.7641 -101.849 87.8171 -95.2979C89.4797 -91.7054 91.9886 -88.5053 93.8627 -85.0637C101.42 -72.1426 105.501 -57.8932 109.763 -43.6136C115.727 -23.6825 125.363 -5.03825 138.177 11.3614C142.379 16.7653 148.787 20.4182 154.349 24.7353C155.256 25.4296 157.039 25.1881 158.43 25.1277C163.327 24.8862 168.194 24.5239 173.091 24.2221C173.685 25.3334 173.845 26.6261 173.537 27.8483C173.23 29.0705 172.478 30.1347 171.428 30.8335C164.022 37.2639 156.465 43.5131 148.938 49.8227C148.206 50.4049 147.377 50.8545 146.49 51.151C136.864 53.9884 126.701 54.5057 116.836 52.6605C113.123 57.5959 109.692 62.7362 106.559 68.0571C102.732 75.029 101.237 83.0402 102.292 90.9209C103.346 98.8016 106.896 106.139 112.423 111.862C119.627 120.307 128.51 127.165 138.51 131.998C142.418 134.111 146.878 134.985 151.296 134.504C151.719 133.961 152.263 133.538 152.233 133.236C149.815 119.107 152.233 104.677 149.785 90.669C147.88 79.7404 150.389 71.7704 159.367 64.9778C165.252 59.9161 170.825 54.5023 176.053 48.7661C177.461 47.6559 178.945 46.647 180.496 45.7471C183.247 55.77 180.496 65.974 184.396 75.9366C186.512 74.2459 188.144 72.9176 189.686 71.71C198.754 64.1023 207.46 56.3738 216.468 48.8264C218.515 47.2343 220.748 45.8962 223.118 44.8414C229.526 41.8225 234.333 44.8414 233.547 51.785C232.714 56.9022 231.491 61.9484 229.889 66.8797C229.043 69.8987 227.864 72.9176 226.292 77.7479C230.645 76.1177 233.698 75.2422 236.509 73.8837C244.329 69.844 253.091 67.9761 261.881 68.4753C270.671 68.9745 279.165 71.8225 286.476 76.7215C301.59 86.3217 311.444 103.198 307.636 122.549C307.31 124.649 306.815 126.718 306.154 128.738C305.819 129.418 305.627 130.159 305.589 130.916C305.551 131.673 305.669 132.43 305.936 133.14C306.202 133.85 306.611 134.498 307.137 135.044C307.663 135.59 308.296 136.023 308.996 136.315C315.797 140.542 322.296 145.191 328.977 149.599C339.195 156.784 347.997 165.79 354.942 176.165C362.862 187.275 370.994 198.234 379.125 209.374C380.757 211.638 382.148 214.506 385.684 213.661C386.025 217.169 387.17 220.552 389.031 223.546C390.892 226.541 393.419 229.067 396.415 230.929C401.884 234.984 408.179 237.787 414.854 239.141C416.819 243.126 413.645 245.179 411.56 247.473C410.844 248.391 409.86 249.064 408.745 249.399C407.629 249.734 406.437 249.715 405.333 249.345C402.611 249.1 399.87 249.191 397.171 249.616C397.485 252.923 397.322 256.258 396.687 259.519C395.144 262.493 393.19 265.237 390.884 267.67C393.151 268.726 394.541 269.511 396.022 270.055C404.698 273.074 407.872 283.398 407.69 290.131C407.475 291.108 407.064 292.031 406.482 292.846C405.9 293.66 405.16 294.349 404.305 294.87C396.264 300.244 388.072 305.346 379.941 310.539C378.768 311.311 377.523 311.968 376.223 312.501C370.57 314.554 368.031 312.682 368.454 306.795C369.18 296.35 367.457 294.116 357.24 292.365C355.393 291.969 353.492 291.888 351.617 292.123C345.572 293.27 339.526 294.448 333.722 296.048C326.256 298.071 324.654 301.874 326.044 309.603C327.435 316.848 324.11 323.339 321.601 329.89C320.001 332.987 318.909 336.32 318.366 339.762C318.034 357.634 320.029 375.114 330.669 390.299C333.386 394.12 336.633 397.535 340.312 400.443C342.597 402.355 345.359 403.611 348.302 404.079C351.246 404.547 354.262 404.209 357.028 403.1C366.251 400.191 374.851 395.595 382.39 389.545C383.932 388.471 385.112 386.956 385.776 385.199C386.44 383.442 386.555 381.526 386.108 379.703C383.931 370.344 381.694 360.955 380.062 351.476C379.367 347.581 376.132 346.555 373.684 344.2C373.835 343.294 373.684 342.087 374.137 341.543C377.402 338.102 377.16 334.056 376.888 329.709C376.404 323.852 376.888 323.671 382.752 321.407C383.704 320.864 384.562 320.171 385.291 319.354C386.47 318.358 387.589 317.362 389.614 315.58L392.183 326.569C395.901 321.196 390.007 314.252 396.99 310.539C397.776 313.346 398.531 315.882 399.438 319.143C404.244 315.188 398.078 308.214 404.698 305.105C405.423 308.969 406.058 312.531 406.723 316.275C417.454 320.139 427.883 324.003 437.918 313.588L438.493 315.429L426.855 326.69L481.266 390.088L479.24 394.767L500.098 408.715C498.889 408.637 497.676 408.798 496.53 409.188C495.383 409.579 494.325 410.191 493.415 410.99C492.506 411.789 491.763 412.759 491.229 413.845C490.695 414.931 490.381 416.111 490.304 417.319C498.586 423.357 509.317 418.164 512.975 406.813C520.501 404.609 527.786 402.224 535.253 400.443C539.273 399.447 543.928 400.443 547.646 398.813C551.364 397.182 553.692 393.65 556.715 391.175C558.778 389.71 560.939 388.389 563.184 387.22C563.54 390.903 562.666 394.6 560.698 397.735C558.729 400.87 555.777 403.266 552.301 404.549C553.896 422.935 558.278 440.973 565.299 458.044C568.725 466.763 570.962 475.901 571.95 485.215C572.931 491.213 574.689 497.058 577.179 502.604C579.658 509.185 582.681 515.555 585.522 521.986C587.85 527.208 587.396 529.322 583.013 532.854C581.643 534.146 580.155 535.308 578.57 536.326C571.859 540.039 569.834 545.382 570.166 553.171C570.824 574.142 575.535 594.788 584.041 613.973C587.064 621.007 590.6 627.981 594.228 634.834C595.834 638.408 598.447 641.438 601.748 643.556C605.049 645.673 608.895 646.786 612.818 646.759C618.44 646.759 624.063 646.759 629.625 647C632.175 647.393 634.678 648.05 637.091 648.962C636.275 650.894 634.975 652.434 635.338 653.249C637.968 659.287 634.764 662.85 630.925 666.653C625.484 671.997 620.345 677.642 615.025 683.107C614.239 683.73 613.375 684.247 612.455 684.646C609.856 680.722 609.432 674.533 601.815 675.861C602.752 677.491 603.266 678.699 604.022 679.725C608.254 685.552 613.392 690.775 615.841 697.839C616.006 698.288 616.275 698.692 616.627 699.016C619.03 700.989 620.91 703.521 622.101 706.39C623.293 709.26 623.759 712.378 623.458 715.47C623.126 719.455 626.753 720.421 630.29 720.058C630.29 721.387 630.29 722.293 630.048 722.745C625.453 728.572 624.184 735.848 621.373 742.459C617.171 752.391 609.825 760.09 603.236 768.301C594.711 778.958 585.824 789.434 576.907 799.638C572.161 805.102 567.022 810.234 562.035 815.518C561.249 816.393 560.04 817.057 559.617 818.053C554.901 828.861 544.503 834.899 538.004 844.288C537.369 845.224 536.462 846.522 535.495 846.673C527.152 848.122 521.62 854.402 514.909 858.598C508.199 862.794 505.841 862.975 501.004 856.122C497.347 850.96 494.505 845.254 491.029 839.307C489.68 840.025 488.439 840.93 487.341 841.994C479.119 852.862 468.086 860.409 457.113 867.957C449.919 872.847 442.543 877.496 435.319 882.327C431.026 885.165 430.241 885.165 427.369 881.059C424.951 877.617 422.684 874.085 419.782 869.708C418.21 871.217 416.547 872.726 415.157 874.206C412.65 877.775 409.87 881.147 406.844 884.289C404.196 886.31 401.074 887.62 397.776 888.093C384.721 890.215 371.379 889.805 358.479 886.885C356.545 886.27 354.825 885.119 353.522 883.564C341.642 871.217 333.601 856.183 324.442 841.933C322.296 838.643 320.059 835.412 317.883 832.152L316.311 832.756C317.369 837.556 318.276 842.416 319.515 847.186C322.252 855.943 323.768 865.035 324.019 874.206C324.019 879.338 325.077 881.089 330.609 885.738C328.999 886.484 327.303 887.031 325.561 887.368C321.801 887.968 318.392 889.923 315.979 892.863C313.47 895.187 311.898 898.538 307.938 899.082C307.507 899.255 307.123 899.525 306.813 899.87C306.504 900.216 306.279 900.628 306.154 901.074C305.127 906.539 300.109 908.259 296.451 912.607C289.922 902.644 291.857 890.689 286.143 880.727C283.121 884.259 280.098 887.55 277.075 891.082C276.383 892 275.501 892.758 274.489 893.305C273.477 893.852 272.359 894.175 271.211 894.252C266.807 894.816 262.472 895.828 258.273 897.27C255.553 898.176 253.588 898.025 252.228 895.761C249.185 891.011 246.263 886.201 243.461 881.33C241.164 877.315 239.109 873.179 236.781 868.711C232.337 872.032 228.71 874.991 224.69 877.557C220.781 880.103 216.745 882.451 212.599 884.591C205.253 888.425 198.784 884.319 195.006 878.825C188.765 870.206 184.625 860.251 182.915 849.752C182.451 847.7 181.845 845.683 181.101 843.714C179.529 845.013 178.32 845.888 177.262 846.733C167.287 856.334 157.402 866.085 147.306 875.564C142.56 880.002 141.563 879.61 137.482 874.236C128.806 862.824 126.267 849.752 126.388 835.744C126.388 819.533 126.237 803.321 126.056 787.079C125.812 785.639 125.437 784.225 124.937 782.853C123.154 784.936 121.914 786.415 120.554 787.985C119.677 789.041 119.224 790.611 118.136 791.306C111.203 796.241 105.698 802.916 102.175 810.657C99.8479 815.004 95.5555 815.276 91.2027 816.423L101.178 801.178L100.06 800.151L79.2021 816.544L81.1065 820.136L74.8795 818.748C80.9252 827.805 88.8449 833.661 93.0164 842.386C74.5773 827.291 63.1813 806.43 48.1277 788.377L53.3874 790.853C46.6768 772.437 37.2456 756.648 32.7416 738.987L28.7817 747.712C30.0584 749.983 31.1892 752.332 32.1673 754.746C32.5124 756.267 32.5124 757.845 32.1673 759.365C31.7743 762.384 31.2604 765.162 30.6862 768.06C30.3234 769.871 29.8397 771.682 29.3561 773.494C29.0236 774.822 27.9656 776.332 28.2981 777.479C29.9908 783.517 27.6029 789.132 27.8145 794.928C28.0563 801.63 29.1445 808.332 29.8095 815.035C30.2337 818.036 30.476 821.061 30.535 824.091C30.2725 833.199 30.9921 842.308 32.6812 851.262C32.9933 852.882 33.0948 854.536 32.9835 856.183C32.374 862.438 33.955 868.712 37.4572 873.934C36.5806 879.972 35.7947 885.285 35.0692 890.538C34.9628 891.011 35.0383 891.507 35.2808 891.927C39.6337 897.059 37.4269 903.308 38.1222 909.044C39.1951 920.828 44.77 931.748 53.6897 939.536C57.4984 942.766 57.5891 945.574 54.7174 949.951C54.3997 950.579 53.981 951.15 53.4781 951.642C47.2511 955.929 48.9741 961.634 50.6366 967.31C51.4225 969.967 52.2992 972.593 53.1154 975.22C60.0678 976.337 64.4509 975.069 73.5798 969.182C74.3657 973.137 71.7056 975.371 69.8315 977.695C67.9573 980.02 65.2368 982.405 65.8716 986.239C65.8716 986.933 65.1763 988.382 64.6322 988.473C60.3398 989.107 60.1887 993.303 60.3398 995.477C60.6119 999.613 59.0703 1004.53 63.1813 1007.91L63.3325 1007.76C59.9469 1009.64 59.4028 1006.56 58.3751 1004.74C57.3473 1002.93 56.4404 1000.4 55.1708 997.469C51.6598 1002.82 50.1505 1009.23 50.9087 1015.58C51.876 1029.35 57.3775 1041.94 61.821 1054.83C62.2258 1055.66 62.7923 1056.41 63.4877 1057.02C64.1832 1057.63 64.9935 1058.1 65.8716 1058.39C69.8742 1059.73 73.9785 1060.74 78.1442 1061.41C82.769 1062.17 87.4847 1062.32 92.1398 1062.89C96.3112 1063.4 100.362 1061.92 104.836 1063.55C108.765 1065 113.662 1064.16 118.106 1063.92C123.472 1063.71 128.822 1063.19 134.127 1062.35C139.477 1061.44 140.172 1061.41 143.437 1066.78C131.346 1072.13 118.62 1083.21 116.655 1090.12C115.748 1089.7 114.176 1088.76 114.055 1088.94C108.644 1096.19 100.241 1095.62 92.8954 1095.86C78.114 1096.37 63.3022 1095.71 48.5207 1095.1C46.8609 1094.8 45.1498 1094.93 43.5585 1095.49C41.9671 1096.05 40.5512 1097.02 39.4523 1098.3C32.923 1089.46 22.313 1089.82 13.698 1085.95C4.73889 1082.39 -4.42667 1079.36 -13.7491 1076.9C-20.1574 1074.87 -20.2784 1074.91 -24.2987 1080.1C-27.9984 1085.41 -32.9502 1089.73 -38.7175 1092.69C-38.7175 1087.68 -38.7175 1083.21 -38.4757 1078.74C-38.2931 1076.7 -37.9494 1074.68 -37.4479 1072.7C-36.4504 1068.29 -38.4756 1065.73 -42.1332 1063.64C-49.6181 1059.54 -57.8314 1056.92 -66.3157 1055.95C-78.8906 1053.93 -91.5057 1052.38 -104.161 1051.3C-109.063 1050.88 -114.001 1051.29 -118.761 1052.53C-129.728 1055.27 -140.536 1058.61 -151.136 1062.53C-156.425 1065.06 -161.273 1068.42 -165.494 1072.49C-169.937 1076.23 -173.807 1080.67 -178.976 1085.86L-179.399 1078.2C-181.857 1077.79 -184.358 1077.72 -186.835 1077.98C-193.576 1079.49 -200.196 1081.52 -206.785 1083.3C-208.66 1080.28 -206.785 1078.74 -205.335 1077.5C-196.931 1070.71 -188.497 1063.98 -179.943 1057.43C-178.448 1056.34 -176.618 1055.82 -174.774 1055.95C-164.799 1057.3 -157.816 1051.66 -150.864 1046.04C-147.375 1043.24 -144.073 1040.22 -140.979 1036.99C-135.145 1030.95 -129.19 1024.91 -123.93 1018.36C-118.074 1011.35 -112.72 1003.93 -107.91 996.171C-97.7848 978.401 -90.0696 959.366 -84.9664 939.566C-80.3113 922.871 -76.7746 905.874 -70.8197 889.451C-66.4396 876.053 -62.7469 862.44 -59.7562 848.665C-56.7784 837.594 -53.0414 826.741 -48.5718 816.182C-46.335 810.597 -44.884 804.679 -43.0099 798.672L-42.4355 800.845C-39.4127 795.653 -36.662 791.064 -33.9717 786.445C-33.2253 784.695 -32.205 783.075 -30.9489 781.645C-28.2283 779.411 -24.5103 778.203 -22.3036 775.607C-20.097 773.011 -20.0063 768.452 -15.6535 767.154C-15.227 766.964 -14.8436 766.689 -14.5266 766.347C-14.2097 766.004 -13.9657 765.601 -13.8096 765.161C-10.7868 756.407 -9.12421 747.561 -12.3284 738.474C-12.6306 737.629 -13.0539 736.482 -13.7491 736.119C-18.7972 733.583 -18.102 728.995 -18.2229 724.587C-18.2229 722.172 -18.7065 719.757 -18.9786 717.13C-21.8673 717.766 -24.4958 719.259 -26.5189 721.415C-28.542 723.57 -29.865 726.286 -30.3141 729.206C-33.7299 742.882 -37.2968 756.376 -40.8033 770.173C-42.5262 777.479 -43.826 784.875 -46.0327 792.09C-48.953 802.075 -54.6812 811.013 -62.5372 817.842C-78.9208 832.725 -94.9719 848.032 -110.902 863.126C-116.097 867.519 -121.9 871.139 -128.132 873.874C-128.737 874.206 -129.734 874.598 -130.097 874.357C-135.568 870.553 -142.672 873.934 -148.476 869.043C-154.279 864.153 -160.718 866.538 -166.612 871.579C-173.263 877.134 -180.245 882.297 -187.228 887.459C-189.102 888.686 -191.241 889.451 -193.469 889.692C-195.697 889.934 -197.95 889.644 -200.045 888.848C-212.499 885.376 -219.088 876.772 -222.353 864.696C-224.378 857.209 -226.615 849.782 -228.792 842.326C-229.124 841.269 -229.577 840.273 -230.091 838.854C-231.313 839.17 -232.483 839.658 -233.568 840.303C-237.92 844.228 -242.273 848.182 -246.414 852.379C-250.556 856.575 -250.677 861.255 -251.039 866.175C-251.078 867.656 -251.432 869.111 -252.079 870.443C-252.725 871.776 -253.649 872.956 -254.788 873.904C-260.319 878.342 -265.186 883.746 -272.924 886.644C-272.501 878.855 -272.139 871.549 -271.685 863.096C-273.68 866.115 -275.101 868.44 -276.522 870.734C-276.824 870.462 -277.338 870.191 -277.338 869.949C-276.763 861.556 -276.854 861.738 -284.29 857.873C-293.903 852.922 -303.304 847.609 -312.825 842.537C-318.508 839.518 -320.745 839.971 -325.279 844.258C-330.516 849.626 -336.078 854.667 -341.935 859.353C-348.13 863.556 -354.638 867.28 -361.402 870.492C-370.47 875.142 -379.539 880.606 -389.151 883.414C-396.074 885.436 -403.631 886.432 -411.611 881.964C-424.308 875.046 -435.893 866.264 -445.98 855.911C-447.227 854.56 -448.368 853.117 -449.396 851.594C-451.588 848.053 -454.91 845.351 -458.827 843.926C-461.086 843.048 -463.077 841.599 -464.604 839.72C-466.132 837.841 -467.144 835.597 -467.54 833.209C-467.937 830.821 -467.704 828.371 -466.865 826.101C-466.027 823.83 -464.611 821.816 -462.757 820.257C-459.19 817.238 -456.046 813.555 -452.116 809.6C-454.474 808.997 -456.197 808.514 -457.95 808.151C-460.973 807.608 -464.933 808.151 -466.444 806.37C-468.56 803.955 -471.825 804.045 -473.397 801.962C-476.178 798.219 -478.294 793.962 -480.742 789.887C-482.435 787.109 -484.219 784.392 -486.244 781.222L-479.926 779.23C-476.571 771.743 -473.427 764.377 -469.951 757.131C-468.951 755.576 -467.593 754.282 -465.991 753.357C-464.264 752.187 -462.823 750.643 -461.777 748.84C-460.73 747.036 -460.104 745.02 -459.945 742.942C-458.525 731.078 -456.106 719.364 -454.172 707.56C-453.352 703.405 -452.817 699.199 -452.57 694.971C-452.594 693.468 -452.218 691.985 -451.479 690.675C-450.741 689.365 -449.667 688.274 -448.368 687.514C-442.322 683.197 -436.488 678.457 -430.231 673.506C-428.692 676.004 -427.77 678.833 -427.544 681.757C-427.318 684.682 -427.794 687.618 -428.931 690.322C-432.922 700.556 -434.796 711.454 -440.69 721.115C-441.294 722.647 -441.701 724.25 -441.899 725.885C-443.441 731.229 -443.985 736.783 -446.736 741.946C-451.27 750.399 -449.154 759.426 -446.524 767.969C-444.136 775.788 -431.41 781.283 -423.762 778.566C-419.138 776.935 -418.352 772.377 -417.717 768.935C-415.027 755.35 -412.759 741.765 -411.218 727.908C-410.402 720.541 -408.195 715.349 -401.303 711.605C-396.698 709.54 -392.633 706.44 -389.423 702.549C-387.035 699.228 -383.378 699.862 -378.964 703.213C-378.964 721.477 -379.418 739.44 -378.239 757.554C-377.695 766.007 -373.856 774.249 -371.377 782.581C-370.742 784.724 -368.354 787.321 -368.959 788.619C-370.408 791.794 -372.595 794.578 -375.337 796.74C-380.596 800.862 -386.065 804.711 -391.721 808.272C-395.347 810.386 -399.08 812.31 -402.905 814.038C-408.951 803.261 -410.916 791.457 -414.059 780.166C-424.004 782.369 -427.39 785.147 -435.491 797.676L-430.836 799.517L-436.579 809.087C-432.075 814.914 -427.239 820.318 -423.46 826.356C-416.477 837.405 -404.326 842.537 -395.741 851.805C-389.242 858.839 -379.478 858.809 -370.561 857.33C-363.634 856.125 -356.875 854.098 -350.429 851.292C-342.056 847.669 -334.166 842.96 -326.247 838.673C-325.143 837.914 -324.129 837.033 -323.224 836.046C-335.104 822.431 -351.457 819.925 -368.566 816.725C-365.12 812.257 -362.52 808.453 -359.498 805.132C-355.42 800.571 -351.004 796.322 -346.288 792.423C-343.705 790.38 -340.514 789.254 -337.219 789.222C-330.63 789.404 -323.194 788.136 -318.811 795.26C-318.508 795.743 -317.571 795.925 -316.906 796.106L-298.497 801.087C-290.124 791.094 -287.948 777.992 -284.532 765.373L-285.741 764.105C-287.735 764.891 -289.632 765.904 -291.394 767.124C-295.88 771.34 -301.799 773.702 -307.959 773.735C-311.185 774.261 -314.375 774.987 -317.511 775.909C-322.303 776.649 -327.205 776.146 -331.747 774.449C-336.289 772.752 -340.317 769.918 -343.447 766.218C-347.2 762.02 -350.541 757.47 -353.422 752.633C-354.588 749.891 -355.342 746.991 -355.659 744.029C-356.868 739.017 -358.077 734.036 -359.316 728.934C-363.82 711.092 -360.102 695.243 -346.802 682.322C-334.318 670.246 -321.168 658.744 -305.631 650.593C-300.696 648.514 -295.561 646.946 -290.306 645.913C-288.552 645.43 -286.708 645.279 -284.562 644.917C-284.535 643.655 -284.616 642.392 -284.804 641.143C-288.764 625.143 -288.069 608.992 -286.86 592.84C-286.195 584.417 -285.741 575.964 -285.318 567.481C-285.302 565.624 -285.705 563.788 -286.497 562.107C-291.243 570.923 -296.472 579.466 -296.623 589.278L-343.174 650.864L-348.646 650.079C-348.646 649.174 -349.008 648.328 -348.646 647.845C-344.642 642.164 -341.056 636.201 -337.915 630.003C-334.166 621.128 -330.025 612.192 -333.653 601.686C-336.913 592.142 -339.341 582.334 -340.907 572.372C-342.449 562.439 -342.449 552.296 -343.144 541.971C-344.359 541.627 -345.64 541.587 -346.874 541.856C-348.108 542.125 -349.256 542.693 -350.218 543.511C-355.387 546.771 -360.616 549.911 -366.057 552.567C-368.171 553.545 -370.512 553.931 -372.828 553.684C-377.453 553.292 -381.897 552.296 -386.642 551.632C-388.396 551.36 -390.179 551.33 -393.021 551.118C-389.998 556.703 -386.975 561.141 -384.647 565.881C-377.725 580.13 -375.821 595.436 -375.881 611.165C-375.881 620.765 -376.123 630.396 -376.063 640.026C-376.063 645.611 -375.639 651.196 -375.398 656.781C-375.156 662.366 -375.156 667.589 -379.781 671.876C-380.839 672.842 -381.141 674.654 -382.199 677.038C-375.398 675.106 -371.68 670.397 -367.085 667.167C-362.49 663.936 -358.168 659.77 -353.392 655.755C-352.745 657.217 -352.614 658.856 -353.02 660.402C-353.426 661.949 -354.346 663.312 -355.628 664.268C-364.304 671.725 -372.254 679.997 -380.718 687.756C-384.22 690.886 -387.926 693.78 -391.811 696.42C-394.834 698.594 -396.708 697.899 -398.401 694.488C-399.52 692.194 -400.729 689.929 -401.968 687.695C-403.82 684.199 -404.854 680.328 -404.991 676.374C-406.234 666.211 -406.679 655.965 -406.321 645.732C-410.976 634.049 -408.044 621.097 -412.366 609.505C-413.545 606.274 -414.845 603.074 -416.326 599.18C-429.476 609.776 -437.184 623.815 -448.005 635.407L-453.718 633.385C-448.129 624.315 -443.893 614.481 -441.144 604.191C-440.418 601.474 -439.481 598.818 -438.665 596.131C-436.73 589.791 -435.189 583.27 -432.77 577.111C-430.641 571.995 -428.219 567.006 -425.516 562.168C-421.707 555.103 -415.359 550.665 -409.102 546.107C-406.631 544.278 -404.306 542.259 -402.149 540.069C-400.94 538.892 -399.127 537.05 -399.489 535.842C-399.867 535.053 -400.429 534.367 -401.129 533.841C-401.829 533.316 -402.646 532.967 -403.51 532.824C-406.217 532.505 -408.824 531.61 -411.155 530.199C-413.486 528.787 -415.487 526.892 -417.022 524.642C-422.432 517.668 -428.538 510.997 -429.929 501.577C-430.685 496.294 -432.498 491.192 -433.738 485.97C-434.705 481.894 -436.76 480.747 -440.206 483.313C-446.585 488.204 -454.263 490.377 -461.366 493.909C-465.869 495.793 -470.148 498.173 -474.122 501.004C-482.616 507.887 -490.627 503.751 -495.282 494.151C-495.502 493.731 -495.631 493.269 -495.663 492.796C-495.694 492.323 -495.626 491.849 -495.463 491.404C-492.078 486.875 -494.708 481.592 -493.378 476.883C-492.603 473.935 -491.358 471.132 -489.69 468.58C-485.125 461.878 -480.228 455.418 -475.301 448.988C-474.001 447.267 -471.916 446.18 -470.465 444.55C-469.158 442.938 -467.956 441.244 -466.868 439.478C-465.911 440.724 -465.442 442.276 -465.547 443.843C-465.653 445.41 -466.327 446.884 -467.442 447.991C-468.288 449.048 -470.072 450.135 -469.981 451.01C-469.256 458.376 -471.462 465.894 -468.651 473.199C-467.965 475.07 -466.736 476.693 -465.12 477.86C-463.504 479.027 -461.576 479.685 -459.583 479.751C-456.327 479.762 -453.077 479.459 -449.879 478.845C-448.089 478.356 -446.232 478.152 -444.378 478.241C-436.005 480.384 -431.259 474.498 -428.569 466.799C-427.057 462.392 -426.181 457.742 -424.367 453.425C-419.621 442.316 -412.034 433.047 -404.658 423.628C-399.101 416.688 -391.428 411.748 -382.803 409.56C-385.191 413.907 -387.368 418.406 -389.998 422.632C-395.976 430.738 -399.712 440.273 -400.832 450.278C-401.951 460.283 -400.414 470.406 -396.376 479.63C-394.905 482.497 -393.131 485.199 -391.086 487.69C-389.242 483.705 -387.912 480.868 -386.612 478C-385.312 475.132 -383.982 471.479 -382.38 468.339C-379.357 462.543 -373.644 459.554 -368.989 455.448C-367.568 454.24 -365.992 453.225 -364.304 452.429C-362.71 451.808 -361.06 451.343 -359.377 451.04C-358.657 453.145 -358.39 455.377 -358.591 457.592C-360.041 461.44 -361.716 465.2 -363.609 468.852C-369.004 480.448 -370.159 493.566 -366.873 505.925C-364.213 516.521 -356.656 522.559 -347.618 527.057C-343.779 529.02 -341.572 527.661 -340.786 523.042C-339.791 516.772 -339.126 510.453 -338.791 504.113C-338.459 497.713 -337.25 492.34 -330.962 488.777C-326.468 485.764 -322.195 482.435 -318.176 478.815C-315.455 476.701 -314.79 474.528 -317.057 471.63C-318.333 469.66 -319.747 467.783 -321.289 466.014C-325.219 462.422 -326.307 457.531 -327.667 452.882C-333.894 431.447 -331.597 410.194 -325.824 389.061C-324.804 384.228 -324.068 379.339 -323.617 374.42L-330.328 377.288L-330.116 377.469ZM-30.4955 680.148L-26.989 684.193C-26.4814 678.382 -26.941 672.526 -28.3492 666.865C-29.77 663.695 -41.6496 659.77 -44.612 661.521C-44.9801 661.793 -45.3149 662.107 -45.6095 662.457C-59.7864 676.254 -64.1997 692.979 -60.1794 712.028C-59.8806 714.265 -59.0274 716.392 -57.6972 718.216C-56.367 720.04 -54.6019 721.503 -52.562 722.474C-51.6639 721.254 -50.8363 719.984 -50.0832 718.67C-45.0368 708.088 -38.962 698.027 -31.9464 688.631C-30.4048 686.639 -30.9489 683.016 -30.5559 680.118L-30.4955 680.148ZM278.889 594.229C276.501 596.312 274.052 598.335 271.755 600.539C268.883 603.376 266.132 606.365 262.686 609.837C258.485 574.636 254.888 556.522 250.595 550.001L235.239 586.953C237.809 586.953 239.562 587.799 241.557 585.142C244.727 581.777 248.231 578.742 252.016 576.085C253.145 580.042 253.974 584.079 254.495 588.161C255.039 603.437 254.948 618.743 255.674 634.019C256.611 654.185 258.062 674.321 259.392 694.397C259.808 697.451 260.414 700.476 261.205 703.454L267.704 696.179C268.702 701.009 268.883 701.16 265.528 704.783C264.316 705.927 263.406 707.353 262.879 708.932C262.352 710.512 262.223 712.198 262.505 713.839C263.563 720.572 264.47 727.334 265.86 734.006C266.384 737.529 267.868 740.84 270.15 743.577C272.432 746.314 275.424 748.371 278.798 749.523L293.912 736.089C293.899 734.896 293.799 733.705 293.61 732.527C290.859 717.432 287.987 702.549 285.388 687.514C284.39 681.748 283.695 675.922 283.272 670.095C282.365 657.687 281.821 645.249 281.035 632.841C280.249 620.433 279.342 607.09 278.466 594.199C282.577 593.293 279.947 598.516 283.665 598.938L280.823 588.946C282.002 588.946 283.604 589.308 284.239 588.674C289.015 584.055 293.519 579.195 298.265 574.515C300.129 572.905 302.077 571.394 304.099 569.987C305.096 571.345 305.761 571.889 305.822 572.462C307.414 587.899 308.956 603.316 310.447 618.713C310.436 619.633 310.08 620.516 309.449 621.188C307.061 623.513 307.545 626.32 307.908 629.128C308.331 632.63 308.391 636.192 309.147 639.604C309.903 643.015 309.328 647.362 312.714 651.076C315.344 646.819 317.913 643.196 319.938 639.302C327.344 625.052 338.529 614.033 350.318 603.588C355.063 599.361 357.784 600.086 359.386 606.003C362.197 616.388 364.615 626.924 367.215 637.37C367.699 639.302 368.152 641.204 368.908 644.253L394.39 610.229C390.823 607.21 387.558 603.889 383.931 601.172C380.304 598.455 376.979 601.595 373.291 602.591C371.945 600.57 370.753 598.451 369.724 596.252C368.833 593.277 368.117 590.253 367.578 587.195L362.983 593.987C356.454 587.617 349.925 582.938 345.632 576.689C340.008 568.319 335.296 559.372 331.576 550.001C325.682 535.42 320.875 520.386 315.555 505.563C314.808 503.839 313.95 502.165 312.986 500.551C311.402 503.459 310.319 506.613 309.782 509.88C307.122 523.223 304.472 536.567 301.832 549.911C301.534 551.292 301.12 552.645 300.592 553.956C295.635 566.545 290.889 579.255 280.974 589.097L278.889 594.229ZM-7.46167 309.029C-6.5246 304.048 -5.73865 300.486 -5.19455 296.953C-3.47156 285.663 -6.85709 274.704 -7.37097 263.534C-8.18469 250.845 -11.352 238.417 -16.7115 226.884C-19.432 220.846 -22.9384 214.808 -29.9513 211.608C-30.9322 212.639 -31.8507 213.728 -32.7021 214.868C-36.4695 220.596 -38.9734 227.059 -40.0475 233.827C-40.5677 236.481 -41.8007 238.944 -43.6144 240.952C-47.665 246.235 -52.8944 251.247 -52.9247 259.066C-52.9247 264.198 -56.7334 267.489 -60.4515 270.387C-64.895 273.828 -69.5199 276.998 -74.1145 280.259L-83.9689 287.142L-85.2989 286.206C-84.1805 275.398 -78.4069 265.073 -80.5531 253.783C-82.2938 255.682 -83.759 257.816 -84.906 260.122C-93.2489 276.425 -101.471 292.787 -109.844 309.12C-116.668 322.566 -125.505 334.895 -136.052 345.679C-142.097 351.717 -147.69 358.027 -153.796 363.793C-158.569 368.381 -163.616 372.676 -168.91 376.654C-171.073 378.466 -173.768 379.526 -176.588 379.673C-183.359 379.34 -187.5 384.805 -193.274 386.495C-194.241 386.767 -195.027 389.212 -195.087 390.662C-195.087 395.341 -195.087 400.05 -194.845 404.76C-194.543 417.47 -194.422 430.179 -193.939 442.859C-193.941 449.16 -192.92 455.42 -190.916 461.395C-190.281 460.822 -190.039 460.701 -190.009 460.52C-185.354 439.387 -180.759 418.255 -175.923 397.122C-175.379 394.393 -173.994 391.902 -171.963 389.997C-163.983 383.386 -155.67 377.227 -147.387 371.008C-145.597 370.031 -143.7 369.261 -141.735 368.714C-143.186 375.386 -143.881 380.79 -145.513 385.741C-149.806 398.964 -154.975 411.915 -157.151 425.681C-159.207 438.844 -159.237 452.037 -153.947 464.535C-149.594 474.89 -142.642 475.645 -134.51 468.429C-125.976 461.175 -120.131 451.265 -117.915 440.293C-116.49 432.918 -115.711 425.433 -115.587 417.923C-115.786 414.195 -114.916 410.488 -113.08 407.237C-111.243 403.986 -108.517 401.325 -105.219 399.567C-102.801 398.209 -102.529 396.126 -104.766 394.586C-110.509 390.571 -112.414 384.503 -113.351 378.223C-114.288 371.944 -113.925 365.061 -114.953 358.57C-116.434 349.513 -112.383 342.117 -107.879 334.871C-106.924 333.243 -105.831 331.697 -104.615 330.252C-94.0953 318.569 -83.455 307.007 -72.9961 295.203C-69.3132 291.147 -64.2229 288.643 -58.7587 288.199C-44.2794 286.568 -30.7675 290.493 -17.981 297.255C-17.3803 297.559 -16.8495 297.984 -16.4227 298.504C-15.9959 299.023 -15.6824 299.627 -15.5023 300.274C-15.3512 304.591 -11.8145 305.557 -7.46167 309.029ZM-43.7353 552.084C-43.433 546.771 -43.161 542.816 -42.9796 538.861C-42.8302 533.774 -44.3587 528.779 -47.3298 524.644C-50.301 520.51 -54.5502 517.465 -59.4237 515.978C-69.1075 513.496 -79.3618 514.567 -88.3217 518.997C-89.941 520.082 -91.4229 521.36 -92.735 522.801C-86.6894 526.484 -85.571 531.858 -84.5735 537.563C-83.531 544.324 -83.7978 551.221 -85.3594 557.881C-88.3822 573.157 -93.4303 587.406 -106.821 597.127C-110.932 600.464 -114.867 604.011 -118.61 607.754C-116.834 609.865 -114.948 611.88 -112.958 613.792C-103.889 621.52 -92.5234 623.332 -81.4902 623.241C-73.3588 623.241 -65.0159 619.92 -57.3077 616.931C-52.5922 615.09 -47.1813 612.584 -46.4861 606.003C-46.1389 604.897 -45.3671 603.975 -44.3399 603.437C-37.3875 599.21 -30.3745 595.104 -22.3641 590.395C-42.4053 618.441 -70.729 633.988 -98.8109 648.902L-87.7776 695.786C-81.732 687.363 -76.8048 678.759 -70.1547 671.635C-63.5045 664.51 -55.0406 659.197 -47.7254 653.249C-48.1789 651.619 -48.3603 650.683 -48.6928 649.808C-50.441 645.65 -50.9574 641.079 -50.1804 636.637C-49.4034 632.195 -47.3657 628.07 -44.3097 624.75C-39.4618 618.688 -34.2426 612.93 -28.6818 607.512C-14.1723 593.776 0.216248 579.829 17.023 568.749C21.1038 566.062 26.3937 563.466 28.147 559.511C29.9002 555.556 28.812 549.337 28.419 544.205C28.2087 539.997 27.4047 535.841 26.031 531.858C23.2198 524.672 18.1415 522.469 10.7659 524.371C3.19 526.377 -3.48087 530.889 -8.15692 537.171C-9.62057 539.024 -10.4166 541.316 -10.4166 543.677C-10.4166 546.037 -9.62057 548.329 -8.15692 550.183C-4.40866 554.862 -4.43887 555.254 -8.48944 559.239C-9.63812 560.417 -10.6356 561.715 -11.7843 562.862C-16.8626 567.753 -21.7898 572.825 -27.1401 577.383C-30.7373 580.402 -37.4177 580.704 -39.5941 578.108C-40.9161 576.553 -41.6741 574.599 -41.7454 572.561C-41.8167 570.523 -41.1972 568.52 -39.9871 566.877C-35.5133 559.722 -31.0698 552.507 -26.0519 545.745C-22.5153 540.914 -18.0717 536.688 -13.0237 531.163C-18.8577 535.39 -23.4221 538.68 -27.9563 542.031C-32.4905 545.382 -36.0272 550.726 -43.6144 552.084H-43.7353ZM-221.537 639.936C-225.648 643.679 -229.275 647.302 -233.295 650.502C-237.316 653.702 -238.374 659.559 -244.691 661.914C-244.933 656.117 -245.145 651.015 -245.326 646.547L-262.405 654.608C-260.894 660.042 -259.11 665.355 -258.022 670.819C-257.422 673.365 -257.643 676.034 -258.653 678.447C-259.662 680.859 -261.409 682.892 -263.644 684.254C-268.451 687.605 -273.317 690.896 -277.761 694.669C-288.25 703.726 -298.467 713.024 -308.866 722.142C-312.372 725.16 -316.09 727.998 -319.597 730.866C-314.488 742.308 -301.46 751.123 -289.761 750.097C-283.474 749.554 -276.612 748.316 -273.741 740.889C-270.506 732.587 -266.879 724.436 -263.856 716.134C-260.177 706.204 -255.163 696.82 -248.954 688.239C-247.679 686.702 -246.783 684.889 -246.336 682.944C-245.89 680.999 -245.907 678.976 -246.384 677.038C-248.107 671.725 -245.236 669.099 -241.638 666.563C-233.961 661.189 -226.252 655.856 -218.514 650.562C-213.436 647.06 -213.012 647.211 -210.292 652.555C-209.828 653.355 -209.324 654.131 -208.781 654.879C-206.302 653.37 -204.186 651.861 -201.919 650.804C-201.417 650.633 -200.882 650.582 -200.357 650.656C-199.832 650.729 -199.331 650.925 -198.896 651.227C-198.59 651.66 -198.378 652.152 -198.274 652.672C-198.17 653.192 -198.176 653.728 -198.291 654.246C-198.58 655.383 -199.215 656.403 -200.108 657.165C-201.001 657.928 -202.109 658.395 -203.279 658.502C-209.325 659.831 -209.325 660.072 -208.176 666.11C-205.909 678.608 -203.43 691.046 -201.224 703.575C-199.954 710.971 -198.956 718.398 -197.959 725.855C-197.022 732.829 -196.81 739.953 -195.208 746.746C-193.478 752.66 -193.478 758.945 -195.208 764.86L-207.058 772.92C-200.347 779.32 -199.017 787.351 -197.989 795.653C-197.227 802.43 -196.005 809.147 -194.332 815.759C-193.092 820.62 -193.304 826.114 -189.163 830.642C-184.941 827.441 -180.904 824.004 -177.071 820.348C-172.7 815.55 -168.603 810.511 -164.799 805.253C-164.111 804.033 -163.815 802.631 -163.952 801.238C-164.315 785.751 -164.768 770.264 -165.161 754.776C-165.161 753.871 -165.343 752.693 -164.859 752.12C-160.234 746.595 -161.05 740.044 -162.018 733.855C-164.681 717.383 -166.035 700.727 -166.068 684.042C-166.068 676.556 -167.247 668.948 -167.519 661.582C-167.519 659.197 -167.277 655.544 -165.766 654.547C-160.778 651.045 -158.149 645.309 -152.98 642.109C-152.462 641.805 -152.019 641.388 -151.684 640.89C-151.349 640.392 -151.13 639.825 -151.043 639.232C-150.956 638.638 -151.003 638.032 -151.182 637.459C-151.36 636.886 -151.664 636.36 -152.073 635.92C-152.586 634.984 -153.442 634.282 -154.462 633.961C-155.481 633.64 -156.586 633.726 -157.544 634.2C-161.081 635.498 -164.527 637.038 -168.124 638.124C-180.215 641.777 -192.306 645.762 -205.214 645.611C-206.785 645.611 -209.083 645.611 -209.808 644.706C-213.012 640.66 -217.879 641.506 -221.537 639.936ZM-115.739 460.58L-117.582 459.826C-121.21 462.663 -125.079 465.29 -128.465 468.46C-140.726 480.487 -154.187 491.23 -168.638 500.521C-174.925 504.385 -177.706 504.325 -183.449 496.989C-184.353 495.618 -185.027 494.108 -185.444 492.521C-187.591 486.483 -189.707 480.686 -191.943 474.407C-198.428 477.999 -204.271 482.641 -209.234 488.143C-213.738 492.913 -216.307 493.366 -223.169 490.589C-223.42 489.271 -223.601 487.94 -223.713 486.604C-224.408 474.86 -225.013 463.116 -225.738 451.403C-225.523 447.381 -226.334 443.372 -228.096 439.75L-267.211 482.951C-262.617 482.377 -260.259 478.06 -255.12 479.147C-249.981 480.234 -249.619 485.034 -247.019 487.69C-241.608 486.996 -238.313 480.898 -232.389 483.222C-233.265 488.083 -233.265 488.083 -236.953 488.475C-244.147 489.26 -246.203 491.343 -246.807 498.528C-246.959 500.159 -247.17 501.789 -247.352 503.449C-250.586 533.337 -253.397 563.255 -255.483 593.233C-255.554 595.549 -255.381 597.866 -254.969 600.146C-253.699 608.388 -252.339 616.66 -250.918 625.596L-243.633 628.615C-242.757 622.577 -241.88 617.475 -241.306 612.403C-240.006 600.72 -238.948 588.885 -234.384 577.957C-228.158 561.951 -223.215 545.476 -219.602 528.688C-219.164 526.438 -218.119 524.35 -216.579 522.65C-211.923 518.365 -207.04 514.334 -201.949 510.574C-201.196 510.086 -200.34 509.78 -199.447 509.681C-198.555 509.581 -197.652 509.69 -196.81 510C-196.167 510.6 -195.653 511.324 -195.3 512.128C-194.946 512.933 -194.761 513.801 -194.755 514.68C-194.725 517.159 -194.928 519.635 -195.359 522.076L-172.688 510.755C-172.274 510.519 -171.922 510.188 -171.66 509.789C-168.063 505.14 -162.592 505.019 -157.604 504.687C-156.333 504.595 -155.056 504.762 -153.85 505.177C-152.645 505.592 -151.536 506.247 -150.592 507.102C-147.56 510.327 -145.243 514.154 -143.79 518.333C-143.125 520.627 -145.695 523.827 -146.813 526.635C-147.065 527.451 -147.237 528.291 -147.327 529.14C-146.727 529.305 -146.105 529.377 -145.483 529.352C-143.669 528.869 -141.856 528.356 -140.102 527.722C-128.374 523.495 -116.615 519.087 -103.829 520.476C-101.864 520.814 -99.8461 520.648 -97.9637 519.993C-96.0813 519.338 -94.3965 518.216 -93.0675 516.733C-91.7677 515.38 -90.3846 514.109 -88.9263 512.929C-81.732 506.891 -75.0516 500.37 -65.3786 498.317C-58.7889 496.928 -57.7914 495.298 -57.9425 488.596C-57.9425 486.271 -58.3959 483.917 -58.668 481.592C-59.7562 471.781 -61.0862 461.969 -61.8722 452.127C-62.4163 445.335 -63.0813 438.934 -70.6081 436.006C-71.6056 435.614 -72.3613 434.497 -73.2077 433.651C-79.0115 427.795 -79.2533 424.202 -74.2052 417.802C-72.452 415.598 -70.4872 413.545 -68.6735 411.402C-67.9178 410.526 -66.4366 409.258 -66.6784 408.654C-68.3712 404.035 -65.1368 400.171 -64.4718 395.764C-66.9807 395.764 -69.006 396.126 -71.001 396.035C-79.1928 395.613 -81.0972 397.182 -81.2181 405.485C-81.3693 416.745 -81.7925 428.066 -81.2181 439.327C-80.8399 450.156 -78.7379 460.856 -74.9912 471.026C-73.4495 474.799 -71.9684 478.573 -70.457 482.136L-103.194 510.302C-111.386 494 -113.169 477.154 -115.739 460.58ZM57.9216 498.77C59.1912 507.163 60.6119 514.257 61.2769 521.442C62.1838 530.952 60.7933 540.794 66.2646 549.518C66.6017 550.005 66.8389 550.553 66.9622 551.132C67.0854 551.71 67.0924 552.308 66.9828 552.889C66.8731 553.47 66.6489 554.024 66.3233 554.518C65.9976 555.012 65.577 555.437 65.0857 555.768C63.8766 557.152 63.2391 558.943 63.3022 560.779C63.22 572.29 64.6633 583.761 67.5945 594.893C70.7869 604.216 75.1224 613.109 80.502 621.369C81.1143 622.657 81.6296 623.989 82.0436 625.354L80.7438 625.988L66.6877 602.652C58.7075 606.486 57.6193 608.297 60.1887 614.909C61.6846 618.344 63.4326 621.663 65.4182 624.841C67.5643 628.645 69.8919 632.388 72.5217 636.917C64.4207 642.14 60.0375 650.653 51.3621 655.423L35.4017 627.558C27.0588 633.596 19.5622 639.121 11.7029 644.223C5.65732 648.087 1.00217 652.072 1.93921 660.193C2.18106 662.457 1.12311 664.661 3.81339 666.231C4.81091 666.834 5.17361 668.555 5.71774 669.793C8.55917 676.284 7.22919 682.684 5.47595 689.144C4.6759 691.343 4.24686 693.659 4.20633 695.997C4.65976 703.454 5.50616 710.881 6.35254 719.636L12.8818 716.255C13.7887 721.628 14.8164 727.395 15.6628 733.161C15.7472 734.543 15.6042 735.93 15.2396 737.266C14.3136 740.665 13.5769 744.112 13.033 747.591C12.6702 751.939 10.0101 753.991 6.68506 756.165C2.36243 759.184 -1.80902 762.414 -5.95026 765.705C-6.4339 766.097 -6.37347 767.214 -6.73621 768.724L20.862 757.01L19.8947 747.38C26.1821 743.546 26.2123 743.546 27.6935 735.455C28.0261 733.614 28.2074 731.742 28.6004 729.9C28.727 728.378 29.2629 726.918 30.1514 725.675C31.0399 724.431 32.2481 723.45 33.6485 722.836C35.5217 721.622 36.9611 719.847 37.7595 717.764C42.203 708.466 46.4349 699.047 50.7878 689.688C51.5737 687.967 52.541 686.337 53.8105 683.65L32.8928 689.446C32.3785 687.735 32.3433 685.916 32.7909 684.187C33.2385 682.457 34.1519 680.883 35.4319 679.635C43.0796 670.578 49.5786 660.283 59.6144 653.008C58.9493 655.272 58.3146 657.536 57.5891 659.951C64.6417 660.007 71.55 657.956 77.4266 654.062C83.3032 650.167 87.8796 644.606 90.5679 638.094C95.6083 624.605 97.6705 610.188 96.6135 595.829C96.2214 591.771 95.5956 587.739 94.7394 583.753C92.9257 584.478 91.7166 584.78 90.8702 585.293C88.2706 586.682 86.3662 585.474 84.5525 583.783C82.7388 582.093 83.4341 579.919 84.5525 578.017C86.0337 575.33 87.7264 572.794 89.0565 570.047C90.3394 568.143 91.1002 565.936 91.2631 563.647C89.9029 553.684 88.2404 543.752 86.2755 533.91C84.5828 525.639 82.2552 517.487 80.0485 509.336C79.2324 506.317 80.0485 504.446 83.5852 502.634C86.608 510.846 89.6308 518.635 92.9559 527.812C92.7824 520.112 91.1624 512.514 88.1799 505.412C87.0312 501.97 85.157 499.132 80.774 499.162C78.6301 499.052 76.595 498.185 75.0307 496.717C70.829 492.521 66.718 493.547 62.3651 496.143C60.7328 497.079 58.9796 498.196 57.9216 498.77ZM377.825 268.606L378.127 266.794C376.253 265.466 374.349 264.198 372.535 262.809C369.059 260.092 365.432 257.526 362.227 254.477C358.938 251.46 355.97 248.111 353.371 244.484C352.875 243.616 352.213 242.853 351.422 242.24C350.63 241.627 349.726 241.176 348.76 240.912C347.795 240.649 346.786 240.578 345.793 240.704C344.8 240.83 343.841 241.15 342.972 241.646C340.361 242.689 337.925 244.125 335.748 245.903C328.614 251.941 321.782 258.462 314.588 264.621C304.28 273.496 290.647 276.183 278.828 269.572C269.185 264.168 266.737 258.039 271.846 248.198C273.105 245.663 274.668 243.291 276.501 241.133C281.458 235.488 286.597 230.023 291.615 224.529C298.325 217.314 305.399 210.37 311.777 202.883C317.55 196.091 317.188 194.521 311.263 188C310.5 187.112 309.649 186.302 308.724 185.585C301.016 180.211 293.307 174.807 285.478 169.614C283.424 168.703 281.26 168.063 279.04 167.712C279.04 170.339 279.04 171.879 279.342 173.448C279.644 175.018 279.765 176.86 280.158 180.181L272.511 175.441C271.906 177.735 271.422 179.698 270.909 181.66L266.465 181.479C265.044 185.253 269.004 189.479 264.016 192.558C262.868 190.777 261.901 188.996 260.691 187.396C258.727 184.86 256.883 187.758 255.039 188.241V180.543C249.205 183.743 244.126 186.581 239.048 189.328C233.97 192.075 233.516 192.347 236.237 198.083C241.523 209.381 245.871 221.093 249.235 233.103C253.255 246.869 257.729 260.515 262.414 274.07C264.39 278.836 266.682 283.466 269.276 287.927C269.859 289.078 270.795 290.013 271.948 290.595C273.102 291.176 274.411 291.373 275.684 291.157C289.075 290.102 302.527 292.169 314.981 297.195C316.943 297.585 318.979 297.33 320.785 296.47C322.273 295.741 323.632 294.772 324.805 293.602C334.529 285.021 346.057 278.728 358.54 275.187C365.19 273.496 371.447 270.9 377.825 268.696V268.606ZM63.0604 212.815C63.3664 213.484 63.72 214.13 64.1183 214.748C64.7153 215.475 65.3617 216.161 66.0529 216.8C70.9727 221.037 74.9066 226.296 77.5798 232.21C80.253 238.123 81.6011 244.548 81.5297 251.035C82.0436 267.73 82.769 284.425 84.5525 301.029C85.9255 309.095 88.1653 316.99 91.2329 324.577C92.5025 328.381 94.2557 328.532 97.611 325.815C99.8782 323.943 101.964 321.799 104.11 319.777C104.067 322.089 103.388 324.346 102.145 326.298C101.148 328.139 99.1224 330.071 99.2736 331.732C100.104 336.748 101.204 341.717 102.568 346.615L107.284 345.045C107.768 349.453 108.191 353.649 108.674 358.298C109.771 357.32 110.783 356.249 111.697 355.098C120.411 341.917 126.725 327.302 130.348 311.927C133.734 296.32 135.275 280.289 138.6 264.651C140.867 253.843 135.003 247.473 128.504 239.926C122.852 245.963 117.713 251.518 111.758 258.039C110.695 255.831 109.952 253.483 109.551 251.065C109.26 242.453 111.891 233.996 117.017 227.065C122.156 220.635 128.02 214.778 133.159 208.378C137.754 202.642 142.228 197.389 151.054 201.645C153.048 188.005 153.797 174.212 153.291 160.437C145.25 163.154 138.177 166.777 131.043 167.592C123.909 168.407 115.929 166.445 108.312 165.69C106.407 175.894 108.705 197.298 112.544 204.936H116.262C115.957 206.934 115.826 208.954 115.869 210.974C116.836 219.608 112.423 225.767 106.8 231.412C104.987 233.254 103.173 235.095 101.39 236.997C99.1392 239.041 97.1126 241.318 95.3439 243.79C93.3804 246.956 90.5184 249.468 87.1219 251.005C80.5322 234.703 80.109 217.344 75.0307 200.317C71.5544 203.668 68.9851 206.355 66.2041 208.861C65.0842 210.12 64.0347 211.441 63.0604 212.815ZM-156.123 314.765C-162.471 310.267 -168.214 306.312 -173.837 302.206C-179.104 298.218 -185.204 295.465 -191.682 294.153C-198.161 292.842 -204.852 293.004 -211.259 294.629C-214.937 295.403 -218.398 296.977 -221.397 299.238C-224.396 301.5 -226.859 304.394 -228.611 307.715C-230.363 311.035 -231.361 314.701 -231.533 318.45C-231.705 322.199 -231.048 325.94 -229.608 329.407C-225.134 341.483 -215.914 348.759 -204.639 353.559C-200.884 354.893 -197.021 355.903 -193.092 356.578C-188.588 357.664 -184.024 359.597 -179.52 359.597C-171.602 358.902 -163.744 357.651 -156.002 355.853C-152.654 355.129 -149.551 353.549 -146.998 351.268C-144.444 348.987 -142.526 346.084 -141.432 342.841C-138.621 336.139 -135.387 329.558 -132.364 323.007C-121.98 301.446 -113.24 279.133 -106.217 256.258C-104.373 250.22 -102.982 244.182 -101.38 238.326C-103.671 238.567 -105.854 239.423 -107.698 240.801L-127.346 254.537C-129.41 256.276 -131.845 257.523 -134.463 258.182C-137.082 258.841 -139.817 258.896 -142.46 258.341C-144.022 257.978 -145.664 258.25 -147.025 259.096C-149.605 261.32 -152.058 263.689 -154.37 266.19C-144.999 274.462 -133.482 278.689 -124.444 288.138L-156.123 314.765ZM368.122 743.123C366.987 741.883 365.431 741.107 363.756 740.945C362.081 740.783 360.406 741.247 359.054 742.248C353.25 745.689 347.385 749.071 341.37 752.15C332.302 756.708 326.256 764.377 318.82 771.652C321.178 772.86 322.78 773.796 324.473 774.52C331.459 777.421 337.603 782.03 342.337 787.924C346.448 793.057 350.438 798.34 354.036 803.834C361.895 815.91 369.422 827.986 377.13 840.061C379.045 843.602 381.894 846.552 385.368 848.59C388.843 850.628 392.81 851.678 396.839 851.624C400.133 851.624 403.398 852.077 406.693 852.137C408.96 852.137 411.257 851.835 414.129 851.624C408.235 821.435 408.083 791.245 399.468 762.112C394.541 767.909 394.541 767.909 388.405 763.773C390.752 752.468 396.026 741.975 403.7 733.342C408.507 728.179 413.101 722.866 417.847 717.643C419.57 715.741 421.444 713.96 423.469 711.877L418.452 702.549C400.315 718.881 400.315 719.123 394.844 732.738C394.148 734.489 393.755 736.331 393.09 738.082C391.139 744.154 387.061 749.321 381.604 752.633C380.233 753.525 379.001 754.614 377.946 755.863C372.263 761.901 366.611 767.939 360.958 773.977L359.567 773.494C359.439 771.845 359.561 770.186 359.93 768.573C361.521 764.427 363.389 760.392 365.522 756.497C367.82 752.439 368.732 747.745 368.122 743.123ZM-128.102 702.398C-131.62 710.954 -133.457 720.107 -133.513 729.357C-133.163 745.784 -131.932 762.18 -129.825 778.475C-127.014 797.796 -130.157 816.272 -134.51 834.809C-135.961 840.846 -134.057 844.952 -127.89 846.462C-124.689 847.196 -121.45 847.75 -118.187 848.122C-100.413 850.326 -81.2181 834.446 -77.1978 818.748C-74.7493 809.268 -73.4496 799.517 -71.787 789.857C-70.2151 780.8 -68.7642 771.743 -67.4039 762.837C-66.6784 757.886 -64.895 753.025 -65.4089 747.048C-67.653 748.333 -69.9984 749.434 -72.4218 750.338C-76.1358 751.661 -80.029 752.414 -83.9689 752.573C-86.4688 752.341 -88.9661 753.04 -90.9818 754.535C-96.5438 758.52 -102.196 762.384 -108.665 766.882C-110.723 764.488 -112.395 761.789 -113.623 758.882C-116.645 746.806 -118.61 734.549 -121.482 722.504C-122.963 716.134 -123.447 709.583 -128.102 702.398ZM182.28 176.075L184.245 177.977C184.938 176.764 185.748 175.622 186.663 174.565C192.527 168.98 193.313 169.222 200.9 171.999C206.766 174.357 212.931 175.891 219.219 176.558C235.663 177.705 250.595 172.09 264.742 164.241C266.872 162.952 268.679 161.194 270.026 159.101C271.372 157.008 272.222 154.636 272.511 152.165C275.322 137.432 274.173 123.545 262.958 112.134C262.475 111.62 262.052 111.047 261.598 110.503C259.093 107.237 255.899 104.562 252.242 102.668C248.585 100.774 244.555 99.7076 240.439 99.5447C237.416 99.3334 234.393 98.9107 231.37 98.5183C221.062 97.1597 212.387 99.4843 206.19 108.662C200.84 116.632 194.915 124.24 189.383 132.089C188.143 133.798 187.259 135.738 186.784 137.795C183.927 150.359 182.417 163.191 182.28 176.075ZM-260.078 283.761C-262.042 287.836 -263.856 291.308 -265.458 294.931C-268.481 301.603 -271.262 308.275 -274.013 315.037C-280.602 331.369 -287.373 347.672 -293.6 364.155C-299.078 378.751 -301.005 394.437 -299.223 409.922C-298.563 413.845 -297.675 417.726 -296.563 421.545C-285.63 408.177 -273.229 396.076 -259.594 385.469C-246.384 374.933 -231.119 367.567 -214.917 360.532C-217.577 358.6 -219.239 357.302 -220.962 356.155C-229.118 351.315 -235.183 343.623 -237.981 334.57C-238.691 332.581 -239.711 330.716 -241.004 329.045C-245.719 322.101 -245.961 319.173 -240.399 312.833C-233.416 304.924 -226.131 297.255 -218.544 289.919C-212.922 284.485 -206.634 279.776 -199.289 273.617C-201.737 274.118 -204.159 274.743 -206.544 275.489C-215.612 279.142 -224.953 282.644 -233.749 286.78C-242.545 290.916 -251.009 289.829 -260.078 283.761ZM18.7158 446.784C18.2019 448.837 16.751 451.342 17.4765 452.399C19.6975 456.353 22.7128 459.807 26.3333 462.543C29.9304 464.807 30.807 467.071 29.6281 470.482C29.3113 471.368 29.3064 472.336 29.6141 473.225C29.9219 474.114 30.5239 474.872 31.3209 475.373C40.1172 483.464 49.6391 489.743 62.3953 488.475C65.66 488.143 67.3225 486.754 66.718 483.494C65.9647 480.052 64.9543 476.672 63.6952 473.381C59.6622 462.472 58.9161 450.623 61.549 439.297C64.2847 429.823 67.5237 420.501 71.2522 411.371C72.9752 406.632 75.0911 402.013 77.5093 396.277C74.8883 396.871 72.2334 397.304 69.5594 397.575C64.2695 397.726 58.3448 400.594 54.4454 394.375C54.0222 393.771 52.6317 393.892 51.8458 393.409C48.8229 391.658 46.0118 389.786 43.1703 387.975C44.8027 383.537 46.1931 379.884 48.0673 374.661C44.4702 376.382 42.0217 377.438 39.6941 378.706C34.0997 382.275 27.5573 384.074 20.9225 383.869C17.5436 383.495 14.1238 383.804 10.8674 384.78C7.61099 385.755 4.58481 387.375 1.96948 389.545C-3.8591 393.43 -8.97223 398.292 -13.1445 403.915L18.7158 446.784ZM172.879 400.232C173.342 396.402 174.361 392.659 175.902 389.122C178.09 385.227 179.264 380.847 179.317 376.382C180.258 366.773 182.792 357.387 186.814 348.608C189.502 340.795 194.33 333.892 200.749 328.683C208.88 322.645 216.8 316.335 224.932 310.176C231.521 305.165 231.612 305.195 229.012 297.316C224.277 282.805 219.46 268.294 214.563 253.783C213.738 251.832 212.789 249.937 211.722 248.107C209.727 258.1 207.823 266.221 206.492 274.613C204.044 290.1 200.024 304.803 190.109 317.573C184.517 324.728 180.013 332.668 172.486 339.158C169.814 334.973 167.892 330.356 166.803 325.513C164.989 317.965 163.297 310.418 161.15 302.901C159.758 298.994 158.112 295.182 156.223 291.489C154.017 295.233 152.566 297.527 151.266 299.972C142.983 315.248 134.852 330.645 124.061 344.472C119.043 350.993 114.267 357.695 109.46 364.397C108.83 365.622 108.352 366.919 108.04 368.261C110.085 367.332 111.996 366.134 113.723 364.699C118.173 361.985 123.436 360.917 128.595 361.68C132.283 361.921 133.492 364.699 135.245 367.295C135.602 367.971 136.136 368.538 136.792 368.933C137.447 369.328 138.198 369.537 138.963 369.537C139.728 369.537 140.479 369.328 141.135 368.933C141.79 368.538 142.325 367.971 142.681 367.295C143.279 366.356 143.747 365.34 144.072 364.276C162.359 369.499 166.863 385.409 172.728 400.292L172.879 400.232ZM196.336 623.935C202.381 620.916 208.004 619.226 210.664 613.822C213.777 607.514 216.473 601.009 218.735 594.35C226.171 572.16 228.68 548.884 232.73 525.971C233.365 522.499 233.275 518.936 233.758 515.434C234.116 513.694 233.978 511.888 233.358 510.223C232.738 508.557 231.661 507.099 230.252 506.015C224.69 501.698 219.037 497.472 213.324 493.396C211.754 492.648 210.084 492.13 208.367 491.857C208.367 494.483 208.578 496.385 208.669 498.257L202.623 495.781C202.14 506.68 210.513 510.393 216.982 515.555C210.211 518.574 206.22 517.276 203.409 511.631C202.619 509.698 201.604 507.864 200.386 506.166C199.14 504.729 198.323 502.97 198.029 501.091C197.735 499.212 197.976 497.288 198.724 495.54C200.914 488.289 205.468 481.977 211.661 477.607C213.649 476.457 215.359 474.885 216.67 473.002C217.982 471.118 218.862 468.97 219.249 466.709L198.089 454.844C196.844 457.571 195.832 460.399 195.066 463.297C193.383 471.372 192.162 479.537 191.409 487.751C191.077 495.802 191.208 503.866 191.802 511.902C192.225 520.959 192.769 530.197 193.646 539.284C194.542 555.044 197.229 570.652 201.656 585.806C202.472 588.251 204.407 591.512 200.386 594.863C199.661 591.844 199.056 589.399 198.512 586.983C197.364 581.73 196.457 576.387 195.006 571.194C193.706 566.545 186.24 564.794 184.517 568.84C182.189 574.304 178.229 579.315 178.471 585.866C178.425 591.511 180.044 597.045 183.126 601.776C184.387 603.637 185.104 605.813 185.195 608.058C185.285 610.303 184.747 612.53 183.64 614.486C183.187 615.573 182.552 616.569 181.887 617.807C187.932 617.807 191.439 609.988 198.663 614.969C193.736 616.509 195.278 619.769 196.185 623.996L196.336 623.935ZM475.008 691.499C464.58 700.315 454.514 708.768 444.538 717.402C443.287 718.634 441.759 719.55 440.082 720.075C438.406 720.6 436.628 720.719 434.896 720.421C433.462 720.243 432.018 720.153 430.573 720.149C430.966 722.685 431.298 724.768 431.631 726.821C433.687 740.044 436.014 753.237 437.677 766.49C439.914 783.245 441.516 800.091 443.722 816.846C445.248 827.304 449.409 837.204 455.813 845.616C463.159 840.212 471.23 837.828 478.545 833.541C486.525 828.861 489.216 823.457 488.097 814.702C486.828 804.951 486.465 795.079 485.528 785.268C485.45 783.425 484.759 781.661 483.563 780.256C480.328 777.237 470.867 779.803 469.265 784.03C468.897 785.341 468.03 786.457 466.85 787.139C465.67 787.822 464.269 788.017 462.947 787.683C464.942 793.721 464.942 793.721 460.59 796.377L454.151 792.03C454.483 781.222 459.562 772.256 464.882 763.35C467.421 759.124 470.142 754.988 472.53 750.671C472.964 750.004 473.257 749.256 473.392 748.472C473.527 747.688 473.501 746.885 473.315 746.112C471.069 742.002 468.502 738.075 465.638 734.368C465.407 733.862 465.041 733.428 464.579 733.117C464.117 732.805 463.578 732.626 463.021 732.601C462.465 732.576 461.912 732.706 461.424 732.975C460.936 733.244 460.532 733.643 460.257 734.127C459.713 734.791 458.443 734.851 456.509 735.576C459.532 727.636 465.366 723.5 470.111 718.398C474.857 713.296 479.875 708.375 484.53 703.605L475.008 691.499ZM5.17365 381.303C5.05481 380.126 4.47983 379.043 3.57156 378.284C0.334717 375.494 -1.89273 371.719 -2.76685 367.539C-3.64096 363.36 -3.11319 359.009 -1.26495 355.159C0.184814 351.463 2.22665 348.026 4.78067 344.985C13.6677 334.962 22.9175 325.181 31.9859 315.46C37.1247 310.026 42.6564 304.924 47.8557 299.489C49.4156 298.057 50.475 296.163 50.8785 294.085C51.6946 279.323 50.2739 264.953 41.2357 252.394C38.3943 248.469 36.4294 248.348 32.4998 251.307C30.571 252.582 28.5502 253.712 26.4542 254.688C25.5474 256.469 24.9428 260.273 23.0687 261.028C17.5974 263.202 17.0231 267.79 15.9046 272.228C12.5795 284.485 9.1033 296.682 5.89914 308.939C5.39322 311.596 5.13013 314.294 5.11319 316.999C0.938232 321.99 -2.96674 327.2 -6.58505 332.607C-12.4054 342.251 -19.0933 351.346 -26.5658 359.778C-29.5886 363.219 -32.6114 366.902 -35.6342 370.736L-28.8329 371.099C-28.5911 376.593 -28.5306 381.695 -28.0772 386.797C-27.9574 388.848 -27.2433 390.82 -26.0217 392.473C-23.1519 395.45 -20.1248 398.272 -16.9533 400.926C-9.54742 394.194 -1.35562 388.427 5.17365 381.303ZM133.885 666.17C135.91 658.08 137.452 650.532 139.93 643.226C141.089 640.456 143.032 638.085 145.522 636.404C152.233 631.362 159.246 626.773 166.138 622.003C167.141 621.401 167.903 620.47 168.295 619.368C168.686 618.267 168.683 617.064 168.284 615.965C166.44 608.478 164.566 600.871 163.418 593.323C161.302 579.406 159.699 565.398 157.825 551.45C157.523 549.247 156.979 547.073 156.495 544.658C147.808 545.439 139.299 547.589 131.285 551.028C129.823 551.505 128.57 552.471 127.738 553.764C126.907 555.056 126.547 556.596 126.721 558.122C126.932 563.043 126.963 567.994 126.721 572.885C126.478 590.593 121.477 607.912 112.241 623.03C110.218 625.587 109.17 628.779 109.286 632.037C109.403 635.294 110.675 638.404 112.876 640.811C119.194 648.932 125.663 656.963 132.101 664.963C132.615 665.459 133.208 665.867 133.854 666.17H133.885ZM492.027 701.341C499.674 708.043 502.576 716.617 506.113 724.738C506.807 726.916 506.911 729.239 506.415 731.47C505.75 736.149 506.415 737.78 510.829 738.323C518.248 739.471 525.75 740.006 533.258 739.923C542.326 739.47 550.699 736.542 555.536 727.455C557.772 723.869 560.278 720.458 563.032 717.251L564.272 718.066L552.181 745.237L590.691 734.67C589.95 732.463 589.092 730.296 588.122 728.179C580.078 713.473 568.469 701.017 554.357 691.952C552.412 690.648 550.323 689.574 548.13 688.752C543.626 687.061 541.903 687.575 539.062 691.56C532.135 701.845 524.018 711.28 514.879 719.666C510.345 715.772 509.861 712.058 513.7 707.288C519.232 700.284 525.096 693.552 530.537 686.488C536.589 678.673 543.584 671.636 551.364 665.536C554.387 663.091 557.41 660.615 560.765 657.959C557.742 651.921 554.992 646.517 551.697 639.845C546.619 646.759 542.205 652.404 538.125 658.321C532.182 667.345 524.882 675.4 516.481 682.201C508.592 688.299 500.672 694.579 492.027 701.341ZM-126.198 549.458C-128.846 548.39 -131.589 547.572 -134.389 547.013C-153.735 545.231 -170.179 553.05 -185.777 563.345C-191.481 567.448 -196.914 571.915 -202.04 576.719C-203.967 578.031 -205.494 579.849 -206.453 581.972C-208.75 590.546 -210.564 599.271 -212.499 607.935C-212.495 609.525 -212.24 611.104 -211.743 612.614C-205.486 609.263 -205.486 609.263 -201.133 609.988C-199.712 616.237 -197.445 618.592 -191.218 620.101C-189.172 620.657 -187.092 621.08 -184.991 621.369C-175.09 622.848 -164.973 621.682 -155.67 617.988C-156.004 605.426 -153.21 592.978 -147.538 581.761C-141.886 570.47 -133.422 561.292 -126.198 549.458ZM460.862 494.392C464.368 491.977 466.242 490.015 465.305 486.302C462.796 476.49 465.305 467.282 468.812 458.165C472.322 449.944 477.163 442.356 483.14 435.704C484.681 433.863 485.89 431.749 487.644 429.183C485.759 428.565 483.842 428.051 481.9 427.644C474.912 426.547 468.201 424.117 462.131 420.489C453.506 415.73 445.616 409.751 438.704 402.737C435.027 398.342 430.478 394.754 425.344 392.201L429.969 406.209C428.88 407.175 427.55 408.503 426.099 409.62C420.507 413.907 414.915 418.224 409.232 422.36C407.72 423.293 406.516 424.648 405.769 426.259C405.022 427.869 404.765 429.663 405.03 431.417C406.119 439.78 407.025 448.203 408.053 456.565C408.529 458.617 409.145 460.635 409.897 462.603C411.357 460.812 412.943 459.127 414.643 457.561C418.965 454.271 419.177 454.391 423.711 457.561C425.537 459.02 427.576 460.191 429.757 461.033C438.227 463.286 445.515 468.686 450.131 476.128C450.584 476.852 451.43 477.818 452.065 477.818C453.909 477.818 453.849 478.362 454.181 480.083C455.098 485.36 457.403 490.299 460.862 494.392ZM175.418 412.549L173.604 412.881C173.242 415.356 172.788 417.802 172.546 420.277C171.549 430.813 167.861 439.75 158.793 446.059C154.954 448.716 151.81 452.339 148.213 455.388C139.84 462.543 131.436 469.728 122.912 476.732C120.336 478.674 117.652 480.469 114.871 482.105C117.713 498.347 120.373 513.834 123.154 529.291C123.569 530.978 124.104 532.632 124.756 534.242C132.948 530.831 140.323 527.057 148.122 524.703C151.119 524.156 153.799 522.5 155.626 520.065C157.453 517.63 158.293 514.596 157.977 511.57C157.977 508.068 158.309 504.536 158.551 501.004C158.914 496.566 159.669 492.128 159.639 487.66C159.639 477.547 167.377 473.864 174.118 468.49C174.693 470.784 175.116 472.384 175.66 474.528C176.355 473.411 176.839 472.988 176.778 472.626C176.326 470.325 176.628 467.939 177.641 465.824C178.654 463.708 180.323 461.975 182.401 460.882C186.722 457.506 190.71 453.725 194.311 449.591C185.877 438.059 178.411 426.466 175.418 412.549ZM-139.74 225.374C-138.531 221.178 -137.745 218.34 -136.868 215.533C-136.334 212.767 -135.311 210.119 -133.845 207.713C-129.95 202.723 -125.62 198.086 -120.908 193.857C-114.862 188.664 -108.333 184.075 -101.803 179.486C-100.718 178.79 -99.813 177.847 -99.1617 176.735C-98.5103 175.623 -98.1312 174.372 -98.0551 173.086C-96.4228 154.58 -94.6999 136.104 -93.3094 117.568C-92.8559 111.53 -94.0953 110.111 -100.534 109.839C-107.537 109.492 -114.555 109.613 -121.542 110.202C-130.611 111.047 -133.392 114.277 -133.241 123.394C-133.162 125.962 -134.058 128.464 -135.75 130.398C-139.126 134.586 -142.265 138.961 -145.15 143.501C-146.115 145.082 -146.439 146.972 -146.057 148.784C-144.758 153.222 -143.911 158.444 -141.009 161.675C-134.964 168.195 -137.261 175.35 -137.986 182.264C-138.772 191.139 -140.798 199.925 -141.795 208.8C-143.009 214.358 -142.284 220.164 -139.74 225.254V225.374ZM-97.6017 344.804C-97.904 351.445 -98.297 356.125 -98.3272 360.834C-98.2542 363.181 -97.9093 365.511 -97.2994 367.778C-94.8812 377.68 -90.8004 381.031 -80.6438 381.605C-79.0165 381.786 -77.3741 381.786 -75.7469 381.605C-58.8494 378.586 -43.161 372.97 -30.6768 360.472C-28.0053 358.189 -26.2343 355.031 -25.6805 351.563C-25.1266 348.095 -25.8262 344.543 -27.654 341.543C-28.8864 339.265 -30.3665 337.128 -32.0674 335.173C-45.1259 319.626 -62.8697 316.546 -81.732 317.06C-83.8891 317.124 -85.9689 317.877 -87.6662 319.208C-89.3635 320.539 -90.5891 322.378 -91.1631 324.456C-93.6116 331.822 -95.8788 339.219 -97.6017 344.804ZM500.914 501.97C497.027 504.197 492.987 506.144 488.823 507.797C484.651 509.125 479.452 508.4 476.006 510.604C472.56 512.808 470.353 517.94 467.209 521.352C461.345 527.752 455.118 533.759 449.073 540.16C439.33 550.43 428.437 559.547 416.608 567.33C411.529 570.772 405.816 574.123 400.012 566.968C399.217 572.085 399.839 577.322 401.81 582.111C403.782 586.9 407.028 591.06 411.197 594.138C417.756 591.784 419.812 582.696 428.729 585.082L433.354 599.452C439.764 599.984 446.216 599.192 452.307 597.127C456.116 595.859 457.748 593.957 457.204 589.942C456.418 584.115 456.237 578.198 455.148 572.462C454.32 569.162 454.471 565.693 455.582 562.477C456.693 559.261 458.716 556.437 461.406 554.349C464.247 551.933 466.665 549.005 469.295 546.288L482.293 532.763C483.322 535.337 484.131 537.993 484.712 540.703C485.558 549.579 486.162 558.485 486.858 567.39C487.19 571.194 487.583 574.968 487.916 578.772C492.463 571.477 495.171 563.19 495.805 554.62C497.579 540.19 499.251 525.749 500.823 511.298C501.01 508.203 501.04 505.099 500.914 502V501.97ZM392.607 557.669C392.456 555.776 392.204 553.891 391.851 552.024C389.832 546.518 388.196 540.879 386.954 535.148C385.675 524.981 382.947 515.049 378.853 505.653C378.268 503.697 378.063 501.648 378.248 499.615C378.523 497.533 378.664 495.436 378.672 493.336C376.577 475.627 373.121 458.106 368.334 440.927C367.57 439.358 367.382 437.571 367.802 435.877C368.222 434.184 369.223 432.691 370.631 431.659C372.91 429.346 375.021 426.874 376.948 424.262C381.543 419.251 386.349 414.421 390.823 409.168C392.265 407.702 393.069 405.728 393.06 403.673C391.927 398.997 390.524 394.391 388.858 389.877C370.117 404.005 355.849 421.908 335.173 430.24C335.597 438.542 342.761 439.146 346.63 442.98C341.31 447.206 341.34 447.206 343.607 453.969C344.484 456.656 345.209 459.373 346.086 462.06C353.794 485.698 361.018 509.487 371.538 532.099C376.583 542.064 383.754 550.802 392.546 557.7L392.607 557.669ZM285.146 521.442C285.625 520.736 286.059 520 286.446 519.238C292.098 504.778 297.781 490.377 303.222 475.886C304.097 473.801 304.236 471.48 303.615 469.305C302.346 466.286 302.527 461.244 296.753 462.361C296.421 462.361 295.363 460.912 295.393 460.158C295.007 457.472 295.298 454.733 296.24 452.188C299.36 447.87 302.742 443.746 306.366 439.84L311.988 433.108C301.56 427.07 296.119 417.651 291.04 408.775C285.66 414.511 281.035 420.157 275.684 424.987C265.195 434.436 254.283 443.402 243.552 452.58C242.343 453.606 241.255 454.784 239.653 456.324C250.746 464.444 263.079 471.147 269.397 483.253C275.715 495.358 279.765 508.37 285.085 521.563L285.146 521.442ZM106.498 465.863C111.728 467.856 113.148 468.007 118.045 465.622C124.998 462.21 131.829 458.497 138.661 454.814C139.944 454.256 141.007 453.29 141.684 452.067C143.618 446.331 146.581 440.534 146.792 434.678C147.119 427.014 145.74 419.373 142.756 412.305C139.771 405.237 135.255 398.917 129.532 393.801C121.37 386.163 111.697 385.62 101.783 392.624C96.009 396.669 94.7394 403.009 92.7141 408.896C89.6173 417.201 88.6015 426.138 89.7554 434.925C90.9092 443.713 94.1976 452.085 99.334 459.312C100.356 460.466 101.525 461.481 102.81 462.331C105.44 453.274 117.924 441.35 128.595 436.821C129.925 444.731 128.897 446.421 122.549 446.18C120.04 454.784 112.574 459.342 106.438 465.984L106.498 465.863ZM333.843 643.679L331.818 643.468C330.488 645.883 329.128 648.268 327.828 650.683C321.782 662.034 321.51 674.533 320.755 686.91C320.635 692.295 321.938 697.616 324.533 702.337C326.921 707.288 329.279 712.873 326.861 718.489C324.863 723.305 322.296 727.866 319.213 732.074C313.885 739.201 308.174 746.034 302.104 752.542C299.081 755.712 298.144 758.037 301.197 761.448C301.468 761.782 301.655 762.174 301.744 762.594C301.834 763.014 301.822 763.449 301.711 763.863C299.172 767.969 301.711 771.471 302.829 776.603C308.054 772.258 313.011 767.6 317.671 762.656C324.862 754.316 332.816 746.665 341.43 739.802L356.544 727.364C353.975 720.934 351.496 715.107 349.29 709.251C343.758 694.397 341.279 678.85 338.378 663.393C337.199 656.721 335.385 650.23 333.843 643.679ZM534.165 483.675L532.109 484.007C530.986 486.963 530.057 489.988 529.328 493.064C528.179 499.766 527.575 506.559 526.487 513.261C524.945 522.771 523.675 532.371 521.408 541.699C517.841 556.311 508.592 567.813 498.586 578.379C490.969 586.47 486.495 594.742 488.943 606.033C489.85 610.048 490.092 614.214 490.818 619.679C493.387 617.173 494.898 615.784 496.289 614.305C498.858 611.558 501.246 608.659 503.876 605.942C511.494 598.033 519.564 590.485 526.789 582.214C534.231 573.897 538.417 563.177 538.578 552.024C538.724 546.62 539.249 541.233 540.15 535.903C540.726 533.499 541.751 531.225 543.173 529.201C546.619 523.676 551.485 518.453 545.319 511.751C544.896 511.298 544.956 510.393 544.714 509.729C542.175 502.423 539.666 495.117 536.976 487.871C536.186 486.38 535.244 484.974 534.165 483.675ZM29.3561 571.225C26.5317 572.233 23.7838 573.444 21.134 574.847C11.854 580.734 2.48334 586.531 -6.40372 592.961C-11.6165 596.571 -16.2621 600.936 -20.1877 605.912C-22.023 608.153 -23.269 610.817 -23.8125 613.661C-24.356 616.505 -24.1799 619.439 -23.3002 622.198C-22.4204 624.957 -20.8649 627.452 -18.7747 629.459C-16.6846 631.465 -14.1259 632.918 -11.3309 633.686C0.0348511 636.947 10.3427 634.23 20.2877 628.917C23.7941 627.045 26.9077 624.449 30.3234 622.396C31.5745 621.751 32.5932 620.733 33.2379 619.483C33.8826 618.233 34.1212 616.813 33.9205 615.422C33.1648 605.58 32.8625 595.708 32.0162 585.866C31.6837 581.217 30.4745 576.719 29.3561 571.225ZM-177.585 209.163C-178.765 208.883 -179.97 208.732 -181.182 208.71C-182.579 208.874 -183.957 209.178 -185.293 209.615C-199.609 214.074 -213.339 220.226 -226.192 227.94C-233.9 232.559 -238.283 247.775 -234.898 256.107C-232.54 261.934 -227.794 263.534 -222.806 265.526C-220.837 266.613 -218.549 266.976 -216.339 266.551C-214.13 266.126 -212.139 264.941 -210.715 263.202C-209.297 261.483 -207.515 260.099 -205.498 259.149C-203.48 258.199 -201.277 257.707 -199.047 257.707C-192.222 257.365 -185.565 255.476 -179.58 252.183C-177.826 251.532 -176.331 250.329 -175.322 248.755C-174.313 247.181 -173.845 245.321 -173.988 243.458C-174.071 240.904 -174.416 238.365 -175.016 235.88C-176.829 228.786 -178.825 221.782 -177.374 214.355C-177.259 212.622 -177.33 210.881 -177.585 209.163ZM417.545 699.198L396.022 618.169C392.848 622.003 390.37 624.479 388.465 627.226C385.719 631.304 383.304 635.595 381.241 640.056C379.367 644.283 373.593 646.759 375.528 652.676C370.57 655.181 372.082 660.132 372.656 663.514C375.209 678.4 380.399 692.712 387.982 705.779L402.189 707.832L417.545 699.198ZM168.768 840.937C171.549 839.035 174.421 836.741 177.564 834.899C178.938 834.25 180.063 833.17 180.767 831.824C181.47 830.478 181.715 828.94 181.464 827.442C180.527 815.759 179.922 804.045 179.045 792.362C178.169 780.679 176.99 768.211 176.023 755.924C175.539 753.657 175.804 751.295 176.778 749.191C179.378 745.81 177.776 743.153 176.778 740.134C173.937 731.953 171.307 723.711 168.526 715.53C167.68 713.024 166.591 710.579 165.08 706.745L154.077 739.47C155.498 745.206 157.553 749.825 157.674 754.565C158.017 769.338 157.926 784.11 157.402 798.883C156.844 807.997 157.577 817.144 159.579 826.054C160.63 832.003 163.917 837.327 168.768 840.937ZM565.753 793.902C580.595 790.098 594.167 775.547 592.958 764.618C589.935 765.645 587.185 766.701 584.283 767.637C580.716 768.724 576.968 770.656 573.491 770.415C559.738 769.116 547.677 774.49 535.344 778.988C529.479 781.162 528.693 782.007 530.598 787.713C532.986 794.898 529.751 799.427 525.096 803.955C519.051 797.917 518.023 792.845 521.559 786.294C523.827 782.037 526.396 777.932 529.419 772.739L518.234 776.211C517.188 776.407 516.242 776.959 515.559 777.774C514.875 778.589 514.496 779.616 514.486 780.679C513.609 797.947 519.595 812.891 529.812 826.416C530.162 827.042 530.653 827.579 531.246 827.983C531.839 828.388 532.518 828.651 533.229 828.75C533.941 828.85 534.665 828.783 535.347 828.556C536.028 828.33 536.648 827.948 537.157 827.442C539.754 825.13 542.132 822.583 544.261 819.835C545.137 818.808 545.168 816.997 546.135 816.182C552.194 810.784 556.19 803.454 557.44 795.441C557.731 794.299 558.178 793.201 558.77 792.181C560.07 789.675 561.793 789.524 563.849 791.366C564.56 792.151 565.198 793 565.753 793.902ZM216.014 617.867C214.805 618.471 213.989 618.622 213.596 619.105C208.639 625.354 203.47 631.513 198.905 638.064C197.501 640.493 196.908 643.306 197.212 646.094C198.535 666.531 202.717 686.682 209.636 705.96C211.56 710.748 213.981 715.322 216.861 719.606C219.611 723.742 222.423 724.406 225.929 722.987C227.85 722.467 229.509 721.252 230.582 719.577C231.655 717.903 232.065 715.89 231.733 713.93C231.552 709.251 230.433 704.269 231.733 699.952C233.758 692.767 229.254 687.333 228.408 680.993C223.45 678.578 225.022 673.838 224.478 669.884C223.887 663.345 222.877 656.851 221.455 650.442C219.128 641.825 217.68 632.994 217.133 624.086C216.77 622.124 216.377 620.162 216.014 617.867ZM129.109 707.53L127.567 707.198C121.521 719.877 115.476 732.587 109.43 745.206C108.061 748.431 106.217 751.433 103.959 754.112C94.8905 763.592 85.4594 772.83 75.9678 781.947C71.1313 786.596 65.9018 790.822 60.4003 795.623C62.5767 802.657 68.5316 807.91 74.6377 813.283C75.4993 812.882 76.3194 812.396 77.0862 811.834C87.2428 802.536 98.6388 794.445 106.921 783.185C111.643 777.637 115.701 771.558 119.013 765.071C122.66 755.65 125.571 745.96 127.718 736.089C129.953 726.738 130.425 717.053 129.109 707.53ZM-268.693 818.929C-264.931 813.796 -263.042 807.531 -263.342 801.178C-263.614 797.223 -263.947 791.94 -258.113 790.128C-257.417 789.917 -257.115 788.136 -256.873 787.109C-256.571 785.509 -256.662 783.788 -256.239 782.219C-254.727 776.181 -249.558 774.822 -245.296 779.2C-244.442 780.255 -243.721 781.41 -243.15 782.641C-245.508 786.717 -251.765 788.83 -248.379 795.411C-246.838 794.415 -245.356 793.479 -243.815 792.392C-240.55 790.098 -237.467 787.502 -234.051 785.509C-232.551 784.855 -231.345 783.67 -230.664 782.183C-229.984 780.696 -229.877 779.01 -230.363 777.449C-231.572 770.535 -232.147 763.531 -232.721 756.527C-233.45 744.823 -235.405 733.227 -238.555 721.93C-239.19 719.787 -240.248 717.734 -241.578 714.836C-248.047 731.5 -253.095 747.682 -260.501 762.716C-267.907 777.751 -277.912 792.03 -287.283 807.487L-268.693 818.929ZM-253.941 456.656C-240.943 443.553 -226.222 397.424 -230.122 383.808C-231.18 383.808 -232.298 383.808 -233.447 383.959C-242.563 385.018 -251.412 387.718 -259.564 391.929C-264.061 394.19 -267.587 398.001 -269.488 402.658C-271.388 407.315 -271.535 412.502 -269.902 417.258L-263.493 414.602C-265.095 418.074 -266.093 420.036 -266.879 422.058C-268.143 424.243 -268.926 426.672 -269.176 429.183C-269.114 431.703 -268.547 434.184 -267.508 436.481C-266.47 438.778 -264.982 440.844 -263.131 442.557L-253.034 435.885L-252.521 436.7L-262.254 446.089L-253.941 456.656ZM80.4415 670.85C76.8141 677.552 72.824 684.163 69.499 691.107C67.3991 695.199 66.2242 699.702 66.0571 704.298C65.89 708.894 66.7347 713.47 68.5317 717.704C72.9449 728.33 77.459 738.897 82.0739 749.403C82.6481 750.701 84.0386 751.606 85.5198 753.207C92.17 740.768 98.7899 729.055 101.994 716.043C103.717 708.919 104.775 701.703 101.148 694.699C96.4624 685.642 89.389 678.488 82.5272 671.152C82.4063 670.85 82.104 671.001 80.4415 670.85ZM436.105 486.241C434.472 476.973 419.056 469.667 410.774 473.622C410.774 475.464 410.774 477.335 410.774 479.177C410.985 487.388 413.494 489.532 421.807 488.506C424.376 488.204 426.915 487.721 429.455 487.328L429.817 488.868C426.583 490.075 423.409 491.404 420.144 492.491C414.401 494.392 413.131 495.721 414.099 501.547C415.073 508.281 416.703 514.904 418.966 521.321C421.343 526.712 424.39 531.784 428.034 536.416C428.721 537.288 429.598 537.992 430.598 538.473C431.599 538.954 432.697 539.201 433.807 539.194C438.464 538.404 442.687 535.983 445.717 532.364C448.747 528.746 450.387 524.167 450.342 519.45C450.856 508.914 446.896 499.766 442.846 490.528C441.606 487.841 440.095 485.426 436.105 486.151V486.241ZM261.296 339.068C257.798 337.658 254.471 335.855 251.381 333.694C247.494 329.992 243.802 326.093 240.318 322.011C239.078 320.682 237.869 318.992 236.297 318.418C230.977 316.969 220.428 322.101 217.496 327.143C213.007 334.883 210.042 343.408 208.76 352.261C208.604 354.27 208.604 356.289 208.76 358.298C213.022 356.94 216.528 355.763 220.095 354.766C226.571 352.694 233.161 351.001 239.834 349.694C251.925 347.853 264.016 346.675 276.108 345.377C285.871 344.23 285.871 344.26 287.746 334.841C288.016 333.706 288.227 332.557 288.38 331.4C288.743 326.298 284.572 324.758 281.277 322.735C277.982 320.713 275.926 322.735 273.962 324.969C270.032 329.226 266.163 333.603 261.296 339.068ZM-55.2825 967.159C-51.4527 960.871 -47.2432 954.822 -42.6774 949.045C-36.9429 943.105 -30.8883 937.481 -24.5405 932.2C-19.9761 928.124 -15.1699 924.35 -10.5752 920.305C-8.45923 918.464 -6.31302 916.622 -7.06873 913.18C-8.39877 907.142 -9.45676 901.286 -10.5752 895.55C-15.5635 894.54 -20.6121 893.855 -25.6892 893.497C-36.1783 893.497 -36.3294 893.738 -39.2011 903.761C-44.5515 922.539 -49.8716 941.287 -59.1819 958.646C-60.1183 960.8 -60.8963 963.02 -61.5094 965.287L-55.2825 967.159ZM-10.8472 530.076L25.5171 501.789C2.06015 489.924 -14.4443 471.388 -30.8884 452.489C-31.361 460.789 -30.4207 469.108 -28.1074 477.094L-42.9192 493.215C-29.9211 493.215 -29.9211 493.215 -22.9989 498.045L-9.45673 492.158C-8.8717 494.406 -8.47736 496.698 -8.27783 499.011C-8.68811 502.74 -8.82956 506.493 -8.70102 510.242C-7.65964 516.934 -8.43204 523.783 -10.9379 530.076H-10.8472ZM506.053 661.551C510.587 668.465 511.373 668.887 517.962 665.506C522.316 663.163 526.507 660.531 530.507 657.627C531.744 656.589 532.543 655.122 532.744 653.521C533.427 649.337 533.508 645.078 532.986 640.872C532.431 637.018 530.879 633.376 528.482 630.305C526.086 627.234 522.929 624.841 519.323 623.362C510.889 619.92 503.664 622.456 496.5 626.381C494.132 627.672 492.241 629.689 491.109 632.136C489.977 634.582 489.663 637.327 490.213 639.966C490.576 642.079 490.727 644.192 491.271 646.245C492.359 651.597 494.829 656.571 498.435 660.676C502.939 660.676 504.481 654.638 509.68 656.238L506.053 661.551ZM-325.703 721.689C-319.657 717.583 -314.7 714.232 -309.772 710.73C-305.306 706.96 -300.579 703.51 -295.626 700.405C-291.968 698.533 -290.396 696.511 -291.364 692.888C-292.576 688.399 -294.101 684.001 -295.928 679.725C-296.716 678.035 -298.139 676.723 -299.888 676.073C-306.154 674.155 -312.535 672.633 -318.992 671.514C-324.342 670.669 -327.819 673.235 -329.935 678.216C-336.162 692.858 -332.655 706.564 -325.703 721.689ZM-278.366 493.034C-283.262 487.449 -287.887 482.437 -292.18 477.184C-293.009 476.065 -294.218 475.286 -295.581 474.992C-296.944 474.697 -298.367 474.908 -299.586 475.584C-304.876 477.305 -304.755 481.864 -305.359 485.849C-306.599 494.181 -307.596 502.574 -308.382 510.966C-309.621 523.254 -310.982 535.571 -307.324 547.737C-306.203 547.57 -305.071 547.489 -303.938 547.496C-302.706 547.725 -301.494 548.048 -300.311 548.462C-298.981 545.05 -297.923 541.971 -296.623 539.043C-293.872 532.824 -292.603 525.699 -285.409 522.318C-284.657 521.777 -284.034 521.077 -283.585 520.268C-283.135 519.459 -282.87 518.561 -282.809 517.638C-282.672 514.361 -283.091 511.085 -284.048 507.947C-286.557 500.551 -286.769 500.642 -281.026 495.66C-280.33 494.906 -279.514 494.091 -278.366 493.034ZM-63.7463 117.84C-64.5511 119.689 -65.2476 121.584 -65.8321 123.515C-67.1017 129.553 -68.2503 135.591 -69.4292 141.629C-70.6081 147.667 -72.1497 154.067 -72.9961 160.346C-73.8425 166.626 -72.9961 167.803 -66.9505 170.399C-64.0966 171.478 -61.3279 172.77 -58.668 174.264C-57.4366 175.19 -55.9122 175.642 -54.3743 175.536C-52.8364 175.431 -51.3881 174.775 -50.2949 173.69C-49.072 172.55 -47.7349 171.538 -46.3047 170.671C-41.9519 168.497 -41.2264 164.844 -41.8914 160.588C-43.8779 150.655 -44.5386 140.504 -43.8563 130.398C-43.5999 128.993 -43.8511 127.542 -44.5651 126.303C-45.2791 125.065 -46.4096 124.12 -47.7556 123.636C-52.9549 121.704 -58.003 119.953 -63.837 117.84H-63.7463ZM458.594 614.456C451.37 616.569 446.503 622.215 439.339 620.886C439.046 621.865 438.914 622.884 438.946 623.905C442.483 641.264 444.992 658.895 452.73 675.227C454.503 678.802 456.807 682.09 459.562 684.978C460.876 686.352 462.658 687.182 464.556 687.305C466.454 687.428 468.328 686.835 469.809 685.642C473.648 683.227 474.132 681.899 472.651 676.797C468.332 663.684 464.928 650.288 462.464 636.705C461.285 629.4 459.864 622.335 458.594 614.456ZM218.281 200.317L217.586 198.959C215.168 199.411 212.689 199.683 210.301 200.287C202.132 202.678 193.489 202.959 185.182 201.102C177.292 198.928 172.184 201.102 168.042 207.563C166.743 209.585 164.203 210.944 165.02 214.627L172.244 209.676L173.695 210.642C173.363 213.057 172.939 215.472 172.667 217.887C172.153 222.959 170.551 227.94 173.03 232.982C176.416 239.956 179.227 247.201 182.37 254.296C183.358 256.121 184.437 257.894 185.605 259.609C186.512 255.986 187.177 253.813 187.57 251.609C190.344 235.521 198.267 220.765 210.15 209.555C213.052 206.778 215.561 203.457 218.281 200.317ZM315.979 245.42C325.259 247.141 332.695 243.246 339.647 238.114C343.758 235.095 344.363 233.586 341.521 229.269C336.171 221.057 330.276 213.208 324.412 205.298C324.081 204.818 323.645 204.419 323.137 204.132C322.628 203.845 322.061 203.677 321.478 203.642C320.895 203.607 320.312 203.706 319.772 203.93C319.233 204.154 318.752 204.498 318.366 204.936C312.012 210.758 306.025 216.969 300.441 223.533C294.849 230.597 297.419 238.235 305.489 241.888C308.924 243.242 312.425 244.421 315.979 245.42ZM51.6644 306.071C49.0733 307.462 46.5606 308.994 44.1376 310.659C39.7545 314.192 35.4622 317.845 31.3209 321.679C29.051 323.703 27.0225 325.983 25.2753 328.471C23.3199 331.286 22.2722 334.63 22.2722 338.056C22.2722 341.482 23.3199 344.827 25.2753 347.642C27.7921 350.644 31.2393 352.722 35.0717 353.548C38.9041 354.373 42.9027 353.899 46.4349 352.2C48.7567 351.076 50.9988 349.795 53.1456 348.366C57.8309 345.347 58.1937 343.807 57.045 338.373C55.8964 332.939 54.8384 326.871 54.0222 321.075C53.0549 316.728 52.541 312.35 51.6644 306.071ZM209.364 378.012C209.527 387.821 212.358 397.401 217.556 405.726C223.027 401.016 228.136 397.182 232.67 392.714C241.506 384.262 251.731 377.389 262.898 372.397C266.888 370.435 271.06 369.378 275.171 373.061C278.021 375.223 281.056 377.132 284.239 378.767C283.665 371.008 285.146 363.974 282.909 356.547C279.705 358.359 276.863 359.566 274.415 361.378C262.654 369.361 248.794 373.698 234.574 373.846C225.999 373.844 217.482 375.252 209.364 378.012ZM515.756 426.315C513.187 425.914 510.558 426.165 508.112 427.046C505.665 427.927 503.481 429.41 501.76 431.357C495.102 438.876 491.304 448.494 491.029 458.527C490.76 462.778 491.812 467.008 494.042 470.639C496.271 474.27 499.568 477.126 503.483 478.815C507.05 480.113 508.713 479.539 510.133 475.796C513.156 467.916 516.179 460.007 518.96 452.037C519.363 450.464 519.31 448.81 518.809 447.267C518.053 444.55 517.114 441.887 515.997 439.297C514.275 435.372 512.4 431.236 515.756 426.315ZM258.817 427.311C260.752 415.719 258.817 407.839 252.772 401.047C251.731 399.744 250.351 398.753 248.783 398.183C247.215 397.613 245.52 397.486 243.885 397.816C236.536 399.395 229.648 402.638 223.753 407.296C220.73 409.59 221.304 412.096 223.33 414.662C225.541 417.988 228.083 421.083 230.917 423.9C235.112 427.628 239.826 430.73 244.912 433.108C254.071 437.032 257.91 434.376 258.908 427.402L258.817 427.311ZM-49.9019 1020.23L-48.4509 1018.57C-50.9296 1010.21 -51.3226 1001.33 -55.4336 992.548C-62.5372 994.028 -69.3687 995.567 -76.2305 996.835C-82.9923 997.892 -89.064 1001.57 -93.128 1007.07C-94.6698 1009.12 -96.4793 1010.96 -98.5086 1012.53C-99.9304 1013.51 -100.942 1014.97 -101.35 1016.64C-101.757 1018.31 -101.531 1020.08 -100.715 1021.59C-99.3247 1021.59 -97.4506 1022.16 -96.2717 1021.59C-84.8757 1015.13 -72.9961 1015.73 -60.8444 1018.57C-57.2775 1019.45 -53.5595 1019.72 -49.9019 1020.23ZM11.2193 975.22C7.38031 960.125 4.08545 945.875 -2.74609 933.286C-6.25455 934.284 -9.8172 935.08 -13.4166 935.671C-14.4801 935.716 -15.5012 936.101 -16.3286 936.769C-17.1561 937.438 -17.7461 938.355 -18.0113 939.385C-21.0117 947.606 -21.2663 956.577 -18.7368 964.955C-18.2349 966.692 -17.0745 968.165 -15.5023 969.061C-7.49188 971.838 0.427856 975.763 11.2193 975.22ZM-202.795 564.794L-201.224 565.519C-193.757 559.481 -186.109 553.715 -178.915 547.405C-176.524 545.288 -174.901 542.44 -174.3 539.306C-173.698 536.171 -174.152 532.926 -175.59 530.076C-176.143 529.103 -176.904 528.264 -177.818 527.617C-178.732 526.97 -179.778 526.532 -180.88 526.333C-184.856 526.478 -188.717 527.705 -192.046 529.881C-195.376 532.057 -198.047 535.1 -199.773 538.68C-203.067 547.405 -201.193 556.13 -202.947 564.794H-202.795ZM219.188 782.732C214.624 794.083 211.51 804.83 213.929 816.695C216.347 828.559 219.249 839.156 228.831 847.79C230.675 832.242 224.811 792.755 219.188 782.732ZM-9.60788 999.22C-7.76395 1010.21 -6.37347 1019.66 -4.55978 1029.05C-3.53204 1034.3 0.367371 1035.45 4.84113 1032.22C14.5746 1025.24 14.0607 1014.77 15.0582 1004.29L-9.60788 999.22ZM536.794 581.036C528.996 586.229 524.703 594.923 518.144 601.323C517.297 602.139 517.297 603.829 516.783 605.399C517.88 606.021 519.034 606.536 520.229 606.939C528.814 608.629 536.129 612.192 540.754 620.101C541.208 620.886 542.931 620.916 544.593 621.43C541.903 607.452 539.394 594.47 536.794 581.036ZM-13.87 861.798C-11.8448 842.96 -11.9959 822.884 -14.4746 815.729C-21.427 831.065 -24.2383 846.522 -27.8958 862.794L-13.87 861.798ZM-105.491 224.801C-105.219 222.778 -105.008 221.45 -104.826 220.152C-103.768 213.208 -102.741 206.234 -101.803 199.26C-101.41 196.755 -101.622 194.279 -104.312 193.434C-107.003 192.589 -108.484 194.823 -109.663 196.936C-113.965 204.227 -115.976 212.641 -115.436 221.087C-115.013 226.371 -111.356 231.14 -107.486 231.563C-102.408 232.137 -100.897 228.001 -98.8713 224.62C-98.6899 224.318 -98.8713 223.774 -99.0527 223.412L-105.491 224.801ZM185.968 111.409L188.235 112.104C190.32 109.725 192.135 107.123 193.646 104.345C196.245 98.0956 198.422 91.6351 200.386 85.1443C201.031 82.6695 201.134 80.085 200.689 77.5668C200.145 74.1856 197.968 73.3101 195.066 75.212C192.331 76.8399 190.026 79.098 188.343 81.7975C186.66 84.4971 185.649 87.5597 185.393 90.7294C185.227 97.5877 185.419 104.45 185.968 111.288V111.409ZM-141.614 649.355C-141.765 659.136 -143.367 668.404 -140.828 677.914C-134.782 668.585 -123.9 664.842 -117.522 656.057L-141.614 649.355ZM38.092 224.921C26.0008 222.114 28.2981 211.729 24.7614 204.423C20.1063 207.804 18.2624 211.125 19.0181 216.317C19.9552 222.567 19.804 228.997 20.197 235.337C20.197 236.997 20.8016 238.658 21.3759 241.767L38.092 224.921ZM-120.666 563.043C-121.24 563.315 -122.086 563.466 -122.359 563.949C-125.278 568.227 -126.991 573.212 -127.316 578.379C-127.316 587.617 -126.953 596.855 -126.772 606.093C-117.643 599.844 -113.925 574.243 -120.666 563.073V563.043ZM-39.2616 182.385C-45.5793 194.46 -49.3578 212.574 -47.3929 219.427C-42.6169 214.748 -37.9013 210.37 -33.4578 205.57C-32.8361 204.95 -32.3571 204.202 -32.0543 203.378C-31.7516 202.554 -31.6322 201.675 -31.7046 200.8C-33.7601 194.974 -36.3597 189.328 -39.2616 182.385ZM-243.12 803.502C-245.665 810.481 -246.696 817.922 -246.142 825.329C-245.995 826.186 -245.643 826.996 -245.117 827.689C-244.591 828.383 -243.906 828.94 -243.12 829.314C-239.474 830.758 -235.506 831.196 -231.633 830.582C-232.086 812.951 -234.807 806.249 -243.12 803.502ZM211.934 773.313C214.503 770.143 215.38 767.999 213.777 765.463C212.175 762.927 213.294 761.056 215.198 759.425C216.476 758.063 217.839 756.782 219.279 755.591C225.838 750.882 226.171 744.723 223.692 737.055C219.551 739.5 215.652 741.493 212.145 744.029C211.452 744.613 210.891 745.337 210.5 746.155C210.109 746.972 209.897 747.863 209.878 748.769C210.301 756.407 211.148 764.195 211.934 773.222V773.313ZM266.737 827.05L272.39 822.552C269.125 809.117 266.949 796.226 263.079 783.698C260.389 798.128 262.324 812.166 266.737 826.959V827.05ZM242.796 445.818C237.1 443.371 231.593 440.505 226.322 437.244C221.751 433.47 217.467 429.364 213.505 424.957L212.629 425.349L215.652 436.64C222.302 440.625 230.977 443.04 234.967 451.161C237.325 449.44 239.653 447.901 242.796 445.727V445.818ZM129.381 374.601C134.066 377.62 137.905 380.095 141.865 382.48C145.825 384.865 147.911 389.786 153.442 391.295C147.759 378.012 138.6 371.491 129.381 374.51V374.601ZM-124.807 1034.36C-119.218 1034.66 -113.622 1033.92 -108.302 1032.19C-104.312 1031.04 -104.403 1030.74 -106.398 1025.52C-114.741 1022.71 -117.975 1030.1 -124.807 1034.36ZM537.187 631.151C540.996 625.324 537.188 622.275 534.678 618.833C532.17 615.392 529.691 612.343 524.159 612.795L537.187 631.151ZM273.176 828.318C269.639 829.435 268.611 831.337 269.488 833.541C271.415 839.387 274.499 844.787 278.556 849.42C276.863 842.537 275.08 835.624 273.206 828.318H273.176ZM247.3 708.888C252.107 704.451 250.535 700.345 246.393 696.42L247.3 708.888ZM401.161 371.37C406.209 366.329 405.967 365.333 399.347 361.861C398.651 363.443 398.452 365.199 398.776 366.897C399.099 368.595 399.931 370.155 401.161 371.37ZM10.252 1038.56L15.9651 1040.37L16.358 1033.46L15.1187 1032.94C13.8793 1034.45 12.5191 1036.14 10.3729 1038.5L10.252 1038.56ZM-175.076 262.447L-175.983 260.756L-180.336 262.658L-179.943 264.047C-178.94 264.188 -177.923 264.188 -176.92 264.047C-176.195 263.987 -175.651 263.051 -175.076 262.447ZM380.364 710.096L381.936 709.16C380.395 707.319 380.576 704.269 377.13 703.635L380.364 710.096ZM-388.365 680.54L-386.431 681.718L-384.315 678.156L-385.826 677.159L-388.365 680.54ZM30.2025 878.825L28.7817 879.096L29.9606 883.414H30.6862C30.535 881.813 30.3536 880.304 30.2025 878.825Z" fill="#ED6A5E"/>
</svg>
